G04 #@! TF.FileFunction,Legend,Bot*
%FSLAX46Y46*%
G04 Gerber Fmt 4.6, Leading zero omitted, Abs format (unit mm)*
G04 Created by KiCad (PCBNEW 4.0.1-3.201512221402+6198~38~ubuntu14.04.1-stable) date mar 02 feb 2016 20:15:53 CET*
%MOMM*%
G01*
G04 APERTURE LIST*
%ADD10C,0.101600*%
%ADD11C,0.152400*%
%ADD12C,0.300000*%
%ADD13C,0.203200*%
%ADD14C,0.200000*%
%ADD15C,0.609600*%
%ADD16C,0.150000*%
%ADD17C,0.010000*%
%ADD18C,0.304800*%
G04 APERTURE END LIST*
D10*
D11*
X170313047Y-58625619D02*
X169974380Y-59641619D01*
X169635714Y-58625619D01*
X169297047Y-59641619D02*
X169297047Y-58964286D01*
X169297047Y-58625619D02*
X169345428Y-58674000D01*
X169297047Y-58722381D01*
X169248666Y-58674000D01*
X169297047Y-58625619D01*
X169297047Y-58722381D01*
X168813237Y-58964286D02*
X168813237Y-59641619D01*
X168813237Y-59061048D02*
X168764856Y-59012667D01*
X168668094Y-58964286D01*
X168522952Y-58964286D01*
X168426190Y-59012667D01*
X168377809Y-59109429D01*
X168377809Y-59641619D01*
X167216666Y-58625619D02*
X166587714Y-58625619D01*
X166926380Y-59012667D01*
X166781238Y-59012667D01*
X166684476Y-59061048D01*
X166636095Y-59109429D01*
X166587714Y-59206190D01*
X166587714Y-59448095D01*
X166636095Y-59544857D01*
X166684476Y-59593238D01*
X166781238Y-59641619D01*
X167071523Y-59641619D01*
X167168285Y-59593238D01*
X167216666Y-59544857D01*
X166152285Y-59254571D02*
X165378190Y-59254571D01*
X164991142Y-58625619D02*
X164362190Y-58625619D01*
X164700856Y-59012667D01*
X164555714Y-59012667D01*
X164458952Y-59061048D01*
X164410571Y-59109429D01*
X164362190Y-59206190D01*
X164362190Y-59448095D01*
X164410571Y-59544857D01*
X164458952Y-59593238D01*
X164555714Y-59641619D01*
X164845999Y-59641619D01*
X164942761Y-59593238D01*
X164991142Y-59544857D01*
X163975142Y-58722381D02*
X163926761Y-58674000D01*
X163829999Y-58625619D01*
X163588095Y-58625619D01*
X163491333Y-58674000D01*
X163442952Y-58722381D01*
X163394571Y-58819143D01*
X163394571Y-58915905D01*
X163442952Y-59061048D01*
X164023523Y-59641619D01*
X163394571Y-59641619D01*
X163104285Y-58625619D02*
X162765618Y-59641619D01*
X162426952Y-58625619D01*
D12*
X173037428Y-54971143D02*
X171894571Y-54971143D01*
X167195428Y-54971143D02*
X166052571Y-54971143D01*
X166624000Y-55542571D02*
X166624000Y-54399714D01*
D13*
X133531428Y-54029429D02*
X133241142Y-54029429D01*
X133096000Y-54102000D01*
X132950857Y-54247143D01*
X132878285Y-54537429D01*
X132878285Y-55045429D01*
X132950857Y-55335714D01*
X133096000Y-55480857D01*
X133241142Y-55553429D01*
X133531428Y-55553429D01*
X133676571Y-55480857D01*
X133821714Y-55335714D01*
X133894285Y-55045429D01*
X133894285Y-54537429D01*
X133821714Y-54247143D01*
X133676571Y-54102000D01*
X133531428Y-54029429D01*
X131717143Y-54755143D02*
X132225143Y-54755143D01*
X132225143Y-55553429D02*
X132225143Y-54029429D01*
X131499429Y-54029429D01*
X130410857Y-54755143D02*
X130918857Y-54755143D01*
X130918857Y-55553429D02*
X130918857Y-54029429D01*
X130193143Y-54029429D01*
X138103428Y-54029429D02*
X137813142Y-54029429D01*
X137668000Y-54102000D01*
X137522857Y-54247143D01*
X137450285Y-54537429D01*
X137450285Y-55045429D01*
X137522857Y-55335714D01*
X137668000Y-55480857D01*
X137813142Y-55553429D01*
X138103428Y-55553429D01*
X138248571Y-55480857D01*
X138393714Y-55335714D01*
X138466285Y-55045429D01*
X138466285Y-54537429D01*
X138393714Y-54247143D01*
X138248571Y-54102000D01*
X138103428Y-54029429D01*
X136797143Y-55553429D02*
X136797143Y-54029429D01*
X135926286Y-55553429D01*
X135926286Y-54029429D01*
D14*
X159004000Y-92202000D02*
G75*
G03X159004000Y-92202000I-254000J0D01*
G01*
X153162000Y-68072000D02*
G75*
G03X153162000Y-68072000I-254000J0D01*
G01*
D13*
X151093715Y-84001429D02*
X150730858Y-85017429D01*
X150368000Y-84001429D01*
X149860000Y-83638571D02*
X149787429Y-83566000D01*
X149642286Y-83493429D01*
X149279429Y-83493429D01*
X149134286Y-83566000D01*
X149061715Y-83638571D01*
X148989143Y-83783714D01*
X148989143Y-83928857D01*
X149061715Y-84146571D01*
X149932572Y-85017429D01*
X148989143Y-85017429D01*
X148336000Y-84872286D02*
X148263428Y-84944857D01*
X148336000Y-85017429D01*
X148408571Y-84944857D01*
X148336000Y-84872286D01*
X148336000Y-85017429D01*
X147320000Y-83493429D02*
X147174857Y-83493429D01*
X147029714Y-83566000D01*
X146957143Y-83638571D01*
X146884572Y-83783714D01*
X146812000Y-84074000D01*
X146812000Y-84436857D01*
X146884572Y-84727143D01*
X146957143Y-84872286D01*
X147029714Y-84944857D01*
X147174857Y-85017429D01*
X147320000Y-85017429D01*
X147465143Y-84944857D01*
X147537714Y-84872286D01*
X147610286Y-84727143D01*
X147682857Y-84436857D01*
X147682857Y-84074000D01*
X147610286Y-83783714D01*
X147537714Y-83638571D01*
X147465143Y-83566000D01*
X147320000Y-83493429D01*
X146158857Y-84872286D02*
X146086285Y-84944857D01*
X146158857Y-85017429D01*
X146231428Y-84944857D01*
X146158857Y-84872286D01*
X146158857Y-85017429D01*
X145142857Y-83493429D02*
X144997714Y-83493429D01*
X144852571Y-83566000D01*
X144780000Y-83638571D01*
X144707429Y-83783714D01*
X144634857Y-84074000D01*
X144634857Y-84436857D01*
X144707429Y-84727143D01*
X144780000Y-84872286D01*
X144852571Y-84944857D01*
X144997714Y-85017429D01*
X145142857Y-85017429D01*
X145288000Y-84944857D01*
X145360571Y-84872286D01*
X145433143Y-84727143D01*
X145505714Y-84436857D01*
X145505714Y-84074000D01*
X145433143Y-83783714D01*
X145360571Y-83638571D01*
X145288000Y-83566000D01*
X145142857Y-83493429D01*
X153270857Y-82477429D02*
X153778857Y-81751714D01*
X154141714Y-82477429D02*
X154141714Y-80953429D01*
X153561142Y-80953429D01*
X153416000Y-81026000D01*
X153343428Y-81098571D01*
X153270857Y-81243714D01*
X153270857Y-81461429D01*
X153343428Y-81606571D01*
X153416000Y-81679143D01*
X153561142Y-81751714D01*
X154141714Y-81751714D01*
X152400000Y-82477429D02*
X152545142Y-82404857D01*
X152617714Y-82332286D01*
X152690285Y-82187143D01*
X152690285Y-81751714D01*
X152617714Y-81606571D01*
X152545142Y-81534000D01*
X152400000Y-81461429D01*
X152182285Y-81461429D01*
X152037142Y-81534000D01*
X151964571Y-81606571D01*
X151892000Y-81751714D01*
X151892000Y-82187143D01*
X151964571Y-82332286D01*
X152037142Y-82404857D01*
X152182285Y-82477429D01*
X152400000Y-82477429D01*
X151238857Y-82477429D02*
X151238857Y-80953429D01*
X151238857Y-81534000D02*
X151093714Y-81461429D01*
X150803428Y-81461429D01*
X150658285Y-81534000D01*
X150585714Y-81606571D01*
X150513143Y-81751714D01*
X150513143Y-82187143D01*
X150585714Y-82332286D01*
X150658285Y-82404857D01*
X150803428Y-82477429D01*
X151093714Y-82477429D01*
X151238857Y-82404857D01*
X149206857Y-81461429D02*
X149206857Y-82695143D01*
X149279428Y-82840286D01*
X149352000Y-82912857D01*
X149497143Y-82985429D01*
X149714857Y-82985429D01*
X149860000Y-82912857D01*
X149206857Y-82404857D02*
X149352000Y-82477429D01*
X149642286Y-82477429D01*
X149787428Y-82404857D01*
X149860000Y-82332286D01*
X149932571Y-82187143D01*
X149932571Y-81751714D01*
X149860000Y-81606571D01*
X149787428Y-81534000D01*
X149642286Y-81461429D01*
X149352000Y-81461429D01*
X149206857Y-81534000D01*
X147900571Y-82404857D02*
X148045714Y-82477429D01*
X148336000Y-82477429D01*
X148481143Y-82404857D01*
X148553714Y-82259714D01*
X148553714Y-81679143D01*
X148481143Y-81534000D01*
X148336000Y-81461429D01*
X148045714Y-81461429D01*
X147900571Y-81534000D01*
X147828000Y-81679143D01*
X147828000Y-81824286D01*
X148553714Y-81969429D01*
X146521714Y-82477429D02*
X146521714Y-80953429D01*
X146521714Y-82404857D02*
X146666857Y-82477429D01*
X146957143Y-82477429D01*
X147102285Y-82404857D01*
X147174857Y-82332286D01*
X147247428Y-82187143D01*
X147247428Y-81751714D01*
X147174857Y-81606571D01*
X147102285Y-81534000D01*
X146957143Y-81461429D01*
X146666857Y-81461429D01*
X146521714Y-81534000D01*
X145796000Y-81461429D02*
X145796000Y-82477429D01*
X145796000Y-81606571D02*
X145723428Y-81534000D01*
X145578286Y-81461429D01*
X145360571Y-81461429D01*
X145215428Y-81534000D01*
X145142857Y-81679143D01*
X145142857Y-82477429D01*
X143764000Y-82477429D02*
X143764000Y-81679143D01*
X143836571Y-81534000D01*
X143981714Y-81461429D01*
X144272000Y-81461429D01*
X144417143Y-81534000D01*
X143764000Y-82404857D02*
X143909143Y-82477429D01*
X144272000Y-82477429D01*
X144417143Y-82404857D01*
X144489714Y-82259714D01*
X144489714Y-82114571D01*
X144417143Y-81969429D01*
X144272000Y-81896857D01*
X143909143Y-81896857D01*
X143764000Y-81824286D01*
X142385143Y-81461429D02*
X142385143Y-82477429D01*
X143038286Y-81461429D02*
X143038286Y-82259714D01*
X142965714Y-82404857D01*
X142820572Y-82477429D01*
X142602857Y-82477429D01*
X142457714Y-82404857D01*
X142385143Y-82332286D01*
X141877143Y-81461429D02*
X141296572Y-81461429D01*
X141659429Y-80953429D02*
X141659429Y-82259714D01*
X141586857Y-82404857D01*
X141441715Y-82477429D01*
X141296572Y-82477429D01*
D15*
X159076570Y-79610857D02*
X160092570Y-78159429D01*
X160818285Y-79610857D02*
X160818285Y-76562857D01*
X159657142Y-76562857D01*
X159366856Y-76708000D01*
X159221713Y-76853143D01*
X159076570Y-77143429D01*
X159076570Y-77578857D01*
X159221713Y-77869143D01*
X159366856Y-78014286D01*
X159657142Y-78159429D01*
X160818285Y-78159429D01*
X157334856Y-79610857D02*
X157625142Y-79465714D01*
X157770285Y-79320571D01*
X157915428Y-79030286D01*
X157915428Y-78159429D01*
X157770285Y-77869143D01*
X157625142Y-77724000D01*
X157334856Y-77578857D01*
X156899428Y-77578857D01*
X156609142Y-77724000D01*
X156463999Y-77869143D01*
X156318856Y-78159429D01*
X156318856Y-79030286D01*
X156463999Y-79320571D01*
X156609142Y-79465714D01*
X156899428Y-79610857D01*
X157334856Y-79610857D01*
X155012571Y-79610857D02*
X155012571Y-76562857D01*
X155012571Y-77724000D02*
X154722285Y-77578857D01*
X154141714Y-77578857D01*
X153851428Y-77724000D01*
X153706285Y-77869143D01*
X153561142Y-78159429D01*
X153561142Y-79030286D01*
X153706285Y-79320571D01*
X153851428Y-79465714D01*
X154141714Y-79610857D01*
X154722285Y-79610857D01*
X155012571Y-79465714D01*
X151093714Y-79465714D02*
X151384000Y-79610857D01*
X151964571Y-79610857D01*
X152254857Y-79465714D01*
X152400000Y-79175429D01*
X152400000Y-78014286D01*
X152254857Y-77724000D01*
X151964571Y-77578857D01*
X151384000Y-77578857D01*
X151093714Y-77724000D01*
X150948571Y-78014286D01*
X150948571Y-78304571D01*
X152400000Y-78594857D01*
X149642286Y-77578857D02*
X149642286Y-79610857D01*
X149642286Y-77869143D02*
X149497143Y-77724000D01*
X149206857Y-77578857D01*
X148771429Y-77578857D01*
X148481143Y-77724000D01*
X148336000Y-78014286D01*
X148336000Y-79610857D01*
X144852571Y-76562857D02*
X142820571Y-76562857D01*
X144852571Y-79610857D01*
X142820571Y-79610857D01*
X141224000Y-79610857D02*
X141514286Y-79465714D01*
X141659429Y-79320571D01*
X141804572Y-79030286D01*
X141804572Y-78159429D01*
X141659429Y-77869143D01*
X141514286Y-77724000D01*
X141224000Y-77578857D01*
X140788572Y-77578857D01*
X140498286Y-77724000D01*
X140353143Y-77869143D01*
X140208000Y-78159429D01*
X140208000Y-79030286D01*
X140353143Y-79320571D01*
X140498286Y-79465714D01*
X140788572Y-79610857D01*
X141224000Y-79610857D01*
X138901715Y-77578857D02*
X138901715Y-79610857D01*
X138901715Y-77869143D02*
X138756572Y-77724000D01*
X138466286Y-77578857D01*
X138030858Y-77578857D01*
X137740572Y-77724000D01*
X137595429Y-78014286D01*
X137595429Y-79610857D01*
X134837715Y-79610857D02*
X134837715Y-76562857D01*
X134837715Y-79465714D02*
X135128001Y-79610857D01*
X135708572Y-79610857D01*
X135998858Y-79465714D01*
X136144001Y-79320571D01*
X136289144Y-79030286D01*
X136289144Y-78159429D01*
X136144001Y-77869143D01*
X135998858Y-77724000D01*
X135708572Y-77578857D01*
X135128001Y-77578857D01*
X134837715Y-77724000D01*
D11*
X163249429Y-101639914D02*
X163503429Y-101277057D01*
X163684857Y-101639914D02*
X163684857Y-100877914D01*
X163394572Y-100877914D01*
X163322000Y-100914200D01*
X163285715Y-100950486D01*
X163249429Y-101023057D01*
X163249429Y-101131914D01*
X163285715Y-101204486D01*
X163322000Y-101240771D01*
X163394572Y-101277057D01*
X163684857Y-101277057D01*
X162632572Y-101603629D02*
X162705143Y-101639914D01*
X162850286Y-101639914D01*
X162922857Y-101603629D01*
X162959143Y-101531057D01*
X162959143Y-101240771D01*
X162922857Y-101168200D01*
X162850286Y-101131914D01*
X162705143Y-101131914D01*
X162632572Y-101168200D01*
X162596286Y-101240771D01*
X162596286Y-101313343D01*
X162959143Y-101385914D01*
X162160857Y-101639914D02*
X162233429Y-101603629D01*
X162269714Y-101531057D01*
X162269714Y-100877914D01*
X161580286Y-101603629D02*
X161652857Y-101639914D01*
X161798000Y-101639914D01*
X161870571Y-101603629D01*
X161906857Y-101531057D01*
X161906857Y-101240771D01*
X161870571Y-101168200D01*
X161798000Y-101131914D01*
X161652857Y-101131914D01*
X161580286Y-101168200D01*
X161544000Y-101240771D01*
X161544000Y-101313343D01*
X161906857Y-101385914D01*
X160890857Y-101639914D02*
X160890857Y-101240771D01*
X160927143Y-101168200D01*
X160999714Y-101131914D01*
X161144857Y-101131914D01*
X161217428Y-101168200D01*
X160890857Y-101603629D02*
X160963428Y-101639914D01*
X161144857Y-101639914D01*
X161217428Y-101603629D01*
X161253714Y-101531057D01*
X161253714Y-101458486D01*
X161217428Y-101385914D01*
X161144857Y-101349629D01*
X160963428Y-101349629D01*
X160890857Y-101313343D01*
X160564285Y-101603629D02*
X160491714Y-101639914D01*
X160346571Y-101639914D01*
X160273999Y-101603629D01*
X160237714Y-101531057D01*
X160237714Y-101494771D01*
X160273999Y-101422200D01*
X160346571Y-101385914D01*
X160455428Y-101385914D01*
X160527999Y-101349629D01*
X160564285Y-101277057D01*
X160564285Y-101240771D01*
X160527999Y-101168200D01*
X160455428Y-101131914D01*
X160346571Y-101131914D01*
X160273999Y-101168200D01*
X159620857Y-101603629D02*
X159693428Y-101639914D01*
X159838571Y-101639914D01*
X159911142Y-101603629D01*
X159947428Y-101531057D01*
X159947428Y-101240771D01*
X159911142Y-101168200D01*
X159838571Y-101131914D01*
X159693428Y-101131914D01*
X159620857Y-101168200D01*
X159584571Y-101240771D01*
X159584571Y-101313343D01*
X159947428Y-101385914D01*
X158931428Y-101639914D02*
X158931428Y-100877914D01*
X158931428Y-101603629D02*
X159003999Y-101639914D01*
X159149142Y-101639914D01*
X159221714Y-101603629D01*
X159257999Y-101567343D01*
X159294285Y-101494771D01*
X159294285Y-101277057D01*
X159257999Y-101204486D01*
X159221714Y-101168200D01*
X159149142Y-101131914D01*
X159003999Y-101131914D01*
X158931428Y-101168200D01*
X157661428Y-101131914D02*
X157661428Y-101639914D01*
X157987999Y-101131914D02*
X157987999Y-101531057D01*
X157951714Y-101603629D01*
X157879142Y-101639914D01*
X157770285Y-101639914D01*
X157697714Y-101603629D01*
X157661428Y-101567343D01*
X157298570Y-101131914D02*
X157298570Y-101639914D01*
X157298570Y-101204486D02*
X157262285Y-101168200D01*
X157189713Y-101131914D01*
X157080856Y-101131914D01*
X157008285Y-101168200D01*
X156971999Y-101240771D01*
X156971999Y-101639914D01*
X156282570Y-101639914D02*
X156282570Y-100877914D01*
X156282570Y-101603629D02*
X156355141Y-101639914D01*
X156500284Y-101639914D01*
X156572856Y-101603629D01*
X156609141Y-101567343D01*
X156645427Y-101494771D01*
X156645427Y-101277057D01*
X156609141Y-101204486D01*
X156572856Y-101168200D01*
X156500284Y-101131914D01*
X156355141Y-101131914D01*
X156282570Y-101168200D01*
X155629427Y-101603629D02*
X155701998Y-101639914D01*
X155847141Y-101639914D01*
X155919712Y-101603629D01*
X155955998Y-101531057D01*
X155955998Y-101240771D01*
X155919712Y-101168200D01*
X155847141Y-101131914D01*
X155701998Y-101131914D01*
X155629427Y-101168200D01*
X155593141Y-101240771D01*
X155593141Y-101313343D01*
X155955998Y-101385914D01*
X155266569Y-101639914D02*
X155266569Y-101131914D01*
X155266569Y-101277057D02*
X155230284Y-101204486D01*
X155193998Y-101168200D01*
X155121427Y-101131914D01*
X155048855Y-101131914D01*
X153815142Y-100914200D02*
X153887713Y-100877914D01*
X153996570Y-100877914D01*
X154105427Y-100914200D01*
X154177999Y-100986771D01*
X154214284Y-101059343D01*
X154250570Y-101204486D01*
X154250570Y-101313343D01*
X154214284Y-101458486D01*
X154177999Y-101531057D01*
X154105427Y-101603629D01*
X153996570Y-101639914D01*
X153923999Y-101639914D01*
X153815142Y-101603629D01*
X153778856Y-101567343D01*
X153778856Y-101313343D01*
X153923999Y-101313343D01*
X153452284Y-101639914D02*
X153452284Y-100877914D01*
X153016856Y-101639914D01*
X153016856Y-100877914D01*
X152653998Y-100877914D02*
X152653998Y-101494771D01*
X152617713Y-101567343D01*
X152581427Y-101603629D01*
X152508856Y-101639914D01*
X152363713Y-101639914D01*
X152291141Y-101603629D01*
X152254856Y-101567343D01*
X152218570Y-101494771D01*
X152218570Y-100877914D01*
X151311427Y-100841629D02*
X151964570Y-101821343D01*
X150658284Y-100914200D02*
X150730855Y-100877914D01*
X150839712Y-100877914D01*
X150948569Y-100914200D01*
X151021141Y-100986771D01*
X151057426Y-101059343D01*
X151093712Y-101204486D01*
X151093712Y-101313343D01*
X151057426Y-101458486D01*
X151021141Y-101531057D01*
X150948569Y-101603629D01*
X150839712Y-101639914D01*
X150767141Y-101639914D01*
X150658284Y-101603629D01*
X150621998Y-101567343D01*
X150621998Y-101313343D01*
X150767141Y-101313343D01*
X150295426Y-101639914D02*
X150295426Y-100877914D01*
X150005141Y-100877914D01*
X149932569Y-100914200D01*
X149896284Y-100950486D01*
X149859998Y-101023057D01*
X149859998Y-101131914D01*
X149896284Y-101204486D01*
X149932569Y-101240771D01*
X150005141Y-101277057D01*
X150295426Y-101277057D01*
X149170569Y-101639914D02*
X149533426Y-101639914D01*
X149533426Y-100877914D01*
X148408570Y-100877914D02*
X147936856Y-100877914D01*
X148190856Y-101168200D01*
X148081998Y-101168200D01*
X148009427Y-101204486D01*
X147973141Y-101240771D01*
X147936856Y-101313343D01*
X147936856Y-101494771D01*
X147973141Y-101567343D01*
X148009427Y-101603629D01*
X148081998Y-101639914D01*
X148299713Y-101639914D01*
X148372284Y-101603629D01*
X148408570Y-101567343D01*
X146666856Y-101639914D02*
X147029713Y-101639914D01*
X147029713Y-100877914D01*
X146412856Y-101639914D02*
X146412856Y-101131914D01*
X146412856Y-100877914D02*
X146449142Y-100914200D01*
X146412856Y-100950486D01*
X146376571Y-100914200D01*
X146412856Y-100877914D01*
X146412856Y-100950486D01*
X145723428Y-101603629D02*
X145795999Y-101639914D01*
X145941142Y-101639914D01*
X146013714Y-101603629D01*
X146049999Y-101567343D01*
X146086285Y-101494771D01*
X146086285Y-101277057D01*
X146049999Y-101204486D01*
X146013714Y-101168200D01*
X145941142Y-101131914D01*
X145795999Y-101131914D01*
X145723428Y-101168200D01*
X145106571Y-101603629D02*
X145179142Y-101639914D01*
X145324285Y-101639914D01*
X145396856Y-101603629D01*
X145433142Y-101531057D01*
X145433142Y-101240771D01*
X145396856Y-101168200D01*
X145324285Y-101131914D01*
X145179142Y-101131914D01*
X145106571Y-101168200D01*
X145070285Y-101240771D01*
X145070285Y-101313343D01*
X145433142Y-101385914D01*
X144743713Y-101131914D02*
X144743713Y-101639914D01*
X144743713Y-101204486D02*
X144707428Y-101168200D01*
X144634856Y-101131914D01*
X144525999Y-101131914D01*
X144453428Y-101168200D01*
X144417142Y-101240771D01*
X144417142Y-101639914D01*
X144090570Y-101603629D02*
X144017999Y-101639914D01*
X143872856Y-101639914D01*
X143800284Y-101603629D01*
X143763999Y-101531057D01*
X143763999Y-101494771D01*
X143800284Y-101422200D01*
X143872856Y-101385914D01*
X143981713Y-101385914D01*
X144054284Y-101349629D01*
X144090570Y-101277057D01*
X144090570Y-101240771D01*
X144054284Y-101168200D01*
X143981713Y-101131914D01*
X143872856Y-101131914D01*
X143800284Y-101168200D01*
X143147142Y-101603629D02*
X143219713Y-101639914D01*
X143364856Y-101639914D01*
X143437427Y-101603629D01*
X143473713Y-101531057D01*
X143473713Y-101240771D01*
X143437427Y-101168200D01*
X143364856Y-101131914D01*
X143219713Y-101131914D01*
X143147142Y-101168200D01*
X143110856Y-101240771D01*
X143110856Y-101313343D01*
X143473713Y-101385914D01*
X164628289Y-102859114D02*
X164628289Y-102097114D01*
X164301718Y-102859114D02*
X164301718Y-102459971D01*
X164338004Y-102387400D01*
X164410575Y-102351114D01*
X164519432Y-102351114D01*
X164592004Y-102387400D01*
X164628289Y-102423686D01*
X164047718Y-102351114D02*
X163757432Y-102351114D01*
X163938860Y-102097114D02*
X163938860Y-102750257D01*
X163902575Y-102822829D01*
X163830003Y-102859114D01*
X163757432Y-102859114D01*
X163612289Y-102351114D02*
X163322003Y-102351114D01*
X163503431Y-102097114D02*
X163503431Y-102750257D01*
X163467146Y-102822829D01*
X163394574Y-102859114D01*
X163322003Y-102859114D01*
X163068002Y-102351114D02*
X163068002Y-103113114D01*
X163068002Y-102387400D02*
X162995431Y-102351114D01*
X162850288Y-102351114D01*
X162777717Y-102387400D01*
X162741431Y-102423686D01*
X162705145Y-102496257D01*
X162705145Y-102713971D01*
X162741431Y-102786543D01*
X162777717Y-102822829D01*
X162850288Y-102859114D01*
X162995431Y-102859114D01*
X163068002Y-102822829D01*
X162414859Y-102822829D02*
X162342288Y-102859114D01*
X162197145Y-102859114D01*
X162124573Y-102822829D01*
X162088288Y-102750257D01*
X162088288Y-102713971D01*
X162124573Y-102641400D01*
X162197145Y-102605114D01*
X162306002Y-102605114D01*
X162378573Y-102568829D01*
X162414859Y-102496257D01*
X162414859Y-102459971D01*
X162378573Y-102387400D01*
X162306002Y-102351114D01*
X162197145Y-102351114D01*
X162124573Y-102387400D01*
X161761716Y-102786543D02*
X161725431Y-102822829D01*
X161761716Y-102859114D01*
X161798002Y-102822829D01*
X161761716Y-102786543D01*
X161761716Y-102859114D01*
X161761716Y-102387400D02*
X161725431Y-102423686D01*
X161761716Y-102459971D01*
X161798002Y-102423686D01*
X161761716Y-102387400D01*
X161761716Y-102459971D01*
X160854574Y-102060829D02*
X161507717Y-103040543D01*
X160056288Y-102060829D02*
X160709431Y-103040543D01*
X159874859Y-102351114D02*
X159729716Y-102859114D01*
X159584573Y-102496257D01*
X159439430Y-102859114D01*
X159294287Y-102351114D01*
X159076573Y-102351114D02*
X158931430Y-102859114D01*
X158786287Y-102496257D01*
X158641144Y-102859114D01*
X158496001Y-102351114D01*
X158278287Y-102351114D02*
X158133144Y-102859114D01*
X157988001Y-102496257D01*
X157842858Y-102859114D01*
X157697715Y-102351114D01*
X157407429Y-102786543D02*
X157371144Y-102822829D01*
X157407429Y-102859114D01*
X157443715Y-102822829D01*
X157407429Y-102786543D01*
X157407429Y-102859114D01*
X156718001Y-102351114D02*
X156718001Y-102967971D01*
X156754287Y-103040543D01*
X156790572Y-103076829D01*
X156863144Y-103113114D01*
X156972001Y-103113114D01*
X157044572Y-103076829D01*
X156718001Y-102822829D02*
X156790572Y-102859114D01*
X156935715Y-102859114D01*
X157008287Y-102822829D01*
X157044572Y-102786543D01*
X157080858Y-102713971D01*
X157080858Y-102496257D01*
X157044572Y-102423686D01*
X157008287Y-102387400D01*
X156935715Y-102351114D01*
X156790572Y-102351114D01*
X156718001Y-102387400D01*
X156355143Y-102351114D02*
X156355143Y-102859114D01*
X156355143Y-102423686D02*
X156318858Y-102387400D01*
X156246286Y-102351114D01*
X156137429Y-102351114D01*
X156064858Y-102387400D01*
X156028572Y-102459971D01*
X156028572Y-102859114D01*
X155339143Y-102351114D02*
X155339143Y-102859114D01*
X155665714Y-102351114D02*
X155665714Y-102750257D01*
X155629429Y-102822829D01*
X155556857Y-102859114D01*
X155448000Y-102859114D01*
X155375429Y-102822829D01*
X155339143Y-102786543D01*
X154976285Y-102786543D02*
X154940000Y-102822829D01*
X154976285Y-102859114D01*
X155012571Y-102822829D01*
X154976285Y-102786543D01*
X154976285Y-102859114D01*
X154504571Y-102859114D02*
X154577143Y-102822829D01*
X154613428Y-102786543D01*
X154649714Y-102713971D01*
X154649714Y-102496257D01*
X154613428Y-102423686D01*
X154577143Y-102387400D01*
X154504571Y-102351114D01*
X154395714Y-102351114D01*
X154323143Y-102387400D01*
X154286857Y-102423686D01*
X154250571Y-102496257D01*
X154250571Y-102713971D01*
X154286857Y-102786543D01*
X154323143Y-102822829D01*
X154395714Y-102859114D01*
X154504571Y-102859114D01*
X153923999Y-102859114D02*
X153923999Y-102351114D01*
X153923999Y-102496257D02*
X153887714Y-102423686D01*
X153851428Y-102387400D01*
X153778857Y-102351114D01*
X153706285Y-102351114D01*
X153125714Y-102351114D02*
X153125714Y-102967971D01*
X153162000Y-103040543D01*
X153198285Y-103076829D01*
X153270857Y-103113114D01*
X153379714Y-103113114D01*
X153452285Y-103076829D01*
X153125714Y-102822829D02*
X153198285Y-102859114D01*
X153343428Y-102859114D01*
X153416000Y-102822829D01*
X153452285Y-102786543D01*
X153488571Y-102713971D01*
X153488571Y-102496257D01*
X153452285Y-102423686D01*
X153416000Y-102387400D01*
X153343428Y-102351114D01*
X153198285Y-102351114D01*
X153125714Y-102387400D01*
X152218571Y-102060829D02*
X152871714Y-103040543D01*
X151855713Y-102859114D02*
X151928285Y-102822829D01*
X151964570Y-102750257D01*
X151964570Y-102097114D01*
X151565427Y-102859114D02*
X151565427Y-102351114D01*
X151565427Y-102097114D02*
X151601713Y-102133400D01*
X151565427Y-102169686D01*
X151529142Y-102133400D01*
X151565427Y-102097114D01*
X151565427Y-102169686D01*
X150875999Y-102822829D02*
X150948570Y-102859114D01*
X151093713Y-102859114D01*
X151166285Y-102822829D01*
X151202570Y-102786543D01*
X151238856Y-102713971D01*
X151238856Y-102496257D01*
X151202570Y-102423686D01*
X151166285Y-102387400D01*
X151093713Y-102351114D01*
X150948570Y-102351114D01*
X150875999Y-102387400D01*
X150259142Y-102822829D02*
X150331713Y-102859114D01*
X150476856Y-102859114D01*
X150549427Y-102822829D01*
X150585713Y-102750257D01*
X150585713Y-102459971D01*
X150549427Y-102387400D01*
X150476856Y-102351114D01*
X150331713Y-102351114D01*
X150259142Y-102387400D01*
X150222856Y-102459971D01*
X150222856Y-102532543D01*
X150585713Y-102605114D01*
X149896284Y-102351114D02*
X149896284Y-102859114D01*
X149896284Y-102423686D02*
X149859999Y-102387400D01*
X149787427Y-102351114D01*
X149678570Y-102351114D01*
X149605999Y-102387400D01*
X149569713Y-102459971D01*
X149569713Y-102859114D01*
X149243141Y-102822829D02*
X149170570Y-102859114D01*
X149025427Y-102859114D01*
X148952855Y-102822829D01*
X148916570Y-102750257D01*
X148916570Y-102713971D01*
X148952855Y-102641400D01*
X149025427Y-102605114D01*
X149134284Y-102605114D01*
X149206855Y-102568829D01*
X149243141Y-102496257D01*
X149243141Y-102459971D01*
X149206855Y-102387400D01*
X149134284Y-102351114D01*
X149025427Y-102351114D01*
X148952855Y-102387400D01*
X148299713Y-102822829D02*
X148372284Y-102859114D01*
X148517427Y-102859114D01*
X148589998Y-102822829D01*
X148626284Y-102750257D01*
X148626284Y-102459971D01*
X148589998Y-102387400D01*
X148517427Y-102351114D01*
X148372284Y-102351114D01*
X148299713Y-102387400D01*
X148263427Y-102459971D01*
X148263427Y-102532543D01*
X148626284Y-102605114D01*
X147973141Y-102822829D02*
X147900570Y-102859114D01*
X147755427Y-102859114D01*
X147682855Y-102822829D01*
X147646570Y-102750257D01*
X147646570Y-102713971D01*
X147682855Y-102641400D01*
X147755427Y-102605114D01*
X147864284Y-102605114D01*
X147936855Y-102568829D01*
X147973141Y-102496257D01*
X147973141Y-102459971D01*
X147936855Y-102387400D01*
X147864284Y-102351114D01*
X147755427Y-102351114D01*
X147682855Y-102387400D01*
X146775713Y-102060829D02*
X147428856Y-103040543D01*
X146195141Y-102351114D02*
X146195141Y-102967971D01*
X146231427Y-103040543D01*
X146267712Y-103076829D01*
X146340284Y-103113114D01*
X146449141Y-103113114D01*
X146521712Y-103076829D01*
X146195141Y-102822829D02*
X146267712Y-102859114D01*
X146412855Y-102859114D01*
X146485427Y-102822829D01*
X146521712Y-102786543D01*
X146557998Y-102713971D01*
X146557998Y-102496257D01*
X146521712Y-102423686D01*
X146485427Y-102387400D01*
X146412855Y-102351114D01*
X146267712Y-102351114D01*
X146195141Y-102387400D01*
X145832283Y-102351114D02*
X145832283Y-103113114D01*
X145832283Y-102387400D02*
X145759712Y-102351114D01*
X145614569Y-102351114D01*
X145541998Y-102387400D01*
X145505712Y-102423686D01*
X145469426Y-102496257D01*
X145469426Y-102713971D01*
X145505712Y-102786543D01*
X145541998Y-102822829D01*
X145614569Y-102859114D01*
X145759712Y-102859114D01*
X145832283Y-102822829D01*
X145033997Y-102859114D02*
X145106569Y-102822829D01*
X145142854Y-102750257D01*
X145142854Y-102097114D01*
X144743711Y-102786543D02*
X144707426Y-102822829D01*
X144743711Y-102859114D01*
X144779997Y-102822829D01*
X144743711Y-102786543D01*
X144743711Y-102859114D01*
X144380854Y-102859114D02*
X144380854Y-102097114D01*
X144054283Y-102859114D02*
X144054283Y-102459971D01*
X144090569Y-102387400D01*
X144163140Y-102351114D01*
X144271997Y-102351114D01*
X144344569Y-102387400D01*
X144380854Y-102423686D01*
X143800283Y-102351114D02*
X143509997Y-102351114D01*
X143691425Y-102097114D02*
X143691425Y-102750257D01*
X143655140Y-102822829D01*
X143582568Y-102859114D01*
X143509997Y-102859114D01*
X143255996Y-102859114D02*
X143255996Y-102351114D01*
X143255996Y-102423686D02*
X143219711Y-102387400D01*
X143147139Y-102351114D01*
X143038282Y-102351114D01*
X142965711Y-102387400D01*
X142929425Y-102459971D01*
X142929425Y-102859114D01*
X142929425Y-102459971D02*
X142893139Y-102387400D01*
X142820568Y-102351114D01*
X142711711Y-102351114D01*
X142639139Y-102387400D01*
X142602854Y-102459971D01*
X142602854Y-102859114D01*
X142131139Y-102859114D02*
X142203711Y-102822829D01*
X142239996Y-102750257D01*
X142239996Y-102097114D01*
X164446857Y-104005743D02*
X164483143Y-104042029D01*
X164592000Y-104078314D01*
X164664571Y-104078314D01*
X164773428Y-104042029D01*
X164846000Y-103969457D01*
X164882285Y-103896886D01*
X164918571Y-103751743D01*
X164918571Y-103642886D01*
X164882285Y-103497743D01*
X164846000Y-103425171D01*
X164773428Y-103352600D01*
X164664571Y-103316314D01*
X164592000Y-103316314D01*
X164483143Y-103352600D01*
X164446857Y-103388886D01*
X164011428Y-104078314D02*
X164084000Y-104042029D01*
X164120285Y-104005743D01*
X164156571Y-103933171D01*
X164156571Y-103715457D01*
X164120285Y-103642886D01*
X164084000Y-103606600D01*
X164011428Y-103570314D01*
X163902571Y-103570314D01*
X163830000Y-103606600D01*
X163793714Y-103642886D01*
X163757428Y-103715457D01*
X163757428Y-103933171D01*
X163793714Y-104005743D01*
X163830000Y-104042029D01*
X163902571Y-104078314D01*
X164011428Y-104078314D01*
X163430856Y-103570314D02*
X163430856Y-104332314D01*
X163430856Y-103606600D02*
X163358285Y-103570314D01*
X163213142Y-103570314D01*
X163140571Y-103606600D01*
X163104285Y-103642886D01*
X163067999Y-103715457D01*
X163067999Y-103933171D01*
X163104285Y-104005743D01*
X163140571Y-104042029D01*
X163213142Y-104078314D01*
X163358285Y-104078314D01*
X163430856Y-104042029D01*
X162813999Y-103570314D02*
X162632570Y-104078314D01*
X162451142Y-103570314D02*
X162632570Y-104078314D01*
X162705142Y-104259743D01*
X162741427Y-104296029D01*
X162813999Y-104332314D01*
X162160856Y-104078314D02*
X162160856Y-103570314D01*
X162160856Y-103715457D02*
X162124571Y-103642886D01*
X162088285Y-103606600D01*
X162015714Y-103570314D01*
X161943142Y-103570314D01*
X161689142Y-104078314D02*
X161689142Y-103570314D01*
X161689142Y-103316314D02*
X161725428Y-103352600D01*
X161689142Y-103388886D01*
X161652857Y-103352600D01*
X161689142Y-103316314D01*
X161689142Y-103388886D01*
X160999714Y-103570314D02*
X160999714Y-104187171D01*
X161036000Y-104259743D01*
X161072285Y-104296029D01*
X161144857Y-104332314D01*
X161253714Y-104332314D01*
X161326285Y-104296029D01*
X160999714Y-104042029D02*
X161072285Y-104078314D01*
X161217428Y-104078314D01*
X161290000Y-104042029D01*
X161326285Y-104005743D01*
X161362571Y-103933171D01*
X161362571Y-103715457D01*
X161326285Y-103642886D01*
X161290000Y-103606600D01*
X161217428Y-103570314D01*
X161072285Y-103570314D01*
X160999714Y-103606600D01*
X160636856Y-104078314D02*
X160636856Y-103316314D01*
X160310285Y-104078314D02*
X160310285Y-103679171D01*
X160346571Y-103606600D01*
X160419142Y-103570314D01*
X160527999Y-103570314D01*
X160600571Y-103606600D01*
X160636856Y-103642886D01*
X160056285Y-103570314D02*
X159765999Y-103570314D01*
X159947427Y-103316314D02*
X159947427Y-103969457D01*
X159911142Y-104042029D01*
X159838570Y-104078314D01*
X159765999Y-104078314D01*
X158713713Y-104368600D02*
X158749999Y-104332314D01*
X158822570Y-104223457D01*
X158858856Y-104150886D01*
X158895142Y-104042029D01*
X158931427Y-103860600D01*
X158931427Y-103715457D01*
X158895142Y-103534029D01*
X158858856Y-103425171D01*
X158822570Y-103352600D01*
X158749999Y-103243743D01*
X158713713Y-103207457D01*
X157987999Y-104005743D02*
X158024285Y-104042029D01*
X158133142Y-104078314D01*
X158205713Y-104078314D01*
X158314570Y-104042029D01*
X158387142Y-103969457D01*
X158423427Y-103896886D01*
X158459713Y-103751743D01*
X158459713Y-103642886D01*
X158423427Y-103497743D01*
X158387142Y-103425171D01*
X158314570Y-103352600D01*
X158205713Y-103316314D01*
X158133142Y-103316314D01*
X158024285Y-103352600D01*
X157987999Y-103388886D01*
X157733999Y-104368600D02*
X157697713Y-104332314D01*
X157625142Y-104223457D01*
X157588856Y-104150886D01*
X157552570Y-104042029D01*
X157516285Y-103860600D01*
X157516285Y-103715457D01*
X157552570Y-103534029D01*
X157588856Y-103425171D01*
X157625142Y-103352600D01*
X157697713Y-103243743D01*
X157733999Y-103207457D01*
X156609142Y-103388886D02*
X156572856Y-103352600D01*
X156500285Y-103316314D01*
X156318856Y-103316314D01*
X156246285Y-103352600D01*
X156209999Y-103388886D01*
X156173714Y-103461457D01*
X156173714Y-103534029D01*
X156209999Y-103642886D01*
X156645428Y-104078314D01*
X156173714Y-104078314D01*
X155702000Y-103316314D02*
X155629428Y-103316314D01*
X155556857Y-103352600D01*
X155520571Y-103388886D01*
X155484285Y-103461457D01*
X155448000Y-103606600D01*
X155448000Y-103788029D01*
X155484285Y-103933171D01*
X155520571Y-104005743D01*
X155556857Y-104042029D01*
X155629428Y-104078314D01*
X155702000Y-104078314D01*
X155774571Y-104042029D01*
X155810857Y-104005743D01*
X155847142Y-103933171D01*
X155883428Y-103788029D01*
X155883428Y-103606600D01*
X155847142Y-103461457D01*
X155810857Y-103388886D01*
X155774571Y-103352600D01*
X155702000Y-103316314D01*
X154722286Y-104078314D02*
X155157714Y-104078314D01*
X154940000Y-104078314D02*
X154940000Y-103316314D01*
X155012571Y-103425171D01*
X155085143Y-103497743D01*
X155157714Y-103534029D01*
X154032857Y-103316314D02*
X154395714Y-103316314D01*
X154432000Y-103679171D01*
X154395714Y-103642886D01*
X154323143Y-103606600D01*
X154141714Y-103606600D01*
X154069143Y-103642886D01*
X154032857Y-103679171D01*
X153996572Y-103751743D01*
X153996572Y-103933171D01*
X154032857Y-104005743D01*
X154069143Y-104042029D01*
X154141714Y-104078314D01*
X154323143Y-104078314D01*
X154395714Y-104042029D01*
X154432000Y-104005743D01*
X153670000Y-103788029D02*
X153089429Y-103788029D01*
X152762857Y-103388886D02*
X152726571Y-103352600D01*
X152654000Y-103316314D01*
X152472571Y-103316314D01*
X152400000Y-103352600D01*
X152363714Y-103388886D01*
X152327429Y-103461457D01*
X152327429Y-103534029D01*
X152363714Y-103642886D01*
X152799143Y-104078314D01*
X152327429Y-104078314D01*
X151855715Y-103316314D02*
X151783143Y-103316314D01*
X151710572Y-103352600D01*
X151674286Y-103388886D01*
X151638000Y-103461457D01*
X151601715Y-103606600D01*
X151601715Y-103788029D01*
X151638000Y-103933171D01*
X151674286Y-104005743D01*
X151710572Y-104042029D01*
X151783143Y-104078314D01*
X151855715Y-104078314D01*
X151928286Y-104042029D01*
X151964572Y-104005743D01*
X152000857Y-103933171D01*
X152037143Y-103788029D01*
X152037143Y-103606600D01*
X152000857Y-103461457D01*
X151964572Y-103388886D01*
X151928286Y-103352600D01*
X151855715Y-103316314D01*
X150876001Y-104078314D02*
X151311429Y-104078314D01*
X151093715Y-104078314D02*
X151093715Y-103316314D01*
X151166286Y-103425171D01*
X151238858Y-103497743D01*
X151311429Y-103534029D01*
X150222858Y-103316314D02*
X150368001Y-103316314D01*
X150440572Y-103352600D01*
X150476858Y-103388886D01*
X150549429Y-103497743D01*
X150585715Y-103642886D01*
X150585715Y-103933171D01*
X150549429Y-104005743D01*
X150513144Y-104042029D01*
X150440572Y-104078314D01*
X150295429Y-104078314D01*
X150222858Y-104042029D01*
X150186572Y-104005743D01*
X150150287Y-103933171D01*
X150150287Y-103751743D01*
X150186572Y-103679171D01*
X150222858Y-103642886D01*
X150295429Y-103606600D01*
X150440572Y-103606600D01*
X150513144Y-103642886D01*
X150549429Y-103679171D01*
X150585715Y-103751743D01*
X149243144Y-104078314D02*
X149243144Y-103316314D01*
X149170573Y-103788029D02*
X148952859Y-104078314D01*
X148952859Y-103570314D02*
X149243144Y-103860600D01*
X148698859Y-103570314D02*
X148553716Y-104078314D01*
X148408573Y-103715457D01*
X148263430Y-104078314D01*
X148118287Y-103570314D01*
X147537716Y-104042029D02*
X147610287Y-104078314D01*
X147755430Y-104078314D01*
X147828001Y-104042029D01*
X147864287Y-103969457D01*
X147864287Y-103679171D01*
X147828001Y-103606600D01*
X147755430Y-103570314D01*
X147610287Y-103570314D01*
X147537716Y-103606600D01*
X147501430Y-103679171D01*
X147501430Y-103751743D01*
X147864287Y-103824314D01*
X147174858Y-103570314D02*
X147174858Y-104078314D01*
X147174858Y-103642886D02*
X147138573Y-103606600D01*
X147066001Y-103570314D01*
X146957144Y-103570314D01*
X146884573Y-103606600D01*
X146848287Y-103679171D01*
X146848287Y-104078314D01*
X146158858Y-104078314D02*
X146158858Y-103316314D01*
X146158858Y-104042029D02*
X146231429Y-104078314D01*
X146376572Y-104078314D01*
X146449144Y-104042029D01*
X146485429Y-104005743D01*
X146521715Y-103933171D01*
X146521715Y-103715457D01*
X146485429Y-103642886D01*
X146449144Y-103606600D01*
X146376572Y-103570314D01*
X146231429Y-103570314D01*
X146158858Y-103606600D01*
X145505715Y-104042029D02*
X145578286Y-104078314D01*
X145723429Y-104078314D01*
X145796000Y-104042029D01*
X145832286Y-103969457D01*
X145832286Y-103679171D01*
X145796000Y-103606600D01*
X145723429Y-103570314D01*
X145578286Y-103570314D01*
X145505715Y-103606600D01*
X145469429Y-103679171D01*
X145469429Y-103751743D01*
X145832286Y-103824314D01*
X145142857Y-103570314D02*
X145142857Y-104078314D01*
X145142857Y-103642886D02*
X145106572Y-103606600D01*
X145034000Y-103570314D01*
X144925143Y-103570314D01*
X144852572Y-103606600D01*
X144816286Y-103679171D01*
X144816286Y-104078314D01*
X144126857Y-104078314D02*
X144126857Y-103679171D01*
X144163143Y-103606600D01*
X144235714Y-103570314D01*
X144380857Y-103570314D01*
X144453428Y-103606600D01*
X144126857Y-104042029D02*
X144199428Y-104078314D01*
X144380857Y-104078314D01*
X144453428Y-104042029D01*
X144489714Y-103969457D01*
X144489714Y-103896886D01*
X144453428Y-103824314D01*
X144380857Y-103788029D01*
X144199428Y-103788029D01*
X144126857Y-103751743D01*
X143763999Y-104078314D02*
X143763999Y-103570314D01*
X143763999Y-103715457D02*
X143727714Y-103642886D01*
X143691428Y-103606600D01*
X143618857Y-103570314D01*
X143546285Y-103570314D01*
X143292285Y-104078314D02*
X143292285Y-103570314D01*
X143292285Y-103642886D02*
X143256000Y-103606600D01*
X143183428Y-103570314D01*
X143074571Y-103570314D01*
X143002000Y-103606600D01*
X142965714Y-103679171D01*
X142965714Y-104078314D01*
X142965714Y-103679171D02*
X142929428Y-103606600D01*
X142856857Y-103570314D01*
X142748000Y-103570314D01*
X142675428Y-103606600D01*
X142639143Y-103679171D01*
X142639143Y-104078314D01*
X142167428Y-104078314D02*
X142240000Y-104042029D01*
X142276285Y-104005743D01*
X142312571Y-103933171D01*
X142312571Y-103715457D01*
X142276285Y-103642886D01*
X142240000Y-103606600D01*
X142167428Y-103570314D01*
X142058571Y-103570314D01*
X141986000Y-103606600D01*
X141949714Y-103642886D01*
X141913428Y-103715457D01*
X141913428Y-103933171D01*
X141949714Y-104005743D01*
X141986000Y-104042029D01*
X142058571Y-104078314D01*
X142167428Y-104078314D01*
X166497004Y-105297514D02*
X166497004Y-104535514D01*
X166170433Y-105297514D02*
X166170433Y-104898371D01*
X166206719Y-104825800D01*
X166279290Y-104789514D01*
X166388147Y-104789514D01*
X166460719Y-104825800D01*
X166497004Y-104862086D01*
X165916433Y-104789514D02*
X165626147Y-104789514D01*
X165807575Y-104535514D02*
X165807575Y-105188657D01*
X165771290Y-105261229D01*
X165698718Y-105297514D01*
X165626147Y-105297514D01*
X165481004Y-104789514D02*
X165190718Y-104789514D01*
X165372146Y-104535514D02*
X165372146Y-105188657D01*
X165335861Y-105261229D01*
X165263289Y-105297514D01*
X165190718Y-105297514D01*
X164936717Y-104789514D02*
X164936717Y-105551514D01*
X164936717Y-104825800D02*
X164864146Y-104789514D01*
X164719003Y-104789514D01*
X164646432Y-104825800D01*
X164610146Y-104862086D01*
X164573860Y-104934657D01*
X164573860Y-105152371D01*
X164610146Y-105224943D01*
X164646432Y-105261229D01*
X164719003Y-105297514D01*
X164864146Y-105297514D01*
X164936717Y-105261229D01*
X164283574Y-105261229D02*
X164211003Y-105297514D01*
X164065860Y-105297514D01*
X163993288Y-105261229D01*
X163957003Y-105188657D01*
X163957003Y-105152371D01*
X163993288Y-105079800D01*
X164065860Y-105043514D01*
X164174717Y-105043514D01*
X164247288Y-105007229D01*
X164283574Y-104934657D01*
X164283574Y-104898371D01*
X164247288Y-104825800D01*
X164174717Y-104789514D01*
X164065860Y-104789514D01*
X163993288Y-104825800D01*
X163630431Y-105224943D02*
X163594146Y-105261229D01*
X163630431Y-105297514D01*
X163666717Y-105261229D01*
X163630431Y-105224943D01*
X163630431Y-105297514D01*
X163630431Y-104825800D02*
X163594146Y-104862086D01*
X163630431Y-104898371D01*
X163666717Y-104862086D01*
X163630431Y-104825800D01*
X163630431Y-104898371D01*
X162723289Y-104499229D02*
X163376432Y-105478943D01*
X161925003Y-104499229D02*
X162578146Y-105478943D01*
X161344431Y-104789514D02*
X161344431Y-105406371D01*
X161380717Y-105478943D01*
X161417002Y-105515229D01*
X161489574Y-105551514D01*
X161598431Y-105551514D01*
X161671002Y-105515229D01*
X161344431Y-105261229D02*
X161417002Y-105297514D01*
X161562145Y-105297514D01*
X161634717Y-105261229D01*
X161671002Y-105224943D01*
X161707288Y-105152371D01*
X161707288Y-104934657D01*
X161671002Y-104862086D01*
X161634717Y-104825800D01*
X161562145Y-104789514D01*
X161417002Y-104789514D01*
X161344431Y-104825800D01*
X160981573Y-105297514D02*
X160981573Y-104789514D01*
X160981573Y-104535514D02*
X161017859Y-104571800D01*
X160981573Y-104608086D01*
X160945288Y-104571800D01*
X160981573Y-104535514D01*
X160981573Y-104608086D01*
X160727574Y-104789514D02*
X160437288Y-104789514D01*
X160618716Y-104535514D02*
X160618716Y-105188657D01*
X160582431Y-105261229D01*
X160509859Y-105297514D01*
X160437288Y-105297514D01*
X160183287Y-105297514D02*
X160183287Y-104535514D01*
X159856716Y-105297514D02*
X159856716Y-104898371D01*
X159893002Y-104825800D01*
X159965573Y-104789514D01*
X160074430Y-104789514D01*
X160147002Y-104825800D01*
X160183287Y-104862086D01*
X159167287Y-104789514D02*
X159167287Y-105297514D01*
X159493858Y-104789514D02*
X159493858Y-105188657D01*
X159457573Y-105261229D01*
X159385001Y-105297514D01*
X159276144Y-105297514D01*
X159203573Y-105261229D01*
X159167287Y-105224943D01*
X158804429Y-105297514D02*
X158804429Y-104535514D01*
X158804429Y-104825800D02*
X158731858Y-104789514D01*
X158586715Y-104789514D01*
X158514144Y-104825800D01*
X158477858Y-104862086D01*
X158441572Y-104934657D01*
X158441572Y-105152371D01*
X158477858Y-105224943D01*
X158514144Y-105261229D01*
X158586715Y-105297514D01*
X158731858Y-105297514D01*
X158804429Y-105261229D01*
X158115000Y-105224943D02*
X158078715Y-105261229D01*
X158115000Y-105297514D01*
X158151286Y-105261229D01*
X158115000Y-105224943D01*
X158115000Y-105297514D01*
X157425572Y-105261229D02*
X157498143Y-105297514D01*
X157643286Y-105297514D01*
X157715858Y-105261229D01*
X157752143Y-105224943D01*
X157788429Y-105152371D01*
X157788429Y-104934657D01*
X157752143Y-104862086D01*
X157715858Y-104825800D01*
X157643286Y-104789514D01*
X157498143Y-104789514D01*
X157425572Y-104825800D01*
X156990143Y-105297514D02*
X157062715Y-105261229D01*
X157099000Y-105224943D01*
X157135286Y-105152371D01*
X157135286Y-104934657D01*
X157099000Y-104862086D01*
X157062715Y-104825800D01*
X156990143Y-104789514D01*
X156881286Y-104789514D01*
X156808715Y-104825800D01*
X156772429Y-104862086D01*
X156736143Y-104934657D01*
X156736143Y-105152371D01*
X156772429Y-105224943D01*
X156808715Y-105261229D01*
X156881286Y-105297514D01*
X156990143Y-105297514D01*
X156409571Y-105297514D02*
X156409571Y-104789514D01*
X156409571Y-104862086D02*
X156373286Y-104825800D01*
X156300714Y-104789514D01*
X156191857Y-104789514D01*
X156119286Y-104825800D01*
X156083000Y-104898371D01*
X156083000Y-105297514D01*
X156083000Y-104898371D02*
X156046714Y-104825800D01*
X155974143Y-104789514D01*
X155865286Y-104789514D01*
X155792714Y-104825800D01*
X155756429Y-104898371D01*
X155756429Y-105297514D01*
X154849286Y-104499229D02*
X155502429Y-105478943D01*
X154268714Y-105297514D02*
X154268714Y-104898371D01*
X154305000Y-104825800D01*
X154377571Y-104789514D01*
X154522714Y-104789514D01*
X154595285Y-104825800D01*
X154268714Y-105261229D02*
X154341285Y-105297514D01*
X154522714Y-105297514D01*
X154595285Y-105261229D01*
X154631571Y-105188657D01*
X154631571Y-105116086D01*
X154595285Y-105043514D01*
X154522714Y-105007229D01*
X154341285Y-105007229D01*
X154268714Y-104970943D01*
X153905856Y-105297514D02*
X153905856Y-104535514D01*
X153833285Y-105007229D02*
X153615571Y-105297514D01*
X153615571Y-104789514D02*
X153905856Y-105079800D01*
X153180142Y-105297514D02*
X153252714Y-105261229D01*
X153288999Y-105224943D01*
X153325285Y-105152371D01*
X153325285Y-104934657D01*
X153288999Y-104862086D01*
X153252714Y-104825800D01*
X153180142Y-104789514D01*
X153071285Y-104789514D01*
X152998714Y-104825800D01*
X152962428Y-104862086D01*
X152926142Y-104934657D01*
X152926142Y-105152371D01*
X152962428Y-105224943D01*
X152998714Y-105261229D01*
X153071285Y-105297514D01*
X153180142Y-105297514D01*
X152599570Y-105297514D02*
X152599570Y-104789514D01*
X152599570Y-104934657D02*
X152563285Y-104862086D01*
X152526999Y-104825800D01*
X152454428Y-104789514D01*
X152381856Y-104789514D01*
X152127856Y-104789514D02*
X152127856Y-105297514D01*
X152127856Y-104862086D02*
X152091571Y-104825800D01*
X152018999Y-104789514D01*
X151910142Y-104789514D01*
X151837571Y-104825800D01*
X151801285Y-104898371D01*
X151801285Y-105297514D01*
X151474713Y-105261229D02*
X151402142Y-105297514D01*
X151256999Y-105297514D01*
X151184427Y-105261229D01*
X151148142Y-105188657D01*
X151148142Y-105152371D01*
X151184427Y-105079800D01*
X151256999Y-105043514D01*
X151365856Y-105043514D01*
X151438427Y-105007229D01*
X151474713Y-104934657D01*
X151474713Y-104898371D01*
X151438427Y-104825800D01*
X151365856Y-104789514D01*
X151256999Y-104789514D01*
X151184427Y-104825800D01*
X150894142Y-104789514D02*
X150712713Y-105297514D01*
X150531285Y-104789514D02*
X150712713Y-105297514D01*
X150785285Y-105478943D01*
X150821570Y-105515229D01*
X150894142Y-105551514D01*
X150277285Y-105261229D02*
X150204714Y-105297514D01*
X150059571Y-105297514D01*
X149986999Y-105261229D01*
X149950714Y-105188657D01*
X149950714Y-105152371D01*
X149986999Y-105079800D01*
X150059571Y-105043514D01*
X150168428Y-105043514D01*
X150240999Y-105007229D01*
X150277285Y-104934657D01*
X150277285Y-104898371D01*
X150240999Y-104825800D01*
X150168428Y-104789514D01*
X150059571Y-104789514D01*
X149986999Y-104825800D01*
X149624142Y-105007229D02*
X149043571Y-105007229D01*
X148680713Y-105297514D02*
X148680713Y-104789514D01*
X148680713Y-104934657D02*
X148644428Y-104862086D01*
X148608142Y-104825800D01*
X148535571Y-104789514D01*
X148462999Y-104789514D01*
X147882428Y-105297514D02*
X147882428Y-104535514D01*
X147882428Y-105261229D02*
X147954999Y-105297514D01*
X148100142Y-105297514D01*
X148172714Y-105261229D01*
X148208999Y-105224943D01*
X148245285Y-105152371D01*
X148245285Y-104934657D01*
X148208999Y-104862086D01*
X148172714Y-104825800D01*
X148100142Y-104789514D01*
X147954999Y-104789514D01*
X147882428Y-104825800D01*
X147519570Y-105297514D02*
X147519570Y-104789514D01*
X147519570Y-104535514D02*
X147555856Y-104571800D01*
X147519570Y-104608086D01*
X147483285Y-104571800D01*
X147519570Y-104535514D01*
X147519570Y-104608086D01*
X146612428Y-104499229D02*
X147265571Y-105478943D01*
X146358427Y-105297514D02*
X146358427Y-104789514D01*
X146358427Y-104934657D02*
X146322142Y-104862086D01*
X146285856Y-104825800D01*
X146213285Y-104789514D01*
X146140713Y-104789514D01*
X145777856Y-105297514D02*
X145850428Y-105261229D01*
X145886713Y-105224943D01*
X145922999Y-105152371D01*
X145922999Y-104934657D01*
X145886713Y-104862086D01*
X145850428Y-104825800D01*
X145777856Y-104789514D01*
X145668999Y-104789514D01*
X145596428Y-104825800D01*
X145560142Y-104862086D01*
X145523856Y-104934657D01*
X145523856Y-105152371D01*
X145560142Y-105224943D01*
X145596428Y-105261229D01*
X145668999Y-105297514D01*
X145777856Y-105297514D01*
X145197284Y-105297514D02*
X145197284Y-104535514D01*
X145197284Y-104825800D02*
X145124713Y-104789514D01*
X144979570Y-104789514D01*
X144906999Y-104825800D01*
X144870713Y-104862086D01*
X144834427Y-104934657D01*
X144834427Y-105152371D01*
X144870713Y-105224943D01*
X144906999Y-105261229D01*
X144979570Y-105297514D01*
X145124713Y-105297514D01*
X145197284Y-105261229D01*
X144181284Y-104789514D02*
X144181284Y-105406371D01*
X144217570Y-105478943D01*
X144253855Y-105515229D01*
X144326427Y-105551514D01*
X144435284Y-105551514D01*
X144507855Y-105515229D01*
X144181284Y-105261229D02*
X144253855Y-105297514D01*
X144398998Y-105297514D01*
X144471570Y-105261229D01*
X144507855Y-105224943D01*
X144544141Y-105152371D01*
X144544141Y-104934657D01*
X144507855Y-104862086D01*
X144471570Y-104825800D01*
X144398998Y-104789514D01*
X144253855Y-104789514D01*
X144181284Y-104825800D01*
X143528141Y-105261229D02*
X143600712Y-105297514D01*
X143745855Y-105297514D01*
X143818426Y-105261229D01*
X143854712Y-105188657D01*
X143854712Y-104898371D01*
X143818426Y-104825800D01*
X143745855Y-104789514D01*
X143600712Y-104789514D01*
X143528141Y-104825800D01*
X143491855Y-104898371D01*
X143491855Y-104970943D01*
X143854712Y-105043514D01*
X142838712Y-105297514D02*
X142838712Y-104535514D01*
X142838712Y-105261229D02*
X142911283Y-105297514D01*
X143056426Y-105297514D01*
X143128998Y-105261229D01*
X143165283Y-105224943D01*
X143201569Y-105152371D01*
X143201569Y-104934657D01*
X143165283Y-104862086D01*
X143128998Y-104825800D01*
X143056426Y-104789514D01*
X142911283Y-104789514D01*
X142838712Y-104825800D01*
X142475854Y-104789514D02*
X142475854Y-105297514D01*
X142475854Y-104862086D02*
X142439569Y-104825800D01*
X142366997Y-104789514D01*
X142258140Y-104789514D01*
X142185569Y-104825800D01*
X142149283Y-104898371D01*
X142149283Y-105297514D01*
X141459854Y-105297514D02*
X141459854Y-104898371D01*
X141496140Y-104825800D01*
X141568711Y-104789514D01*
X141713854Y-104789514D01*
X141786425Y-104825800D01*
X141459854Y-105261229D02*
X141532425Y-105297514D01*
X141713854Y-105297514D01*
X141786425Y-105261229D01*
X141822711Y-105188657D01*
X141822711Y-105116086D01*
X141786425Y-105043514D01*
X141713854Y-105007229D01*
X141532425Y-105007229D01*
X141459854Y-104970943D01*
X140770425Y-104789514D02*
X140770425Y-105297514D01*
X141096996Y-104789514D02*
X141096996Y-105188657D01*
X141060711Y-105261229D01*
X140988139Y-105297514D01*
X140879282Y-105297514D01*
X140806711Y-105261229D01*
X140770425Y-105224943D01*
X140516425Y-104789514D02*
X140226139Y-104789514D01*
X140407567Y-104535514D02*
X140407567Y-105188657D01*
X140371282Y-105261229D01*
X140298710Y-105297514D01*
X140226139Y-105297514D01*
D16*
X152789000Y-71159000D02*
X153789000Y-71159000D01*
X153789000Y-72859000D02*
X152789000Y-72859000D01*
X147963000Y-69000000D02*
X148963000Y-69000000D01*
X148963000Y-70700000D02*
X147963000Y-70700000D01*
X145757000Y-70493000D02*
X145757000Y-71493000D01*
X144057000Y-71493000D02*
X144057000Y-70493000D01*
X153662000Y-70700000D02*
X152662000Y-70700000D01*
X152662000Y-69000000D02*
X153662000Y-69000000D01*
X160413000Y-83400000D02*
X159413000Y-83400000D01*
X159413000Y-81700000D02*
X160413000Y-81700000D01*
X154117040Y-52537360D02*
X153215340Y-52537360D01*
X155414980Y-52537360D02*
X156413200Y-52537360D01*
X151663540Y-51335940D02*
X151663540Y-52537360D01*
X151663540Y-58138060D02*
X151663540Y-56936640D01*
X158412180Y-51335940D02*
X158412180Y-52537360D01*
X158412180Y-58138060D02*
X158412180Y-56936640D01*
X151213820Y-51335940D02*
X151213820Y-52588160D01*
X151213820Y-58138060D02*
X151213820Y-56885840D01*
X154117040Y-53337460D02*
X154117040Y-51737260D01*
X155265120Y-51788060D02*
X155265120Y-53337460D01*
X154114500Y-52537360D02*
X155265120Y-51788060D01*
X154117040Y-52537360D02*
X155267660Y-53337460D01*
X151213820Y-51335940D02*
X158412180Y-51335940D01*
X151213820Y-58138060D02*
X158412180Y-58138060D01*
X152600660Y-58952180D02*
X151899620Y-58952180D01*
X151899620Y-58952180D02*
X151899620Y-59201100D01*
X151899620Y-61751160D02*
X151899620Y-61951820D01*
X151899620Y-61951820D02*
X152600660Y-61951820D01*
X147015200Y-60808820D02*
X147716240Y-60808820D01*
X147716240Y-60808820D02*
X147716240Y-60559900D01*
X147716240Y-58009840D02*
X147716240Y-57809180D01*
X147716240Y-57809180D02*
X147015200Y-57809180D01*
X144667000Y-54137000D02*
X144667000Y-55337000D01*
X146417000Y-55337000D02*
X146417000Y-54137000D01*
X157388000Y-70725000D02*
X158588000Y-70725000D01*
X158588000Y-68975000D02*
X157388000Y-68975000D01*
X160669000Y-65694000D02*
X160669000Y-66894000D01*
X162419000Y-66894000D02*
X162419000Y-65694000D01*
X158510000Y-65694000D02*
X158510000Y-66894000D01*
X160260000Y-66894000D02*
X160260000Y-65694000D01*
X147863000Y-72884000D02*
X149063000Y-72884000D01*
X149063000Y-71134000D02*
X147863000Y-71134000D01*
X149063000Y-73293000D02*
X147863000Y-73293000D01*
X147863000Y-75043000D02*
X149063000Y-75043000D01*
X149063000Y-64657000D02*
X147863000Y-64657000D01*
X147863000Y-66407000D02*
X149063000Y-66407000D01*
X147863000Y-68566000D02*
X149063000Y-68566000D01*
X149063000Y-66816000D02*
X147863000Y-66816000D01*
X152299000Y-68554000D02*
X152299000Y-68329000D01*
X155549000Y-68554000D02*
X155549000Y-68329000D01*
X155549000Y-65304000D02*
X155549000Y-65529000D01*
X152299000Y-65304000D02*
X152299000Y-65529000D01*
X152299000Y-68554000D02*
X155549000Y-68554000D01*
X152299000Y-65304000D02*
X155549000Y-65304000D01*
X152299000Y-68329000D02*
X151224000Y-68329000D01*
X157978000Y-92842000D02*
X157978000Y-92727000D01*
X162128000Y-92842000D02*
X162128000Y-92727000D01*
X162128000Y-83942000D02*
X162128000Y-84057000D01*
X157978000Y-83942000D02*
X157978000Y-84057000D01*
X157978000Y-92842000D02*
X162128000Y-92842000D01*
X157978000Y-83942000D02*
X162128000Y-83942000D01*
X157978000Y-92727000D02*
X156603000Y-92727000D01*
D11*
X161696400Y-131749800D02*
G75*
G03X161696400Y-131749800I-5994400J0D01*
G01*
D17*
G36*
X151743992Y-92887971D02*
X151625135Y-92938853D01*
X151551667Y-92997377D01*
X151505736Y-93044726D01*
X151475594Y-93080593D01*
X151468666Y-93093284D01*
X151474582Y-93103527D01*
X151494486Y-93119677D01*
X151531613Y-93143536D01*
X151589199Y-93176909D01*
X151670478Y-93221599D01*
X151778685Y-93279409D01*
X151917056Y-93352142D01*
X152088826Y-93441601D01*
X152156583Y-93476757D01*
X152378239Y-93592642D01*
X152563061Y-93691431D01*
X152712543Y-93773996D01*
X152828179Y-93841212D01*
X152911466Y-93893954D01*
X152963896Y-93933096D01*
X152986966Y-93959511D01*
X152988146Y-93963129D01*
X152976996Y-93982854D01*
X152932735Y-94003228D01*
X152851295Y-94025996D01*
X152829396Y-94031174D01*
X152683998Y-94072791D01*
X152552188Y-94125762D01*
X152439576Y-94186544D01*
X152351773Y-94251596D01*
X152294386Y-94317376D01*
X152273026Y-94380342D01*
X152273000Y-94382475D01*
X152286892Y-94455205D01*
X152329277Y-94549943D01*
X152401216Y-94668657D01*
X152503772Y-94813316D01*
X152510138Y-94821819D01*
X152571650Y-94906241D01*
X152621701Y-94979657D01*
X152655737Y-95035026D01*
X152669202Y-95065304D01*
X152669076Y-95067590D01*
X152642372Y-95087729D01*
X152587211Y-95097486D01*
X152516345Y-95096165D01*
X152442528Y-95083073D01*
X152433291Y-95080443D01*
X152383026Y-95062016D01*
X152304780Y-95029354D01*
X152208603Y-94986811D01*
X152104546Y-94938741D01*
X152087204Y-94930526D01*
X151989168Y-94884820D01*
X151903576Y-94846606D01*
X151838265Y-94819260D01*
X151801075Y-94806157D01*
X151796886Y-94805500D01*
X151767082Y-94814453D01*
X151753838Y-94843180D01*
X151757965Y-94894484D01*
X151780275Y-94971169D01*
X151821576Y-95076036D01*
X151882680Y-95211889D01*
X151962169Y-95377000D01*
X152029937Y-95516743D01*
X152078975Y-95623567D01*
X152110545Y-95701867D01*
X152125908Y-95756038D01*
X152126326Y-95790477D01*
X152113059Y-95809580D01*
X152088583Y-95817577D01*
X152055564Y-95817518D01*
X152015023Y-95807017D01*
X151962796Y-95783657D01*
X151894723Y-95745025D01*
X151806642Y-95688703D01*
X151694392Y-95612279D01*
X151553811Y-95513335D01*
X151507402Y-95480264D01*
X151389093Y-95396563D01*
X151275145Y-95317368D01*
X151172563Y-95247440D01*
X151088351Y-95191538D01*
X151029513Y-95154425D01*
X151018840Y-95148217D01*
X150936981Y-95106054D01*
X150857830Y-95071930D01*
X150791088Y-95049361D01*
X150746455Y-95041861D01*
X150734962Y-95045315D01*
X150733965Y-95069861D01*
X150741582Y-95124488D01*
X150756207Y-95198196D01*
X150759191Y-95211466D01*
X150784762Y-95367102D01*
X150793458Y-95527123D01*
X150785360Y-95677749D01*
X150760549Y-95805194D01*
X150755640Y-95820719D01*
X150730072Y-95884735D01*
X150704320Y-95930067D01*
X150689322Y-95944058D01*
X150658143Y-95934133D01*
X150610576Y-95895793D01*
X150553224Y-95836169D01*
X150492688Y-95762392D01*
X150435570Y-95681596D01*
X150413411Y-95645978D01*
X150364664Y-95558517D01*
X150320618Y-95466402D01*
X150278225Y-95361726D01*
X150234436Y-95236583D01*
X150186203Y-95083062D01*
X150152108Y-94968025D01*
X150119334Y-94859880D01*
X150088981Y-94767521D01*
X150063551Y-94697988D01*
X150045547Y-94658322D01*
X150039702Y-94651786D01*
X150020570Y-94668416D01*
X149990185Y-94715137D01*
X149953049Y-94782745D01*
X149913663Y-94862038D01*
X149876530Y-94943815D01*
X149846151Y-95018872D01*
X149827028Y-95078008D01*
X149823868Y-95092983D01*
X149826527Y-95165054D01*
X149861977Y-95210386D01*
X149929897Y-95228612D01*
X149943420Y-95228987D01*
X149968273Y-95231793D01*
X149987548Y-95244861D01*
X150005050Y-95275411D01*
X150024587Y-95330666D01*
X150049965Y-95417845D01*
X150057800Y-95445945D01*
X150122642Y-95655899D01*
X150201781Y-95873420D01*
X150292656Y-96093935D01*
X150392706Y-96312874D01*
X150499368Y-96525663D01*
X150610082Y-96727730D01*
X150722286Y-96914504D01*
X150833418Y-97081412D01*
X150940917Y-97223882D01*
X151042222Y-97337341D01*
X151134770Y-97417218D01*
X151176574Y-97442934D01*
X151257875Y-97470985D01*
X151325704Y-97467174D01*
X151372759Y-97432396D01*
X151380918Y-97417894D01*
X151406719Y-97335575D01*
X151425021Y-97226044D01*
X151434404Y-97103985D01*
X151433450Y-96984078D01*
X151428350Y-96927071D01*
X151412127Y-96824729D01*
X151389237Y-96747249D01*
X151352919Y-96677156D01*
X151305123Y-96608568D01*
X151275164Y-96562624D01*
X151263005Y-96531761D01*
X151264227Y-96526884D01*
X151270453Y-96524137D01*
X151282028Y-96526908D01*
X151302381Y-96537626D01*
X151334945Y-96558721D01*
X151383150Y-96592622D01*
X151450426Y-96641759D01*
X151540206Y-96708562D01*
X151655920Y-96795458D01*
X151801000Y-96904879D01*
X151845198Y-96938258D01*
X151977998Y-97037675D01*
X152114238Y-97138088D01*
X152245731Y-97233574D01*
X152364286Y-97318212D01*
X152461716Y-97386078D01*
X152501365Y-97412809D01*
X152680127Y-97525428D01*
X152839031Y-97613705D01*
X152975951Y-97676832D01*
X153088760Y-97713999D01*
X153175330Y-97724398D01*
X153233534Y-97707221D01*
X153245791Y-97695805D01*
X153270250Y-97639671D01*
X153273467Y-97554764D01*
X153255129Y-97439891D01*
X153214929Y-97293859D01*
X153152555Y-97115473D01*
X153067697Y-96903541D01*
X152998139Y-96742250D01*
X152919407Y-96562432D01*
X152857203Y-96416673D01*
X152809945Y-96300772D01*
X152776048Y-96210524D01*
X152753928Y-96141727D01*
X152742000Y-96090178D01*
X152738666Y-96053850D01*
X152741738Y-96014300D01*
X152758815Y-95996131D01*
X152801696Y-95991087D01*
X152828625Y-95990895D01*
X152882570Y-95998278D01*
X152971280Y-96019493D01*
X153089996Y-96053211D01*
X153233957Y-96098101D01*
X153352500Y-96137244D01*
X153563382Y-96207343D01*
X153738212Y-96262953D01*
X153880466Y-96304738D01*
X153993622Y-96333360D01*
X154081157Y-96349482D01*
X154146548Y-96353767D01*
X154193271Y-96346877D01*
X154224804Y-96329474D01*
X154242303Y-96306833D01*
X154254816Y-96260907D01*
X154247090Y-96204531D01*
X154217590Y-96135799D01*
X154164783Y-96052807D01*
X154087134Y-95953652D01*
X153983110Y-95836428D01*
X153851177Y-95699233D01*
X153689800Y-95540162D01*
X153497446Y-95357310D01*
X153416460Y-95281706D01*
X153309752Y-95181265D01*
X153211776Y-95086701D01*
X153127445Y-95002944D01*
X153061671Y-94934923D01*
X153019368Y-94887568D01*
X153007387Y-94871282D01*
X152983549Y-94827009D01*
X152983315Y-94804153D01*
X153008844Y-94787629D01*
X153020109Y-94782445D01*
X153054222Y-94774014D01*
X153110557Y-94771451D01*
X153194598Y-94774910D01*
X153311828Y-94784543D01*
X153396971Y-94792998D01*
X153608438Y-94812322D01*
X153790134Y-94823588D01*
X153939632Y-94826800D01*
X154054501Y-94821961D01*
X154132314Y-94809077D01*
X154167649Y-94791660D01*
X154193800Y-94736959D01*
X154186733Y-94661565D01*
X154148478Y-94568233D01*
X154081061Y-94459720D01*
X153986511Y-94338784D01*
X153866854Y-94208182D01*
X153724119Y-94070669D01*
X153560333Y-93929003D01*
X153493457Y-93875019D01*
X153296788Y-93726432D01*
X153072020Y-93568913D01*
X152830250Y-93409523D01*
X152582574Y-93255324D01*
X152340091Y-93113377D01*
X152113896Y-92990743D01*
X152063557Y-92965116D01*
X151853317Y-92859613D01*
X151743992Y-92887971D01*
X151743992Y-92887971D01*
G37*
X151743992Y-92887971D02*
X151625135Y-92938853D01*
X151551667Y-92997377D01*
X151505736Y-93044726D01*
X151475594Y-93080593D01*
X151468666Y-93093284D01*
X151474582Y-93103527D01*
X151494486Y-93119677D01*
X151531613Y-93143536D01*
X151589199Y-93176909D01*
X151670478Y-93221599D01*
X151778685Y-93279409D01*
X151917056Y-93352142D01*
X152088826Y-93441601D01*
X152156583Y-93476757D01*
X152378239Y-93592642D01*
X152563061Y-93691431D01*
X152712543Y-93773996D01*
X152828179Y-93841212D01*
X152911466Y-93893954D01*
X152963896Y-93933096D01*
X152986966Y-93959511D01*
X152988146Y-93963129D01*
X152976996Y-93982854D01*
X152932735Y-94003228D01*
X152851295Y-94025996D01*
X152829396Y-94031174D01*
X152683998Y-94072791D01*
X152552188Y-94125762D01*
X152439576Y-94186544D01*
X152351773Y-94251596D01*
X152294386Y-94317376D01*
X152273026Y-94380342D01*
X152273000Y-94382475D01*
X152286892Y-94455205D01*
X152329277Y-94549943D01*
X152401216Y-94668657D01*
X152503772Y-94813316D01*
X152510138Y-94821819D01*
X152571650Y-94906241D01*
X152621701Y-94979657D01*
X152655737Y-95035026D01*
X152669202Y-95065304D01*
X152669076Y-95067590D01*
X152642372Y-95087729D01*
X152587211Y-95097486D01*
X152516345Y-95096165D01*
X152442528Y-95083073D01*
X152433291Y-95080443D01*
X152383026Y-95062016D01*
X152304780Y-95029354D01*
X152208603Y-94986811D01*
X152104546Y-94938741D01*
X152087204Y-94930526D01*
X151989168Y-94884820D01*
X151903576Y-94846606D01*
X151838265Y-94819260D01*
X151801075Y-94806157D01*
X151796886Y-94805500D01*
X151767082Y-94814453D01*
X151753838Y-94843180D01*
X151757965Y-94894484D01*
X151780275Y-94971169D01*
X151821576Y-95076036D01*
X151882680Y-95211889D01*
X151962169Y-95377000D01*
X152029937Y-95516743D01*
X152078975Y-95623567D01*
X152110545Y-95701867D01*
X152125908Y-95756038D01*
X152126326Y-95790477D01*
X152113059Y-95809580D01*
X152088583Y-95817577D01*
X152055564Y-95817518D01*
X152015023Y-95807017D01*
X151962796Y-95783657D01*
X151894723Y-95745025D01*
X151806642Y-95688703D01*
X151694392Y-95612279D01*
X151553811Y-95513335D01*
X151507402Y-95480264D01*
X151389093Y-95396563D01*
X151275145Y-95317368D01*
X151172563Y-95247440D01*
X151088351Y-95191538D01*
X151029513Y-95154425D01*
X151018840Y-95148217D01*
X150936981Y-95106054D01*
X150857830Y-95071930D01*
X150791088Y-95049361D01*
X150746455Y-95041861D01*
X150734962Y-95045315D01*
X150733965Y-95069861D01*
X150741582Y-95124488D01*
X150756207Y-95198196D01*
X150759191Y-95211466D01*
X150784762Y-95367102D01*
X150793458Y-95527123D01*
X150785360Y-95677749D01*
X150760549Y-95805194D01*
X150755640Y-95820719D01*
X150730072Y-95884735D01*
X150704320Y-95930067D01*
X150689322Y-95944058D01*
X150658143Y-95934133D01*
X150610576Y-95895793D01*
X150553224Y-95836169D01*
X150492688Y-95762392D01*
X150435570Y-95681596D01*
X150413411Y-95645978D01*
X150364664Y-95558517D01*
X150320618Y-95466402D01*
X150278225Y-95361726D01*
X150234436Y-95236583D01*
X150186203Y-95083062D01*
X150152108Y-94968025D01*
X150119334Y-94859880D01*
X150088981Y-94767521D01*
X150063551Y-94697988D01*
X150045547Y-94658322D01*
X150039702Y-94651786D01*
X150020570Y-94668416D01*
X149990185Y-94715137D01*
X149953049Y-94782745D01*
X149913663Y-94862038D01*
X149876530Y-94943815D01*
X149846151Y-95018872D01*
X149827028Y-95078008D01*
X149823868Y-95092983D01*
X149826527Y-95165054D01*
X149861977Y-95210386D01*
X149929897Y-95228612D01*
X149943420Y-95228987D01*
X149968273Y-95231793D01*
X149987548Y-95244861D01*
X150005050Y-95275411D01*
X150024587Y-95330666D01*
X150049965Y-95417845D01*
X150057800Y-95445945D01*
X150122642Y-95655899D01*
X150201781Y-95873420D01*
X150292656Y-96093935D01*
X150392706Y-96312874D01*
X150499368Y-96525663D01*
X150610082Y-96727730D01*
X150722286Y-96914504D01*
X150833418Y-97081412D01*
X150940917Y-97223882D01*
X151042222Y-97337341D01*
X151134770Y-97417218D01*
X151176574Y-97442934D01*
X151257875Y-97470985D01*
X151325704Y-97467174D01*
X151372759Y-97432396D01*
X151380918Y-97417894D01*
X151406719Y-97335575D01*
X151425021Y-97226044D01*
X151434404Y-97103985D01*
X151433450Y-96984078D01*
X151428350Y-96927071D01*
X151412127Y-96824729D01*
X151389237Y-96747249D01*
X151352919Y-96677156D01*
X151305123Y-96608568D01*
X151275164Y-96562624D01*
X151263005Y-96531761D01*
X151264227Y-96526884D01*
X151270453Y-96524137D01*
X151282028Y-96526908D01*
X151302381Y-96537626D01*
X151334945Y-96558721D01*
X151383150Y-96592622D01*
X151450426Y-96641759D01*
X151540206Y-96708562D01*
X151655920Y-96795458D01*
X151801000Y-96904879D01*
X151845198Y-96938258D01*
X151977998Y-97037675D01*
X152114238Y-97138088D01*
X152245731Y-97233574D01*
X152364286Y-97318212D01*
X152461716Y-97386078D01*
X152501365Y-97412809D01*
X152680127Y-97525428D01*
X152839031Y-97613705D01*
X152975951Y-97676832D01*
X153088760Y-97713999D01*
X153175330Y-97724398D01*
X153233534Y-97707221D01*
X153245791Y-97695805D01*
X153270250Y-97639671D01*
X153273467Y-97554764D01*
X153255129Y-97439891D01*
X153214929Y-97293859D01*
X153152555Y-97115473D01*
X153067697Y-96903541D01*
X152998139Y-96742250D01*
X152919407Y-96562432D01*
X152857203Y-96416673D01*
X152809945Y-96300772D01*
X152776048Y-96210524D01*
X152753928Y-96141727D01*
X152742000Y-96090178D01*
X152738666Y-96053850D01*
X152741738Y-96014300D01*
X152758815Y-95996131D01*
X152801696Y-95991087D01*
X152828625Y-95990895D01*
X152882570Y-95998278D01*
X152971280Y-96019493D01*
X153089996Y-96053211D01*
X153233957Y-96098101D01*
X153352500Y-96137244D01*
X153563382Y-96207343D01*
X153738212Y-96262953D01*
X153880466Y-96304738D01*
X153993622Y-96333360D01*
X154081157Y-96349482D01*
X154146548Y-96353767D01*
X154193271Y-96346877D01*
X154224804Y-96329474D01*
X154242303Y-96306833D01*
X154254816Y-96260907D01*
X154247090Y-96204531D01*
X154217590Y-96135799D01*
X154164783Y-96052807D01*
X154087134Y-95953652D01*
X153983110Y-95836428D01*
X153851177Y-95699233D01*
X153689800Y-95540162D01*
X153497446Y-95357310D01*
X153416460Y-95281706D01*
X153309752Y-95181265D01*
X153211776Y-95086701D01*
X153127445Y-95002944D01*
X153061671Y-94934923D01*
X153019368Y-94887568D01*
X153007387Y-94871282D01*
X152983549Y-94827009D01*
X152983315Y-94804153D01*
X153008844Y-94787629D01*
X153020109Y-94782445D01*
X153054222Y-94774014D01*
X153110557Y-94771451D01*
X153194598Y-94774910D01*
X153311828Y-94784543D01*
X153396971Y-94792998D01*
X153608438Y-94812322D01*
X153790134Y-94823588D01*
X153939632Y-94826800D01*
X154054501Y-94821961D01*
X154132314Y-94809077D01*
X154167649Y-94791660D01*
X154193800Y-94736959D01*
X154186733Y-94661565D01*
X154148478Y-94568233D01*
X154081061Y-94459720D01*
X153986511Y-94338784D01*
X153866854Y-94208182D01*
X153724119Y-94070669D01*
X153560333Y-93929003D01*
X153493457Y-93875019D01*
X153296788Y-93726432D01*
X153072020Y-93568913D01*
X152830250Y-93409523D01*
X152582574Y-93255324D01*
X152340091Y-93113377D01*
X152113896Y-92990743D01*
X152063557Y-92965116D01*
X151853317Y-92859613D01*
X151743992Y-92887971D01*
G36*
X146832302Y-85718681D02*
X146391301Y-85784343D01*
X145953791Y-85889928D01*
X145522241Y-86035876D01*
X145238194Y-86156218D01*
X144929760Y-86315182D01*
X144619391Y-86507748D01*
X144316649Y-86726773D01*
X144031097Y-86965117D01*
X143772296Y-87215638D01*
X143669328Y-87327924D01*
X143377128Y-87689477D01*
X143124050Y-88066672D01*
X142909801Y-88460217D01*
X142734086Y-88870817D01*
X142596609Y-89299181D01*
X142497077Y-89746015D01*
X142435195Y-90212027D01*
X142427112Y-90310276D01*
X142416683Y-90682554D01*
X142437719Y-91070545D01*
X142488675Y-91463458D01*
X142568007Y-91850499D01*
X142674172Y-92220876D01*
X142718651Y-92348024D01*
X142894253Y-92765183D01*
X143105646Y-93162641D01*
X143350547Y-93538308D01*
X143626673Y-93890091D01*
X143931741Y-94215898D01*
X144263468Y-94513638D01*
X144619572Y-94781218D01*
X144997770Y-95016546D01*
X145395779Y-95217532D01*
X145811316Y-95382082D01*
X146138338Y-95481724D01*
X146343488Y-95533525D01*
X146528182Y-95573183D01*
X146704344Y-95602269D01*
X146883896Y-95622349D01*
X147078761Y-95634993D01*
X147300861Y-95641769D01*
X147362333Y-95642734D01*
X147511004Y-95643762D01*
X147655319Y-95643020D01*
X147786476Y-95640683D01*
X147895670Y-95636927D01*
X147974098Y-95631929D01*
X147990912Y-95630140D01*
X148085310Y-95617390D01*
X148179499Y-95603048D01*
X148244912Y-95591714D01*
X148286364Y-95583042D01*
X148300414Y-95577231D01*
X148283418Y-95573583D01*
X148231733Y-95571402D01*
X148141715Y-95569990D01*
X148130709Y-95569867D01*
X147728767Y-95544625D01*
X147327475Y-95478775D01*
X146930468Y-95373936D01*
X146541379Y-95231729D01*
X146163842Y-95053773D01*
X145801490Y-94841688D01*
X145457958Y-94597095D01*
X145136878Y-94321613D01*
X144977630Y-94164238D01*
X144693828Y-93841112D01*
X144444134Y-93497972D01*
X144229048Y-93137615D01*
X144049073Y-92762840D01*
X143904709Y-92376444D01*
X143796457Y-91981224D01*
X143724818Y-91579978D01*
X143690294Y-91175504D01*
X143693384Y-90770600D01*
X143734590Y-90368063D01*
X143814414Y-89970691D01*
X143933356Y-89581281D01*
X144089865Y-89206917D01*
X144289568Y-88836440D01*
X144520781Y-88493910D01*
X144782604Y-88180233D01*
X145074135Y-87896316D01*
X145394475Y-87643066D01*
X145742722Y-87421391D01*
X145992871Y-87290184D01*
X146374751Y-87128778D01*
X146766969Y-87007388D01*
X147166911Y-86925728D01*
X147571962Y-86883511D01*
X147979508Y-86880449D01*
X148386935Y-86916256D01*
X148791629Y-86990645D01*
X149190975Y-87103329D01*
X149582359Y-87254021D01*
X149963167Y-87442434D01*
X150330784Y-87668281D01*
X150494057Y-87784156D01*
X150627717Y-87890194D01*
X150776947Y-88020226D01*
X150931618Y-88164604D01*
X151081604Y-88313681D01*
X151216777Y-88457808D01*
X151291727Y-88544060D01*
X151482190Y-88792960D01*
X151664706Y-89071771D01*
X151832138Y-89368077D01*
X151977349Y-89669463D01*
X152069454Y-89896976D01*
X152135358Y-90094920D01*
X152196055Y-90313570D01*
X152249148Y-90541445D01*
X152292239Y-90767064D01*
X152322932Y-90978944D01*
X152338830Y-91165604D01*
X152339830Y-91192019D01*
X152341774Y-91246855D01*
X152344043Y-91267424D01*
X152347740Y-91251480D01*
X152353967Y-91196777D01*
X152358368Y-91154250D01*
X152377602Y-90810105D01*
X152368165Y-90446493D01*
X152331236Y-90073968D01*
X152267990Y-89703084D01*
X152179607Y-89344394D01*
X152143053Y-89224005D01*
X151983251Y-88786660D01*
X151791749Y-88376568D01*
X151567140Y-87991412D01*
X151308017Y-87628875D01*
X151012975Y-87286641D01*
X150890961Y-87161248D01*
X150550888Y-86851826D01*
X150189609Y-86577937D01*
X149809593Y-86340019D01*
X149413309Y-86138512D01*
X149003229Y-85973855D01*
X148581820Y-85846486D01*
X148151553Y-85756845D01*
X147714898Y-85705371D01*
X147274325Y-85692504D01*
X146832302Y-85718681D01*
X146832302Y-85718681D01*
G37*
X146832302Y-85718681D02*
X146391301Y-85784343D01*
X145953791Y-85889928D01*
X145522241Y-86035876D01*
X145238194Y-86156218D01*
X144929760Y-86315182D01*
X144619391Y-86507748D01*
X144316649Y-86726773D01*
X144031097Y-86965117D01*
X143772296Y-87215638D01*
X143669328Y-87327924D01*
X143377128Y-87689477D01*
X143124050Y-88066672D01*
X142909801Y-88460217D01*
X142734086Y-88870817D01*
X142596609Y-89299181D01*
X142497077Y-89746015D01*
X142435195Y-90212027D01*
X142427112Y-90310276D01*
X142416683Y-90682554D01*
X142437719Y-91070545D01*
X142488675Y-91463458D01*
X142568007Y-91850499D01*
X142674172Y-92220876D01*
X142718651Y-92348024D01*
X142894253Y-92765183D01*
X143105646Y-93162641D01*
X143350547Y-93538308D01*
X143626673Y-93890091D01*
X143931741Y-94215898D01*
X144263468Y-94513638D01*
X144619572Y-94781218D01*
X144997770Y-95016546D01*
X145395779Y-95217532D01*
X145811316Y-95382082D01*
X146138338Y-95481724D01*
X146343488Y-95533525D01*
X146528182Y-95573183D01*
X146704344Y-95602269D01*
X146883896Y-95622349D01*
X147078761Y-95634993D01*
X147300861Y-95641769D01*
X147362333Y-95642734D01*
X147511004Y-95643762D01*
X147655319Y-95643020D01*
X147786476Y-95640683D01*
X147895670Y-95636927D01*
X147974098Y-95631929D01*
X147990912Y-95630140D01*
X148085310Y-95617390D01*
X148179499Y-95603048D01*
X148244912Y-95591714D01*
X148286364Y-95583042D01*
X148300414Y-95577231D01*
X148283418Y-95573583D01*
X148231733Y-95571402D01*
X148141715Y-95569990D01*
X148130709Y-95569867D01*
X147728767Y-95544625D01*
X147327475Y-95478775D01*
X146930468Y-95373936D01*
X146541379Y-95231729D01*
X146163842Y-95053773D01*
X145801490Y-94841688D01*
X145457958Y-94597095D01*
X145136878Y-94321613D01*
X144977630Y-94164238D01*
X144693828Y-93841112D01*
X144444134Y-93497972D01*
X144229048Y-93137615D01*
X144049073Y-92762840D01*
X143904709Y-92376444D01*
X143796457Y-91981224D01*
X143724818Y-91579978D01*
X143690294Y-91175504D01*
X143693384Y-90770600D01*
X143734590Y-90368063D01*
X143814414Y-89970691D01*
X143933356Y-89581281D01*
X144089865Y-89206917D01*
X144289568Y-88836440D01*
X144520781Y-88493910D01*
X144782604Y-88180233D01*
X145074135Y-87896316D01*
X145394475Y-87643066D01*
X145742722Y-87421391D01*
X145992871Y-87290184D01*
X146374751Y-87128778D01*
X146766969Y-87007388D01*
X147166911Y-86925728D01*
X147571962Y-86883511D01*
X147979508Y-86880449D01*
X148386935Y-86916256D01*
X148791629Y-86990645D01*
X149190975Y-87103329D01*
X149582359Y-87254021D01*
X149963167Y-87442434D01*
X150330784Y-87668281D01*
X150494057Y-87784156D01*
X150627717Y-87890194D01*
X150776947Y-88020226D01*
X150931618Y-88164604D01*
X151081604Y-88313681D01*
X151216777Y-88457808D01*
X151291727Y-88544060D01*
X151482190Y-88792960D01*
X151664706Y-89071771D01*
X151832138Y-89368077D01*
X151977349Y-89669463D01*
X152069454Y-89896976D01*
X152135358Y-90094920D01*
X152196055Y-90313570D01*
X152249148Y-90541445D01*
X152292239Y-90767064D01*
X152322932Y-90978944D01*
X152338830Y-91165604D01*
X152339830Y-91192019D01*
X152341774Y-91246855D01*
X152344043Y-91267424D01*
X152347740Y-91251480D01*
X152353967Y-91196777D01*
X152358368Y-91154250D01*
X152377602Y-90810105D01*
X152368165Y-90446493D01*
X152331236Y-90073968D01*
X152267990Y-89703084D01*
X152179607Y-89344394D01*
X152143053Y-89224005D01*
X151983251Y-88786660D01*
X151791749Y-88376568D01*
X151567140Y-87991412D01*
X151308017Y-87628875D01*
X151012975Y-87286641D01*
X150890961Y-87161248D01*
X150550888Y-86851826D01*
X150189609Y-86577937D01*
X149809593Y-86340019D01*
X149413309Y-86138512D01*
X149003229Y-85973855D01*
X148581820Y-85846486D01*
X148151553Y-85756845D01*
X147714898Y-85705371D01*
X147274325Y-85692504D01*
X146832302Y-85718681D01*
G36*
X146365078Y-87677613D02*
X146271860Y-87715332D01*
X146188748Y-87768013D01*
X146166958Y-87786869D01*
X146119308Y-87838413D01*
X146097545Y-87886399D01*
X146092473Y-87949999D01*
X146110829Y-88054666D01*
X146167198Y-88151253D01*
X146237644Y-88222667D01*
X146261632Y-88249993D01*
X146290836Y-88296696D01*
X146327063Y-88366553D01*
X146372125Y-88463341D01*
X146427829Y-88590837D01*
X146495986Y-88752819D01*
X146523852Y-88820140D01*
X146582381Y-88962695D01*
X146635228Y-89092711D01*
X146680324Y-89204993D01*
X146715598Y-89294342D01*
X146738982Y-89355562D01*
X146748404Y-89383455D01*
X146748500Y-89384258D01*
X146731967Y-89406734D01*
X146691079Y-89437557D01*
X146679708Y-89444560D01*
X146536229Y-89546347D01*
X146396892Y-89675782D01*
X146275637Y-89819329D01*
X146237920Y-89873653D01*
X146189265Y-89946482D01*
X146148802Y-90003578D01*
X146122157Y-90037178D01*
X146115267Y-90042843D01*
X146091617Y-90036386D01*
X146035924Y-90018865D01*
X145956219Y-89992866D01*
X145860532Y-89960975D01*
X145848916Y-89957064D01*
X145742012Y-89922741D01*
X145640175Y-89893075D01*
X145555115Y-89871295D01*
X145499666Y-89860753D01*
X145443539Y-89858347D01*
X145393409Y-89867908D01*
X145341387Y-89893818D01*
X145279584Y-89940455D01*
X145200111Y-90012199D01*
X145162772Y-90047788D01*
X145020379Y-90178819D01*
X144884902Y-90292206D01*
X144761448Y-90384126D01*
X144655123Y-90450754D01*
X144576575Y-90486513D01*
X144468135Y-90531893D01*
X144398094Y-90585397D01*
X144362765Y-90650615D01*
X144356666Y-90700464D01*
X144372693Y-90780055D01*
X144415359Y-90865630D01*
X144476550Y-90947801D01*
X144548148Y-91017184D01*
X144622035Y-91064391D01*
X144685026Y-91080167D01*
X144749771Y-91060820D01*
X144816446Y-91007568D01*
X144876779Y-90927591D01*
X144891750Y-90900729D01*
X144919584Y-90858000D01*
X144964038Y-90808177D01*
X145029586Y-90747112D01*
X145120704Y-90670659D01*
X145241867Y-90574670D01*
X145252674Y-90566270D01*
X145363817Y-90479628D01*
X145448062Y-90415663D01*
X145512864Y-90372314D01*
X145565680Y-90347522D01*
X145613964Y-90339225D01*
X145665171Y-90345363D01*
X145726758Y-90363875D01*
X145806179Y-90392702D01*
X145838333Y-90404401D01*
X145954750Y-90446359D01*
X145955727Y-90779138D01*
X145956859Y-90912607D01*
X145960080Y-91013933D01*
X145966475Y-91093295D01*
X145977128Y-91160870D01*
X145993124Y-91226837D01*
X146009240Y-91281250D01*
X146061776Y-91450583D01*
X145987096Y-91555801D01*
X145943694Y-91622457D01*
X145921475Y-91677979D01*
X145913856Y-91743187D01*
X145913486Y-91788634D01*
X145920449Y-91881790D01*
X145943067Y-91962048D01*
X145986514Y-92039366D01*
X146055967Y-92123704D01*
X146123747Y-92193151D01*
X146261648Y-92310482D01*
X146394757Y-92387181D01*
X146522244Y-92423029D01*
X146643281Y-92417808D01*
X146757039Y-92371300D01*
X146769780Y-92363187D01*
X146858790Y-92304283D01*
X147041770Y-92364267D01*
X147124646Y-92389943D01*
X147195752Y-92407111D01*
X147267795Y-92417434D01*
X147353483Y-92422575D01*
X147465524Y-92424199D01*
X147499916Y-92424250D01*
X147643449Y-92421975D01*
X147755753Y-92414455D01*
X147847725Y-92400648D01*
X147912666Y-92384755D01*
X147990158Y-92362906D01*
X148056529Y-92344888D01*
X148094352Y-92335336D01*
X148103217Y-92333073D01*
X148111437Y-92332350D01*
X148120310Y-92335773D01*
X148131131Y-92345948D01*
X148145198Y-92365480D01*
X148163807Y-92396974D01*
X148188255Y-92443037D01*
X148219838Y-92506274D01*
X148259852Y-92589291D01*
X148309595Y-92694693D01*
X148370363Y-92825086D01*
X148443453Y-92983076D01*
X148530161Y-93171268D01*
X148631783Y-93392268D01*
X148749617Y-93648681D01*
X148770559Y-93694250D01*
X148899051Y-93972556D01*
X149011309Y-94212936D01*
X149107806Y-94416360D01*
X149189015Y-94583801D01*
X149255410Y-94716227D01*
X149307464Y-94814612D01*
X149345650Y-94879924D01*
X149356043Y-94895458D01*
X149403567Y-94941682D01*
X149457142Y-94950632D01*
X149520539Y-94921790D01*
X149588880Y-94863316D01*
X149624912Y-94826031D01*
X149685230Y-94761766D01*
X149765746Y-94674955D01*
X149862370Y-94570035D01*
X149971014Y-94451440D01*
X150087590Y-94323607D01*
X150169358Y-94233607D01*
X150316000Y-94072802D01*
X150481722Y-93892504D01*
X150657110Y-93702866D01*
X150832746Y-93514037D01*
X150999215Y-93336170D01*
X151147102Y-93179416D01*
X151150658Y-93175667D01*
X151297120Y-93020529D01*
X151416167Y-92892417D01*
X151510202Y-92788304D01*
X151581627Y-92705164D01*
X151632845Y-92639970D01*
X151666258Y-92589697D01*
X151679606Y-92561253D01*
X151536236Y-92561253D01*
X151391326Y-92717116D01*
X151339591Y-92772523D01*
X151263882Y-92853282D01*
X151169295Y-92953972D01*
X151060926Y-93069172D01*
X150943873Y-93193462D01*
X150823233Y-93321421D01*
X150789006Y-93357698D01*
X150656288Y-93498980D01*
X150515203Y-93650292D01*
X150373284Y-93803479D01*
X150238059Y-93950388D01*
X150117061Y-94082864D01*
X150018793Y-94191667D01*
X149860884Y-94366992D01*
X149728146Y-94512267D01*
X149620998Y-94627048D01*
X149539861Y-94710894D01*
X149485156Y-94763361D01*
X149457305Y-94784007D01*
X149455551Y-94784333D01*
X149441789Y-94766349D01*
X149413260Y-94716786D01*
X149373520Y-94642224D01*
X149326129Y-94549245D01*
X149300173Y-94496884D01*
X149209395Y-94309568D01*
X149108791Y-94097694D01*
X149005106Y-93875659D01*
X148905085Y-93657862D01*
X148850484Y-93537091D01*
X148798927Y-93422266D01*
X148890255Y-93503689D01*
X148935850Y-93545150D01*
X149005070Y-93609112D01*
X149090810Y-93688962D01*
X149185962Y-93778086D01*
X149263801Y-93851347D01*
X149356656Y-93937837D01*
X149441617Y-94014913D01*
X149512894Y-94077482D01*
X149564692Y-94120450D01*
X149589993Y-94138210D01*
X149612378Y-94143667D01*
X149638008Y-94135636D01*
X149672906Y-94109557D01*
X149723100Y-94060868D01*
X149794614Y-93985011D01*
X149799748Y-93979460D01*
X149865371Y-93906670D01*
X149918749Y-93844068D01*
X149954085Y-93798682D01*
X149965680Y-93778193D01*
X149951637Y-93753672D01*
X149914416Y-93709089D01*
X149861622Y-93653448D01*
X149853238Y-93645107D01*
X149740643Y-93533911D01*
X149630988Y-93649855D01*
X149569865Y-93716353D01*
X149535776Y-93760942D01*
X149525554Y-93791375D01*
X149536031Y-93815407D01*
X149555746Y-93834044D01*
X149577994Y-93845871D01*
X149602545Y-93838248D01*
X149637918Y-93806114D01*
X149677965Y-93761390D01*
X149765771Y-93660176D01*
X149856353Y-93757750D01*
X149721712Y-93905917D01*
X149587070Y-94054083D01*
X149539662Y-94007205D01*
X149508737Y-93972365D01*
X149507054Y-93947936D01*
X149527112Y-93921809D01*
X149549705Y-93890880D01*
X149539146Y-93870068D01*
X149518458Y-93856116D01*
X149478912Y-93840133D01*
X149444995Y-93856253D01*
X149438264Y-93862138D01*
X149402362Y-93886150D01*
X149371309Y-93895089D01*
X149357860Y-93886823D01*
X149362157Y-93874855D01*
X149354816Y-93850658D01*
X149322544Y-93809912D01*
X149288745Y-93776620D01*
X149240248Y-93731193D01*
X149219268Y-93702912D01*
X149221430Y-93681085D01*
X149240015Y-93657602D01*
X149264845Y-93625518D01*
X149259112Y-93604603D01*
X149236781Y-93586675D01*
X149200790Y-93567983D01*
X149170599Y-93580567D01*
X149161312Y-93588587D01*
X149122236Y-93615316D01*
X149094966Y-93620693D01*
X149089054Y-93605969D01*
X149105474Y-93581269D01*
X149128744Y-93549421D01*
X149120359Y-93525182D01*
X149102116Y-93507474D01*
X149066946Y-93485257D01*
X149039472Y-93496684D01*
X149038209Y-93497924D01*
X149012563Y-93509230D01*
X148979391Y-93489229D01*
X148966808Y-93477215D01*
X148936581Y-93442768D01*
X148935619Y-93418412D01*
X148956631Y-93391516D01*
X148980421Y-93359453D01*
X148972918Y-93335500D01*
X148953440Y-93316514D01*
X148922348Y-93293706D01*
X148898152Y-93301012D01*
X148875905Y-93323662D01*
X148844957Y-93352877D01*
X148817308Y-93363520D01*
X148789534Y-93351935D01*
X148758213Y-93314462D01*
X148719920Y-93247443D01*
X148671231Y-93147222D01*
X148633206Y-93064344D01*
X148543095Y-92867397D01*
X148459753Y-92688662D01*
X148384811Y-92531452D01*
X148319900Y-92399078D01*
X148266650Y-92294854D01*
X148226691Y-92222093D01*
X148201654Y-92184106D01*
X148198335Y-92180765D01*
X148173443Y-92170671D01*
X148131964Y-92173457D01*
X148065450Y-92190392D01*
X148003359Y-92210062D01*
X147784509Y-92270265D01*
X147583011Y-92298561D01*
X147388538Y-92295075D01*
X147190764Y-92259933D01*
X147059504Y-92221489D01*
X146974124Y-92194225D01*
X146901945Y-92173102D01*
X146853781Y-92161200D01*
X146842362Y-92159667D01*
X146808384Y-92171418D01*
X146755927Y-92201378D01*
X146723974Y-92223167D01*
X146640301Y-92271325D01*
X146560620Y-92287031D01*
X146476024Y-92269750D01*
X146377607Y-92218952D01*
X146349576Y-92200803D01*
X146233439Y-92110255D01*
X146141820Y-92012307D01*
X146078432Y-91912767D01*
X146046991Y-91817442D01*
X146050784Y-91733600D01*
X146091226Y-91647854D01*
X146164821Y-91561699D01*
X146274315Y-91472520D01*
X146422458Y-91377704D01*
X146428883Y-91373957D01*
X146666017Y-91231012D01*
X146869632Y-91096793D01*
X147046327Y-90966503D01*
X147202700Y-90835348D01*
X147312094Y-90732059D01*
X147432056Y-90606089D01*
X147542108Y-90474731D01*
X147647107Y-90330920D01*
X147751909Y-90167594D01*
X147861370Y-89977689D01*
X147967776Y-89778417D01*
X148053111Y-89616960D01*
X148124104Y-89490204D01*
X148183814Y-89394255D01*
X148235300Y-89325223D01*
X148281620Y-89279214D01*
X148325833Y-89252338D01*
X148370997Y-89240702D01*
X148391364Y-89239417D01*
X148446935Y-89251079D01*
X148525009Y-89283558D01*
X148615184Y-89331033D01*
X148707056Y-89387687D01*
X148790224Y-89447702D01*
X148838842Y-89489695D01*
X148916030Y-89573517D01*
X148957393Y-89648313D01*
X148964768Y-89724386D01*
X148939994Y-89812038D01*
X148908246Y-89878723D01*
X148875665Y-89943658D01*
X148857264Y-89994740D01*
X148852601Y-90044270D01*
X148861232Y-90104551D01*
X148882713Y-90187882D01*
X148895492Y-90232821D01*
X148912879Y-90324284D01*
X148923778Y-90449036D01*
X148928184Y-90598530D01*
X148926094Y-90764220D01*
X148917502Y-90937561D01*
X148902405Y-91110007D01*
X148895970Y-91165465D01*
X148884257Y-91270284D01*
X148876248Y-91362915D01*
X148872631Y-91433589D01*
X148874094Y-91472541D01*
X148874292Y-91473400D01*
X148895149Y-91518045D01*
X148930558Y-91565165D01*
X148969290Y-91602322D01*
X149000114Y-91617075D01*
X149003523Y-91616538D01*
X149027404Y-91622073D01*
X149084339Y-91640342D01*
X149167838Y-91668959D01*
X149271415Y-91705539D01*
X149388580Y-91747696D01*
X149512845Y-91793044D01*
X149637723Y-91839198D01*
X149756726Y-91883773D01*
X149863364Y-91924382D01*
X149951150Y-91958640D01*
X150013596Y-91984161D01*
X150044213Y-91998561D01*
X150045836Y-91999780D01*
X150038591Y-92019987D01*
X150007658Y-92061481D01*
X149959455Y-92115786D01*
X149952443Y-92123149D01*
X149823799Y-92258060D01*
X149698797Y-92390807D01*
X149580760Y-92517720D01*
X149473013Y-92635127D01*
X149378878Y-92739358D01*
X149301679Y-92826741D01*
X149244739Y-92893605D01*
X149211382Y-92936280D01*
X149203833Y-92950029D01*
X149222090Y-92994495D01*
X149266563Y-93035372D01*
X149321805Y-93061568D01*
X149363293Y-93064517D01*
X149402487Y-93061276D01*
X149411391Y-93078770D01*
X149407363Y-93098663D01*
X149410564Y-93139515D01*
X149443268Y-93190162D01*
X149473368Y-93223070D01*
X149521422Y-93268145D01*
X149559939Y-93296995D01*
X149573916Y-93302667D01*
X149598361Y-93288508D01*
X149643614Y-93250790D01*
X149701332Y-93196651D01*
X149722632Y-93175449D01*
X149819140Y-93077923D01*
X149711612Y-93077923D01*
X149665700Y-93126795D01*
X149630274Y-93162128D01*
X149604812Y-93171062D01*
X149574622Y-93152672D01*
X149538366Y-93118790D01*
X149493124Y-93067844D01*
X149482562Y-93028523D01*
X149505444Y-92990040D01*
X149521798Y-92974162D01*
X149549141Y-92952593D01*
X149572130Y-92951289D01*
X149603397Y-92973783D01*
X149638104Y-93006677D01*
X149711612Y-93077923D01*
X149819140Y-93077923D01*
X149848522Y-93048232D01*
X149604508Y-92805250D01*
X149515295Y-92905435D01*
X149426083Y-93005620D01*
X149378458Y-92965542D01*
X149339234Y-92924302D01*
X149337084Y-92889725D01*
X149371398Y-92849188D01*
X149372769Y-92847942D01*
X149408951Y-92823253D01*
X149438186Y-92830081D01*
X149447250Y-92837000D01*
X149477669Y-92851879D01*
X149510178Y-92836028D01*
X149521902Y-92825902D01*
X149549886Y-92794768D01*
X149546183Y-92769813D01*
X149532088Y-92752523D01*
X149503602Y-92711188D01*
X149500717Y-92686052D01*
X149520412Y-92685215D01*
X149549282Y-92706429D01*
X149598398Y-92752571D01*
X149645680Y-92702240D01*
X149675195Y-92666439D01*
X149675316Y-92647709D01*
X149660065Y-92639286D01*
X149630507Y-92611543D01*
X149636813Y-92570055D01*
X149669103Y-92530442D01*
X149705284Y-92505753D01*
X149734520Y-92512581D01*
X149743583Y-92519500D01*
X149774002Y-92534379D01*
X149806511Y-92518528D01*
X149818235Y-92508402D01*
X149846219Y-92477268D01*
X149842516Y-92452313D01*
X149828421Y-92435023D01*
X149799498Y-92393100D01*
X149797436Y-92368655D01*
X149818720Y-92369378D01*
X149848336Y-92391484D01*
X149906177Y-92427825D01*
X149955805Y-92429546D01*
X149994949Y-92426327D01*
X150003894Y-92444204D01*
X149999784Y-92465352D01*
X150001303Y-92501315D01*
X150026943Y-92544577D01*
X150081828Y-92603752D01*
X150082660Y-92604569D01*
X150134737Y-92654374D01*
X150166258Y-92677878D01*
X150186456Y-92678857D01*
X150204562Y-92661092D01*
X150208423Y-92656048D01*
X150230377Y-92624876D01*
X150235436Y-92601027D01*
X150219718Y-92573529D01*
X150179337Y-92531411D01*
X150156333Y-92508917D01*
X150101259Y-92450899D01*
X150076936Y-92409951D01*
X150080876Y-92376923D01*
X150110595Y-92342665D01*
X150111041Y-92342261D01*
X150134018Y-92325183D01*
X150156657Y-92324251D01*
X150188546Y-92343402D01*
X150239273Y-92386572D01*
X150256420Y-92401936D01*
X150362425Y-92497244D01*
X150401782Y-92453754D01*
X150419978Y-92431101D01*
X150423829Y-92410676D01*
X150409113Y-92384349D01*
X150371609Y-92343986D01*
X150317592Y-92291540D01*
X150194045Y-92172814D01*
X150106397Y-92273014D01*
X150057809Y-92326968D01*
X150026674Y-92353473D01*
X150003087Y-92357383D01*
X149977141Y-92343556D01*
X149971125Y-92339323D01*
X149930507Y-92297107D01*
X149931381Y-92254385D01*
X149965436Y-92212942D01*
X150001618Y-92188253D01*
X150030853Y-92195081D01*
X150039916Y-92202000D01*
X150070336Y-92216879D01*
X150102844Y-92201028D01*
X150114568Y-92190902D01*
X150142552Y-92159768D01*
X150138849Y-92134813D01*
X150124755Y-92117523D01*
X150103450Y-92081855D01*
X150092322Y-92041896D01*
X150095118Y-92014864D01*
X150101676Y-92011500D01*
X150124297Y-92018732D01*
X150180780Y-92038999D01*
X150265466Y-92070160D01*
X150372698Y-92110071D01*
X150496817Y-92156590D01*
X150632166Y-92207576D01*
X150773087Y-92260886D01*
X150913923Y-92314376D01*
X151049015Y-92365906D01*
X151172706Y-92413333D01*
X151279337Y-92454514D01*
X151363252Y-92487306D01*
X151418792Y-92509569D01*
X151433659Y-92515862D01*
X151536236Y-92561253D01*
X151679606Y-92561253D01*
X151684269Y-92551318D01*
X151689280Y-92521808D01*
X151685381Y-92502124D01*
X151673497Y-92487181D01*
X151646408Y-92467989D01*
X151601849Y-92443641D01*
X151537558Y-92413224D01*
X151451271Y-92375831D01*
X151340723Y-92330550D01*
X151203652Y-92276472D01*
X151037793Y-92212687D01*
X150840883Y-92138284D01*
X150610659Y-92052355D01*
X150344856Y-91953989D01*
X150071666Y-91853458D01*
X149898602Y-91789805D01*
X149730427Y-91727769D01*
X149573209Y-91669601D01*
X149433019Y-91617554D01*
X149315927Y-91573880D01*
X149228002Y-91540832D01*
X149185109Y-91524474D01*
X149007635Y-91455892D01*
X149020148Y-91315654D01*
X149027884Y-91233084D01*
X149038496Y-91125263D01*
X149050312Y-91009025D01*
X149057246Y-90942583D01*
X149069726Y-90773355D01*
X149072671Y-90602082D01*
X149066553Y-90438890D01*
X149051844Y-90293903D01*
X149029018Y-90177246D01*
X149020165Y-90147816D01*
X148981269Y-90032417D01*
X149039140Y-89926583D01*
X149089263Y-89800709D01*
X149098366Y-89680251D01*
X149066123Y-89564036D01*
X148992209Y-89450891D01*
X148876295Y-89339645D01*
X148875469Y-89338978D01*
X148728517Y-89233340D01*
X148590083Y-89159261D01*
X148464659Y-89118865D01*
X148394728Y-89111667D01*
X148297736Y-89119970D01*
X148220786Y-89150062D01*
X148144162Y-89209714D01*
X148142770Y-89211008D01*
X148104421Y-89242396D01*
X148069715Y-89252435D01*
X148020014Y-89244560D01*
X147995437Y-89238156D01*
X147893741Y-89220397D01*
X147758142Y-89211526D01*
X147596162Y-89211718D01*
X147415325Y-89221148D01*
X147381594Y-89223820D01*
X147178605Y-89240724D01*
X146933388Y-88652320D01*
X146860692Y-88476796D01*
X146803201Y-88335058D01*
X146759157Y-88222104D01*
X146726802Y-88132933D01*
X146704378Y-88062546D01*
X146690127Y-88005940D01*
X146682290Y-87958114D01*
X146679922Y-87931340D01*
X146660656Y-87812967D01*
X146618824Y-87728718D01*
X146552936Y-87676003D01*
X146527013Y-87665532D01*
X146454698Y-87659473D01*
X146365078Y-87677613D01*
X146365078Y-87677613D01*
G37*
X146365078Y-87677613D02*
X146271860Y-87715332D01*
X146188748Y-87768013D01*
X146166958Y-87786869D01*
X146119308Y-87838413D01*
X146097545Y-87886399D01*
X146092473Y-87949999D01*
X146110829Y-88054666D01*
X146167198Y-88151253D01*
X146237644Y-88222667D01*
X146261632Y-88249993D01*
X146290836Y-88296696D01*
X146327063Y-88366553D01*
X146372125Y-88463341D01*
X146427829Y-88590837D01*
X146495986Y-88752819D01*
X146523852Y-88820140D01*
X146582381Y-88962695D01*
X146635228Y-89092711D01*
X146680324Y-89204993D01*
X146715598Y-89294342D01*
X146738982Y-89355562D01*
X146748404Y-89383455D01*
X146748500Y-89384258D01*
X146731967Y-89406734D01*
X146691079Y-89437557D01*
X146679708Y-89444560D01*
X146536229Y-89546347D01*
X146396892Y-89675782D01*
X146275637Y-89819329D01*
X146237920Y-89873653D01*
X146189265Y-89946482D01*
X146148802Y-90003578D01*
X146122157Y-90037178D01*
X146115267Y-90042843D01*
X146091617Y-90036386D01*
X146035924Y-90018865D01*
X145956219Y-89992866D01*
X145860532Y-89960975D01*
X145848916Y-89957064D01*
X145742012Y-89922741D01*
X145640175Y-89893075D01*
X145555115Y-89871295D01*
X145499666Y-89860753D01*
X145443539Y-89858347D01*
X145393409Y-89867908D01*
X145341387Y-89893818D01*
X145279584Y-89940455D01*
X145200111Y-90012199D01*
X145162772Y-90047788D01*
X145020379Y-90178819D01*
X144884902Y-90292206D01*
X144761448Y-90384126D01*
X144655123Y-90450754D01*
X144576575Y-90486513D01*
X144468135Y-90531893D01*
X144398094Y-90585397D01*
X144362765Y-90650615D01*
X144356666Y-90700464D01*
X144372693Y-90780055D01*
X144415359Y-90865630D01*
X144476550Y-90947801D01*
X144548148Y-91017184D01*
X144622035Y-91064391D01*
X144685026Y-91080167D01*
X144749771Y-91060820D01*
X144816446Y-91007568D01*
X144876779Y-90927591D01*
X144891750Y-90900729D01*
X144919584Y-90858000D01*
X144964038Y-90808177D01*
X145029586Y-90747112D01*
X145120704Y-90670659D01*
X145241867Y-90574670D01*
X145252674Y-90566270D01*
X145363817Y-90479628D01*
X145448062Y-90415663D01*
X145512864Y-90372314D01*
X145565680Y-90347522D01*
X145613964Y-90339225D01*
X145665171Y-90345363D01*
X145726758Y-90363875D01*
X145806179Y-90392702D01*
X145838333Y-90404401D01*
X145954750Y-90446359D01*
X145955727Y-90779138D01*
X145956859Y-90912607D01*
X145960080Y-91013933D01*
X145966475Y-91093295D01*
X145977128Y-91160870D01*
X145993124Y-91226837D01*
X146009240Y-91281250D01*
X146061776Y-91450583D01*
X145987096Y-91555801D01*
X145943694Y-91622457D01*
X145921475Y-91677979D01*
X145913856Y-91743187D01*
X145913486Y-91788634D01*
X145920449Y-91881790D01*
X145943067Y-91962048D01*
X145986514Y-92039366D01*
X146055967Y-92123704D01*
X146123747Y-92193151D01*
X146261648Y-92310482D01*
X146394757Y-92387181D01*
X146522244Y-92423029D01*
X146643281Y-92417808D01*
X146757039Y-92371300D01*
X146769780Y-92363187D01*
X146858790Y-92304283D01*
X147041770Y-92364267D01*
X147124646Y-92389943D01*
X147195752Y-92407111D01*
X147267795Y-92417434D01*
X147353483Y-92422575D01*
X147465524Y-92424199D01*
X147499916Y-92424250D01*
X147643449Y-92421975D01*
X147755753Y-92414455D01*
X147847725Y-92400648D01*
X147912666Y-92384755D01*
X147990158Y-92362906D01*
X148056529Y-92344888D01*
X148094352Y-92335336D01*
X148103217Y-92333073D01*
X148111437Y-92332350D01*
X148120310Y-92335773D01*
X148131131Y-92345948D01*
X148145198Y-92365480D01*
X148163807Y-92396974D01*
X148188255Y-92443037D01*
X148219838Y-92506274D01*
X148259852Y-92589291D01*
X148309595Y-92694693D01*
X148370363Y-92825086D01*
X148443453Y-92983076D01*
X148530161Y-93171268D01*
X148631783Y-93392268D01*
X148749617Y-93648681D01*
X148770559Y-93694250D01*
X148899051Y-93972556D01*
X149011309Y-94212936D01*
X149107806Y-94416360D01*
X149189015Y-94583801D01*
X149255410Y-94716227D01*
X149307464Y-94814612D01*
X149345650Y-94879924D01*
X149356043Y-94895458D01*
X149403567Y-94941682D01*
X149457142Y-94950632D01*
X149520539Y-94921790D01*
X149588880Y-94863316D01*
X149624912Y-94826031D01*
X149685230Y-94761766D01*
X149765746Y-94674955D01*
X149862370Y-94570035D01*
X149971014Y-94451440D01*
X150087590Y-94323607D01*
X150169358Y-94233607D01*
X150316000Y-94072802D01*
X150481722Y-93892504D01*
X150657110Y-93702866D01*
X150832746Y-93514037D01*
X150999215Y-93336170D01*
X151147102Y-93179416D01*
X151150658Y-93175667D01*
X151297120Y-93020529D01*
X151416167Y-92892417D01*
X151510202Y-92788304D01*
X151581627Y-92705164D01*
X151632845Y-92639970D01*
X151666258Y-92589697D01*
X151679606Y-92561253D01*
X151536236Y-92561253D01*
X151391326Y-92717116D01*
X151339591Y-92772523D01*
X151263882Y-92853282D01*
X151169295Y-92953972D01*
X151060926Y-93069172D01*
X150943873Y-93193462D01*
X150823233Y-93321421D01*
X150789006Y-93357698D01*
X150656288Y-93498980D01*
X150515203Y-93650292D01*
X150373284Y-93803479D01*
X150238059Y-93950388D01*
X150117061Y-94082864D01*
X150018793Y-94191667D01*
X149860884Y-94366992D01*
X149728146Y-94512267D01*
X149620998Y-94627048D01*
X149539861Y-94710894D01*
X149485156Y-94763361D01*
X149457305Y-94784007D01*
X149455551Y-94784333D01*
X149441789Y-94766349D01*
X149413260Y-94716786D01*
X149373520Y-94642224D01*
X149326129Y-94549245D01*
X149300173Y-94496884D01*
X149209395Y-94309568D01*
X149108791Y-94097694D01*
X149005106Y-93875659D01*
X148905085Y-93657862D01*
X148850484Y-93537091D01*
X148798927Y-93422266D01*
X148890255Y-93503689D01*
X148935850Y-93545150D01*
X149005070Y-93609112D01*
X149090810Y-93688962D01*
X149185962Y-93778086D01*
X149263801Y-93851347D01*
X149356656Y-93937837D01*
X149441617Y-94014913D01*
X149512894Y-94077482D01*
X149564692Y-94120450D01*
X149589993Y-94138210D01*
X149612378Y-94143667D01*
X149638008Y-94135636D01*
X149672906Y-94109557D01*
X149723100Y-94060868D01*
X149794614Y-93985011D01*
X149799748Y-93979460D01*
X149865371Y-93906670D01*
X149918749Y-93844068D01*
X149954085Y-93798682D01*
X149965680Y-93778193D01*
X149951637Y-93753672D01*
X149914416Y-93709089D01*
X149861622Y-93653448D01*
X149853238Y-93645107D01*
X149740643Y-93533911D01*
X149630988Y-93649855D01*
X149569865Y-93716353D01*
X149535776Y-93760942D01*
X149525554Y-93791375D01*
X149536031Y-93815407D01*
X149555746Y-93834044D01*
X149577994Y-93845871D01*
X149602545Y-93838248D01*
X149637918Y-93806114D01*
X149677965Y-93761390D01*
X149765771Y-93660176D01*
X149856353Y-93757750D01*
X149721712Y-93905917D01*
X149587070Y-94054083D01*
X149539662Y-94007205D01*
X149508737Y-93972365D01*
X149507054Y-93947936D01*
X149527112Y-93921809D01*
X149549705Y-93890880D01*
X149539146Y-93870068D01*
X149518458Y-93856116D01*
X149478912Y-93840133D01*
X149444995Y-93856253D01*
X149438264Y-93862138D01*
X149402362Y-93886150D01*
X149371309Y-93895089D01*
X149357860Y-93886823D01*
X149362157Y-93874855D01*
X149354816Y-93850658D01*
X149322544Y-93809912D01*
X149288745Y-93776620D01*
X149240248Y-93731193D01*
X149219268Y-93702912D01*
X149221430Y-93681085D01*
X149240015Y-93657602D01*
X149264845Y-93625518D01*
X149259112Y-93604603D01*
X149236781Y-93586675D01*
X149200790Y-93567983D01*
X149170599Y-93580567D01*
X149161312Y-93588587D01*
X149122236Y-93615316D01*
X149094966Y-93620693D01*
X149089054Y-93605969D01*
X149105474Y-93581269D01*
X149128744Y-93549421D01*
X149120359Y-93525182D01*
X149102116Y-93507474D01*
X149066946Y-93485257D01*
X149039472Y-93496684D01*
X149038209Y-93497924D01*
X149012563Y-93509230D01*
X148979391Y-93489229D01*
X148966808Y-93477215D01*
X148936581Y-93442768D01*
X148935619Y-93418412D01*
X148956631Y-93391516D01*
X148980421Y-93359453D01*
X148972918Y-93335500D01*
X148953440Y-93316514D01*
X148922348Y-93293706D01*
X148898152Y-93301012D01*
X148875905Y-93323662D01*
X148844957Y-93352877D01*
X148817308Y-93363520D01*
X148789534Y-93351935D01*
X148758213Y-93314462D01*
X148719920Y-93247443D01*
X148671231Y-93147222D01*
X148633206Y-93064344D01*
X148543095Y-92867397D01*
X148459753Y-92688662D01*
X148384811Y-92531452D01*
X148319900Y-92399078D01*
X148266650Y-92294854D01*
X148226691Y-92222093D01*
X148201654Y-92184106D01*
X148198335Y-92180765D01*
X148173443Y-92170671D01*
X148131964Y-92173457D01*
X148065450Y-92190392D01*
X148003359Y-92210062D01*
X147784509Y-92270265D01*
X147583011Y-92298561D01*
X147388538Y-92295075D01*
X147190764Y-92259933D01*
X147059504Y-92221489D01*
X146974124Y-92194225D01*
X146901945Y-92173102D01*
X146853781Y-92161200D01*
X146842362Y-92159667D01*
X146808384Y-92171418D01*
X146755927Y-92201378D01*
X146723974Y-92223167D01*
X146640301Y-92271325D01*
X146560620Y-92287031D01*
X146476024Y-92269750D01*
X146377607Y-92218952D01*
X146349576Y-92200803D01*
X146233439Y-92110255D01*
X146141820Y-92012307D01*
X146078432Y-91912767D01*
X146046991Y-91817442D01*
X146050784Y-91733600D01*
X146091226Y-91647854D01*
X146164821Y-91561699D01*
X146274315Y-91472520D01*
X146422458Y-91377704D01*
X146428883Y-91373957D01*
X146666017Y-91231012D01*
X146869632Y-91096793D01*
X147046327Y-90966503D01*
X147202700Y-90835348D01*
X147312094Y-90732059D01*
X147432056Y-90606089D01*
X147542108Y-90474731D01*
X147647107Y-90330920D01*
X147751909Y-90167594D01*
X147861370Y-89977689D01*
X147967776Y-89778417D01*
X148053111Y-89616960D01*
X148124104Y-89490204D01*
X148183814Y-89394255D01*
X148235300Y-89325223D01*
X148281620Y-89279214D01*
X148325833Y-89252338D01*
X148370997Y-89240702D01*
X148391364Y-89239417D01*
X148446935Y-89251079D01*
X148525009Y-89283558D01*
X148615184Y-89331033D01*
X148707056Y-89387687D01*
X148790224Y-89447702D01*
X148838842Y-89489695D01*
X148916030Y-89573517D01*
X148957393Y-89648313D01*
X148964768Y-89724386D01*
X148939994Y-89812038D01*
X148908246Y-89878723D01*
X148875665Y-89943658D01*
X148857264Y-89994740D01*
X148852601Y-90044270D01*
X148861232Y-90104551D01*
X148882713Y-90187882D01*
X148895492Y-90232821D01*
X148912879Y-90324284D01*
X148923778Y-90449036D01*
X148928184Y-90598530D01*
X148926094Y-90764220D01*
X148917502Y-90937561D01*
X148902405Y-91110007D01*
X148895970Y-91165465D01*
X148884257Y-91270284D01*
X148876248Y-91362915D01*
X148872631Y-91433589D01*
X148874094Y-91472541D01*
X148874292Y-91473400D01*
X148895149Y-91518045D01*
X148930558Y-91565165D01*
X148969290Y-91602322D01*
X149000114Y-91617075D01*
X149003523Y-91616538D01*
X149027404Y-91622073D01*
X149084339Y-91640342D01*
X149167838Y-91668959D01*
X149271415Y-91705539D01*
X149388580Y-91747696D01*
X149512845Y-91793044D01*
X149637723Y-91839198D01*
X149756726Y-91883773D01*
X149863364Y-91924382D01*
X149951150Y-91958640D01*
X150013596Y-91984161D01*
X150044213Y-91998561D01*
X150045836Y-91999780D01*
X150038591Y-92019987D01*
X150007658Y-92061481D01*
X149959455Y-92115786D01*
X149952443Y-92123149D01*
X149823799Y-92258060D01*
X149698797Y-92390807D01*
X149580760Y-92517720D01*
X149473013Y-92635127D01*
X149378878Y-92739358D01*
X149301679Y-92826741D01*
X149244739Y-92893605D01*
X149211382Y-92936280D01*
X149203833Y-92950029D01*
X149222090Y-92994495D01*
X149266563Y-93035372D01*
X149321805Y-93061568D01*
X149363293Y-93064517D01*
X149402487Y-93061276D01*
X149411391Y-93078770D01*
X149407363Y-93098663D01*
X149410564Y-93139515D01*
X149443268Y-93190162D01*
X149473368Y-93223070D01*
X149521422Y-93268145D01*
X149559939Y-93296995D01*
X149573916Y-93302667D01*
X149598361Y-93288508D01*
X149643614Y-93250790D01*
X149701332Y-93196651D01*
X149722632Y-93175449D01*
X149819140Y-93077923D01*
X149711612Y-93077923D01*
X149665700Y-93126795D01*
X149630274Y-93162128D01*
X149604812Y-93171062D01*
X149574622Y-93152672D01*
X149538366Y-93118790D01*
X149493124Y-93067844D01*
X149482562Y-93028523D01*
X149505444Y-92990040D01*
X149521798Y-92974162D01*
X149549141Y-92952593D01*
X149572130Y-92951289D01*
X149603397Y-92973783D01*
X149638104Y-93006677D01*
X149711612Y-93077923D01*
X149819140Y-93077923D01*
X149848522Y-93048232D01*
X149604508Y-92805250D01*
X149515295Y-92905435D01*
X149426083Y-93005620D01*
X149378458Y-92965542D01*
X149339234Y-92924302D01*
X149337084Y-92889725D01*
X149371398Y-92849188D01*
X149372769Y-92847942D01*
X149408951Y-92823253D01*
X149438186Y-92830081D01*
X149447250Y-92837000D01*
X149477669Y-92851879D01*
X149510178Y-92836028D01*
X149521902Y-92825902D01*
X149549886Y-92794768D01*
X149546183Y-92769813D01*
X149532088Y-92752523D01*
X149503602Y-92711188D01*
X149500717Y-92686052D01*
X149520412Y-92685215D01*
X149549282Y-92706429D01*
X149598398Y-92752571D01*
X149645680Y-92702240D01*
X149675195Y-92666439D01*
X149675316Y-92647709D01*
X149660065Y-92639286D01*
X149630507Y-92611543D01*
X149636813Y-92570055D01*
X149669103Y-92530442D01*
X149705284Y-92505753D01*
X149734520Y-92512581D01*
X149743583Y-92519500D01*
X149774002Y-92534379D01*
X149806511Y-92518528D01*
X149818235Y-92508402D01*
X149846219Y-92477268D01*
X149842516Y-92452313D01*
X149828421Y-92435023D01*
X149799498Y-92393100D01*
X149797436Y-92368655D01*
X149818720Y-92369378D01*
X149848336Y-92391484D01*
X149906177Y-92427825D01*
X149955805Y-92429546D01*
X149994949Y-92426327D01*
X150003894Y-92444204D01*
X149999784Y-92465352D01*
X150001303Y-92501315D01*
X150026943Y-92544577D01*
X150081828Y-92603752D01*
X150082660Y-92604569D01*
X150134737Y-92654374D01*
X150166258Y-92677878D01*
X150186456Y-92678857D01*
X150204562Y-92661092D01*
X150208423Y-92656048D01*
X150230377Y-92624876D01*
X150235436Y-92601027D01*
X150219718Y-92573529D01*
X150179337Y-92531411D01*
X150156333Y-92508917D01*
X150101259Y-92450899D01*
X150076936Y-92409951D01*
X150080876Y-92376923D01*
X150110595Y-92342665D01*
X150111041Y-92342261D01*
X150134018Y-92325183D01*
X150156657Y-92324251D01*
X150188546Y-92343402D01*
X150239273Y-92386572D01*
X150256420Y-92401936D01*
X150362425Y-92497244D01*
X150401782Y-92453754D01*
X150419978Y-92431101D01*
X150423829Y-92410676D01*
X150409113Y-92384349D01*
X150371609Y-92343986D01*
X150317592Y-92291540D01*
X150194045Y-92172814D01*
X150106397Y-92273014D01*
X150057809Y-92326968D01*
X150026674Y-92353473D01*
X150003087Y-92357383D01*
X149977141Y-92343556D01*
X149971125Y-92339323D01*
X149930507Y-92297107D01*
X149931381Y-92254385D01*
X149965436Y-92212942D01*
X150001618Y-92188253D01*
X150030853Y-92195081D01*
X150039916Y-92202000D01*
X150070336Y-92216879D01*
X150102844Y-92201028D01*
X150114568Y-92190902D01*
X150142552Y-92159768D01*
X150138849Y-92134813D01*
X150124755Y-92117523D01*
X150103450Y-92081855D01*
X150092322Y-92041896D01*
X150095118Y-92014864D01*
X150101676Y-92011500D01*
X150124297Y-92018732D01*
X150180780Y-92038999D01*
X150265466Y-92070160D01*
X150372698Y-92110071D01*
X150496817Y-92156590D01*
X150632166Y-92207576D01*
X150773087Y-92260886D01*
X150913923Y-92314376D01*
X151049015Y-92365906D01*
X151172706Y-92413333D01*
X151279337Y-92454514D01*
X151363252Y-92487306D01*
X151418792Y-92509569D01*
X151433659Y-92515862D01*
X151536236Y-92561253D01*
X151679606Y-92561253D01*
X151684269Y-92551318D01*
X151689280Y-92521808D01*
X151685381Y-92502124D01*
X151673497Y-92487181D01*
X151646408Y-92467989D01*
X151601849Y-92443641D01*
X151537558Y-92413224D01*
X151451271Y-92375831D01*
X151340723Y-92330550D01*
X151203652Y-92276472D01*
X151037793Y-92212687D01*
X150840883Y-92138284D01*
X150610659Y-92052355D01*
X150344856Y-91953989D01*
X150071666Y-91853458D01*
X149898602Y-91789805D01*
X149730427Y-91727769D01*
X149573209Y-91669601D01*
X149433019Y-91617554D01*
X149315927Y-91573880D01*
X149228002Y-91540832D01*
X149185109Y-91524474D01*
X149007635Y-91455892D01*
X149020148Y-91315654D01*
X149027884Y-91233084D01*
X149038496Y-91125263D01*
X149050312Y-91009025D01*
X149057246Y-90942583D01*
X149069726Y-90773355D01*
X149072671Y-90602082D01*
X149066553Y-90438890D01*
X149051844Y-90293903D01*
X149029018Y-90177246D01*
X149020165Y-90147816D01*
X148981269Y-90032417D01*
X149039140Y-89926583D01*
X149089263Y-89800709D01*
X149098366Y-89680251D01*
X149066123Y-89564036D01*
X148992209Y-89450891D01*
X148876295Y-89339645D01*
X148875469Y-89338978D01*
X148728517Y-89233340D01*
X148590083Y-89159261D01*
X148464659Y-89118865D01*
X148394728Y-89111667D01*
X148297736Y-89119970D01*
X148220786Y-89150062D01*
X148144162Y-89209714D01*
X148142770Y-89211008D01*
X148104421Y-89242396D01*
X148069715Y-89252435D01*
X148020014Y-89244560D01*
X147995437Y-89238156D01*
X147893741Y-89220397D01*
X147758142Y-89211526D01*
X147596162Y-89211718D01*
X147415325Y-89221148D01*
X147381594Y-89223820D01*
X147178605Y-89240724D01*
X146933388Y-88652320D01*
X146860692Y-88476796D01*
X146803201Y-88335058D01*
X146759157Y-88222104D01*
X146726802Y-88132933D01*
X146704378Y-88062546D01*
X146690127Y-88005940D01*
X146682290Y-87958114D01*
X146679922Y-87931340D01*
X146660656Y-87812967D01*
X146618824Y-87728718D01*
X146552936Y-87676003D01*
X146527013Y-87665532D01*
X146454698Y-87659473D01*
X146365078Y-87677613D01*
G36*
X147876418Y-92490176D02*
X147782337Y-92523171D01*
X147685563Y-92573729D01*
X147602982Y-92632156D01*
X147566174Y-92668250D01*
X147526828Y-92727886D01*
X147508391Y-92795446D01*
X147507315Y-92885678D01*
X147508795Y-92906785D01*
X147518859Y-92942699D01*
X147544772Y-93011901D01*
X147584288Y-93109408D01*
X147635160Y-93230236D01*
X147695142Y-93369402D01*
X147761989Y-93521924D01*
X147833454Y-93682816D01*
X147907293Y-93847097D01*
X147981257Y-94009783D01*
X148053103Y-94165890D01*
X148120583Y-94310435D01*
X148181452Y-94438436D01*
X148233464Y-94544907D01*
X148274373Y-94624867D01*
X148301932Y-94673332D01*
X148309742Y-94683925D01*
X148379799Y-94735219D01*
X148468802Y-94771647D01*
X148547666Y-94783713D01*
X148583081Y-94775819D01*
X148643232Y-94755677D01*
X148703614Y-94732265D01*
X148778664Y-94697209D01*
X148844325Y-94659349D01*
X148877625Y-94634405D01*
X148933393Y-94555972D01*
X148964026Y-94456845D01*
X148964417Y-94433655D01*
X148835662Y-94433655D01*
X148800019Y-94501676D01*
X148733452Y-94562370D01*
X148698085Y-94583403D01*
X148591183Y-94625055D01*
X148499856Y-94631632D01*
X148427701Y-94602929D01*
X148422891Y-94599125D01*
X148404244Y-94571617D01*
X148371211Y-94510107D01*
X148326006Y-94419534D01*
X148270847Y-94304840D01*
X148207948Y-94170963D01*
X148139525Y-94022843D01*
X148067794Y-93865421D01*
X147994971Y-93703636D01*
X147923270Y-93542429D01*
X147854908Y-93386739D01*
X147792099Y-93241506D01*
X147737061Y-93111671D01*
X147692008Y-93002172D01*
X147659156Y-92917950D01*
X147640720Y-92863945D01*
X147637500Y-92848008D01*
X147656739Y-92779583D01*
X147707640Y-92720217D01*
X147779979Y-92673724D01*
X147863531Y-92643920D01*
X147948074Y-92634619D01*
X148023381Y-92649636D01*
X148073376Y-92685386D01*
X148087220Y-92710475D01*
X148116011Y-92769313D01*
X148157512Y-92856962D01*
X148209485Y-92968483D01*
X148269692Y-93098937D01*
X148335894Y-93243385D01*
X148405854Y-93396889D01*
X148477335Y-93554509D01*
X148548097Y-93711307D01*
X148615904Y-93862345D01*
X148678516Y-94002683D01*
X148733697Y-94127383D01*
X148779208Y-94231506D01*
X148812811Y-94310113D01*
X148832269Y-94358266D01*
X148835175Y-94366541D01*
X148835662Y-94433655D01*
X148964417Y-94433655D01*
X148965595Y-94363824D01*
X148953874Y-94322098D01*
X148926621Y-94248191D01*
X148886037Y-94146971D01*
X148834323Y-94023305D01*
X148773681Y-93882061D01*
X148706313Y-93728107D01*
X148634420Y-93566312D01*
X148560203Y-93401543D01*
X148485864Y-93238667D01*
X148413605Y-93082554D01*
X148345625Y-92938070D01*
X148284129Y-92810084D01*
X148231315Y-92703464D01*
X148189387Y-92623077D01*
X148160545Y-92573792D01*
X148150337Y-92561095D01*
X148073662Y-92517998D01*
X147983065Y-92491454D01*
X147898228Y-92486559D01*
X147876418Y-92490176D01*
X147876418Y-92490176D01*
G37*
X147876418Y-92490176D02*
X147782337Y-92523171D01*
X147685563Y-92573729D01*
X147602982Y-92632156D01*
X147566174Y-92668250D01*
X147526828Y-92727886D01*
X147508391Y-92795446D01*
X147507315Y-92885678D01*
X147508795Y-92906785D01*
X147518859Y-92942699D01*
X147544772Y-93011901D01*
X147584288Y-93109408D01*
X147635160Y-93230236D01*
X147695142Y-93369402D01*
X147761989Y-93521924D01*
X147833454Y-93682816D01*
X147907293Y-93847097D01*
X147981257Y-94009783D01*
X148053103Y-94165890D01*
X148120583Y-94310435D01*
X148181452Y-94438436D01*
X148233464Y-94544907D01*
X148274373Y-94624867D01*
X148301932Y-94673332D01*
X148309742Y-94683925D01*
X148379799Y-94735219D01*
X148468802Y-94771647D01*
X148547666Y-94783713D01*
X148583081Y-94775819D01*
X148643232Y-94755677D01*
X148703614Y-94732265D01*
X148778664Y-94697209D01*
X148844325Y-94659349D01*
X148877625Y-94634405D01*
X148933393Y-94555972D01*
X148964026Y-94456845D01*
X148964417Y-94433655D01*
X148835662Y-94433655D01*
X148800019Y-94501676D01*
X148733452Y-94562370D01*
X148698085Y-94583403D01*
X148591183Y-94625055D01*
X148499856Y-94631632D01*
X148427701Y-94602929D01*
X148422891Y-94599125D01*
X148404244Y-94571617D01*
X148371211Y-94510107D01*
X148326006Y-94419534D01*
X148270847Y-94304840D01*
X148207948Y-94170963D01*
X148139525Y-94022843D01*
X148067794Y-93865421D01*
X147994971Y-93703636D01*
X147923270Y-93542429D01*
X147854908Y-93386739D01*
X147792099Y-93241506D01*
X147737061Y-93111671D01*
X147692008Y-93002172D01*
X147659156Y-92917950D01*
X147640720Y-92863945D01*
X147637500Y-92848008D01*
X147656739Y-92779583D01*
X147707640Y-92720217D01*
X147779979Y-92673724D01*
X147863531Y-92643920D01*
X147948074Y-92634619D01*
X148023381Y-92649636D01*
X148073376Y-92685386D01*
X148087220Y-92710475D01*
X148116011Y-92769313D01*
X148157512Y-92856962D01*
X148209485Y-92968483D01*
X148269692Y-93098937D01*
X148335894Y-93243385D01*
X148405854Y-93396889D01*
X148477335Y-93554509D01*
X148548097Y-93711307D01*
X148615904Y-93862345D01*
X148678516Y-94002683D01*
X148733697Y-94127383D01*
X148779208Y-94231506D01*
X148812811Y-94310113D01*
X148832269Y-94358266D01*
X148835175Y-94366541D01*
X148835662Y-94433655D01*
X148964417Y-94433655D01*
X148965595Y-94363824D01*
X148953874Y-94322098D01*
X148926621Y-94248191D01*
X148886037Y-94146971D01*
X148834323Y-94023305D01*
X148773681Y-93882061D01*
X148706313Y-93728107D01*
X148634420Y-93566312D01*
X148560203Y-93401543D01*
X148485864Y-93238667D01*
X148413605Y-93082554D01*
X148345625Y-92938070D01*
X148284129Y-92810084D01*
X148231315Y-92703464D01*
X148189387Y-92623077D01*
X148160545Y-92573792D01*
X148150337Y-92561095D01*
X148073662Y-92517998D01*
X147983065Y-92491454D01*
X147898228Y-92486559D01*
X147876418Y-92490176D01*
G36*
X149422087Y-90803463D02*
X149329137Y-90861429D01*
X149253831Y-90956345D01*
X149197671Y-91086825D01*
X149195707Y-91093217D01*
X149174328Y-91175413D01*
X149168951Y-91237097D01*
X149178255Y-91296383D01*
X149180320Y-91304284D01*
X149191940Y-91343020D01*
X149206698Y-91377191D01*
X149228057Y-91408580D01*
X149259479Y-91438971D01*
X149304426Y-91470145D01*
X149366360Y-91503886D01*
X149448745Y-91541977D01*
X149555041Y-91586201D01*
X149688712Y-91638339D01*
X149853220Y-91700176D01*
X150052028Y-91773494D01*
X150188869Y-91823610D01*
X150411943Y-91904974D01*
X150599104Y-91972420D01*
X150754095Y-92026848D01*
X150880657Y-92069155D01*
X150982533Y-92100241D01*
X151063465Y-92121005D01*
X151127197Y-92132345D01*
X151177470Y-92135162D01*
X151218028Y-92130352D01*
X151252612Y-92118816D01*
X151284964Y-92101453D01*
X151301495Y-92090853D01*
X151371315Y-92024109D01*
X151430802Y-91929800D01*
X151472701Y-91822583D01*
X151489757Y-91717115D01*
X151489833Y-91710320D01*
X151484067Y-91667845D01*
X151351855Y-91667845D01*
X151349968Y-91754920D01*
X151342860Y-91785054D01*
X151298761Y-91896401D01*
X151242037Y-91969029D01*
X151170574Y-92005230D01*
X151134979Y-92010158D01*
X151109976Y-92003432D01*
X151049450Y-91983658D01*
X150957641Y-91952321D01*
X150838787Y-91910902D01*
X150697126Y-91860887D01*
X150536899Y-91803758D01*
X150362343Y-91740998D01*
X150256562Y-91702732D01*
X150037689Y-91623172D01*
X149855368Y-91556127D01*
X149706270Y-91499906D01*
X149587069Y-91452818D01*
X149494437Y-91413174D01*
X149425046Y-91379282D01*
X149375569Y-91349452D01*
X149342680Y-91321994D01*
X149323049Y-91295215D01*
X149313350Y-91267427D01*
X149310256Y-91236937D01*
X149310131Y-91221861D01*
X149322041Y-91148120D01*
X149351713Y-91065786D01*
X149391365Y-90993035D01*
X149424707Y-90954225D01*
X149472267Y-90932191D01*
X149528603Y-90924016D01*
X149558668Y-90931106D01*
X149623321Y-90951000D01*
X149717426Y-90981870D01*
X149835845Y-91021891D01*
X149973441Y-91069237D01*
X150125078Y-91122081D01*
X150285619Y-91178597D01*
X150449926Y-91236958D01*
X150612862Y-91295340D01*
X150769291Y-91351914D01*
X150914076Y-91404856D01*
X151042080Y-91452339D01*
X151148166Y-91492536D01*
X151227196Y-91523622D01*
X151274035Y-91543770D01*
X151279102Y-91546334D01*
X151327185Y-91594392D01*
X151351855Y-91667845D01*
X151484067Y-91667845D01*
X151473523Y-91590189D01*
X151424320Y-91496313D01*
X151368444Y-91444582D01*
X151331901Y-91425784D01*
X151261005Y-91395415D01*
X151160877Y-91355316D01*
X151036636Y-91307327D01*
X150893398Y-91253291D01*
X150736285Y-91195047D01*
X150570414Y-91134438D01*
X150400905Y-91073302D01*
X150232876Y-91013482D01*
X150071445Y-90956819D01*
X149921733Y-90905153D01*
X149788858Y-90860325D01*
X149677937Y-90824176D01*
X149594092Y-90798548D01*
X149542439Y-90785281D01*
X149531178Y-90783833D01*
X149422087Y-90803463D01*
X149422087Y-90803463D01*
G37*
X149422087Y-90803463D02*
X149329137Y-90861429D01*
X149253831Y-90956345D01*
X149197671Y-91086825D01*
X149195707Y-91093217D01*
X149174328Y-91175413D01*
X149168951Y-91237097D01*
X149178255Y-91296383D01*
X149180320Y-91304284D01*
X149191940Y-91343020D01*
X149206698Y-91377191D01*
X149228057Y-91408580D01*
X149259479Y-91438971D01*
X149304426Y-91470145D01*
X149366360Y-91503886D01*
X149448745Y-91541977D01*
X149555041Y-91586201D01*
X149688712Y-91638339D01*
X149853220Y-91700176D01*
X150052028Y-91773494D01*
X150188869Y-91823610D01*
X150411943Y-91904974D01*
X150599104Y-91972420D01*
X150754095Y-92026848D01*
X150880657Y-92069155D01*
X150982533Y-92100241D01*
X151063465Y-92121005D01*
X151127197Y-92132345D01*
X151177470Y-92135162D01*
X151218028Y-92130352D01*
X151252612Y-92118816D01*
X151284964Y-92101453D01*
X151301495Y-92090853D01*
X151371315Y-92024109D01*
X151430802Y-91929800D01*
X151472701Y-91822583D01*
X151489757Y-91717115D01*
X151489833Y-91710320D01*
X151484067Y-91667845D01*
X151351855Y-91667845D01*
X151349968Y-91754920D01*
X151342860Y-91785054D01*
X151298761Y-91896401D01*
X151242037Y-91969029D01*
X151170574Y-92005230D01*
X151134979Y-92010158D01*
X151109976Y-92003432D01*
X151049450Y-91983658D01*
X150957641Y-91952321D01*
X150838787Y-91910902D01*
X150697126Y-91860887D01*
X150536899Y-91803758D01*
X150362343Y-91740998D01*
X150256562Y-91702732D01*
X150037689Y-91623172D01*
X149855368Y-91556127D01*
X149706270Y-91499906D01*
X149587069Y-91452818D01*
X149494437Y-91413174D01*
X149425046Y-91379282D01*
X149375569Y-91349452D01*
X149342680Y-91321994D01*
X149323049Y-91295215D01*
X149313350Y-91267427D01*
X149310256Y-91236937D01*
X149310131Y-91221861D01*
X149322041Y-91148120D01*
X149351713Y-91065786D01*
X149391365Y-90993035D01*
X149424707Y-90954225D01*
X149472267Y-90932191D01*
X149528603Y-90924016D01*
X149558668Y-90931106D01*
X149623321Y-90951000D01*
X149717426Y-90981870D01*
X149835845Y-91021891D01*
X149973441Y-91069237D01*
X150125078Y-91122081D01*
X150285619Y-91178597D01*
X150449926Y-91236958D01*
X150612862Y-91295340D01*
X150769291Y-91351914D01*
X150914076Y-91404856D01*
X151042080Y-91452339D01*
X151148166Y-91492536D01*
X151227196Y-91523622D01*
X151274035Y-91543770D01*
X151279102Y-91546334D01*
X151327185Y-91594392D01*
X151351855Y-91667845D01*
X151484067Y-91667845D01*
X151473523Y-91590189D01*
X151424320Y-91496313D01*
X151368444Y-91444582D01*
X151331901Y-91425784D01*
X151261005Y-91395415D01*
X151160877Y-91355316D01*
X151036636Y-91307327D01*
X150893398Y-91253291D01*
X150736285Y-91195047D01*
X150570414Y-91134438D01*
X150400905Y-91073302D01*
X150232876Y-91013482D01*
X150071445Y-90956819D01*
X149921733Y-90905153D01*
X149788858Y-90860325D01*
X149677937Y-90824176D01*
X149594092Y-90798548D01*
X149542439Y-90785281D01*
X149531178Y-90783833D01*
X149422087Y-90803463D01*
G36*
X149881133Y-93401043D02*
X149875134Y-93406066D01*
X149870686Y-93427553D01*
X149891251Y-93463700D01*
X149940130Y-93519598D01*
X149966000Y-93546252D01*
X150031651Y-93610913D01*
X150074986Y-93647318D01*
X150102097Y-93658598D01*
X150119076Y-93647882D01*
X150127997Y-93629486D01*
X150121565Y-93592501D01*
X150085981Y-93540252D01*
X150027639Y-93480468D01*
X149958911Y-93425130D01*
X149911447Y-93398132D01*
X149881133Y-93401043D01*
X149881133Y-93401043D01*
G37*
X149881133Y-93401043D02*
X149875134Y-93406066D01*
X149870686Y-93427553D01*
X149891251Y-93463700D01*
X149940130Y-93519598D01*
X149966000Y-93546252D01*
X150031651Y-93610913D01*
X150074986Y-93647318D01*
X150102097Y-93658598D01*
X150119076Y-93647882D01*
X150127997Y-93629486D01*
X150121565Y-93592501D01*
X150085981Y-93540252D01*
X150027639Y-93480468D01*
X149958911Y-93425130D01*
X149911447Y-93398132D01*
X149881133Y-93401043D01*
G36*
X149336058Y-93395041D02*
X149219845Y-93515974D01*
X149301798Y-93588356D01*
X149364231Y-93639774D01*
X149401215Y-93660679D01*
X149415225Y-93652376D01*
X149415500Y-93648292D01*
X149402809Y-93623294D01*
X149380886Y-93595836D01*
X149361562Y-93569208D01*
X149362750Y-93543335D01*
X149387212Y-93504220D01*
X149403130Y-93483044D01*
X149441842Y-93437734D01*
X149472465Y-93411292D01*
X149480016Y-93408500D01*
X149505957Y-93421672D01*
X149550540Y-93455393D01*
X149582123Y-93482653D01*
X149633448Y-93525230D01*
X149665218Y-93539922D01*
X149685984Y-93530502D01*
X149687257Y-93529025D01*
X149691680Y-93507933D01*
X149672857Y-93476327D01*
X149626655Y-93428693D01*
X149581292Y-93387677D01*
X149452272Y-93274108D01*
X149336058Y-93395041D01*
X149336058Y-93395041D01*
G37*
X149336058Y-93395041D02*
X149219845Y-93515974D01*
X149301798Y-93588356D01*
X149364231Y-93639774D01*
X149401215Y-93660679D01*
X149415225Y-93652376D01*
X149415500Y-93648292D01*
X149402809Y-93623294D01*
X149380886Y-93595836D01*
X149361562Y-93569208D01*
X149362750Y-93543335D01*
X149387212Y-93504220D01*
X149403130Y-93483044D01*
X149441842Y-93437734D01*
X149472465Y-93411292D01*
X149480016Y-93408500D01*
X149505957Y-93421672D01*
X149550540Y-93455393D01*
X149582123Y-93482653D01*
X149633448Y-93525230D01*
X149665218Y-93539922D01*
X149685984Y-93530502D01*
X149687257Y-93529025D01*
X149691680Y-93507933D01*
X149672857Y-93476327D01*
X149626655Y-93428693D01*
X149581292Y-93387677D01*
X149452272Y-93274108D01*
X149336058Y-93395041D01*
G36*
X149144825Y-93042304D02*
X149103284Y-93079376D01*
X149053587Y-93129154D01*
X149005190Y-93181718D01*
X148967549Y-93227146D01*
X148950122Y-93255517D01*
X148949833Y-93257531D01*
X148965601Y-93278209D01*
X148990993Y-93297021D01*
X149017318Y-93307751D01*
X149043536Y-93299384D01*
X149079203Y-93266470D01*
X149114140Y-93226809D01*
X149196128Y-93130891D01*
X149247605Y-93172885D01*
X149299083Y-93214878D01*
X149227734Y-93288877D01*
X149180989Y-93330088D01*
X149142268Y-93351758D01*
X149129334Y-93352495D01*
X149097763Y-93350137D01*
X149092396Y-93371972D01*
X149112398Y-93409618D01*
X149137811Y-93437834D01*
X149197284Y-93494813D01*
X149295809Y-93379489D01*
X149344441Y-93319460D01*
X149379645Y-93270087D01*
X149394265Y-93241463D01*
X149394333Y-93240504D01*
X149379415Y-93213685D01*
X149341549Y-93170440D01*
X149291065Y-93120510D01*
X149238296Y-93073633D01*
X149193573Y-93039548D01*
X149168753Y-93027858D01*
X149144825Y-93042304D01*
X149144825Y-93042304D01*
G37*
X149144825Y-93042304D02*
X149103284Y-93079376D01*
X149053587Y-93129154D01*
X149005190Y-93181718D01*
X148967549Y-93227146D01*
X148950122Y-93255517D01*
X148949833Y-93257531D01*
X148965601Y-93278209D01*
X148990993Y-93297021D01*
X149017318Y-93307751D01*
X149043536Y-93299384D01*
X149079203Y-93266470D01*
X149114140Y-93226809D01*
X149196128Y-93130891D01*
X149247605Y-93172885D01*
X149299083Y-93214878D01*
X149227734Y-93288877D01*
X149180989Y-93330088D01*
X149142268Y-93351758D01*
X149129334Y-93352495D01*
X149097763Y-93350137D01*
X149092396Y-93371972D01*
X149112398Y-93409618D01*
X149137811Y-93437834D01*
X149197284Y-93494813D01*
X149295809Y-93379489D01*
X149344441Y-93319460D01*
X149379645Y-93270087D01*
X149394265Y-93241463D01*
X149394333Y-93240504D01*
X149379415Y-93213685D01*
X149341549Y-93170440D01*
X149291065Y-93120510D01*
X149238296Y-93073633D01*
X149193573Y-93039548D01*
X149168753Y-93027858D01*
X149144825Y-93042304D01*
G36*
X149762934Y-93206947D02*
X149698218Y-93281148D01*
X149660921Y-93331806D01*
X149647607Y-93364363D01*
X149652557Y-93381840D01*
X149676540Y-93397924D01*
X149706599Y-93381382D01*
X149711833Y-93376750D01*
X149742441Y-93355122D01*
X149765098Y-93365193D01*
X149775772Y-93377278D01*
X149801179Y-93399459D01*
X149826026Y-93387684D01*
X149835600Y-93378471D01*
X149856032Y-93350530D01*
X149846319Y-93323666D01*
X149831593Y-93306360D01*
X149807860Y-93273958D01*
X149814641Y-93251562D01*
X149827716Y-93239610D01*
X149854962Y-93202506D01*
X149860000Y-93181669D01*
X149874359Y-93182451D01*
X149913393Y-93207904D01*
X149971041Y-93253590D01*
X150037051Y-93311260D01*
X150110796Y-93375726D01*
X150175651Y-93427864D01*
X150223978Y-93461816D01*
X150246525Y-93472000D01*
X150278995Y-93457080D01*
X150323714Y-93419349D01*
X150344640Y-93397180D01*
X150383923Y-93346571D01*
X150407399Y-93304994D01*
X150410333Y-93292988D01*
X150395341Y-93265150D01*
X150356004Y-93220199D01*
X150300779Y-93167782D01*
X150299781Y-93166908D01*
X150239355Y-93116365D01*
X150200738Y-93091654D01*
X150175712Y-93088768D01*
X150160464Y-93098964D01*
X150149228Y-93119137D01*
X150158547Y-93145038D01*
X150193017Y-93184689D01*
X150230380Y-93220965D01*
X150283040Y-93271849D01*
X150308777Y-93303171D01*
X150311658Y-93324206D01*
X150295754Y-93344229D01*
X150287702Y-93351629D01*
X150268498Y-93366489D01*
X150249086Y-93370001D01*
X150222938Y-93358326D01*
X150183525Y-93327626D01*
X150124320Y-93274063D01*
X150071334Y-93224419D01*
X149896323Y-93059782D01*
X149762934Y-93206947D01*
X149762934Y-93206947D01*
G37*
X149762934Y-93206947D02*
X149698218Y-93281148D01*
X149660921Y-93331806D01*
X149647607Y-93364363D01*
X149652557Y-93381840D01*
X149676540Y-93397924D01*
X149706599Y-93381382D01*
X149711833Y-93376750D01*
X149742441Y-93355122D01*
X149765098Y-93365193D01*
X149775772Y-93377278D01*
X149801179Y-93399459D01*
X149826026Y-93387684D01*
X149835600Y-93378471D01*
X149856032Y-93350530D01*
X149846319Y-93323666D01*
X149831593Y-93306360D01*
X149807860Y-93273958D01*
X149814641Y-93251562D01*
X149827716Y-93239610D01*
X149854962Y-93202506D01*
X149860000Y-93181669D01*
X149874359Y-93182451D01*
X149913393Y-93207904D01*
X149971041Y-93253590D01*
X150037051Y-93311260D01*
X150110796Y-93375726D01*
X150175651Y-93427864D01*
X150223978Y-93461816D01*
X150246525Y-93472000D01*
X150278995Y-93457080D01*
X150323714Y-93419349D01*
X150344640Y-93397180D01*
X150383923Y-93346571D01*
X150407399Y-93304994D01*
X150410333Y-93292988D01*
X150395341Y-93265150D01*
X150356004Y-93220199D01*
X150300779Y-93167782D01*
X150299781Y-93166908D01*
X150239355Y-93116365D01*
X150200738Y-93091654D01*
X150175712Y-93088768D01*
X150160464Y-93098964D01*
X150149228Y-93119137D01*
X150158547Y-93145038D01*
X150193017Y-93184689D01*
X150230380Y-93220965D01*
X150283040Y-93271849D01*
X150308777Y-93303171D01*
X150311658Y-93324206D01*
X150295754Y-93344229D01*
X150287702Y-93351629D01*
X150268498Y-93366489D01*
X150249086Y-93370001D01*
X150222938Y-93358326D01*
X150183525Y-93327626D01*
X150124320Y-93274063D01*
X150071334Y-93224419D01*
X149896323Y-93059782D01*
X149762934Y-93206947D01*
G36*
X150515664Y-92407831D02*
X150478130Y-92441966D01*
X150471480Y-92448584D01*
X150405627Y-92514437D01*
X150513813Y-92674763D01*
X150561463Y-92747026D01*
X150598404Y-92806188D01*
X150619269Y-92843501D01*
X150622000Y-92851123D01*
X150608206Y-92846143D01*
X150572047Y-92817664D01*
X150521458Y-92771952D01*
X150443642Y-92697966D01*
X150389685Y-92650085D01*
X150351417Y-92626734D01*
X150320666Y-92626339D01*
X150289261Y-92647324D01*
X150249032Y-92688116D01*
X150223867Y-92714603D01*
X150123140Y-92820899D01*
X150049264Y-92902300D01*
X150003479Y-92957386D01*
X149987030Y-92984737D01*
X149987000Y-92985289D01*
X150000927Y-93007633D01*
X150034897Y-93043903D01*
X150039296Y-93048084D01*
X150078906Y-93079446D01*
X150106874Y-93081462D01*
X150124497Y-93069905D01*
X150146041Y-93043089D01*
X150132829Y-93013978D01*
X150128337Y-93008590D01*
X150091996Y-92962303D01*
X150083107Y-92941821D01*
X150097809Y-92944456D01*
X150132244Y-92967521D01*
X150182553Y-93008329D01*
X150244875Y-93064193D01*
X150315351Y-93132426D01*
X150335454Y-93152801D01*
X150394280Y-93212137D01*
X150431777Y-93245205D01*
X150455971Y-93256238D01*
X150474891Y-93249467D01*
X150490931Y-93234769D01*
X150498479Y-93213838D01*
X150482977Y-93181995D01*
X150440438Y-93132432D01*
X150416565Y-93107749D01*
X150364214Y-93053109D01*
X150338061Y-93018887D01*
X150333912Y-92996029D01*
X150347578Y-92975480D01*
X150352836Y-92970092D01*
X150374787Y-92952345D01*
X150396644Y-92952296D01*
X150428055Y-92974087D01*
X150478669Y-93021862D01*
X150482782Y-93025896D01*
X150548621Y-93082756D01*
X150595466Y-93106051D01*
X150609847Y-93105114D01*
X150633932Y-93091573D01*
X150638229Y-93072189D01*
X150619595Y-93040913D01*
X150574887Y-92991694D01*
X150525154Y-92942110D01*
X150407141Y-92826417D01*
X150348987Y-92895208D01*
X150301607Y-92944877D01*
X150266159Y-92960632D01*
X150232074Y-92944417D01*
X150208654Y-92921008D01*
X150182808Y-92887399D01*
X150186415Y-92863442D01*
X150205715Y-92842046D01*
X150241050Y-92818297D01*
X150277762Y-92828672D01*
X150281870Y-92831174D01*
X150322967Y-92842213D01*
X150350775Y-92827486D01*
X150354745Y-92798086D01*
X150336511Y-92773716D01*
X150309407Y-92736448D01*
X150304500Y-92715687D01*
X150318608Y-92716907D01*
X150357053Y-92743337D01*
X150414011Y-92790474D01*
X150483663Y-92853819D01*
X150485823Y-92855862D01*
X150558020Y-92922976D01*
X150619455Y-92977792D01*
X150663498Y-93014550D01*
X150683330Y-93027500D01*
X150704183Y-93010949D01*
X150726313Y-92977423D01*
X150737323Y-92949548D01*
X150735697Y-92920145D01*
X150718018Y-92879800D01*
X150680869Y-92819102D01*
X150654009Y-92778307D01*
X150605566Y-92703071D01*
X150578667Y-92652882D01*
X150569840Y-92618640D01*
X150575610Y-92591241D01*
X150579556Y-92583206D01*
X150592798Y-92540075D01*
X150573135Y-92502850D01*
X150570770Y-92500197D01*
X150543819Y-92453915D01*
X150537333Y-92422990D01*
X150533077Y-92402408D01*
X150515664Y-92407831D01*
X150515664Y-92407831D01*
G37*
X150515664Y-92407831D02*
X150478130Y-92441966D01*
X150471480Y-92448584D01*
X150405627Y-92514437D01*
X150513813Y-92674763D01*
X150561463Y-92747026D01*
X150598404Y-92806188D01*
X150619269Y-92843501D01*
X150622000Y-92851123D01*
X150608206Y-92846143D01*
X150572047Y-92817664D01*
X150521458Y-92771952D01*
X150443642Y-92697966D01*
X150389685Y-92650085D01*
X150351417Y-92626734D01*
X150320666Y-92626339D01*
X150289261Y-92647324D01*
X150249032Y-92688116D01*
X150223867Y-92714603D01*
X150123140Y-92820899D01*
X150049264Y-92902300D01*
X150003479Y-92957386D01*
X149987030Y-92984737D01*
X149987000Y-92985289D01*
X150000927Y-93007633D01*
X150034897Y-93043903D01*
X150039296Y-93048084D01*
X150078906Y-93079446D01*
X150106874Y-93081462D01*
X150124497Y-93069905D01*
X150146041Y-93043089D01*
X150132829Y-93013978D01*
X150128337Y-93008590D01*
X150091996Y-92962303D01*
X150083107Y-92941821D01*
X150097809Y-92944456D01*
X150132244Y-92967521D01*
X150182553Y-93008329D01*
X150244875Y-93064193D01*
X150315351Y-93132426D01*
X150335454Y-93152801D01*
X150394280Y-93212137D01*
X150431777Y-93245205D01*
X150455971Y-93256238D01*
X150474891Y-93249467D01*
X150490931Y-93234769D01*
X150498479Y-93213838D01*
X150482977Y-93181995D01*
X150440438Y-93132432D01*
X150416565Y-93107749D01*
X150364214Y-93053109D01*
X150338061Y-93018887D01*
X150333912Y-92996029D01*
X150347578Y-92975480D01*
X150352836Y-92970092D01*
X150374787Y-92952345D01*
X150396644Y-92952296D01*
X150428055Y-92974087D01*
X150478669Y-93021862D01*
X150482782Y-93025896D01*
X150548621Y-93082756D01*
X150595466Y-93106051D01*
X150609847Y-93105114D01*
X150633932Y-93091573D01*
X150638229Y-93072189D01*
X150619595Y-93040913D01*
X150574887Y-92991694D01*
X150525154Y-92942110D01*
X150407141Y-92826417D01*
X150348987Y-92895208D01*
X150301607Y-92944877D01*
X150266159Y-92960632D01*
X150232074Y-92944417D01*
X150208654Y-92921008D01*
X150182808Y-92887399D01*
X150186415Y-92863442D01*
X150205715Y-92842046D01*
X150241050Y-92818297D01*
X150277762Y-92828672D01*
X150281870Y-92831174D01*
X150322967Y-92842213D01*
X150350775Y-92827486D01*
X150354745Y-92798086D01*
X150336511Y-92773716D01*
X150309407Y-92736448D01*
X150304500Y-92715687D01*
X150318608Y-92716907D01*
X150357053Y-92743337D01*
X150414011Y-92790474D01*
X150483663Y-92853819D01*
X150485823Y-92855862D01*
X150558020Y-92922976D01*
X150619455Y-92977792D01*
X150663498Y-93014550D01*
X150683330Y-93027500D01*
X150704183Y-93010949D01*
X150726313Y-92977423D01*
X150737323Y-92949548D01*
X150735697Y-92920145D01*
X150718018Y-92879800D01*
X150680869Y-92819102D01*
X150654009Y-92778307D01*
X150605566Y-92703071D01*
X150578667Y-92652882D01*
X150569840Y-92618640D01*
X150575610Y-92591241D01*
X150579556Y-92583206D01*
X150592798Y-92540075D01*
X150573135Y-92502850D01*
X150570770Y-92500197D01*
X150543819Y-92453915D01*
X150537333Y-92422990D01*
X150533077Y-92402408D01*
X150515664Y-92407831D01*
G36*
X149808251Y-92583008D02*
X149910186Y-92672962D01*
X150012120Y-92762917D01*
X149956853Y-92814582D01*
X149901586Y-92866248D01*
X149810559Y-92776911D01*
X149719533Y-92687575D01*
X149680070Y-92731181D01*
X149660717Y-92755292D01*
X149657108Y-92776636D01*
X149673265Y-92804541D01*
X149713209Y-92848335D01*
X149744217Y-92879976D01*
X149798961Y-92932464D01*
X149844093Y-92970163D01*
X149870098Y-92985151D01*
X149870511Y-92985167D01*
X149895468Y-92971039D01*
X149940346Y-92933759D01*
X149996034Y-92880982D01*
X150003598Y-92873376D01*
X150057382Y-92814849D01*
X150096672Y-92764345D01*
X150113798Y-92731841D01*
X150114000Y-92729705D01*
X150099743Y-92699738D01*
X150062310Y-92651439D01*
X150009709Y-92595107D01*
X150008062Y-92593480D01*
X149902124Y-92489135D01*
X149808251Y-92583008D01*
X149808251Y-92583008D01*
G37*
X149808251Y-92583008D02*
X149910186Y-92672962D01*
X150012120Y-92762917D01*
X149956853Y-92814582D01*
X149901586Y-92866248D01*
X149810559Y-92776911D01*
X149719533Y-92687575D01*
X149680070Y-92731181D01*
X149660717Y-92755292D01*
X149657108Y-92776636D01*
X149673265Y-92804541D01*
X149713209Y-92848335D01*
X149744217Y-92879976D01*
X149798961Y-92932464D01*
X149844093Y-92970163D01*
X149870098Y-92985151D01*
X149870511Y-92985167D01*
X149895468Y-92971039D01*
X149940346Y-92933759D01*
X149996034Y-92880982D01*
X150003598Y-92873376D01*
X150057382Y-92814849D01*
X150096672Y-92764345D01*
X150113798Y-92731841D01*
X150114000Y-92729705D01*
X150099743Y-92699738D01*
X150062310Y-92651439D01*
X150009709Y-92595107D01*
X150008062Y-92593480D01*
X149902124Y-92489135D01*
X149808251Y-92583008D01*
G36*
X150620012Y-92593135D02*
X150610139Y-92606234D01*
X150618039Y-92629026D01*
X150648202Y-92671664D01*
X150692249Y-92724786D01*
X150741799Y-92779030D01*
X150788472Y-92825035D01*
X150823889Y-92853439D01*
X150835643Y-92858167D01*
X150859424Y-92843942D01*
X150874090Y-92828717D01*
X150880701Y-92807825D01*
X150865972Y-92778856D01*
X150825368Y-92735369D01*
X150777207Y-92691134D01*
X150709265Y-92631871D01*
X150665080Y-92598152D01*
X150637659Y-92586424D01*
X150620012Y-92593135D01*
X150620012Y-92593135D01*
G37*
X150620012Y-92593135D02*
X150610139Y-92606234D01*
X150618039Y-92629026D01*
X150648202Y-92671664D01*
X150692249Y-92724786D01*
X150741799Y-92779030D01*
X150788472Y-92825035D01*
X150823889Y-92853439D01*
X150835643Y-92858167D01*
X150859424Y-92843942D01*
X150874090Y-92828717D01*
X150880701Y-92807825D01*
X150865972Y-92778856D01*
X150825368Y-92735369D01*
X150777207Y-92691134D01*
X150709265Y-92631871D01*
X150665080Y-92598152D01*
X150637659Y-92586424D01*
X150620012Y-92593135D01*
D16*
X140571220Y-133499860D02*
X140210540Y-134970520D01*
X140210540Y-134970520D02*
X139931140Y-133908800D01*
X139931140Y-133908800D02*
X139621260Y-134980680D01*
X139621260Y-134980680D02*
X139280900Y-133530340D01*
X141991080Y-134190740D02*
X141201140Y-134180580D01*
X141201140Y-134180580D02*
X141190980Y-134190740D01*
X141190980Y-134190740D02*
X141190980Y-134180580D01*
X141150340Y-133469380D02*
X141150340Y-135011160D01*
X142039340Y-133459220D02*
X142039340Y-135028940D01*
X142039340Y-135028940D02*
X142029180Y-135018780D01*
X142590520Y-133560820D02*
X142941040Y-133479540D01*
X142941040Y-133479540D02*
X143261080Y-133469380D01*
X143261080Y-133469380D02*
X143499840Y-133670040D01*
X143499840Y-133670040D02*
X143530320Y-133939280D01*
X143530320Y-133939280D02*
X143289020Y-134180580D01*
X143289020Y-134180580D02*
X142900400Y-134310120D01*
X142900400Y-134310120D02*
X142720060Y-134470140D01*
X142720060Y-134470140D02*
X142679420Y-134769860D01*
X142679420Y-134769860D02*
X142910560Y-134990840D01*
X142910560Y-134990840D02*
X143230600Y-135018780D01*
X143230600Y-135018780D02*
X143581120Y-134909560D01*
X144619980Y-133459220D02*
X144868900Y-133479540D01*
X144868900Y-133479540D02*
X145110200Y-133720840D01*
X145110200Y-133720840D02*
X145199100Y-134211060D01*
X145199100Y-134211060D02*
X145171160Y-134559040D01*
X145171160Y-134559040D02*
X144970500Y-134879080D01*
X144970500Y-134879080D02*
X144719040Y-135001000D01*
X144719040Y-135001000D02*
X144409160Y-134929880D01*
X144409160Y-134929880D02*
X144190720Y-134749540D01*
X144190720Y-134749540D02*
X144119600Y-134289800D01*
X144119600Y-134289800D02*
X144170400Y-133880860D01*
X144170400Y-133880860D02*
X144279620Y-133598920D01*
X144279620Y-133598920D02*
X144640300Y-133469380D01*
X144020540Y-131739640D02*
X144279620Y-132300980D01*
X144279620Y-132300980D02*
X143741140Y-132819140D01*
X143741140Y-132819140D02*
X143220440Y-132549900D01*
X143220440Y-132549900D02*
X142941040Y-132709920D01*
X141500860Y-132689600D02*
X141170660Y-132499100D01*
X141170660Y-132499100D02*
X140731240Y-132829300D01*
X140731240Y-132829300D02*
X140258800Y-132339080D01*
X140258800Y-132339080D02*
X140540740Y-131859020D01*
X140540740Y-131859020D02*
X140350240Y-131389120D01*
X140350240Y-131389120D02*
X139740640Y-131201160D01*
X139740640Y-131201160D02*
X139740640Y-130520440D01*
X139740640Y-130520440D02*
X140299440Y-130380740D01*
X140299440Y-130380740D02*
X140500100Y-129809240D01*
X140500100Y-129809240D02*
X140230860Y-129339340D01*
X140230860Y-129339340D02*
X140700760Y-128828800D01*
X140700760Y-128828800D02*
X141218920Y-129090420D01*
X141218920Y-129090420D02*
X141688820Y-128889760D01*
X141688820Y-128889760D02*
X141859000Y-128348740D01*
X141859000Y-128348740D02*
X142549880Y-128330960D01*
X142549880Y-128330960D02*
X142760700Y-128879600D01*
X142760700Y-128879600D02*
X143179800Y-129049780D01*
X143179800Y-129049780D02*
X143730980Y-128780540D01*
X143730980Y-128780540D02*
X144249140Y-129308860D01*
X144249140Y-129308860D02*
X144000220Y-129849880D01*
X144000220Y-129849880D02*
X144170400Y-130329940D01*
X144170400Y-130329940D02*
X144719040Y-130429000D01*
X144719040Y-130429000D02*
X144729200Y-131130040D01*
X144729200Y-131130040D02*
X144170400Y-131330700D01*
X144170400Y-131330700D02*
X144030700Y-131729480D01*
X141889480Y-131709160D02*
X141589760Y-131559300D01*
X141589760Y-131559300D02*
X141389100Y-131361180D01*
X141389100Y-131361180D02*
X141239240Y-130959860D01*
X141239240Y-130959860D02*
X141239240Y-130561080D01*
X141239240Y-130561080D02*
X141389100Y-130210560D01*
X141389100Y-130210560D02*
X141841220Y-129860040D01*
X141841220Y-129860040D02*
X142290800Y-129809240D01*
X142290800Y-129809240D02*
X142689580Y-129910840D01*
X142689580Y-129910840D02*
X143090900Y-130258820D01*
X143090900Y-130258820D02*
X143240760Y-130710940D01*
X143240760Y-130710940D02*
X143189960Y-131208780D01*
X143189960Y-131208780D02*
X142941040Y-131511040D01*
X142941040Y-131511040D02*
X142590520Y-131709160D01*
X142590520Y-131709160D02*
X142941040Y-132709920D01*
X141889480Y-131709160D02*
X141490700Y-132709920D01*
D18*
X133313714Y-59163857D02*
X132152571Y-59163857D01*
X132733142Y-59744429D02*
X132733142Y-58583286D01*
X131644571Y-58220429D02*
X131136571Y-59744429D01*
X130628571Y-58220429D01*
X175858714Y-59163857D02*
X174697571Y-59163857D01*
X175278142Y-59744429D02*
X175278142Y-58583286D01*
X174189571Y-58220429D02*
X173681571Y-59744429D01*
X173173571Y-58220429D01*
X133495142Y-74930000D02*
X133640285Y-74857429D01*
X133857999Y-74857429D01*
X134075714Y-74930000D01*
X134220856Y-75075143D01*
X134293428Y-75220286D01*
X134365999Y-75510571D01*
X134365999Y-75728286D01*
X134293428Y-76018571D01*
X134220856Y-76163714D01*
X134075714Y-76308857D01*
X133857999Y-76381429D01*
X133712856Y-76381429D01*
X133495142Y-76308857D01*
X133422571Y-76236286D01*
X133422571Y-75728286D01*
X133712856Y-75728286D01*
X132769428Y-76381429D02*
X132769428Y-74857429D01*
X131898571Y-76381429D01*
X131898571Y-74857429D01*
X131172857Y-76381429D02*
X131172857Y-74857429D01*
X130810000Y-74857429D01*
X130592285Y-74930000D01*
X130447143Y-75075143D01*
X130374571Y-75220286D01*
X130302000Y-75510571D01*
X130302000Y-75728286D01*
X130374571Y-76018571D01*
X130447143Y-76163714D01*
X130592285Y-76308857D01*
X130810000Y-76381429D01*
X131172857Y-76381429D01*
X175659142Y-74930000D02*
X175804285Y-74857429D01*
X176021999Y-74857429D01*
X176239714Y-74930000D01*
X176384856Y-75075143D01*
X176457428Y-75220286D01*
X176529999Y-75510571D01*
X176529999Y-75728286D01*
X176457428Y-76018571D01*
X176384856Y-76163714D01*
X176239714Y-76308857D01*
X176021999Y-76381429D01*
X175876856Y-76381429D01*
X175659142Y-76308857D01*
X175586571Y-76236286D01*
X175586571Y-75728286D01*
X175876856Y-75728286D01*
X174933428Y-76381429D02*
X174933428Y-74857429D01*
X174062571Y-76381429D01*
X174062571Y-74857429D01*
X173336857Y-76381429D02*
X173336857Y-74857429D01*
X172974000Y-74857429D01*
X172756285Y-74930000D01*
X172611143Y-75075143D01*
X172538571Y-75220286D01*
X172466000Y-75510571D01*
X172466000Y-75728286D01*
X172538571Y-76018571D01*
X172611143Y-76163714D01*
X172756285Y-76308857D01*
X172974000Y-76381429D01*
X173336857Y-76381429D01*
X131172857Y-81534000D02*
X130447143Y-81534000D01*
X131318000Y-81969429D02*
X130810000Y-80445429D01*
X130302000Y-81969429D01*
X132588000Y-104829429D02*
X133458857Y-104829429D01*
X133023429Y-104829429D02*
X133023429Y-103305429D01*
X133168572Y-103523143D01*
X133313714Y-103668286D01*
X133458857Y-103740857D01*
X131934857Y-104248857D02*
X130773714Y-104248857D01*
X131354285Y-104829429D02*
X131354285Y-103668286D01*
X132588000Y-121339429D02*
X133458857Y-121339429D01*
X133023429Y-121339429D02*
X133023429Y-119815429D01*
X133168572Y-120033143D01*
X133313714Y-120178286D01*
X133458857Y-120250857D01*
X131934857Y-120758857D02*
X130773714Y-120758857D01*
X176003857Y-119960571D02*
X175931286Y-119888000D01*
X175786143Y-119815429D01*
X175423286Y-119815429D01*
X175278143Y-119888000D01*
X175205572Y-119960571D01*
X175133000Y-120105714D01*
X175133000Y-120250857D01*
X175205572Y-120468571D01*
X176076429Y-121339429D01*
X175133000Y-121339429D01*
X174479857Y-120758857D02*
X173318714Y-120758857D01*
X176003857Y-103450571D02*
X175931286Y-103378000D01*
X175786143Y-103305429D01*
X175423286Y-103305429D01*
X175278143Y-103378000D01*
X175205572Y-103450571D01*
X175133000Y-103595714D01*
X175133000Y-103740857D01*
X175205572Y-103958571D01*
X176076429Y-104829429D01*
X175133000Y-104829429D01*
X174479857Y-104248857D02*
X173318714Y-104248857D01*
X173899285Y-104829429D02*
X173899285Y-103668286D01*
D16*
X153455666Y-75287143D02*
X153503285Y-75334762D01*
X153646142Y-75382381D01*
X153741380Y-75382381D01*
X153884238Y-75334762D01*
X153979476Y-75239524D01*
X154027095Y-75144286D01*
X154074714Y-74953810D01*
X154074714Y-74810952D01*
X154027095Y-74620476D01*
X153979476Y-74525238D01*
X153884238Y-74430000D01*
X153741380Y-74382381D01*
X153646142Y-74382381D01*
X153503285Y-74430000D01*
X153455666Y-74477619D01*
X153074714Y-74477619D02*
X153027095Y-74430000D01*
X152931857Y-74382381D01*
X152693761Y-74382381D01*
X152598523Y-74430000D01*
X152550904Y-74477619D01*
X152503285Y-74572857D01*
X152503285Y-74668095D01*
X152550904Y-74810952D01*
X153122333Y-75382381D01*
X152503285Y-75382381D01*
X142914666Y-70207143D02*
X142962285Y-70254762D01*
X143105142Y-70302381D01*
X143200380Y-70302381D01*
X143343238Y-70254762D01*
X143438476Y-70159524D01*
X143486095Y-70064286D01*
X143533714Y-69873810D01*
X143533714Y-69730952D01*
X143486095Y-69540476D01*
X143438476Y-69445238D01*
X143343238Y-69350000D01*
X143200380Y-69302381D01*
X143105142Y-69302381D01*
X142962285Y-69350000D01*
X142914666Y-69397619D01*
X142581333Y-69302381D02*
X141962285Y-69302381D01*
X142295619Y-69683333D01*
X142152761Y-69683333D01*
X142057523Y-69730952D01*
X142009904Y-69778571D01*
X141962285Y-69873810D01*
X141962285Y-70111905D01*
X142009904Y-70207143D01*
X142057523Y-70254762D01*
X142152761Y-70302381D01*
X142438476Y-70302381D01*
X142533714Y-70254762D01*
X142581333Y-70207143D01*
X141898666Y-71350143D02*
X141946285Y-71397762D01*
X142089142Y-71445381D01*
X142184380Y-71445381D01*
X142327238Y-71397762D01*
X142422476Y-71302524D01*
X142470095Y-71207286D01*
X142517714Y-71016810D01*
X142517714Y-70873952D01*
X142470095Y-70683476D01*
X142422476Y-70588238D01*
X142327238Y-70493000D01*
X142184380Y-70445381D01*
X142089142Y-70445381D01*
X141946285Y-70493000D01*
X141898666Y-70540619D01*
X141041523Y-70778714D02*
X141041523Y-71445381D01*
X141279619Y-70397762D02*
X141517714Y-71112048D01*
X140898666Y-71112048D01*
X153582666Y-74017143D02*
X153630285Y-74064762D01*
X153773142Y-74112381D01*
X153868380Y-74112381D01*
X154011238Y-74064762D01*
X154106476Y-73969524D01*
X154154095Y-73874286D01*
X154201714Y-73683810D01*
X154201714Y-73540952D01*
X154154095Y-73350476D01*
X154106476Y-73255238D01*
X154011238Y-73160000D01*
X153868380Y-73112381D01*
X153773142Y-73112381D01*
X153630285Y-73160000D01*
X153582666Y-73207619D01*
X152677904Y-73112381D02*
X153154095Y-73112381D01*
X153201714Y-73588571D01*
X153154095Y-73540952D01*
X153058857Y-73493333D01*
X152820761Y-73493333D01*
X152725523Y-73540952D01*
X152677904Y-73588571D01*
X152630285Y-73683810D01*
X152630285Y-73921905D01*
X152677904Y-74017143D01*
X152725523Y-74064762D01*
X152820761Y-74112381D01*
X153058857Y-74112381D01*
X153154095Y-74064762D01*
X153201714Y-74017143D01*
X160555857Y-81129143D02*
X160603476Y-81176762D01*
X160746333Y-81224381D01*
X160841571Y-81224381D01*
X160984429Y-81176762D01*
X161079667Y-81081524D01*
X161127286Y-80986286D01*
X161174905Y-80795810D01*
X161174905Y-80652952D01*
X161127286Y-80462476D01*
X161079667Y-80367238D01*
X160984429Y-80272000D01*
X160841571Y-80224381D01*
X160746333Y-80224381D01*
X160603476Y-80272000D01*
X160555857Y-80319619D01*
X159603476Y-81224381D02*
X160174905Y-81224381D01*
X159889191Y-81224381D02*
X159889191Y-80224381D01*
X159984429Y-80367238D01*
X160079667Y-80462476D01*
X160174905Y-80510095D01*
X158984429Y-80224381D02*
X158889190Y-80224381D01*
X158793952Y-80272000D01*
X158746333Y-80319619D01*
X158698714Y-80414857D01*
X158651095Y-80605333D01*
X158651095Y-80843429D01*
X158698714Y-81033905D01*
X158746333Y-81129143D01*
X158793952Y-81176762D01*
X158889190Y-81224381D01*
X158984429Y-81224381D01*
X159079667Y-81176762D01*
X159127286Y-81129143D01*
X159174905Y-81033905D01*
X159222524Y-80843429D01*
X159222524Y-80605333D01*
X159174905Y-80414857D01*
X159127286Y-80319619D01*
X159079667Y-80272000D01*
X158984429Y-80224381D01*
X155678095Y-55570381D02*
X155678095Y-54570381D01*
X155440000Y-54570381D01*
X155297142Y-54618000D01*
X155201904Y-54713238D01*
X155154285Y-54808476D01*
X155106666Y-54998952D01*
X155106666Y-55141810D01*
X155154285Y-55332286D01*
X155201904Y-55427524D01*
X155297142Y-55522762D01*
X155440000Y-55570381D01*
X155678095Y-55570381D01*
X154725714Y-54665619D02*
X154678095Y-54618000D01*
X154582857Y-54570381D01*
X154344761Y-54570381D01*
X154249523Y-54618000D01*
X154201904Y-54665619D01*
X154154285Y-54760857D01*
X154154285Y-54856095D01*
X154201904Y-54998952D01*
X154773333Y-55570381D01*
X154154285Y-55570381D01*
X155138286Y-63383381D02*
X155138286Y-62383381D01*
X154900191Y-62383381D01*
X154757333Y-62431000D01*
X154662095Y-62526238D01*
X154614476Y-62621476D01*
X154566857Y-62811952D01*
X154566857Y-62954810D01*
X154614476Y-63145286D01*
X154662095Y-63240524D01*
X154757333Y-63335762D01*
X154900191Y-63383381D01*
X155138286Y-63383381D01*
X153614476Y-63383381D02*
X154185905Y-63383381D01*
X153900191Y-63383381D02*
X153900191Y-62383381D01*
X153995429Y-62526238D01*
X154090667Y-62621476D01*
X154185905Y-62669095D01*
X152662095Y-63383381D02*
X153233524Y-63383381D01*
X152947810Y-63383381D02*
X152947810Y-62383381D01*
X153043048Y-62526238D01*
X153138286Y-62621476D01*
X153233524Y-62669095D01*
D18*
X130338286Y-98334286D02*
X130410857Y-98406857D01*
X130628571Y-98479429D01*
X130773714Y-98479429D01*
X130991429Y-98406857D01*
X131136571Y-98261714D01*
X131209143Y-98116571D01*
X131281714Y-97826286D01*
X131281714Y-97608571D01*
X131209143Y-97318286D01*
X131136571Y-97173143D01*
X130991429Y-97028000D01*
X130773714Y-96955429D01*
X130628571Y-96955429D01*
X130410857Y-97028000D01*
X130338286Y-97100571D01*
X175659143Y-81171143D02*
X175441429Y-81243714D01*
X175368857Y-81316286D01*
X175296286Y-81461429D01*
X175296286Y-81679143D01*
X175368857Y-81824286D01*
X175441429Y-81896857D01*
X175586571Y-81969429D01*
X176167143Y-81969429D01*
X176167143Y-80445429D01*
X175659143Y-80445429D01*
X175514000Y-80518000D01*
X175441429Y-80590571D01*
X175368857Y-80735714D01*
X175368857Y-80880857D01*
X175441429Y-81026000D01*
X175514000Y-81098571D01*
X175659143Y-81171143D01*
X176167143Y-81171143D01*
X176167143Y-98733429D02*
X176167143Y-97209429D01*
X175804286Y-97209429D01*
X175586571Y-97282000D01*
X175441429Y-97427143D01*
X175368857Y-97572286D01*
X175296286Y-97862571D01*
X175296286Y-98080286D01*
X175368857Y-98370571D01*
X175441429Y-98515714D01*
X175586571Y-98660857D01*
X175804286Y-98733429D01*
X176167143Y-98733429D01*
D16*
X148939238Y-61761619D02*
X149034476Y-61714000D01*
X149129714Y-61618762D01*
X149272571Y-61475905D01*
X149367810Y-61428286D01*
X149463048Y-61428286D01*
X149415429Y-61666381D02*
X149510667Y-61618762D01*
X149605905Y-61523524D01*
X149653524Y-61333048D01*
X149653524Y-60999714D01*
X149605905Y-60809238D01*
X149510667Y-60714000D01*
X149415429Y-60666381D01*
X149224952Y-60666381D01*
X149129714Y-60714000D01*
X149034476Y-60809238D01*
X148986857Y-60999714D01*
X148986857Y-61333048D01*
X149034476Y-61523524D01*
X149129714Y-61618762D01*
X149224952Y-61666381D01*
X149415429Y-61666381D01*
X148605905Y-60761619D02*
X148558286Y-60714000D01*
X148463048Y-60666381D01*
X148224952Y-60666381D01*
X148129714Y-60714000D01*
X148082095Y-60761619D01*
X148034476Y-60856857D01*
X148034476Y-60952095D01*
X148082095Y-61094952D01*
X148653524Y-61666381D01*
X148034476Y-61666381D01*
X143676666Y-55316381D02*
X144010000Y-54840190D01*
X144248095Y-55316381D02*
X144248095Y-54316381D01*
X143867142Y-54316381D01*
X143771904Y-54364000D01*
X143724285Y-54411619D01*
X143676666Y-54506857D01*
X143676666Y-54649714D01*
X143724285Y-54744952D01*
X143771904Y-54792571D01*
X143867142Y-54840190D01*
X144248095Y-54840190D01*
X142771904Y-54316381D02*
X143248095Y-54316381D01*
X143295714Y-54792571D01*
X143248095Y-54744952D01*
X143152857Y-54697333D01*
X142914761Y-54697333D01*
X142819523Y-54744952D01*
X142771904Y-54792571D01*
X142724285Y-54887810D01*
X142724285Y-55125905D01*
X142771904Y-55221143D01*
X142819523Y-55268762D01*
X142914761Y-55316381D01*
X143152857Y-55316381D01*
X143248095Y-55268762D01*
X143295714Y-55221143D01*
X158408666Y-72334381D02*
X158742000Y-71858190D01*
X158980095Y-72334381D02*
X158980095Y-71334381D01*
X158599142Y-71334381D01*
X158503904Y-71382000D01*
X158456285Y-71429619D01*
X158408666Y-71524857D01*
X158408666Y-71667714D01*
X158456285Y-71762952D01*
X158503904Y-71810571D01*
X158599142Y-71858190D01*
X158980095Y-71858190D01*
X157551523Y-71334381D02*
X157742000Y-71334381D01*
X157837238Y-71382000D01*
X157884857Y-71429619D01*
X157980095Y-71572476D01*
X158027714Y-71762952D01*
X158027714Y-72143905D01*
X157980095Y-72239143D01*
X157932476Y-72286762D01*
X157837238Y-72334381D01*
X157646761Y-72334381D01*
X157551523Y-72286762D01*
X157503904Y-72239143D01*
X157456285Y-72143905D01*
X157456285Y-71905810D01*
X157503904Y-71810571D01*
X157551523Y-71762952D01*
X157646761Y-71715333D01*
X157837238Y-71715333D01*
X157932476Y-71762952D01*
X157980095Y-71810571D01*
X158027714Y-71905810D01*
X161710666Y-63698381D02*
X162044000Y-63222190D01*
X162282095Y-63698381D02*
X162282095Y-62698381D01*
X161901142Y-62698381D01*
X161805904Y-62746000D01*
X161758285Y-62793619D01*
X161710666Y-62888857D01*
X161710666Y-63031714D01*
X161758285Y-63126952D01*
X161805904Y-63174571D01*
X161901142Y-63222190D01*
X162282095Y-63222190D01*
X161377333Y-62698381D02*
X160710666Y-62698381D01*
X161139238Y-63698381D01*
X159424666Y-63698381D02*
X159758000Y-63222190D01*
X159996095Y-63698381D02*
X159996095Y-62698381D01*
X159615142Y-62698381D01*
X159519904Y-62746000D01*
X159472285Y-62793619D01*
X159424666Y-62888857D01*
X159424666Y-63031714D01*
X159472285Y-63126952D01*
X159519904Y-63174571D01*
X159615142Y-63222190D01*
X159996095Y-63222190D01*
X158853238Y-63126952D02*
X158948476Y-63079333D01*
X158996095Y-63031714D01*
X159043714Y-62936476D01*
X159043714Y-62888857D01*
X158996095Y-62793619D01*
X158948476Y-62746000D01*
X158853238Y-62698381D01*
X158662761Y-62698381D01*
X158567523Y-62746000D01*
X158519904Y-62793619D01*
X158472285Y-62888857D01*
X158472285Y-62936476D01*
X158519904Y-63031714D01*
X158567523Y-63079333D01*
X158662761Y-63126952D01*
X158853238Y-63126952D01*
X158948476Y-63174571D01*
X158996095Y-63222190D01*
X159043714Y-63317429D01*
X159043714Y-63507905D01*
X158996095Y-63603143D01*
X158948476Y-63650762D01*
X158853238Y-63698381D01*
X158662761Y-63698381D01*
X158567523Y-63650762D01*
X158519904Y-63603143D01*
X158472285Y-63507905D01*
X158472285Y-63317429D01*
X158519904Y-63222190D01*
X158567523Y-63174571D01*
X158662761Y-63126952D01*
X143168666Y-72588381D02*
X143502000Y-72112190D01*
X143740095Y-72588381D02*
X143740095Y-71588381D01*
X143359142Y-71588381D01*
X143263904Y-71636000D01*
X143216285Y-71683619D01*
X143168666Y-71778857D01*
X143168666Y-71921714D01*
X143216285Y-72016952D01*
X143263904Y-72064571D01*
X143359142Y-72112190D01*
X143740095Y-72112190D01*
X142692476Y-72588381D02*
X142502000Y-72588381D01*
X142406761Y-72540762D01*
X142359142Y-72493143D01*
X142263904Y-72350286D01*
X142216285Y-72159810D01*
X142216285Y-71778857D01*
X142263904Y-71683619D01*
X142311523Y-71636000D01*
X142406761Y-71588381D01*
X142597238Y-71588381D01*
X142692476Y-71636000D01*
X142740095Y-71683619D01*
X142787714Y-71778857D01*
X142787714Y-72016952D01*
X142740095Y-72112190D01*
X142692476Y-72159810D01*
X142597238Y-72207429D01*
X142406761Y-72207429D01*
X142311523Y-72159810D01*
X142263904Y-72112190D01*
X142216285Y-72016952D01*
X149105857Y-76398381D02*
X149439191Y-75922190D01*
X149677286Y-76398381D02*
X149677286Y-75398381D01*
X149296333Y-75398381D01*
X149201095Y-75446000D01*
X149153476Y-75493619D01*
X149105857Y-75588857D01*
X149105857Y-75731714D01*
X149153476Y-75826952D01*
X149201095Y-75874571D01*
X149296333Y-75922190D01*
X149677286Y-75922190D01*
X148153476Y-76398381D02*
X148724905Y-76398381D01*
X148439191Y-76398381D02*
X148439191Y-75398381D01*
X148534429Y-75541238D01*
X148629667Y-75636476D01*
X148724905Y-75684095D01*
X147296333Y-75731714D02*
X147296333Y-76398381D01*
X147534429Y-75350762D02*
X147772524Y-76065048D01*
X147153476Y-76065048D01*
X145168857Y-65984381D02*
X145502191Y-65508190D01*
X145740286Y-65984381D02*
X145740286Y-64984381D01*
X145359333Y-64984381D01*
X145264095Y-65032000D01*
X145216476Y-65079619D01*
X145168857Y-65174857D01*
X145168857Y-65317714D01*
X145216476Y-65412952D01*
X145264095Y-65460571D01*
X145359333Y-65508190D01*
X145740286Y-65508190D01*
X144216476Y-65984381D02*
X144787905Y-65984381D01*
X144502191Y-65984381D02*
X144502191Y-64984381D01*
X144597429Y-65127238D01*
X144692667Y-65222476D01*
X144787905Y-65270095D01*
X143359333Y-64984381D02*
X143549810Y-64984381D01*
X143645048Y-65032000D01*
X143692667Y-65079619D01*
X143787905Y-65222476D01*
X143835524Y-65412952D01*
X143835524Y-65793905D01*
X143787905Y-65889143D01*
X143740286Y-65936762D01*
X143645048Y-65984381D01*
X143454571Y-65984381D01*
X143359333Y-65936762D01*
X143311714Y-65889143D01*
X143264095Y-65793905D01*
X143264095Y-65555810D01*
X143311714Y-65460571D01*
X143359333Y-65412952D01*
X143454571Y-65365333D01*
X143645048Y-65365333D01*
X143740286Y-65412952D01*
X143787905Y-65460571D01*
X143835524Y-65555810D01*
X145168857Y-68016381D02*
X145502191Y-67540190D01*
X145740286Y-68016381D02*
X145740286Y-67016381D01*
X145359333Y-67016381D01*
X145264095Y-67064000D01*
X145216476Y-67111619D01*
X145168857Y-67206857D01*
X145168857Y-67349714D01*
X145216476Y-67444952D01*
X145264095Y-67492571D01*
X145359333Y-67540190D01*
X145740286Y-67540190D01*
X144216476Y-68016381D02*
X144787905Y-68016381D01*
X144502191Y-68016381D02*
X144502191Y-67016381D01*
X144597429Y-67159238D01*
X144692667Y-67254476D01*
X144787905Y-67302095D01*
X143883143Y-67016381D02*
X143216476Y-67016381D01*
X143645048Y-68016381D01*
X154685905Y-63714381D02*
X154685905Y-64523905D01*
X154638286Y-64619143D01*
X154590667Y-64666762D01*
X154495429Y-64714381D01*
X154304952Y-64714381D01*
X154209714Y-64666762D01*
X154162095Y-64619143D01*
X154114476Y-64523905D01*
X154114476Y-63714381D01*
X153685905Y-63809619D02*
X153638286Y-63762000D01*
X153543048Y-63714381D01*
X153304952Y-63714381D01*
X153209714Y-63762000D01*
X153162095Y-63809619D01*
X153114476Y-63904857D01*
X153114476Y-64000095D01*
X153162095Y-64142952D01*
X153733524Y-64714381D01*
X153114476Y-64714381D01*
X157987905Y-93432381D02*
X157987905Y-94241905D01*
X157940286Y-94337143D01*
X157892667Y-94384762D01*
X157797429Y-94432381D01*
X157606952Y-94432381D01*
X157511714Y-94384762D01*
X157464095Y-94337143D01*
X157416476Y-94241905D01*
X157416476Y-93432381D01*
X156511714Y-93765714D02*
X156511714Y-94432381D01*
X156749810Y-93384762D02*
X156987905Y-94099048D01*
X156368857Y-94099048D01*
X150502857Y-127706381D02*
X150979048Y-127706381D01*
X150979048Y-126706381D01*
X150217143Y-127658762D02*
X150074286Y-127706381D01*
X149836190Y-127706381D01*
X149740952Y-127658762D01*
X149693333Y-127611143D01*
X149645714Y-127515905D01*
X149645714Y-127420667D01*
X149693333Y-127325429D01*
X149740952Y-127277810D01*
X149836190Y-127230190D01*
X150026667Y-127182571D01*
X150121905Y-127134952D01*
X150169524Y-127087333D01*
X150217143Y-126992095D01*
X150217143Y-126896857D01*
X150169524Y-126801619D01*
X150121905Y-126754000D01*
X150026667Y-126706381D01*
X149788571Y-126706381D01*
X149645714Y-126754000D01*
X148693333Y-127706381D02*
X149264762Y-127706381D01*
X148979048Y-127706381D02*
X148979048Y-126706381D01*
X149074286Y-126849238D01*
X149169524Y-126944476D01*
X149264762Y-126992095D01*
M02*
