G04 #@! TF.FileFunction,Soldermask,Top*
%FSLAX46Y46*%
G04 Gerber Fmt 4.6, Leading zero omitted, Abs format (unit mm)*
G04 Created by KiCad (PCBNEW 4.0.1-3.201512221402+6198~38~ubuntu14.04.1-stable) date mar 02 feb 2016 20:15:53 CET*
%MOMM*%
G01*
G04 APERTURE LIST*
%ADD10C,0.101600*%
%ADD11R,1.974800X2.686000*%
%ADD12O,1.974800X2.686000*%
%ADD13R,0.850000X1.300000*%
%ADD14R,4.850000X1.700000*%
%ADD15R,4.350000X3.450000*%
%ADD16R,5.100000X1.950000*%
%ADD17R,4.600000X3.700000*%
%ADD18O,2.940000X5.988000*%
%ADD19O,2.940000X1.924000*%
%ADD20R,10.560000X6.750000*%
%ADD21R,2.000200X3.399740*%
%ADD22R,2.000000X2.400000*%
%ADD23R,2.800300X3.900120*%
%ADD24R,1.900000X1.650000*%
%ADD25R,1.598880X1.598880*%
%ADD26R,2.701240X3.900120*%
%ADD27R,3.699460X4.900880*%
%ADD28R,3.699460X4.898340*%
%ADD29R,1.620000X1.310000*%
%ADD30R,6.000000X2.700000*%
%ADD31R,1.700000X1.900000*%
%ADD32R,1.900000X1.700000*%
%ADD33R,1.162000X4.108400*%
%ADD34R,1.390600X2.914600*%
%ADD35R,5.708600X3.194000*%
%ADD36R,14.395400X5.149800*%
%ADD37C,1.924000*%
%ADD38R,1.593800X2.901900*%
%ADD39C,2.178000*%
%ADD40R,2.127200X2.432000*%
%ADD41O,2.127200X2.432000*%
G04 APERTURE END LIST*
D10*
D11*
X144399000Y-107061000D03*
D12*
X146939000Y-107061000D03*
X149479000Y-107061000D03*
X152019000Y-107061000D03*
X154559000Y-107061000D03*
X157099000Y-107061000D03*
X159639000Y-107061000D03*
X162179000Y-107061000D03*
X162179000Y-99441000D03*
X159639000Y-99441000D03*
X157099000Y-99441000D03*
X154559000Y-99441000D03*
X152019000Y-99441000D03*
X149479000Y-99441000D03*
X146939000Y-99441000D03*
X144399000Y-99441000D03*
D13*
X148971000Y-84486000D03*
X147701000Y-84486000D03*
X150241000Y-84486000D03*
D14*
X149606000Y-79011000D03*
D15*
X149606000Y-81211000D03*
D13*
X151511000Y-84486000D03*
D16*
X149606000Y-79011000D03*
D17*
X149606000Y-81211000D03*
D18*
X169545000Y-54991000D03*
X163296600Y-54991000D03*
D19*
X163957000Y-54991000D03*
D20*
X134874000Y-63500000D03*
X171831000Y-63500000D03*
X134874000Y-71120000D03*
X171831000Y-71120000D03*
X134874000Y-85725000D03*
X134874000Y-108585000D03*
X134874000Y-116205000D03*
X171831000Y-116205000D03*
X171831000Y-108585000D03*
D21*
X150749000Y-87970360D03*
X150749000Y-92369640D03*
D22*
X155956000Y-72676000D03*
X155956000Y-76676000D03*
D23*
X156464000Y-59512200D03*
X156464000Y-53009800D03*
X147828000Y-59512200D03*
X147828000Y-53009800D03*
D24*
X149753000Y-96647000D03*
X152253000Y-96647000D03*
D25*
X130937000Y-135729980D03*
X130937000Y-137828020D03*
X130937000Y-130776980D03*
X130937000Y-132875020D03*
X130937000Y-125950980D03*
X130937000Y-128049020D03*
D26*
X156972000Y-63720980D03*
X156972000Y-69121020D03*
D25*
X139827000Y-53754020D03*
X139827000Y-51655980D03*
X136110980Y-104267000D03*
X138209020Y-104267000D03*
X136174480Y-120523000D03*
X138272520Y-120523000D03*
X170594020Y-104267000D03*
X168495980Y-104267000D03*
X170594020Y-120650000D03*
X168495980Y-120650000D03*
X141859000Y-53754020D03*
X141859000Y-51655980D03*
D27*
X162941000Y-63164720D03*
D28*
X162941000Y-71963280D03*
D29*
X130937000Y-81518000D03*
X130937000Y-78248000D03*
X130937000Y-97552000D03*
X130937000Y-100822000D03*
D25*
X136110980Y-81407000D03*
X138209020Y-81407000D03*
X136110980Y-97663000D03*
X138209020Y-97663000D03*
D29*
X175768000Y-81518000D03*
X175768000Y-78248000D03*
X175768000Y-97552000D03*
X175768000Y-100822000D03*
D25*
X170594020Y-81407000D03*
X168495980Y-81407000D03*
X170594020Y-97663000D03*
X168495980Y-97663000D03*
D30*
X143764000Y-94886000D03*
X143764000Y-87486000D03*
D20*
X134874000Y-93345000D03*
X171831000Y-85725000D03*
X171831000Y-93345000D03*
D31*
X157607000Y-130396000D03*
X157607000Y-133096000D03*
D32*
X156384000Y-121539000D03*
X159084000Y-121539000D03*
X153877000Y-121539000D03*
X151177000Y-121539000D03*
X136732000Y-136652000D03*
X134032000Y-136652000D03*
X134032000Y-131826000D03*
X136732000Y-131826000D03*
X134032000Y-127000000D03*
X136732000Y-127000000D03*
X151177000Y-109855000D03*
X153877000Y-109855000D03*
X158830000Y-109855000D03*
X156130000Y-109855000D03*
D33*
X142506700Y-78359000D03*
X140957300Y-78359000D03*
D32*
X133684000Y-104013000D03*
X130984000Y-104013000D03*
X133684000Y-120777000D03*
X130984000Y-120777000D03*
X173021000Y-104013000D03*
X175721000Y-104013000D03*
X173021000Y-120777000D03*
X175721000Y-120777000D03*
D31*
X139827000Y-58500000D03*
X139827000Y-55800000D03*
X141859000Y-58500000D03*
X141859000Y-55800000D03*
X133350000Y-78533000D03*
X133350000Y-81233000D03*
X133350000Y-100537000D03*
X133350000Y-97837000D03*
D32*
X136318000Y-79375000D03*
X139018000Y-79375000D03*
X136318000Y-99695000D03*
X139018000Y-99695000D03*
D31*
X173355000Y-78533000D03*
X173355000Y-81233000D03*
X173355000Y-100537000D03*
X173355000Y-97837000D03*
D32*
X170387000Y-79375000D03*
X167687000Y-79375000D03*
X170387000Y-99695000D03*
X167687000Y-99695000D03*
D34*
X155702000Y-93091000D03*
X158242000Y-96393000D03*
X160782000Y-93091000D03*
D35*
X160401000Y-89281000D03*
X160401000Y-79197200D03*
D36*
X147447000Y-73456800D03*
X147447000Y-64211200D03*
D37*
X155702000Y-128498600D03*
X155702000Y-135001000D03*
D38*
X131699000Y-57785000D03*
X134188200Y-57785000D03*
X136677400Y-57785000D03*
X131699000Y-52285900D03*
X134188200Y-52285900D03*
X136677400Y-52285900D03*
D39*
X141706600Y-109931200D03*
X148209000Y-109931200D03*
X141706600Y-114427000D03*
X148209000Y-114427000D03*
X148209000Y-121335800D03*
X141706600Y-121335800D03*
X148209000Y-116840000D03*
X141706600Y-116840000D03*
D11*
X136652000Y-139446000D03*
D12*
X139192000Y-139446000D03*
X141732000Y-139446000D03*
X144272000Y-139446000D03*
X146812000Y-139446000D03*
X149352000Y-139446000D03*
X151892000Y-139446000D03*
X154432000Y-139446000D03*
X156972000Y-139446000D03*
X159512000Y-139446000D03*
X162052000Y-139446000D03*
X164592000Y-139446000D03*
X167132000Y-139446000D03*
X169672000Y-139446000D03*
X172212000Y-139446000D03*
X172212000Y-124206000D03*
X169672000Y-124206000D03*
X167132000Y-124206000D03*
X164592000Y-124206000D03*
X162052000Y-124206000D03*
X159512000Y-124206000D03*
X156972000Y-124206000D03*
X154432000Y-124206000D03*
X151892000Y-124206000D03*
X149352000Y-124206000D03*
X146812000Y-124206000D03*
X144272000Y-124206000D03*
X141732000Y-124206000D03*
X139192000Y-124206000D03*
X136652000Y-124206000D03*
D40*
X151511000Y-118618000D03*
D41*
X154051000Y-118618000D03*
X156591000Y-118618000D03*
X159131000Y-118618000D03*
X161671000Y-118618000D03*
X164211000Y-118618000D03*
M02*
