G04 #@! TF.FileFunction,Soldermask,Top*
%FSLAX46Y46*%
G04 Gerber Fmt 4.6, Leading zero omitted, Abs format (unit mm)*
G04 Created by KiCad (PCBNEW 0.201508110901+6083~28~ubuntu14.04.1-product) date jue 10 sep 2015 21:39:29 CEST*
%MOMM*%
G01*
G04 APERTURE LIST*
%ADD10C,0.101600*%
%ADD11R,1.974800X2.686000*%
%ADD12O,1.974800X2.686000*%
%ADD13R,10.560000X6.750000*%
%ADD14R,1.650000X1.900000*%
%ADD15R,1.900000X1.650000*%
%ADD16R,3.999180X2.000200*%
%ADD17R,4.900880X3.699460*%
%ADD18R,4.898340X3.699460*%
%ADD19R,1.620000X1.310000*%
%ADD20R,6.000000X2.700000*%
%ADD21R,2.599640X3.999180*%
%ADD22R,1.700000X1.900000*%
%ADD23R,1.900000X1.700000*%
%ADD24R,1.950000X1.000000*%
%ADD25R,2.686000X1.974800*%
%ADD26O,2.686000X1.974800*%
%ADD27R,1.598880X1.598880*%
%ADD28O,2.940000X4.464000*%
G04 APERTURE END LIST*
D10*
D11*
X172085000Y-123190000D03*
D12*
X169545000Y-123190000D03*
X167005000Y-123190000D03*
X164465000Y-123190000D03*
X161925000Y-123190000D03*
X159385000Y-123190000D03*
X156845000Y-123190000D03*
X154305000Y-123190000D03*
X151765000Y-123190000D03*
X149225000Y-123190000D03*
X146685000Y-123190000D03*
X144145000Y-123190000D03*
X141605000Y-123190000D03*
X139065000Y-123190000D03*
X136525000Y-123190000D03*
X136525000Y-138430000D03*
X139065000Y-138430000D03*
X141605000Y-138430000D03*
X144145000Y-138430000D03*
X146685000Y-138430000D03*
X149225000Y-138430000D03*
X151765000Y-138430000D03*
X154305000Y-138430000D03*
X156845000Y-138430000D03*
X159385000Y-138430000D03*
X161925000Y-138430000D03*
X164465000Y-138430000D03*
X167005000Y-138430000D03*
X169545000Y-138430000D03*
X172085000Y-138430000D03*
D13*
X171831000Y-62865000D03*
D14*
X156845000Y-87015000D03*
X156845000Y-89515000D03*
D15*
X158135000Y-93980000D03*
X160635000Y-93980000D03*
D14*
X144145000Y-87015000D03*
X144145000Y-89515000D03*
D15*
X147935000Y-78105000D03*
X145435000Y-78105000D03*
D14*
X157480000Y-83800000D03*
X157480000Y-81300000D03*
D15*
X152420000Y-81280000D03*
X154920000Y-81280000D03*
X146705000Y-54610000D03*
X149205000Y-54610000D03*
D16*
X145839180Y-60325000D03*
X151340820Y-60325000D03*
D17*
X153715720Y-67945000D03*
D18*
X162514280Y-67945000D03*
D17*
X153715720Y-76200000D03*
D18*
X162514280Y-76200000D03*
D19*
X135255000Y-77105000D03*
X135255000Y-80375000D03*
X138430000Y-101965000D03*
X138430000Y-98695000D03*
X171450000Y-77105000D03*
X171450000Y-80375000D03*
X168275000Y-101965000D03*
X168275000Y-98695000D03*
D17*
X132760720Y-55245000D03*
D18*
X141559280Y-55245000D03*
D20*
X159385000Y-55355000D03*
X159385000Y-62755000D03*
D13*
X134874000Y-62865000D03*
X134874000Y-70485000D03*
X171831000Y-70485000D03*
X134874000Y-85725000D03*
X134874000Y-93345000D03*
X171831000Y-85725000D03*
X171831000Y-93345000D03*
X134874000Y-108585000D03*
X134874000Y-116205000D03*
X171831000Y-116205000D03*
X171831000Y-108585000D03*
D21*
X146685000Y-74686160D03*
X146685000Y-66283840D03*
D22*
X154305000Y-86915000D03*
X154305000Y-89615000D03*
X151765000Y-89615000D03*
X151765000Y-86915000D03*
X149225000Y-89615000D03*
X149225000Y-86915000D03*
X146685000Y-86915000D03*
X146685000Y-89615000D03*
D23*
X152320000Y-83820000D03*
X155020000Y-83820000D03*
D22*
X135255000Y-98980000D03*
X135255000Y-101680000D03*
X171450000Y-98980000D03*
X171450000Y-101680000D03*
X138430000Y-80090000D03*
X138430000Y-77390000D03*
X168275000Y-80090000D03*
X168275000Y-77390000D03*
D24*
X143985000Y-80645000D03*
X143985000Y-81915000D03*
X143985000Y-83185000D03*
X143985000Y-84455000D03*
X149385000Y-84455000D03*
X149385000Y-83185000D03*
X149385000Y-81915000D03*
X149385000Y-80645000D03*
D25*
X150495000Y-98425000D03*
D26*
X150495000Y-100965000D03*
X150495000Y-103505000D03*
X150495000Y-106045000D03*
X150495000Y-108585000D03*
X150495000Y-111125000D03*
X150495000Y-113665000D03*
X150495000Y-116205000D03*
X158115000Y-116205000D03*
X158115000Y-113665000D03*
X158115000Y-111125000D03*
X158115000Y-108585000D03*
X158115000Y-106045000D03*
X158115000Y-103505000D03*
X158115000Y-100965000D03*
X158115000Y-98425000D03*
D27*
X141605000Y-66260980D03*
X141605000Y-68359020D03*
D22*
X141605000Y-60880000D03*
X141605000Y-63580000D03*
D28*
X169545000Y-54991000D03*
X174625000Y-54991000D03*
M02*
