G04 #@! TF.FileFunction,Legend,Top*
%FSLAX46Y46*%
G04 Gerber Fmt 4.6, Leading zero omitted, Abs format (unit mm)*
G04 Created by KiCad (PCBNEW 4.0.1-3.201512221402+6198~38~ubuntu14.04.1-stable) date mar 02 feb 2016 20:15:53 CET*
%MOMM*%
G01*
G04 APERTURE LIST*
%ADD10C,0.101600*%
%ADD11C,0.152400*%
%ADD12C,0.150000*%
%ADD13C,0.254000*%
G04 APERTURE END LIST*
D10*
D11*
X163878381Y-92202001D02*
X162862381Y-92540668D01*
X163878381Y-92879334D01*
X162862381Y-93218001D02*
X163539714Y-93218001D01*
X163442952Y-93218001D02*
X163491333Y-93266382D01*
X163539714Y-93363144D01*
X163539714Y-93508286D01*
X163491333Y-93605048D01*
X163394571Y-93653429D01*
X162862381Y-93653429D01*
X163394571Y-93653429D02*
X163491333Y-93701810D01*
X163539714Y-93798572D01*
X163539714Y-93943715D01*
X163491333Y-94040477D01*
X163394571Y-94088858D01*
X162862381Y-94088858D01*
X162862381Y-94717811D02*
X162910762Y-94621049D01*
X162959143Y-94572668D01*
X163055905Y-94524287D01*
X163346190Y-94524287D01*
X163442952Y-94572668D01*
X163491333Y-94621049D01*
X163539714Y-94717811D01*
X163539714Y-94862953D01*
X163491333Y-94959715D01*
X163442952Y-95008096D01*
X163346190Y-95056477D01*
X163055905Y-95056477D01*
X162959143Y-95008096D01*
X162910762Y-94959715D01*
X162862381Y-94862953D01*
X162862381Y-94717811D01*
X163539714Y-95346763D02*
X163539714Y-95733811D01*
X163878381Y-95491906D02*
X163007524Y-95491906D01*
X162910762Y-95540287D01*
X162862381Y-95637049D01*
X162862381Y-95733811D01*
X162862381Y-96217620D02*
X162910762Y-96120858D01*
X162959143Y-96072477D01*
X163055905Y-96024096D01*
X163346190Y-96024096D01*
X163442952Y-96072477D01*
X163491333Y-96120858D01*
X163539714Y-96217620D01*
X163539714Y-96362762D01*
X163491333Y-96459524D01*
X163442952Y-96507905D01*
X163346190Y-96556286D01*
X163055905Y-96556286D01*
X162959143Y-96507905D01*
X162910762Y-96459524D01*
X162862381Y-96362762D01*
X162862381Y-96217620D01*
X162862381Y-96991715D02*
X163539714Y-96991715D01*
X163346190Y-96991715D02*
X163442952Y-97040096D01*
X163491333Y-97088477D01*
X163539714Y-97185239D01*
X163539714Y-97282000D01*
X154407810Y-96471619D02*
X154746477Y-97487619D01*
X155085143Y-96471619D01*
X155423810Y-97487619D02*
X155423810Y-96810286D01*
X155423810Y-96471619D02*
X155375429Y-96520000D01*
X155423810Y-96568381D01*
X155472191Y-96520000D01*
X155423810Y-96471619D01*
X155423810Y-96568381D01*
X155907620Y-96810286D02*
X155907620Y-97487619D01*
X155907620Y-96907048D02*
X155956001Y-96858667D01*
X156052763Y-96810286D01*
X156197905Y-96810286D01*
X156294667Y-96858667D01*
X156343048Y-96955429D01*
X156343048Y-97487619D01*
X161096476Y-96471619D02*
X160612667Y-96471619D01*
X160564286Y-96955429D01*
X160612667Y-96907048D01*
X160709429Y-96858667D01*
X160951333Y-96858667D01*
X161048095Y-96907048D01*
X161096476Y-96955429D01*
X161144857Y-97052190D01*
X161144857Y-97294095D01*
X161096476Y-97390857D01*
X161048095Y-97439238D01*
X160951333Y-97487619D01*
X160709429Y-97487619D01*
X160612667Y-97439238D01*
X160564286Y-97390857D01*
X161435143Y-96471619D02*
X161773810Y-97487619D01*
X162112476Y-96471619D01*
X142893143Y-90858219D02*
X142312572Y-90858219D01*
X142602858Y-90858219D02*
X142602858Y-89842219D01*
X142506096Y-89987362D01*
X142409334Y-90084124D01*
X142312572Y-90132505D01*
X143328572Y-90761457D02*
X143376953Y-90809838D01*
X143328572Y-90858219D01*
X143280191Y-90809838D01*
X143328572Y-90761457D01*
X143328572Y-90858219D01*
X144296191Y-89842219D02*
X143812382Y-89842219D01*
X143764001Y-90326029D01*
X143812382Y-90277648D01*
X143909144Y-90229267D01*
X144151048Y-90229267D01*
X144247810Y-90277648D01*
X144296191Y-90326029D01*
X144344572Y-90422790D01*
X144344572Y-90664695D01*
X144296191Y-90761457D01*
X144247810Y-90809838D01*
X144151048Y-90858219D01*
X143909144Y-90858219D01*
X143812382Y-90809838D01*
X143764001Y-90761457D01*
X144731620Y-90567933D02*
X145215429Y-90567933D01*
X144634858Y-90858219D02*
X144973525Y-89842219D01*
X145312191Y-90858219D01*
X142094858Y-92433019D02*
X142094858Y-91417019D01*
X142481905Y-91417019D01*
X142578667Y-91465400D01*
X142627048Y-91513781D01*
X142675429Y-91610543D01*
X142675429Y-91755686D01*
X142627048Y-91852448D01*
X142578667Y-91900829D01*
X142481905Y-91949210D01*
X142094858Y-91949210D01*
X143110858Y-92433019D02*
X143110858Y-91417019D01*
X143497905Y-91417019D01*
X143594667Y-91465400D01*
X143643048Y-91513781D01*
X143691429Y-91610543D01*
X143691429Y-91755686D01*
X143643048Y-91852448D01*
X143594667Y-91900829D01*
X143497905Y-91949210D01*
X143110858Y-91949210D01*
X143981715Y-91417019D02*
X144562286Y-91417019D01*
X144272001Y-92433019D02*
X144272001Y-91417019D01*
X145481524Y-92336257D02*
X145433143Y-92384638D01*
X145288000Y-92433019D01*
X145191238Y-92433019D01*
X145046096Y-92384638D01*
X144949334Y-92287876D01*
X144900953Y-92191114D01*
X144852572Y-91997590D01*
X144852572Y-91852448D01*
X144900953Y-91658924D01*
X144949334Y-91562162D01*
X145046096Y-91465400D01*
X145191238Y-91417019D01*
X145288000Y-91417019D01*
X145433143Y-91465400D01*
X145481524Y-91513781D01*
D12*
X141859000Y-101981000D02*
X141859000Y-101981000D01*
X141859000Y-101981000D02*
X143129000Y-101981000D01*
X143129000Y-101981000D02*
X143129000Y-104521000D01*
X143129000Y-104521000D02*
X141859000Y-104521000D01*
X141859000Y-100711000D02*
X164719000Y-100711000D01*
X164719000Y-100711000D02*
X164719000Y-105791000D01*
X164719000Y-105791000D02*
X141859000Y-105791000D01*
X141859000Y-105791000D02*
X141859000Y-100711000D01*
X146806000Y-82661000D02*
X146806000Y-85561000D01*
X146806000Y-81761000D02*
X146806000Y-82011000D01*
X146806000Y-80861000D02*
X146806000Y-81111000D01*
X146806000Y-79961000D02*
X146806000Y-80211000D01*
X146806000Y-79111000D02*
X146806000Y-79311000D01*
X146806000Y-78161000D02*
X146806000Y-78411000D01*
X147356000Y-77761000D02*
X147106000Y-77761000D01*
X148256000Y-77761000D02*
X148006000Y-77761000D01*
X148356000Y-77561000D02*
X147956000Y-77561000D01*
X149306000Y-77761000D02*
X148906000Y-77761000D01*
X149356000Y-77561000D02*
X148856000Y-77561000D01*
X150356000Y-77761000D02*
X149956000Y-77761000D01*
X150406000Y-77561000D02*
X149906000Y-77561000D01*
X151306000Y-77561000D02*
X150956000Y-77561000D01*
X151256000Y-77761000D02*
X150956000Y-77761000D01*
X152156000Y-77761000D02*
X151906000Y-77761000D01*
X152406000Y-78461000D02*
X152406000Y-78211000D01*
X152406000Y-79361000D02*
X152406000Y-79111000D01*
X152406000Y-80261000D02*
X152406000Y-80011000D01*
X152406000Y-81161000D02*
X152406000Y-80911000D01*
X152406000Y-82061000D02*
X152406000Y-81761000D01*
X152406000Y-85561000D02*
X152406000Y-82661000D01*
X151206000Y-85561000D02*
X151206000Y-85761000D01*
X151206000Y-85761000D02*
X151806000Y-85761000D01*
X151806000Y-85761000D02*
X151806000Y-85561000D01*
X149906000Y-85561000D02*
X149906000Y-85761000D01*
X149906000Y-85761000D02*
X150506000Y-85761000D01*
X150506000Y-85761000D02*
X150506000Y-85561000D01*
X148706000Y-85561000D02*
X148706000Y-85761000D01*
X148706000Y-85761000D02*
X149306000Y-85761000D01*
X149306000Y-85761000D02*
X149306000Y-85561000D01*
X147406000Y-85561000D02*
X147406000Y-85761000D01*
X147406000Y-85761000D02*
X148006000Y-85761000D01*
X148006000Y-85761000D02*
X148006000Y-85561000D01*
X152406000Y-85561000D02*
X146806000Y-85561000D01*
D11*
X162560000Y-50546000D02*
X162560000Y-59436000D01*
X177038000Y-59436000D02*
X177038000Y-50546000D01*
X177038000Y-50546000D02*
X162560000Y-50546000D01*
X177038000Y-59436000D02*
X162560000Y-59436000D01*
X172085000Y-50165000D02*
X172085000Y-59690000D01*
X161925000Y-59690000D02*
X161925000Y-50165000D01*
X172085000Y-59690000D02*
X161925000Y-59690000D01*
X172085000Y-50800000D02*
X161925000Y-50800000D01*
X172085000Y-50165000D02*
X161925000Y-50165000D01*
X167005000Y-50800000D02*
X167005000Y-50165000D01*
D12*
X150114000Y-92456000D02*
X151511000Y-92456000D01*
X149860000Y-92329000D02*
X151638000Y-92329000D01*
X149479000Y-92202000D02*
X152019000Y-92202000D01*
X152146000Y-92075000D02*
X149352000Y-92075000D01*
X149225000Y-91948000D02*
X152273000Y-91948000D01*
X152400000Y-91821000D02*
X149098000Y-91821000D01*
X148971000Y-91694000D02*
X152527000Y-91694000D01*
X153162000Y-90170000D02*
G75*
G03X153162000Y-90170000I-2413000J0D01*
G01*
X148082000Y-92837000D02*
X148082000Y-88265000D01*
X148082000Y-88265000D02*
X148844000Y-87503000D01*
X148844000Y-87503000D02*
X152654000Y-87503000D01*
X152654000Y-87503000D02*
X153416000Y-88265000D01*
X153416000Y-88265000D02*
X153416000Y-92837000D01*
X153416000Y-92837000D02*
X148082000Y-92837000D01*
X150749000Y-88011000D02*
X150749000Y-88773000D01*
X150368000Y-88392000D02*
X151130000Y-88392000D01*
X156981000Y-75676000D02*
X156981000Y-73676000D01*
X154931000Y-73676000D02*
X154931000Y-75676000D01*
X157480000Y-52451000D02*
X155448000Y-52451000D01*
X155067000Y-52578000D02*
X157861000Y-52578000D01*
X158115000Y-52705000D02*
X154813000Y-52705000D01*
X154559000Y-52832000D02*
X158369000Y-52832000D01*
X154432000Y-52959000D02*
X158496000Y-52959000D01*
X158750000Y-53086000D02*
X154178000Y-53086000D01*
X160401000Y-56261000D02*
G75*
G03X160401000Y-56261000I-3937000J0D01*
G01*
X160655000Y-52070000D02*
X152273000Y-52070000D01*
X152273000Y-52070000D02*
X152273000Y-59690000D01*
X152273000Y-59690000D02*
X153035000Y-60452000D01*
X153035000Y-60452000D02*
X159893000Y-60452000D01*
X159893000Y-60452000D02*
X160655000Y-59690000D01*
X160655000Y-59690000D02*
X160655000Y-52070000D01*
X156464000Y-59944000D02*
X156464000Y-59182000D01*
X156845000Y-59563000D02*
X156083000Y-59563000D01*
X148844000Y-52451000D02*
X146812000Y-52451000D01*
X146431000Y-52578000D02*
X149225000Y-52578000D01*
X149479000Y-52705000D02*
X146177000Y-52705000D01*
X145923000Y-52832000D02*
X149733000Y-52832000D01*
X145796000Y-52959000D02*
X149860000Y-52959000D01*
X150114000Y-53086000D02*
X145542000Y-53086000D01*
X151765000Y-56261000D02*
G75*
G03X151765000Y-56261000I-3937000J0D01*
G01*
X152019000Y-52070000D02*
X143637000Y-52070000D01*
X143637000Y-52070000D02*
X143637000Y-59690000D01*
X143637000Y-59690000D02*
X144399000Y-60452000D01*
X144399000Y-60452000D02*
X151257000Y-60452000D01*
X151257000Y-60452000D02*
X152019000Y-59690000D01*
X152019000Y-59690000D02*
X152019000Y-52070000D01*
X147828000Y-59944000D02*
X147828000Y-59182000D01*
X148209000Y-59563000D02*
X147447000Y-59563000D01*
X151503000Y-95797000D02*
X150503000Y-95797000D01*
X150503000Y-97497000D02*
X151503000Y-97497000D01*
X131236720Y-137276840D02*
X131561840Y-137276840D01*
X131561840Y-137276840D02*
X131561840Y-137777220D01*
X131236720Y-137777220D02*
X131561840Y-137777220D01*
X131236720Y-137276840D02*
X131236720Y-137777220D01*
X130614420Y-137276840D02*
X130764280Y-137276840D01*
X130764280Y-137276840D02*
X130764280Y-137528300D01*
X130614420Y-137528300D02*
X130764280Y-137528300D01*
X130614420Y-137276840D02*
X130614420Y-137528300D01*
X131109720Y-137276840D02*
X131259580Y-137276840D01*
X131259580Y-137276840D02*
X131259580Y-137528300D01*
X131109720Y-137528300D02*
X131259580Y-137528300D01*
X131109720Y-137276840D02*
X131109720Y-137528300D01*
X130738880Y-137276840D02*
X131135120Y-137276840D01*
X131135120Y-137276840D02*
X131135120Y-137452100D01*
X130738880Y-137452100D02*
X131135120Y-137452100D01*
X130738880Y-137276840D02*
X130738880Y-137452100D01*
X131236720Y-135780780D02*
X131561840Y-135780780D01*
X131561840Y-135780780D02*
X131561840Y-136281160D01*
X131236720Y-136281160D02*
X131561840Y-136281160D01*
X131236720Y-135780780D02*
X131236720Y-136281160D01*
X130312160Y-135780780D02*
X130637280Y-135780780D01*
X130637280Y-135780780D02*
X130637280Y-136281160D01*
X130312160Y-136281160D02*
X130637280Y-136281160D01*
X130312160Y-135780780D02*
X130312160Y-136281160D01*
X131109720Y-136029700D02*
X131259580Y-136029700D01*
X131259580Y-136029700D02*
X131259580Y-136281160D01*
X131109720Y-136281160D02*
X131259580Y-136281160D01*
X131109720Y-136029700D02*
X131109720Y-136281160D01*
X130614420Y-136029700D02*
X130764280Y-136029700D01*
X130764280Y-136029700D02*
X130764280Y-136281160D01*
X130614420Y-136281160D02*
X130764280Y-136281160D01*
X130614420Y-136029700D02*
X130614420Y-136281160D01*
X130738880Y-136105900D02*
X131135120Y-136105900D01*
X131135120Y-136105900D02*
X131135120Y-136281160D01*
X130738880Y-136281160D02*
X131135120Y-136281160D01*
X130738880Y-136105900D02*
X130738880Y-136281160D01*
X130837940Y-136779000D02*
X131036060Y-136779000D01*
X131036060Y-136779000D02*
X131036060Y-136977120D01*
X130837940Y-136977120D02*
X131036060Y-136977120D01*
X130837940Y-136779000D02*
X130837940Y-136977120D01*
X130337560Y-137276840D02*
X130637280Y-137276840D01*
X130637280Y-137276840D02*
X130637280Y-137576560D01*
X130337560Y-137576560D02*
X130637280Y-137576560D01*
X130337560Y-137276840D02*
X130337560Y-137576560D01*
X130312160Y-137703560D02*
X130538220Y-137703560D01*
X130538220Y-137703560D02*
X130538220Y-137777220D01*
X130312160Y-137777220D02*
X130538220Y-137777220D01*
X130312160Y-137703560D02*
X130312160Y-137777220D01*
X131511040Y-137302240D02*
X131511040Y-136255760D01*
X130362960Y-136281160D02*
X130362960Y-137703560D01*
X130559262Y-137627360D02*
G75*
G03X130559262Y-137627360I-71842J0D01*
G01*
X130589020Y-137777220D02*
G75*
G02X131284980Y-137777220I347980J0D01*
G01*
X131284980Y-135780780D02*
G75*
G02X130589020Y-135780780I-347980J0D01*
G01*
X131236720Y-132323840D02*
X131561840Y-132323840D01*
X131561840Y-132323840D02*
X131561840Y-132824220D01*
X131236720Y-132824220D02*
X131561840Y-132824220D01*
X131236720Y-132323840D02*
X131236720Y-132824220D01*
X130614420Y-132323840D02*
X130764280Y-132323840D01*
X130764280Y-132323840D02*
X130764280Y-132575300D01*
X130614420Y-132575300D02*
X130764280Y-132575300D01*
X130614420Y-132323840D02*
X130614420Y-132575300D01*
X131109720Y-132323840D02*
X131259580Y-132323840D01*
X131259580Y-132323840D02*
X131259580Y-132575300D01*
X131109720Y-132575300D02*
X131259580Y-132575300D01*
X131109720Y-132323840D02*
X131109720Y-132575300D01*
X130738880Y-132323840D02*
X131135120Y-132323840D01*
X131135120Y-132323840D02*
X131135120Y-132499100D01*
X130738880Y-132499100D02*
X131135120Y-132499100D01*
X130738880Y-132323840D02*
X130738880Y-132499100D01*
X131236720Y-130827780D02*
X131561840Y-130827780D01*
X131561840Y-130827780D02*
X131561840Y-131328160D01*
X131236720Y-131328160D02*
X131561840Y-131328160D01*
X131236720Y-130827780D02*
X131236720Y-131328160D01*
X130312160Y-130827780D02*
X130637280Y-130827780D01*
X130637280Y-130827780D02*
X130637280Y-131328160D01*
X130312160Y-131328160D02*
X130637280Y-131328160D01*
X130312160Y-130827780D02*
X130312160Y-131328160D01*
X131109720Y-131076700D02*
X131259580Y-131076700D01*
X131259580Y-131076700D02*
X131259580Y-131328160D01*
X131109720Y-131328160D02*
X131259580Y-131328160D01*
X131109720Y-131076700D02*
X131109720Y-131328160D01*
X130614420Y-131076700D02*
X130764280Y-131076700D01*
X130764280Y-131076700D02*
X130764280Y-131328160D01*
X130614420Y-131328160D02*
X130764280Y-131328160D01*
X130614420Y-131076700D02*
X130614420Y-131328160D01*
X130738880Y-131152900D02*
X131135120Y-131152900D01*
X131135120Y-131152900D02*
X131135120Y-131328160D01*
X130738880Y-131328160D02*
X131135120Y-131328160D01*
X130738880Y-131152900D02*
X130738880Y-131328160D01*
X130837940Y-131826000D02*
X131036060Y-131826000D01*
X131036060Y-131826000D02*
X131036060Y-132024120D01*
X130837940Y-132024120D02*
X131036060Y-132024120D01*
X130837940Y-131826000D02*
X130837940Y-132024120D01*
X130337560Y-132323840D02*
X130637280Y-132323840D01*
X130637280Y-132323840D02*
X130637280Y-132623560D01*
X130337560Y-132623560D02*
X130637280Y-132623560D01*
X130337560Y-132323840D02*
X130337560Y-132623560D01*
X130312160Y-132750560D02*
X130538220Y-132750560D01*
X130538220Y-132750560D02*
X130538220Y-132824220D01*
X130312160Y-132824220D02*
X130538220Y-132824220D01*
X130312160Y-132750560D02*
X130312160Y-132824220D01*
X131511040Y-132349240D02*
X131511040Y-131302760D01*
X130362960Y-131328160D02*
X130362960Y-132750560D01*
X130559262Y-132674360D02*
G75*
G03X130559262Y-132674360I-71842J0D01*
G01*
X130589020Y-132824220D02*
G75*
G02X131284980Y-132824220I347980J0D01*
G01*
X131284980Y-130827780D02*
G75*
G02X130589020Y-130827780I-347980J0D01*
G01*
X131236720Y-127497840D02*
X131561840Y-127497840D01*
X131561840Y-127497840D02*
X131561840Y-127998220D01*
X131236720Y-127998220D02*
X131561840Y-127998220D01*
X131236720Y-127497840D02*
X131236720Y-127998220D01*
X130614420Y-127497840D02*
X130764280Y-127497840D01*
X130764280Y-127497840D02*
X130764280Y-127749300D01*
X130614420Y-127749300D02*
X130764280Y-127749300D01*
X130614420Y-127497840D02*
X130614420Y-127749300D01*
X131109720Y-127497840D02*
X131259580Y-127497840D01*
X131259580Y-127497840D02*
X131259580Y-127749300D01*
X131109720Y-127749300D02*
X131259580Y-127749300D01*
X131109720Y-127497840D02*
X131109720Y-127749300D01*
X130738880Y-127497840D02*
X131135120Y-127497840D01*
X131135120Y-127497840D02*
X131135120Y-127673100D01*
X130738880Y-127673100D02*
X131135120Y-127673100D01*
X130738880Y-127497840D02*
X130738880Y-127673100D01*
X131236720Y-126001780D02*
X131561840Y-126001780D01*
X131561840Y-126001780D02*
X131561840Y-126502160D01*
X131236720Y-126502160D02*
X131561840Y-126502160D01*
X131236720Y-126001780D02*
X131236720Y-126502160D01*
X130312160Y-126001780D02*
X130637280Y-126001780D01*
X130637280Y-126001780D02*
X130637280Y-126502160D01*
X130312160Y-126502160D02*
X130637280Y-126502160D01*
X130312160Y-126001780D02*
X130312160Y-126502160D01*
X131109720Y-126250700D02*
X131259580Y-126250700D01*
X131259580Y-126250700D02*
X131259580Y-126502160D01*
X131109720Y-126502160D02*
X131259580Y-126502160D01*
X131109720Y-126250700D02*
X131109720Y-126502160D01*
X130614420Y-126250700D02*
X130764280Y-126250700D01*
X130764280Y-126250700D02*
X130764280Y-126502160D01*
X130614420Y-126502160D02*
X130764280Y-126502160D01*
X130614420Y-126250700D02*
X130614420Y-126502160D01*
X130738880Y-126326900D02*
X131135120Y-126326900D01*
X131135120Y-126326900D02*
X131135120Y-126502160D01*
X130738880Y-126502160D02*
X131135120Y-126502160D01*
X130738880Y-126326900D02*
X130738880Y-126502160D01*
X130837940Y-127000000D02*
X131036060Y-127000000D01*
X131036060Y-127000000D02*
X131036060Y-127198120D01*
X130837940Y-127198120D02*
X131036060Y-127198120D01*
X130837940Y-127000000D02*
X130837940Y-127198120D01*
X130337560Y-127497840D02*
X130637280Y-127497840D01*
X130637280Y-127497840D02*
X130637280Y-127797560D01*
X130337560Y-127797560D02*
X130637280Y-127797560D01*
X130337560Y-127497840D02*
X130337560Y-127797560D01*
X130312160Y-127924560D02*
X130538220Y-127924560D01*
X130538220Y-127924560D02*
X130538220Y-127998220D01*
X130312160Y-127998220D02*
X130538220Y-127998220D01*
X130312160Y-127924560D02*
X130312160Y-127998220D01*
X131511040Y-127523240D02*
X131511040Y-126476760D01*
X130362960Y-126502160D02*
X130362960Y-127924560D01*
X130559262Y-127848360D02*
G75*
G03X130559262Y-127848360I-71842J0D01*
G01*
X130589020Y-127998220D02*
G75*
G02X131284980Y-127998220I347980J0D01*
G01*
X131284980Y-126001780D02*
G75*
G02X130589020Y-126001780I-347980J0D01*
G01*
X156972000Y-65971420D02*
X157972760Y-66819780D01*
X157972760Y-66819780D02*
X155971240Y-66819780D01*
X155971240Y-66819780D02*
X156972000Y-65971420D01*
X156972000Y-65971420D02*
X155971240Y-65971420D01*
X156972000Y-65971420D02*
X157972760Y-65971420D01*
X155172000Y-64114680D02*
X155371800Y-64114680D01*
X155172000Y-64571720D02*
X155371000Y-64571720D01*
X155172000Y-68722240D02*
X155321000Y-68722240D01*
X158772000Y-64119760D02*
X158623000Y-64119760D01*
X158772000Y-64571720D02*
X158623000Y-64571720D01*
X158772000Y-68722240D02*
X158623000Y-68722240D01*
X155023020Y-64571720D02*
X155221140Y-64571720D01*
X158970980Y-64571720D02*
X158772860Y-64571720D01*
X154975560Y-68717160D02*
X155173680Y-68717160D01*
X154975560Y-64114680D02*
X154975560Y-68717160D01*
X154975560Y-64114680D02*
X155173680Y-64114680D01*
X158970980Y-64119760D02*
X158772860Y-64119760D01*
X158970980Y-64119760D02*
X158970980Y-68722240D01*
X158970980Y-68722240D02*
X158772860Y-68722240D01*
X139527280Y-52207160D02*
X139202160Y-52207160D01*
X139202160Y-52207160D02*
X139202160Y-51706780D01*
X139527280Y-51706780D02*
X139202160Y-51706780D01*
X139527280Y-52207160D02*
X139527280Y-51706780D01*
X140149580Y-52207160D02*
X139999720Y-52207160D01*
X139999720Y-52207160D02*
X139999720Y-51955700D01*
X140149580Y-51955700D02*
X139999720Y-51955700D01*
X140149580Y-52207160D02*
X140149580Y-51955700D01*
X139654280Y-52207160D02*
X139504420Y-52207160D01*
X139504420Y-52207160D02*
X139504420Y-51955700D01*
X139654280Y-51955700D02*
X139504420Y-51955700D01*
X139654280Y-52207160D02*
X139654280Y-51955700D01*
X140025120Y-52207160D02*
X139628880Y-52207160D01*
X139628880Y-52207160D02*
X139628880Y-52031900D01*
X140025120Y-52031900D02*
X139628880Y-52031900D01*
X140025120Y-52207160D02*
X140025120Y-52031900D01*
X139527280Y-53703220D02*
X139202160Y-53703220D01*
X139202160Y-53703220D02*
X139202160Y-53202840D01*
X139527280Y-53202840D02*
X139202160Y-53202840D01*
X139527280Y-53703220D02*
X139527280Y-53202840D01*
X140451840Y-53703220D02*
X140126720Y-53703220D01*
X140126720Y-53703220D02*
X140126720Y-53202840D01*
X140451840Y-53202840D02*
X140126720Y-53202840D01*
X140451840Y-53703220D02*
X140451840Y-53202840D01*
X139654280Y-53454300D02*
X139504420Y-53454300D01*
X139504420Y-53454300D02*
X139504420Y-53202840D01*
X139654280Y-53202840D02*
X139504420Y-53202840D01*
X139654280Y-53454300D02*
X139654280Y-53202840D01*
X140149580Y-53454300D02*
X139999720Y-53454300D01*
X139999720Y-53454300D02*
X139999720Y-53202840D01*
X140149580Y-53202840D02*
X139999720Y-53202840D01*
X140149580Y-53454300D02*
X140149580Y-53202840D01*
X140025120Y-53378100D02*
X139628880Y-53378100D01*
X139628880Y-53378100D02*
X139628880Y-53202840D01*
X140025120Y-53202840D02*
X139628880Y-53202840D01*
X140025120Y-53378100D02*
X140025120Y-53202840D01*
X139926060Y-52705000D02*
X139727940Y-52705000D01*
X139727940Y-52705000D02*
X139727940Y-52506880D01*
X139926060Y-52506880D02*
X139727940Y-52506880D01*
X139926060Y-52705000D02*
X139926060Y-52506880D01*
X140426440Y-52207160D02*
X140126720Y-52207160D01*
X140126720Y-52207160D02*
X140126720Y-51907440D01*
X140426440Y-51907440D02*
X140126720Y-51907440D01*
X140426440Y-52207160D02*
X140426440Y-51907440D01*
X140451840Y-51780440D02*
X140225780Y-51780440D01*
X140225780Y-51780440D02*
X140225780Y-51706780D01*
X140451840Y-51706780D02*
X140225780Y-51706780D01*
X140451840Y-51780440D02*
X140451840Y-51706780D01*
X139252960Y-52181760D02*
X139252960Y-53228240D01*
X140401040Y-53202840D02*
X140401040Y-51780440D01*
X140348422Y-51856640D02*
G75*
G03X140348422Y-51856640I-71842J0D01*
G01*
X140174980Y-51706780D02*
G75*
G02X139479020Y-51706780I-347980J0D01*
G01*
X139479020Y-53703220D02*
G75*
G02X140174980Y-53703220I347980J0D01*
G01*
X137657840Y-103967280D02*
X137657840Y-103642160D01*
X137657840Y-103642160D02*
X138158220Y-103642160D01*
X138158220Y-103967280D02*
X138158220Y-103642160D01*
X137657840Y-103967280D02*
X138158220Y-103967280D01*
X137657840Y-104589580D02*
X137657840Y-104439720D01*
X137657840Y-104439720D02*
X137909300Y-104439720D01*
X137909300Y-104589580D02*
X137909300Y-104439720D01*
X137657840Y-104589580D02*
X137909300Y-104589580D01*
X137657840Y-104094280D02*
X137657840Y-103944420D01*
X137657840Y-103944420D02*
X137909300Y-103944420D01*
X137909300Y-104094280D02*
X137909300Y-103944420D01*
X137657840Y-104094280D02*
X137909300Y-104094280D01*
X137657840Y-104465120D02*
X137657840Y-104068880D01*
X137657840Y-104068880D02*
X137833100Y-104068880D01*
X137833100Y-104465120D02*
X137833100Y-104068880D01*
X137657840Y-104465120D02*
X137833100Y-104465120D01*
X136161780Y-103967280D02*
X136161780Y-103642160D01*
X136161780Y-103642160D02*
X136662160Y-103642160D01*
X136662160Y-103967280D02*
X136662160Y-103642160D01*
X136161780Y-103967280D02*
X136662160Y-103967280D01*
X136161780Y-104891840D02*
X136161780Y-104566720D01*
X136161780Y-104566720D02*
X136662160Y-104566720D01*
X136662160Y-104891840D02*
X136662160Y-104566720D01*
X136161780Y-104891840D02*
X136662160Y-104891840D01*
X136410700Y-104094280D02*
X136410700Y-103944420D01*
X136410700Y-103944420D02*
X136662160Y-103944420D01*
X136662160Y-104094280D02*
X136662160Y-103944420D01*
X136410700Y-104094280D02*
X136662160Y-104094280D01*
X136410700Y-104589580D02*
X136410700Y-104439720D01*
X136410700Y-104439720D02*
X136662160Y-104439720D01*
X136662160Y-104589580D02*
X136662160Y-104439720D01*
X136410700Y-104589580D02*
X136662160Y-104589580D01*
X136486900Y-104465120D02*
X136486900Y-104068880D01*
X136486900Y-104068880D02*
X136662160Y-104068880D01*
X136662160Y-104465120D02*
X136662160Y-104068880D01*
X136486900Y-104465120D02*
X136662160Y-104465120D01*
X137160000Y-104366060D02*
X137160000Y-104167940D01*
X137160000Y-104167940D02*
X137358120Y-104167940D01*
X137358120Y-104366060D02*
X137358120Y-104167940D01*
X137160000Y-104366060D02*
X137358120Y-104366060D01*
X137657840Y-104866440D02*
X137657840Y-104566720D01*
X137657840Y-104566720D02*
X137957560Y-104566720D01*
X137957560Y-104866440D02*
X137957560Y-104566720D01*
X137657840Y-104866440D02*
X137957560Y-104866440D01*
X138084560Y-104891840D02*
X138084560Y-104665780D01*
X138084560Y-104665780D02*
X138158220Y-104665780D01*
X138158220Y-104891840D02*
X138158220Y-104665780D01*
X138084560Y-104891840D02*
X138158220Y-104891840D01*
X137683240Y-103692960D02*
X136636760Y-103692960D01*
X136662160Y-104841040D02*
X138084560Y-104841040D01*
X138080202Y-104716580D02*
G75*
G03X138080202Y-104716580I-71842J0D01*
G01*
X138158220Y-104614980D02*
G75*
G02X138158220Y-103919020I0J347980D01*
G01*
X136161780Y-103919020D02*
G75*
G02X136161780Y-104614980I0J-347980D01*
G01*
X137721340Y-120223280D02*
X137721340Y-119898160D01*
X137721340Y-119898160D02*
X138221720Y-119898160D01*
X138221720Y-120223280D02*
X138221720Y-119898160D01*
X137721340Y-120223280D02*
X138221720Y-120223280D01*
X137721340Y-120845580D02*
X137721340Y-120695720D01*
X137721340Y-120695720D02*
X137972800Y-120695720D01*
X137972800Y-120845580D02*
X137972800Y-120695720D01*
X137721340Y-120845580D02*
X137972800Y-120845580D01*
X137721340Y-120350280D02*
X137721340Y-120200420D01*
X137721340Y-120200420D02*
X137972800Y-120200420D01*
X137972800Y-120350280D02*
X137972800Y-120200420D01*
X137721340Y-120350280D02*
X137972800Y-120350280D01*
X137721340Y-120721120D02*
X137721340Y-120324880D01*
X137721340Y-120324880D02*
X137896600Y-120324880D01*
X137896600Y-120721120D02*
X137896600Y-120324880D01*
X137721340Y-120721120D02*
X137896600Y-120721120D01*
X136225280Y-120223280D02*
X136225280Y-119898160D01*
X136225280Y-119898160D02*
X136725660Y-119898160D01*
X136725660Y-120223280D02*
X136725660Y-119898160D01*
X136225280Y-120223280D02*
X136725660Y-120223280D01*
X136225280Y-121147840D02*
X136225280Y-120822720D01*
X136225280Y-120822720D02*
X136725660Y-120822720D01*
X136725660Y-121147840D02*
X136725660Y-120822720D01*
X136225280Y-121147840D02*
X136725660Y-121147840D01*
X136474200Y-120350280D02*
X136474200Y-120200420D01*
X136474200Y-120200420D02*
X136725660Y-120200420D01*
X136725660Y-120350280D02*
X136725660Y-120200420D01*
X136474200Y-120350280D02*
X136725660Y-120350280D01*
X136474200Y-120845580D02*
X136474200Y-120695720D01*
X136474200Y-120695720D02*
X136725660Y-120695720D01*
X136725660Y-120845580D02*
X136725660Y-120695720D01*
X136474200Y-120845580D02*
X136725660Y-120845580D01*
X136550400Y-120721120D02*
X136550400Y-120324880D01*
X136550400Y-120324880D02*
X136725660Y-120324880D01*
X136725660Y-120721120D02*
X136725660Y-120324880D01*
X136550400Y-120721120D02*
X136725660Y-120721120D01*
X137223500Y-120622060D02*
X137223500Y-120423940D01*
X137223500Y-120423940D02*
X137421620Y-120423940D01*
X137421620Y-120622060D02*
X137421620Y-120423940D01*
X137223500Y-120622060D02*
X137421620Y-120622060D01*
X137721340Y-121122440D02*
X137721340Y-120822720D01*
X137721340Y-120822720D02*
X138021060Y-120822720D01*
X138021060Y-121122440D02*
X138021060Y-120822720D01*
X137721340Y-121122440D02*
X138021060Y-121122440D01*
X138148060Y-121147840D02*
X138148060Y-120921780D01*
X138148060Y-120921780D02*
X138221720Y-120921780D01*
X138221720Y-121147840D02*
X138221720Y-120921780D01*
X138148060Y-121147840D02*
X138221720Y-121147840D01*
X137746740Y-119948960D02*
X136700260Y-119948960D01*
X136725660Y-121097040D02*
X138148060Y-121097040D01*
X138143702Y-120972580D02*
G75*
G03X138143702Y-120972580I-71842J0D01*
G01*
X138221720Y-120870980D02*
G75*
G02X138221720Y-120175020I0J347980D01*
G01*
X136225280Y-120175020D02*
G75*
G02X136225280Y-120870980I0J-347980D01*
G01*
X169047160Y-104566720D02*
X169047160Y-104891840D01*
X169047160Y-104891840D02*
X168546780Y-104891840D01*
X168546780Y-104566720D02*
X168546780Y-104891840D01*
X169047160Y-104566720D02*
X168546780Y-104566720D01*
X169047160Y-103944420D02*
X169047160Y-104094280D01*
X169047160Y-104094280D02*
X168795700Y-104094280D01*
X168795700Y-103944420D02*
X168795700Y-104094280D01*
X169047160Y-103944420D02*
X168795700Y-103944420D01*
X169047160Y-104439720D02*
X169047160Y-104589580D01*
X169047160Y-104589580D02*
X168795700Y-104589580D01*
X168795700Y-104439720D02*
X168795700Y-104589580D01*
X169047160Y-104439720D02*
X168795700Y-104439720D01*
X169047160Y-104068880D02*
X169047160Y-104465120D01*
X169047160Y-104465120D02*
X168871900Y-104465120D01*
X168871900Y-104068880D02*
X168871900Y-104465120D01*
X169047160Y-104068880D02*
X168871900Y-104068880D01*
X170543220Y-104566720D02*
X170543220Y-104891840D01*
X170543220Y-104891840D02*
X170042840Y-104891840D01*
X170042840Y-104566720D02*
X170042840Y-104891840D01*
X170543220Y-104566720D02*
X170042840Y-104566720D01*
X170543220Y-103642160D02*
X170543220Y-103967280D01*
X170543220Y-103967280D02*
X170042840Y-103967280D01*
X170042840Y-103642160D02*
X170042840Y-103967280D01*
X170543220Y-103642160D02*
X170042840Y-103642160D01*
X170294300Y-104439720D02*
X170294300Y-104589580D01*
X170294300Y-104589580D02*
X170042840Y-104589580D01*
X170042840Y-104439720D02*
X170042840Y-104589580D01*
X170294300Y-104439720D02*
X170042840Y-104439720D01*
X170294300Y-103944420D02*
X170294300Y-104094280D01*
X170294300Y-104094280D02*
X170042840Y-104094280D01*
X170042840Y-103944420D02*
X170042840Y-104094280D01*
X170294300Y-103944420D02*
X170042840Y-103944420D01*
X170218100Y-104068880D02*
X170218100Y-104465120D01*
X170218100Y-104465120D02*
X170042840Y-104465120D01*
X170042840Y-104068880D02*
X170042840Y-104465120D01*
X170218100Y-104068880D02*
X170042840Y-104068880D01*
X169545000Y-104167940D02*
X169545000Y-104366060D01*
X169545000Y-104366060D02*
X169346880Y-104366060D01*
X169346880Y-104167940D02*
X169346880Y-104366060D01*
X169545000Y-104167940D02*
X169346880Y-104167940D01*
X169047160Y-103667560D02*
X169047160Y-103967280D01*
X169047160Y-103967280D02*
X168747440Y-103967280D01*
X168747440Y-103667560D02*
X168747440Y-103967280D01*
X169047160Y-103667560D02*
X168747440Y-103667560D01*
X168620440Y-103642160D02*
X168620440Y-103868220D01*
X168620440Y-103868220D02*
X168546780Y-103868220D01*
X168546780Y-103642160D02*
X168546780Y-103868220D01*
X168620440Y-103642160D02*
X168546780Y-103642160D01*
X169021760Y-104841040D02*
X170068240Y-104841040D01*
X170042840Y-103692960D02*
X168620440Y-103692960D01*
X168768482Y-103817420D02*
G75*
G03X168768482Y-103817420I-71842J0D01*
G01*
X168546780Y-103919020D02*
G75*
G02X168546780Y-104614980I0J-347980D01*
G01*
X170543220Y-104614980D02*
G75*
G02X170543220Y-103919020I0J347980D01*
G01*
X169047160Y-120949720D02*
X169047160Y-121274840D01*
X169047160Y-121274840D02*
X168546780Y-121274840D01*
X168546780Y-120949720D02*
X168546780Y-121274840D01*
X169047160Y-120949720D02*
X168546780Y-120949720D01*
X169047160Y-120327420D02*
X169047160Y-120477280D01*
X169047160Y-120477280D02*
X168795700Y-120477280D01*
X168795700Y-120327420D02*
X168795700Y-120477280D01*
X169047160Y-120327420D02*
X168795700Y-120327420D01*
X169047160Y-120822720D02*
X169047160Y-120972580D01*
X169047160Y-120972580D02*
X168795700Y-120972580D01*
X168795700Y-120822720D02*
X168795700Y-120972580D01*
X169047160Y-120822720D02*
X168795700Y-120822720D01*
X169047160Y-120451880D02*
X169047160Y-120848120D01*
X169047160Y-120848120D02*
X168871900Y-120848120D01*
X168871900Y-120451880D02*
X168871900Y-120848120D01*
X169047160Y-120451880D02*
X168871900Y-120451880D01*
X170543220Y-120949720D02*
X170543220Y-121274840D01*
X170543220Y-121274840D02*
X170042840Y-121274840D01*
X170042840Y-120949720D02*
X170042840Y-121274840D01*
X170543220Y-120949720D02*
X170042840Y-120949720D01*
X170543220Y-120025160D02*
X170543220Y-120350280D01*
X170543220Y-120350280D02*
X170042840Y-120350280D01*
X170042840Y-120025160D02*
X170042840Y-120350280D01*
X170543220Y-120025160D02*
X170042840Y-120025160D01*
X170294300Y-120822720D02*
X170294300Y-120972580D01*
X170294300Y-120972580D02*
X170042840Y-120972580D01*
X170042840Y-120822720D02*
X170042840Y-120972580D01*
X170294300Y-120822720D02*
X170042840Y-120822720D01*
X170294300Y-120327420D02*
X170294300Y-120477280D01*
X170294300Y-120477280D02*
X170042840Y-120477280D01*
X170042840Y-120327420D02*
X170042840Y-120477280D01*
X170294300Y-120327420D02*
X170042840Y-120327420D01*
X170218100Y-120451880D02*
X170218100Y-120848120D01*
X170218100Y-120848120D02*
X170042840Y-120848120D01*
X170042840Y-120451880D02*
X170042840Y-120848120D01*
X170218100Y-120451880D02*
X170042840Y-120451880D01*
X169545000Y-120550940D02*
X169545000Y-120749060D01*
X169545000Y-120749060D02*
X169346880Y-120749060D01*
X169346880Y-120550940D02*
X169346880Y-120749060D01*
X169545000Y-120550940D02*
X169346880Y-120550940D01*
X169047160Y-120050560D02*
X169047160Y-120350280D01*
X169047160Y-120350280D02*
X168747440Y-120350280D01*
X168747440Y-120050560D02*
X168747440Y-120350280D01*
X169047160Y-120050560D02*
X168747440Y-120050560D01*
X168620440Y-120025160D02*
X168620440Y-120251220D01*
X168620440Y-120251220D02*
X168546780Y-120251220D01*
X168546780Y-120025160D02*
X168546780Y-120251220D01*
X168620440Y-120025160D02*
X168546780Y-120025160D01*
X169021760Y-121224040D02*
X170068240Y-121224040D01*
X170042840Y-120075960D02*
X168620440Y-120075960D01*
X168768482Y-120200420D02*
G75*
G03X168768482Y-120200420I-71842J0D01*
G01*
X168546780Y-120302020D02*
G75*
G02X168546780Y-120997980I0J-347980D01*
G01*
X170543220Y-120997980D02*
G75*
G02X170543220Y-120302020I0J347980D01*
G01*
X141559280Y-52207160D02*
X141234160Y-52207160D01*
X141234160Y-52207160D02*
X141234160Y-51706780D01*
X141559280Y-51706780D02*
X141234160Y-51706780D01*
X141559280Y-52207160D02*
X141559280Y-51706780D01*
X142181580Y-52207160D02*
X142031720Y-52207160D01*
X142031720Y-52207160D02*
X142031720Y-51955700D01*
X142181580Y-51955700D02*
X142031720Y-51955700D01*
X142181580Y-52207160D02*
X142181580Y-51955700D01*
X141686280Y-52207160D02*
X141536420Y-52207160D01*
X141536420Y-52207160D02*
X141536420Y-51955700D01*
X141686280Y-51955700D02*
X141536420Y-51955700D01*
X141686280Y-52207160D02*
X141686280Y-51955700D01*
X142057120Y-52207160D02*
X141660880Y-52207160D01*
X141660880Y-52207160D02*
X141660880Y-52031900D01*
X142057120Y-52031900D02*
X141660880Y-52031900D01*
X142057120Y-52207160D02*
X142057120Y-52031900D01*
X141559280Y-53703220D02*
X141234160Y-53703220D01*
X141234160Y-53703220D02*
X141234160Y-53202840D01*
X141559280Y-53202840D02*
X141234160Y-53202840D01*
X141559280Y-53703220D02*
X141559280Y-53202840D01*
X142483840Y-53703220D02*
X142158720Y-53703220D01*
X142158720Y-53703220D02*
X142158720Y-53202840D01*
X142483840Y-53202840D02*
X142158720Y-53202840D01*
X142483840Y-53703220D02*
X142483840Y-53202840D01*
X141686280Y-53454300D02*
X141536420Y-53454300D01*
X141536420Y-53454300D02*
X141536420Y-53202840D01*
X141686280Y-53202840D02*
X141536420Y-53202840D01*
X141686280Y-53454300D02*
X141686280Y-53202840D01*
X142181580Y-53454300D02*
X142031720Y-53454300D01*
X142031720Y-53454300D02*
X142031720Y-53202840D01*
X142181580Y-53202840D02*
X142031720Y-53202840D01*
X142181580Y-53454300D02*
X142181580Y-53202840D01*
X142057120Y-53378100D02*
X141660880Y-53378100D01*
X141660880Y-53378100D02*
X141660880Y-53202840D01*
X142057120Y-53202840D02*
X141660880Y-53202840D01*
X142057120Y-53378100D02*
X142057120Y-53202840D01*
X141958060Y-52705000D02*
X141759940Y-52705000D01*
X141759940Y-52705000D02*
X141759940Y-52506880D01*
X141958060Y-52506880D02*
X141759940Y-52506880D01*
X141958060Y-52705000D02*
X141958060Y-52506880D01*
X142458440Y-52207160D02*
X142158720Y-52207160D01*
X142158720Y-52207160D02*
X142158720Y-51907440D01*
X142458440Y-51907440D02*
X142158720Y-51907440D01*
X142458440Y-52207160D02*
X142458440Y-51907440D01*
X142483840Y-51780440D02*
X142257780Y-51780440D01*
X142257780Y-51780440D02*
X142257780Y-51706780D01*
X142483840Y-51706780D02*
X142257780Y-51706780D01*
X142483840Y-51780440D02*
X142483840Y-51706780D01*
X141284960Y-52181760D02*
X141284960Y-53228240D01*
X142433040Y-53202840D02*
X142433040Y-51780440D01*
X142380422Y-51856640D02*
G75*
G03X142380422Y-51856640I-71842J0D01*
G01*
X142206980Y-51706780D02*
G75*
G02X141511020Y-51706780I-347980J0D01*
G01*
X141511020Y-53703220D02*
G75*
G02X142206980Y-53703220I347980J0D01*
G01*
X160741360Y-66868040D02*
X160741360Y-65966340D01*
X160741360Y-68165980D02*
X160741360Y-69164200D01*
X159539940Y-64414540D02*
X160741360Y-64414540D01*
X166342060Y-64414540D02*
X165140640Y-64414540D01*
X159539940Y-71163180D02*
X160741360Y-71163180D01*
X166342060Y-71163180D02*
X165140640Y-71163180D01*
X159539940Y-63964820D02*
X160792160Y-63964820D01*
X166342060Y-63964820D02*
X165089840Y-63964820D01*
X161541460Y-66868040D02*
X159941260Y-66868040D01*
X159992060Y-68016120D02*
X161541460Y-68016120D01*
X160741360Y-66865500D02*
X159992060Y-68016120D01*
X160741360Y-66868040D02*
X161541460Y-68018660D01*
X159539940Y-63964820D02*
X159539940Y-71163180D01*
X166342060Y-63964820D02*
X166342060Y-71163180D01*
X130937000Y-79565500D02*
X130937000Y-79184500D01*
X130937000Y-80581500D02*
X130937000Y-80200500D01*
X130937000Y-80200500D02*
X130556000Y-79565500D01*
X130556000Y-79565500D02*
X131318000Y-79565500D01*
X131318000Y-79565500D02*
X130937000Y-80200500D01*
X130429000Y-80200500D02*
X131445000Y-80200500D01*
X131837000Y-81883000D02*
X131837000Y-78343000D01*
X130037000Y-81883000D02*
X130037000Y-78343000D01*
X130937000Y-99504500D02*
X130937000Y-99885500D01*
X130937000Y-98488500D02*
X130937000Y-98869500D01*
X130937000Y-98869500D02*
X131318000Y-99504500D01*
X131318000Y-99504500D02*
X130556000Y-99504500D01*
X130556000Y-99504500D02*
X130937000Y-98869500D01*
X131445000Y-98869500D02*
X130429000Y-98869500D01*
X130037000Y-97187000D02*
X130037000Y-100727000D01*
X131837000Y-97187000D02*
X131837000Y-100727000D01*
X137657840Y-81107280D02*
X137657840Y-80782160D01*
X137657840Y-80782160D02*
X138158220Y-80782160D01*
X138158220Y-81107280D02*
X138158220Y-80782160D01*
X137657840Y-81107280D02*
X138158220Y-81107280D01*
X137657840Y-81729580D02*
X137657840Y-81579720D01*
X137657840Y-81579720D02*
X137909300Y-81579720D01*
X137909300Y-81729580D02*
X137909300Y-81579720D01*
X137657840Y-81729580D02*
X137909300Y-81729580D01*
X137657840Y-81234280D02*
X137657840Y-81084420D01*
X137657840Y-81084420D02*
X137909300Y-81084420D01*
X137909300Y-81234280D02*
X137909300Y-81084420D01*
X137657840Y-81234280D02*
X137909300Y-81234280D01*
X137657840Y-81605120D02*
X137657840Y-81208880D01*
X137657840Y-81208880D02*
X137833100Y-81208880D01*
X137833100Y-81605120D02*
X137833100Y-81208880D01*
X137657840Y-81605120D02*
X137833100Y-81605120D01*
X136161780Y-81107280D02*
X136161780Y-80782160D01*
X136161780Y-80782160D02*
X136662160Y-80782160D01*
X136662160Y-81107280D02*
X136662160Y-80782160D01*
X136161780Y-81107280D02*
X136662160Y-81107280D01*
X136161780Y-82031840D02*
X136161780Y-81706720D01*
X136161780Y-81706720D02*
X136662160Y-81706720D01*
X136662160Y-82031840D02*
X136662160Y-81706720D01*
X136161780Y-82031840D02*
X136662160Y-82031840D01*
X136410700Y-81234280D02*
X136410700Y-81084420D01*
X136410700Y-81084420D02*
X136662160Y-81084420D01*
X136662160Y-81234280D02*
X136662160Y-81084420D01*
X136410700Y-81234280D02*
X136662160Y-81234280D01*
X136410700Y-81729580D02*
X136410700Y-81579720D01*
X136410700Y-81579720D02*
X136662160Y-81579720D01*
X136662160Y-81729580D02*
X136662160Y-81579720D01*
X136410700Y-81729580D02*
X136662160Y-81729580D01*
X136486900Y-81605120D02*
X136486900Y-81208880D01*
X136486900Y-81208880D02*
X136662160Y-81208880D01*
X136662160Y-81605120D02*
X136662160Y-81208880D01*
X136486900Y-81605120D02*
X136662160Y-81605120D01*
X137160000Y-81506060D02*
X137160000Y-81307940D01*
X137160000Y-81307940D02*
X137358120Y-81307940D01*
X137358120Y-81506060D02*
X137358120Y-81307940D01*
X137160000Y-81506060D02*
X137358120Y-81506060D01*
X137657840Y-82006440D02*
X137657840Y-81706720D01*
X137657840Y-81706720D02*
X137957560Y-81706720D01*
X137957560Y-82006440D02*
X137957560Y-81706720D01*
X137657840Y-82006440D02*
X137957560Y-82006440D01*
X138084560Y-82031840D02*
X138084560Y-81805780D01*
X138084560Y-81805780D02*
X138158220Y-81805780D01*
X138158220Y-82031840D02*
X138158220Y-81805780D01*
X138084560Y-82031840D02*
X138158220Y-82031840D01*
X137683240Y-80832960D02*
X136636760Y-80832960D01*
X136662160Y-81981040D02*
X138084560Y-81981040D01*
X138080202Y-81856580D02*
G75*
G03X138080202Y-81856580I-71842J0D01*
G01*
X138158220Y-81754980D02*
G75*
G02X138158220Y-81059020I0J347980D01*
G01*
X136161780Y-81059020D02*
G75*
G02X136161780Y-81754980I0J-347980D01*
G01*
X137657840Y-97363280D02*
X137657840Y-97038160D01*
X137657840Y-97038160D02*
X138158220Y-97038160D01*
X138158220Y-97363280D02*
X138158220Y-97038160D01*
X137657840Y-97363280D02*
X138158220Y-97363280D01*
X137657840Y-97985580D02*
X137657840Y-97835720D01*
X137657840Y-97835720D02*
X137909300Y-97835720D01*
X137909300Y-97985580D02*
X137909300Y-97835720D01*
X137657840Y-97985580D02*
X137909300Y-97985580D01*
X137657840Y-97490280D02*
X137657840Y-97340420D01*
X137657840Y-97340420D02*
X137909300Y-97340420D01*
X137909300Y-97490280D02*
X137909300Y-97340420D01*
X137657840Y-97490280D02*
X137909300Y-97490280D01*
X137657840Y-97861120D02*
X137657840Y-97464880D01*
X137657840Y-97464880D02*
X137833100Y-97464880D01*
X137833100Y-97861120D02*
X137833100Y-97464880D01*
X137657840Y-97861120D02*
X137833100Y-97861120D01*
X136161780Y-97363280D02*
X136161780Y-97038160D01*
X136161780Y-97038160D02*
X136662160Y-97038160D01*
X136662160Y-97363280D02*
X136662160Y-97038160D01*
X136161780Y-97363280D02*
X136662160Y-97363280D01*
X136161780Y-98287840D02*
X136161780Y-97962720D01*
X136161780Y-97962720D02*
X136662160Y-97962720D01*
X136662160Y-98287840D02*
X136662160Y-97962720D01*
X136161780Y-98287840D02*
X136662160Y-98287840D01*
X136410700Y-97490280D02*
X136410700Y-97340420D01*
X136410700Y-97340420D02*
X136662160Y-97340420D01*
X136662160Y-97490280D02*
X136662160Y-97340420D01*
X136410700Y-97490280D02*
X136662160Y-97490280D01*
X136410700Y-97985580D02*
X136410700Y-97835720D01*
X136410700Y-97835720D02*
X136662160Y-97835720D01*
X136662160Y-97985580D02*
X136662160Y-97835720D01*
X136410700Y-97985580D02*
X136662160Y-97985580D01*
X136486900Y-97861120D02*
X136486900Y-97464880D01*
X136486900Y-97464880D02*
X136662160Y-97464880D01*
X136662160Y-97861120D02*
X136662160Y-97464880D01*
X136486900Y-97861120D02*
X136662160Y-97861120D01*
X137160000Y-97762060D02*
X137160000Y-97563940D01*
X137160000Y-97563940D02*
X137358120Y-97563940D01*
X137358120Y-97762060D02*
X137358120Y-97563940D01*
X137160000Y-97762060D02*
X137358120Y-97762060D01*
X137657840Y-98262440D02*
X137657840Y-97962720D01*
X137657840Y-97962720D02*
X137957560Y-97962720D01*
X137957560Y-98262440D02*
X137957560Y-97962720D01*
X137657840Y-98262440D02*
X137957560Y-98262440D01*
X138084560Y-98287840D02*
X138084560Y-98061780D01*
X138084560Y-98061780D02*
X138158220Y-98061780D01*
X138158220Y-98287840D02*
X138158220Y-98061780D01*
X138084560Y-98287840D02*
X138158220Y-98287840D01*
X137683240Y-97088960D02*
X136636760Y-97088960D01*
X136662160Y-98237040D02*
X138084560Y-98237040D01*
X138080202Y-98112580D02*
G75*
G03X138080202Y-98112580I-71842J0D01*
G01*
X138158220Y-98010980D02*
G75*
G02X138158220Y-97315020I0J347980D01*
G01*
X136161780Y-97315020D02*
G75*
G02X136161780Y-98010980I0J-347980D01*
G01*
X175768000Y-79565500D02*
X175768000Y-79184500D01*
X175768000Y-80581500D02*
X175768000Y-80200500D01*
X175768000Y-80200500D02*
X175387000Y-79565500D01*
X175387000Y-79565500D02*
X176149000Y-79565500D01*
X176149000Y-79565500D02*
X175768000Y-80200500D01*
X175260000Y-80200500D02*
X176276000Y-80200500D01*
X176668000Y-81883000D02*
X176668000Y-78343000D01*
X174868000Y-81883000D02*
X174868000Y-78343000D01*
X175768000Y-99504500D02*
X175768000Y-99885500D01*
X175768000Y-98488500D02*
X175768000Y-98869500D01*
X175768000Y-98869500D02*
X176149000Y-99504500D01*
X176149000Y-99504500D02*
X175387000Y-99504500D01*
X175387000Y-99504500D02*
X175768000Y-98869500D01*
X176276000Y-98869500D02*
X175260000Y-98869500D01*
X174868000Y-97187000D02*
X174868000Y-100727000D01*
X176668000Y-97187000D02*
X176668000Y-100727000D01*
X169047160Y-81706720D02*
X169047160Y-82031840D01*
X169047160Y-82031840D02*
X168546780Y-82031840D01*
X168546780Y-81706720D02*
X168546780Y-82031840D01*
X169047160Y-81706720D02*
X168546780Y-81706720D01*
X169047160Y-81084420D02*
X169047160Y-81234280D01*
X169047160Y-81234280D02*
X168795700Y-81234280D01*
X168795700Y-81084420D02*
X168795700Y-81234280D01*
X169047160Y-81084420D02*
X168795700Y-81084420D01*
X169047160Y-81579720D02*
X169047160Y-81729580D01*
X169047160Y-81729580D02*
X168795700Y-81729580D01*
X168795700Y-81579720D02*
X168795700Y-81729580D01*
X169047160Y-81579720D02*
X168795700Y-81579720D01*
X169047160Y-81208880D02*
X169047160Y-81605120D01*
X169047160Y-81605120D02*
X168871900Y-81605120D01*
X168871900Y-81208880D02*
X168871900Y-81605120D01*
X169047160Y-81208880D02*
X168871900Y-81208880D01*
X170543220Y-81706720D02*
X170543220Y-82031840D01*
X170543220Y-82031840D02*
X170042840Y-82031840D01*
X170042840Y-81706720D02*
X170042840Y-82031840D01*
X170543220Y-81706720D02*
X170042840Y-81706720D01*
X170543220Y-80782160D02*
X170543220Y-81107280D01*
X170543220Y-81107280D02*
X170042840Y-81107280D01*
X170042840Y-80782160D02*
X170042840Y-81107280D01*
X170543220Y-80782160D02*
X170042840Y-80782160D01*
X170294300Y-81579720D02*
X170294300Y-81729580D01*
X170294300Y-81729580D02*
X170042840Y-81729580D01*
X170042840Y-81579720D02*
X170042840Y-81729580D01*
X170294300Y-81579720D02*
X170042840Y-81579720D01*
X170294300Y-81084420D02*
X170294300Y-81234280D01*
X170294300Y-81234280D02*
X170042840Y-81234280D01*
X170042840Y-81084420D02*
X170042840Y-81234280D01*
X170294300Y-81084420D02*
X170042840Y-81084420D01*
X170218100Y-81208880D02*
X170218100Y-81605120D01*
X170218100Y-81605120D02*
X170042840Y-81605120D01*
X170042840Y-81208880D02*
X170042840Y-81605120D01*
X170218100Y-81208880D02*
X170042840Y-81208880D01*
X169545000Y-81307940D02*
X169545000Y-81506060D01*
X169545000Y-81506060D02*
X169346880Y-81506060D01*
X169346880Y-81307940D02*
X169346880Y-81506060D01*
X169545000Y-81307940D02*
X169346880Y-81307940D01*
X169047160Y-80807560D02*
X169047160Y-81107280D01*
X169047160Y-81107280D02*
X168747440Y-81107280D01*
X168747440Y-80807560D02*
X168747440Y-81107280D01*
X169047160Y-80807560D02*
X168747440Y-80807560D01*
X168620440Y-80782160D02*
X168620440Y-81008220D01*
X168620440Y-81008220D02*
X168546780Y-81008220D01*
X168546780Y-80782160D02*
X168546780Y-81008220D01*
X168620440Y-80782160D02*
X168546780Y-80782160D01*
X169021760Y-81981040D02*
X170068240Y-81981040D01*
X170042840Y-80832960D02*
X168620440Y-80832960D01*
X168768482Y-80957420D02*
G75*
G03X168768482Y-80957420I-71842J0D01*
G01*
X168546780Y-81059020D02*
G75*
G02X168546780Y-81754980I0J-347980D01*
G01*
X170543220Y-81754980D02*
G75*
G02X170543220Y-81059020I0J347980D01*
G01*
X169047160Y-97962720D02*
X169047160Y-98287840D01*
X169047160Y-98287840D02*
X168546780Y-98287840D01*
X168546780Y-97962720D02*
X168546780Y-98287840D01*
X169047160Y-97962720D02*
X168546780Y-97962720D01*
X169047160Y-97340420D02*
X169047160Y-97490280D01*
X169047160Y-97490280D02*
X168795700Y-97490280D01*
X168795700Y-97340420D02*
X168795700Y-97490280D01*
X169047160Y-97340420D02*
X168795700Y-97340420D01*
X169047160Y-97835720D02*
X169047160Y-97985580D01*
X169047160Y-97985580D02*
X168795700Y-97985580D01*
X168795700Y-97835720D02*
X168795700Y-97985580D01*
X169047160Y-97835720D02*
X168795700Y-97835720D01*
X169047160Y-97464880D02*
X169047160Y-97861120D01*
X169047160Y-97861120D02*
X168871900Y-97861120D01*
X168871900Y-97464880D02*
X168871900Y-97861120D01*
X169047160Y-97464880D02*
X168871900Y-97464880D01*
X170543220Y-97962720D02*
X170543220Y-98287840D01*
X170543220Y-98287840D02*
X170042840Y-98287840D01*
X170042840Y-97962720D02*
X170042840Y-98287840D01*
X170543220Y-97962720D02*
X170042840Y-97962720D01*
X170543220Y-97038160D02*
X170543220Y-97363280D01*
X170543220Y-97363280D02*
X170042840Y-97363280D01*
X170042840Y-97038160D02*
X170042840Y-97363280D01*
X170543220Y-97038160D02*
X170042840Y-97038160D01*
X170294300Y-97835720D02*
X170294300Y-97985580D01*
X170294300Y-97985580D02*
X170042840Y-97985580D01*
X170042840Y-97835720D02*
X170042840Y-97985580D01*
X170294300Y-97835720D02*
X170042840Y-97835720D01*
X170294300Y-97340420D02*
X170294300Y-97490280D01*
X170294300Y-97490280D02*
X170042840Y-97490280D01*
X170042840Y-97340420D02*
X170042840Y-97490280D01*
X170294300Y-97340420D02*
X170042840Y-97340420D01*
X170218100Y-97464880D02*
X170218100Y-97861120D01*
X170218100Y-97861120D02*
X170042840Y-97861120D01*
X170042840Y-97464880D02*
X170042840Y-97861120D01*
X170218100Y-97464880D02*
X170042840Y-97464880D01*
X169545000Y-97563940D02*
X169545000Y-97762060D01*
X169545000Y-97762060D02*
X169346880Y-97762060D01*
X169346880Y-97563940D02*
X169346880Y-97762060D01*
X169545000Y-97563940D02*
X169346880Y-97563940D01*
X169047160Y-97063560D02*
X169047160Y-97363280D01*
X169047160Y-97363280D02*
X168747440Y-97363280D01*
X168747440Y-97063560D02*
X168747440Y-97363280D01*
X169047160Y-97063560D02*
X168747440Y-97063560D01*
X168620440Y-97038160D02*
X168620440Y-97264220D01*
X168620440Y-97264220D02*
X168546780Y-97264220D01*
X168546780Y-97038160D02*
X168546780Y-97264220D01*
X168620440Y-97038160D02*
X168546780Y-97038160D01*
X169021760Y-98237040D02*
X170068240Y-98237040D01*
X170042840Y-97088960D02*
X168620440Y-97088960D01*
X168768482Y-97213420D02*
G75*
G03X168768482Y-97213420I-71842J0D01*
G01*
X168546780Y-97315020D02*
G75*
G02X168546780Y-98010980I0J-347980D01*
G01*
X170543220Y-98010980D02*
G75*
G02X170543220Y-97315020I0J347980D01*
G01*
X140716000Y-94742000D02*
X140716000Y-87630000D01*
X146812000Y-94742000D02*
X146812000Y-87630000D01*
X156732000Y-132346000D02*
X156732000Y-131146000D01*
X158482000Y-131146000D02*
X158482000Y-132346000D01*
X158334000Y-122414000D02*
X157134000Y-122414000D01*
X157134000Y-120664000D02*
X158334000Y-120664000D01*
X151927000Y-120664000D02*
X153127000Y-120664000D01*
X153127000Y-122414000D02*
X151927000Y-122414000D01*
X134782000Y-135777000D02*
X135982000Y-135777000D01*
X135982000Y-137527000D02*
X134782000Y-137527000D01*
X135982000Y-132701000D02*
X134782000Y-132701000D01*
X134782000Y-130951000D02*
X135982000Y-130951000D01*
X135982000Y-127875000D02*
X134782000Y-127875000D01*
X134782000Y-126125000D02*
X135982000Y-126125000D01*
X153127000Y-110730000D02*
X151927000Y-110730000D01*
X151927000Y-108980000D02*
X153127000Y-108980000D01*
X156880000Y-108980000D02*
X158080000Y-108980000D01*
X158080000Y-110730000D02*
X156880000Y-110730000D01*
D11*
X140462000Y-80391000D02*
X140462000Y-76327000D01*
X143002000Y-76327000D02*
X143002000Y-80391000D01*
X143002000Y-80391000D02*
X140462000Y-80391000D01*
X140462000Y-76327000D02*
X143002000Y-76327000D01*
D12*
X131734000Y-103138000D02*
X132934000Y-103138000D01*
X132934000Y-104888000D02*
X131734000Y-104888000D01*
X131734000Y-119902000D02*
X132934000Y-119902000D01*
X132934000Y-121652000D02*
X131734000Y-121652000D01*
X174971000Y-104888000D02*
X173771000Y-104888000D01*
X173771000Y-103138000D02*
X174971000Y-103138000D01*
X174971000Y-121652000D02*
X173771000Y-121652000D01*
X173771000Y-119902000D02*
X174971000Y-119902000D01*
X140702000Y-56550000D02*
X140702000Y-57750000D01*
X138952000Y-57750000D02*
X138952000Y-56550000D01*
X142734000Y-56550000D02*
X142734000Y-57750000D01*
X140984000Y-57750000D02*
X140984000Y-56550000D01*
X132475000Y-80483000D02*
X132475000Y-79283000D01*
X134225000Y-79283000D02*
X134225000Y-80483000D01*
X134225000Y-98587000D02*
X134225000Y-99787000D01*
X132475000Y-99787000D02*
X132475000Y-98587000D01*
X138268000Y-80250000D02*
X137068000Y-80250000D01*
X137068000Y-78500000D02*
X138268000Y-78500000D01*
X138268000Y-100570000D02*
X137068000Y-100570000D01*
X137068000Y-98820000D02*
X138268000Y-98820000D01*
X172480000Y-80483000D02*
X172480000Y-79283000D01*
X174230000Y-79283000D02*
X174230000Y-80483000D01*
X174230000Y-98587000D02*
X174230000Y-99787000D01*
X172480000Y-99787000D02*
X172480000Y-98587000D01*
X168437000Y-78500000D02*
X169637000Y-78500000D01*
X169637000Y-80250000D02*
X168437000Y-80250000D01*
X168437000Y-98820000D02*
X169637000Y-98820000D01*
X169637000Y-100570000D02*
X168437000Y-100570000D01*
D11*
X162052000Y-93497400D02*
X162052000Y-95986600D01*
X154432000Y-95986600D02*
X162052000Y-95986600D01*
X154432000Y-93497400D02*
X154432000Y-95986600D01*
X154432000Y-93497400D02*
X162052000Y-93497400D01*
X166395400Y-90233500D02*
X166395400Y-78244700D01*
X154406600Y-90233500D02*
X154406600Y-78244700D01*
X166395400Y-78244700D02*
X154406600Y-78244700D01*
X166395400Y-90233500D02*
X154406600Y-90233500D01*
X153543000Y-66929000D02*
X141351000Y-66929000D01*
X153543000Y-70739000D02*
X141351000Y-70739000D01*
X153924000Y-68834000D02*
G75*
G03X153924000Y-68834000I-6477000J0D01*
G01*
X138684000Y-56838850D02*
X138684000Y-53232050D01*
X129692400Y-56838850D02*
X129692400Y-53232050D01*
X129692400Y-56838850D02*
X138684000Y-56838850D01*
X129692400Y-53232050D02*
X138684000Y-53232050D01*
X147955000Y-109181900D02*
X147955000Y-115176300D01*
X141960600Y-109181900D02*
X147955000Y-109181900D01*
X141960600Y-115176300D02*
X147955000Y-115176300D01*
X146710400Y-112179100D02*
G75*
G03X146710400Y-112179100I-1752600J0D01*
G01*
X141960600Y-109181900D02*
X141960600Y-115176300D01*
X141960600Y-122085100D02*
X141960600Y-116090700D01*
X147955000Y-122085100D02*
X141960600Y-122085100D01*
X147955000Y-116090700D02*
X141960600Y-116090700D01*
X146710400Y-119087900D02*
G75*
G03X146710400Y-119087900I-1752600J0D01*
G01*
X147955000Y-122085100D02*
X147955000Y-116090700D01*
X171069000Y-130048000D02*
X172085000Y-130048000D01*
X172085000Y-130048000D02*
X172085000Y-130937000D01*
X172085000Y-130937000D02*
X172085000Y-131064000D01*
X172085000Y-131064000D02*
X171069000Y-131064000D01*
X171069000Y-131064000D02*
X171069000Y-130175000D01*
X171069000Y-130175000D02*
X171958000Y-130175000D01*
X171958000Y-130175000D02*
X171958000Y-130937000D01*
X171958000Y-130937000D02*
X171196000Y-130937000D01*
X171196000Y-130937000D02*
X171196000Y-130302000D01*
X171196000Y-130302000D02*
X171831000Y-130302000D01*
X171831000Y-130302000D02*
X171831000Y-130810000D01*
X171831000Y-130810000D02*
X171323000Y-130810000D01*
X171323000Y-130810000D02*
X171323000Y-130429000D01*
X171323000Y-130429000D02*
X171704000Y-130429000D01*
X171704000Y-130429000D02*
X171704000Y-130683000D01*
X171704000Y-130683000D02*
X171450000Y-130683000D01*
X171450000Y-130683000D02*
X171450000Y-130556000D01*
X171450000Y-130556000D02*
X171704000Y-130556000D01*
X172085000Y-133096000D02*
X172339000Y-133096000D01*
X175260000Y-131826000D02*
X175514000Y-131826000D01*
X172339000Y-133096000D02*
G75*
G03X172339000Y-133096000I-127000J0D01*
G01*
X172466000Y-133096000D02*
G75*
G03X172466000Y-133096000I-254000J0D01*
G01*
X172593000Y-133096000D02*
G75*
G03X172593000Y-133096000I-381000J0D01*
G01*
X172720000Y-133096000D02*
G75*
G03X172720000Y-133096000I-508000J0D01*
G01*
X175641000Y-131826000D02*
G75*
G03X175641000Y-131826000I-254000J0D01*
G01*
X175514000Y-131826000D02*
G75*
G03X175514000Y-131826000I-127000J0D01*
G01*
X175768000Y-131826000D02*
G75*
G03X175768000Y-131826000I-381000J0D01*
G01*
X175895000Y-131826000D02*
G75*
G03X175895000Y-131826000I-508000J0D01*
G01*
X170053000Y-131445000D02*
X170053000Y-132080000D01*
X170053000Y-132080000D02*
X170180000Y-132207000D01*
X170180000Y-132207000D02*
X170180000Y-131445000D01*
D13*
X172212000Y-130556000D02*
X172847000Y-130556000D01*
X172847000Y-130556000D02*
X173482000Y-131826000D01*
X172847000Y-133096000D02*
X173482000Y-133096000D01*
X173482000Y-133096000D02*
X174117000Y-131826000D01*
D11*
X172847000Y-133096000D02*
G75*
G03X172847000Y-133096000I-635000J0D01*
G01*
X170942000Y-131191000D02*
X170942000Y-129921000D01*
X170942000Y-129921000D02*
X172212000Y-129921000D01*
X172212000Y-129921000D02*
X172212000Y-131191000D01*
X172212000Y-131191000D02*
X170942000Y-131191000D01*
D13*
X169672000Y-131826000D02*
X170307000Y-132461000D01*
X170307000Y-132461000D02*
X170307000Y-131191000D01*
X170307000Y-131191000D02*
X169672000Y-131826000D01*
X169672000Y-131826000D02*
X174752000Y-131826000D01*
D11*
X176022000Y-131826000D02*
G75*
G03X176022000Y-131826000I-635000J0D01*
G01*
X176276000Y-122936000D02*
X176276000Y-128016000D01*
X177292000Y-128016000D02*
X177292000Y-135636000D01*
X177292000Y-135636000D02*
X168402000Y-135636000D01*
X168402000Y-135636000D02*
X168402000Y-128016000D01*
X168402000Y-128016000D02*
X177292000Y-128016000D01*
X137287000Y-129286000D02*
G75*
G03X137287000Y-129286000I-635000J0D01*
G01*
X134747000Y-129286000D02*
G75*
G03X134747000Y-129286000I-635000J0D01*
G01*
X134747000Y-134366000D02*
G75*
G03X134747000Y-134366000I-635000J0D01*
G01*
X137287000Y-134366000D02*
G75*
G03X137287000Y-134366000I-635000J0D01*
G01*
X137287000Y-131826000D02*
G75*
G03X137287000Y-131826000I-635000J0D01*
G01*
X134747000Y-131826000D02*
G75*
G03X134747000Y-131826000I-635000J0D01*
G01*
D12*
X132842000Y-122936000D02*
X176276000Y-122936000D01*
X176276000Y-135636000D02*
X176276000Y-140716000D01*
X176276000Y-140716000D02*
X132842000Y-140716000D01*
X132842000Y-140716000D02*
X132842000Y-122936000D01*
X132842000Y-135636000D02*
X137922000Y-135636000D01*
X137922000Y-135636000D02*
X137922000Y-128016000D01*
X137922000Y-128016000D02*
X132842000Y-128016000D01*
D11*
X150241000Y-111633000D02*
X165481000Y-111633000D01*
X150241000Y-112903000D02*
X150241000Y-119888000D01*
X165481000Y-112903000D02*
X150241000Y-112903000D01*
D12*
X150241000Y-119888000D02*
X165481000Y-119888000D01*
X165481000Y-119888000D02*
X165481000Y-112903000D01*
X143510095Y-102830381D02*
X143510095Y-103639905D01*
X143557714Y-103735143D01*
X143605333Y-103782762D01*
X143700571Y-103830381D01*
X143891048Y-103830381D01*
X143986286Y-103782762D01*
X144033905Y-103735143D01*
X144081524Y-103639905D01*
X144081524Y-102830381D01*
X144462476Y-102830381D02*
X145081524Y-102830381D01*
X144748190Y-103211333D01*
X144891048Y-103211333D01*
X144986286Y-103258952D01*
X145033905Y-103306571D01*
X145081524Y-103401810D01*
X145081524Y-103639905D01*
X145033905Y-103735143D01*
X144986286Y-103782762D01*
X144891048Y-103830381D01*
X144605333Y-103830381D01*
X144510095Y-103782762D01*
X144462476Y-103735143D01*
X149225524Y-103782762D02*
X149368381Y-103830381D01*
X149606477Y-103830381D01*
X149701715Y-103782762D01*
X149749334Y-103735143D01*
X149796953Y-103639905D01*
X149796953Y-103544667D01*
X149749334Y-103449429D01*
X149701715Y-103401810D01*
X149606477Y-103354190D01*
X149416000Y-103306571D01*
X149320762Y-103258952D01*
X149273143Y-103211333D01*
X149225524Y-103116095D01*
X149225524Y-103020857D01*
X149273143Y-102925619D01*
X149320762Y-102878000D01*
X149416000Y-102830381D01*
X149654096Y-102830381D01*
X149796953Y-102878000D01*
X150225524Y-103830381D02*
X150225524Y-102830381D01*
X150796953Y-103830381D01*
X150796953Y-102830381D01*
X151177905Y-102830381D02*
X151844572Y-102830381D01*
X151416000Y-103830381D01*
X152701715Y-102830381D02*
X152225524Y-102830381D01*
X152177905Y-103306571D01*
X152225524Y-103258952D01*
X152320762Y-103211333D01*
X152558858Y-103211333D01*
X152654096Y-103258952D01*
X152701715Y-103306571D01*
X152749334Y-103401810D01*
X152749334Y-103639905D01*
X152701715Y-103735143D01*
X152654096Y-103782762D01*
X152558858Y-103830381D01*
X152320762Y-103830381D01*
X152225524Y-103782762D01*
X152177905Y-103735143D01*
X153606477Y-103163714D02*
X153606477Y-103830381D01*
X153368381Y-102782762D02*
X153130286Y-103497048D01*
X153749334Y-103497048D01*
X154558858Y-103163714D02*
X154558858Y-103830381D01*
X154320762Y-102782762D02*
X154082667Y-103497048D01*
X154701715Y-103497048D01*
X155606477Y-103830381D02*
X155035048Y-103830381D01*
X155320762Y-103830381D02*
X155320762Y-102830381D01*
X155225524Y-102973238D01*
X155130286Y-103068476D01*
X155035048Y-103116095D01*
X156225524Y-102830381D02*
X156320763Y-102830381D01*
X156416001Y-102878000D01*
X156463620Y-102925619D01*
X156511239Y-103020857D01*
X156558858Y-103211333D01*
X156558858Y-103449429D01*
X156511239Y-103639905D01*
X156463620Y-103735143D01*
X156416001Y-103782762D01*
X156320763Y-103830381D01*
X156225524Y-103830381D01*
X156130286Y-103782762D01*
X156082667Y-103735143D01*
X156035048Y-103639905D01*
X155987429Y-103449429D01*
X155987429Y-103211333D01*
X156035048Y-103020857D01*
X156082667Y-102925619D01*
X156130286Y-102878000D01*
X156225524Y-102830381D01*
X156987429Y-103830381D02*
X156987429Y-102830381D01*
X157558858Y-103830381D01*
X157558858Y-102830381D01*
X145446762Y-84621619D02*
X145351524Y-84574000D01*
X145256286Y-84478762D01*
X145113429Y-84335905D01*
X145018190Y-84288286D01*
X144922952Y-84288286D01*
X144970571Y-84526381D02*
X144875333Y-84478762D01*
X144780095Y-84383524D01*
X144732476Y-84193048D01*
X144732476Y-83859714D01*
X144780095Y-83669238D01*
X144875333Y-83574000D01*
X144970571Y-83526381D01*
X145161048Y-83526381D01*
X145256286Y-83574000D01*
X145351524Y-83669238D01*
X145399143Y-83859714D01*
X145399143Y-84193048D01*
X145351524Y-84383524D01*
X145256286Y-84478762D01*
X145161048Y-84526381D01*
X144970571Y-84526381D01*
X146351524Y-84526381D02*
X145780095Y-84526381D01*
X146065809Y-84526381D02*
X146065809Y-83526381D01*
X145970571Y-83669238D01*
X145875333Y-83764476D01*
X145780095Y-83812095D01*
X172894667Y-54316381D02*
X172894667Y-55030667D01*
X172847047Y-55173524D01*
X172751809Y-55268762D01*
X172608952Y-55316381D01*
X172513714Y-55316381D01*
X173894667Y-55316381D02*
X173323238Y-55316381D01*
X173608952Y-55316381D02*
X173608952Y-54316381D01*
X173513714Y-54459238D01*
X173418476Y-54554476D01*
X173323238Y-54602095D01*
X163933619Y-59380381D02*
X163933619Y-58380381D01*
X164314572Y-58380381D01*
X164409810Y-58428000D01*
X164457429Y-58475619D01*
X164505048Y-58570857D01*
X164505048Y-58713714D01*
X164457429Y-58808952D01*
X164409810Y-58856571D01*
X164314572Y-58904190D01*
X163933619Y-58904190D01*
X165124095Y-58380381D02*
X165314572Y-58380381D01*
X165409810Y-58428000D01*
X165505048Y-58523238D01*
X165552667Y-58713714D01*
X165552667Y-59047048D01*
X165505048Y-59237524D01*
X165409810Y-59332762D01*
X165314572Y-59380381D01*
X165124095Y-59380381D01*
X165028857Y-59332762D01*
X164933619Y-59237524D01*
X164886000Y-59047048D01*
X164886000Y-58713714D01*
X164933619Y-58523238D01*
X165028857Y-58428000D01*
X165124095Y-58380381D01*
X165886000Y-58380381D02*
X166124095Y-59380381D01*
X166314572Y-58666095D01*
X166505048Y-59380381D01*
X166743143Y-58380381D01*
X167124095Y-58856571D02*
X167457429Y-58856571D01*
X167600286Y-59380381D02*
X167124095Y-59380381D01*
X167124095Y-58380381D01*
X167600286Y-58380381D01*
X168600286Y-59380381D02*
X168266952Y-58904190D01*
X168028857Y-59380381D02*
X168028857Y-58380381D01*
X168409810Y-58380381D01*
X168505048Y-58428000D01*
X168552667Y-58475619D01*
X168600286Y-58570857D01*
X168600286Y-58713714D01*
X168552667Y-58808952D01*
X168505048Y-58856571D01*
X168409810Y-58904190D01*
X168028857Y-58904190D01*
X169790762Y-59380381D02*
X169790762Y-58380381D01*
X170266952Y-59380381D02*
X170266952Y-58380381D01*
X170838381Y-59380381D01*
X170838381Y-58380381D01*
X150455334Y-90527143D02*
X150407715Y-90574762D01*
X150264858Y-90622381D01*
X150169620Y-90622381D01*
X150026762Y-90574762D01*
X149931524Y-90479524D01*
X149883905Y-90384286D01*
X149836286Y-90193810D01*
X149836286Y-90050952D01*
X149883905Y-89860476D01*
X149931524Y-89765238D01*
X150026762Y-89670000D01*
X150169620Y-89622381D01*
X150264858Y-89622381D01*
X150407715Y-89670000D01*
X150455334Y-89717619D01*
X151407715Y-90622381D02*
X150836286Y-90622381D01*
X151122000Y-90622381D02*
X151122000Y-89622381D01*
X151026762Y-89765238D01*
X150931524Y-89860476D01*
X150836286Y-89908095D01*
X158075334Y-75033143D02*
X158027715Y-75080762D01*
X157884858Y-75128381D01*
X157789620Y-75128381D01*
X157646762Y-75080762D01*
X157551524Y-74985524D01*
X157503905Y-74890286D01*
X157456286Y-74699810D01*
X157456286Y-74556952D01*
X157503905Y-74366476D01*
X157551524Y-74271238D01*
X157646762Y-74176000D01*
X157789620Y-74128381D01*
X157884858Y-74128381D01*
X158027715Y-74176000D01*
X158075334Y-74223619D01*
X158932477Y-74128381D02*
X158742000Y-74128381D01*
X158646762Y-74176000D01*
X158599143Y-74223619D01*
X158503905Y-74366476D01*
X158456286Y-74556952D01*
X158456286Y-74937905D01*
X158503905Y-75033143D01*
X158551524Y-75080762D01*
X158646762Y-75128381D01*
X158837239Y-75128381D01*
X158932477Y-75080762D01*
X158980096Y-75033143D01*
X159027715Y-74937905D01*
X159027715Y-74699810D01*
X158980096Y-74604571D01*
X158932477Y-74556952D01*
X158837239Y-74509333D01*
X158646762Y-74509333D01*
X158551524Y-74556952D01*
X158503905Y-74604571D01*
X158456286Y-74699810D01*
X153757334Y-55475143D02*
X153709715Y-55522762D01*
X153566858Y-55570381D01*
X153471620Y-55570381D01*
X153328762Y-55522762D01*
X153233524Y-55427524D01*
X153185905Y-55332286D01*
X153138286Y-55141810D01*
X153138286Y-54998952D01*
X153185905Y-54808476D01*
X153233524Y-54713238D01*
X153328762Y-54618000D01*
X153471620Y-54570381D01*
X153566858Y-54570381D01*
X153709715Y-54618000D01*
X153757334Y-54665619D01*
X154090667Y-54570381D02*
X154757334Y-54570381D01*
X154328762Y-55570381D01*
X145121334Y-55475143D02*
X145073715Y-55522762D01*
X144930858Y-55570381D01*
X144835620Y-55570381D01*
X144692762Y-55522762D01*
X144597524Y-55427524D01*
X144549905Y-55332286D01*
X144502286Y-55141810D01*
X144502286Y-54998952D01*
X144549905Y-54808476D01*
X144597524Y-54713238D01*
X144692762Y-54618000D01*
X144835620Y-54570381D01*
X144930858Y-54570381D01*
X145073715Y-54618000D01*
X145121334Y-54665619D01*
X145692762Y-54998952D02*
X145597524Y-54951333D01*
X145549905Y-54903714D01*
X145502286Y-54808476D01*
X145502286Y-54760857D01*
X145549905Y-54665619D01*
X145597524Y-54618000D01*
X145692762Y-54570381D01*
X145883239Y-54570381D01*
X145978477Y-54618000D01*
X146026096Y-54665619D01*
X146073715Y-54760857D01*
X146073715Y-54808476D01*
X146026096Y-54903714D01*
X145978477Y-54951333D01*
X145883239Y-54998952D01*
X145692762Y-54998952D01*
X145597524Y-55046571D01*
X145549905Y-55094190D01*
X145502286Y-55189429D01*
X145502286Y-55379905D01*
X145549905Y-55475143D01*
X145597524Y-55522762D01*
X145692762Y-55570381D01*
X145883239Y-55570381D01*
X145978477Y-55522762D01*
X146026096Y-55475143D01*
X146073715Y-55379905D01*
X146073715Y-55189429D01*
X146026096Y-55094190D01*
X145978477Y-55046571D01*
X145883239Y-54998952D01*
X150836334Y-95353143D02*
X150788715Y-95400762D01*
X150645858Y-95448381D01*
X150550620Y-95448381D01*
X150407762Y-95400762D01*
X150312524Y-95305524D01*
X150264905Y-95210286D01*
X150217286Y-95019810D01*
X150217286Y-94876952D01*
X150264905Y-94686476D01*
X150312524Y-94591238D01*
X150407762Y-94496000D01*
X150550620Y-94448381D01*
X150645858Y-94448381D01*
X150788715Y-94496000D01*
X150836334Y-94543619D01*
X151312524Y-95448381D02*
X151503000Y-95448381D01*
X151598239Y-95400762D01*
X151645858Y-95353143D01*
X151741096Y-95210286D01*
X151788715Y-95019810D01*
X151788715Y-94638857D01*
X151741096Y-94543619D01*
X151693477Y-94496000D01*
X151598239Y-94448381D01*
X151407762Y-94448381D01*
X151312524Y-94496000D01*
X151264905Y-94543619D01*
X151217286Y-94638857D01*
X151217286Y-94876952D01*
X151264905Y-94972190D01*
X151312524Y-95019810D01*
X151407762Y-95067429D01*
X151598239Y-95067429D01*
X151693477Y-95019810D01*
X151741096Y-94972190D01*
X151788715Y-94876952D01*
X132786381Y-137517095D02*
X131786381Y-137517095D01*
X131786381Y-137279000D01*
X131834000Y-137136142D01*
X131929238Y-137040904D01*
X132024476Y-136993285D01*
X132214952Y-136945666D01*
X132357810Y-136945666D01*
X132548286Y-136993285D01*
X132643524Y-137040904D01*
X132738762Y-137136142D01*
X132786381Y-137279000D01*
X132786381Y-137517095D01*
X132786381Y-135993285D02*
X132786381Y-136564714D01*
X132786381Y-136279000D02*
X131786381Y-136279000D01*
X131929238Y-136374238D01*
X132024476Y-136469476D01*
X132072095Y-136564714D01*
X132786381Y-132564095D02*
X131786381Y-132564095D01*
X131786381Y-132326000D01*
X131834000Y-132183142D01*
X131929238Y-132087904D01*
X132024476Y-132040285D01*
X132214952Y-131992666D01*
X132357810Y-131992666D01*
X132548286Y-132040285D01*
X132643524Y-132087904D01*
X132738762Y-132183142D01*
X132786381Y-132326000D01*
X132786381Y-132564095D01*
X131786381Y-131659333D02*
X131786381Y-131040285D01*
X132167333Y-131373619D01*
X132167333Y-131230761D01*
X132214952Y-131135523D01*
X132262571Y-131087904D01*
X132357810Y-131040285D01*
X132595905Y-131040285D01*
X132691143Y-131087904D01*
X132738762Y-131135523D01*
X132786381Y-131230761D01*
X132786381Y-131516476D01*
X132738762Y-131611714D01*
X132691143Y-131659333D01*
X132786381Y-127738095D02*
X131786381Y-127738095D01*
X131786381Y-127500000D01*
X131834000Y-127357142D01*
X131929238Y-127261904D01*
X132024476Y-127214285D01*
X132214952Y-127166666D01*
X132357810Y-127166666D01*
X132548286Y-127214285D01*
X132643524Y-127261904D01*
X132738762Y-127357142D01*
X132786381Y-127500000D01*
X132786381Y-127738095D01*
X132119714Y-126309523D02*
X132786381Y-126309523D01*
X131738762Y-126547619D02*
X132453048Y-126785714D01*
X132453048Y-126166666D01*
X158773905Y-63444381D02*
X158773905Y-62444381D01*
X159012000Y-62444381D01*
X159154858Y-62492000D01*
X159250096Y-62587238D01*
X159297715Y-62682476D01*
X159345334Y-62872952D01*
X159345334Y-63015810D01*
X159297715Y-63206286D01*
X159250096Y-63301524D01*
X159154858Y-63396762D01*
X159012000Y-63444381D01*
X158773905Y-63444381D01*
X160250096Y-62444381D02*
X159773905Y-62444381D01*
X159726286Y-62920571D01*
X159773905Y-62872952D01*
X159869143Y-62825333D01*
X160107239Y-62825333D01*
X160202477Y-62872952D01*
X160250096Y-62920571D01*
X160297715Y-63015810D01*
X160297715Y-63253905D01*
X160250096Y-63349143D01*
X160202477Y-63396762D01*
X160107239Y-63444381D01*
X159869143Y-63444381D01*
X159773905Y-63396762D01*
X159726286Y-63349143D01*
X137437905Y-52014381D02*
X137437905Y-51014381D01*
X137676000Y-51014381D01*
X137818858Y-51062000D01*
X137914096Y-51157238D01*
X137961715Y-51252476D01*
X138009334Y-51442952D01*
X138009334Y-51585810D01*
X137961715Y-51776286D01*
X137914096Y-51871524D01*
X137818858Y-51966762D01*
X137676000Y-52014381D01*
X137437905Y-52014381D01*
X138866477Y-51014381D02*
X138676000Y-51014381D01*
X138580762Y-51062000D01*
X138533143Y-51109619D01*
X138437905Y-51252476D01*
X138390286Y-51442952D01*
X138390286Y-51823905D01*
X138437905Y-51919143D01*
X138485524Y-51966762D01*
X138580762Y-52014381D01*
X138771239Y-52014381D01*
X138866477Y-51966762D01*
X138914096Y-51919143D01*
X138961715Y-51823905D01*
X138961715Y-51585810D01*
X138914096Y-51490571D01*
X138866477Y-51442952D01*
X138771239Y-51395333D01*
X138580762Y-51395333D01*
X138485524Y-51442952D01*
X138437905Y-51490571D01*
X138390286Y-51585810D01*
X138453905Y-103322381D02*
X138453905Y-102322381D01*
X138692000Y-102322381D01*
X138834858Y-102370000D01*
X138930096Y-102465238D01*
X138977715Y-102560476D01*
X139025334Y-102750952D01*
X139025334Y-102893810D01*
X138977715Y-103084286D01*
X138930096Y-103179524D01*
X138834858Y-103274762D01*
X138692000Y-103322381D01*
X138453905Y-103322381D01*
X139358667Y-102322381D02*
X140025334Y-102322381D01*
X139596762Y-103322381D01*
X136485405Y-122626381D02*
X136485405Y-121626381D01*
X136723500Y-121626381D01*
X136866358Y-121674000D01*
X136961596Y-121769238D01*
X137009215Y-121864476D01*
X137056834Y-122054952D01*
X137056834Y-122197810D01*
X137009215Y-122388286D01*
X136961596Y-122483524D01*
X136866358Y-122578762D01*
X136723500Y-122626381D01*
X136485405Y-122626381D01*
X137628262Y-122054952D02*
X137533024Y-122007333D01*
X137485405Y-121959714D01*
X137437786Y-121864476D01*
X137437786Y-121816857D01*
X137485405Y-121721619D01*
X137533024Y-121674000D01*
X137628262Y-121626381D01*
X137818739Y-121626381D01*
X137913977Y-121674000D01*
X137961596Y-121721619D01*
X138009215Y-121816857D01*
X138009215Y-121864476D01*
X137961596Y-121959714D01*
X137913977Y-122007333D01*
X137818739Y-122054952D01*
X137628262Y-122054952D01*
X137533024Y-122102571D01*
X137485405Y-122150190D01*
X137437786Y-122245429D01*
X137437786Y-122435905D01*
X137485405Y-122531143D01*
X137533024Y-122578762D01*
X137628262Y-122626381D01*
X137818739Y-122626381D01*
X137913977Y-122578762D01*
X137961596Y-122531143D01*
X138009215Y-122435905D01*
X138009215Y-122245429D01*
X137961596Y-122150190D01*
X137913977Y-122102571D01*
X137818739Y-122054952D01*
X166901905Y-103322381D02*
X166901905Y-102322381D01*
X167140000Y-102322381D01*
X167282858Y-102370000D01*
X167378096Y-102465238D01*
X167425715Y-102560476D01*
X167473334Y-102750952D01*
X167473334Y-102893810D01*
X167425715Y-103084286D01*
X167378096Y-103179524D01*
X167282858Y-103274762D01*
X167140000Y-103322381D01*
X166901905Y-103322381D01*
X167949524Y-103322381D02*
X168140000Y-103322381D01*
X168235239Y-103274762D01*
X168282858Y-103227143D01*
X168378096Y-103084286D01*
X168425715Y-102893810D01*
X168425715Y-102512857D01*
X168378096Y-102417619D01*
X168330477Y-102370000D01*
X168235239Y-102322381D01*
X168044762Y-102322381D01*
X167949524Y-102370000D01*
X167901905Y-102417619D01*
X167854286Y-102512857D01*
X167854286Y-102750952D01*
X167901905Y-102846190D01*
X167949524Y-102893810D01*
X168044762Y-102941429D01*
X168235239Y-102941429D01*
X168330477Y-102893810D01*
X168378096Y-102846190D01*
X168425715Y-102750952D01*
X168330714Y-122626381D02*
X168330714Y-121626381D01*
X168568809Y-121626381D01*
X168711667Y-121674000D01*
X168806905Y-121769238D01*
X168854524Y-121864476D01*
X168902143Y-122054952D01*
X168902143Y-122197810D01*
X168854524Y-122388286D01*
X168806905Y-122483524D01*
X168711667Y-122578762D01*
X168568809Y-122626381D01*
X168330714Y-122626381D01*
X169854524Y-122626381D02*
X169283095Y-122626381D01*
X169568809Y-122626381D02*
X169568809Y-121626381D01*
X169473571Y-121769238D01*
X169378333Y-121864476D01*
X169283095Y-121912095D01*
X170473571Y-121626381D02*
X170568810Y-121626381D01*
X170664048Y-121674000D01*
X170711667Y-121721619D01*
X170759286Y-121816857D01*
X170806905Y-122007333D01*
X170806905Y-122245429D01*
X170759286Y-122435905D01*
X170711667Y-122531143D01*
X170664048Y-122578762D01*
X170568810Y-122626381D01*
X170473571Y-122626381D01*
X170378333Y-122578762D01*
X170330714Y-122531143D01*
X170283095Y-122435905D01*
X170235476Y-122245429D01*
X170235476Y-122007333D01*
X170283095Y-121816857D01*
X170330714Y-121721619D01*
X170378333Y-121674000D01*
X170473571Y-121626381D01*
X142803714Y-52014381D02*
X142803714Y-51014381D01*
X143041809Y-51014381D01*
X143184667Y-51062000D01*
X143279905Y-51157238D01*
X143327524Y-51252476D01*
X143375143Y-51442952D01*
X143375143Y-51585810D01*
X143327524Y-51776286D01*
X143279905Y-51871524D01*
X143184667Y-51966762D01*
X143041809Y-52014381D01*
X142803714Y-52014381D01*
X144327524Y-52014381D02*
X143756095Y-52014381D01*
X144041809Y-52014381D02*
X144041809Y-51014381D01*
X143946571Y-51157238D01*
X143851333Y-51252476D01*
X143756095Y-51300095D01*
X144708476Y-51109619D02*
X144756095Y-51062000D01*
X144851333Y-51014381D01*
X145089429Y-51014381D01*
X145184667Y-51062000D01*
X145232286Y-51109619D01*
X145279905Y-51204857D01*
X145279905Y-51300095D01*
X145232286Y-51442952D01*
X144660857Y-52014381D01*
X145279905Y-52014381D01*
X163123714Y-68016381D02*
X163123714Y-67016381D01*
X163361809Y-67016381D01*
X163504667Y-67064000D01*
X163599905Y-67159238D01*
X163647524Y-67254476D01*
X163695143Y-67444952D01*
X163695143Y-67587810D01*
X163647524Y-67778286D01*
X163599905Y-67873524D01*
X163504667Y-67968762D01*
X163361809Y-68016381D01*
X163123714Y-68016381D01*
X164647524Y-68016381D02*
X164076095Y-68016381D01*
X164361809Y-68016381D02*
X164361809Y-67016381D01*
X164266571Y-67159238D01*
X164171333Y-67254476D01*
X164076095Y-67302095D01*
X164980857Y-67016381D02*
X165599905Y-67016381D01*
X165266571Y-67397333D01*
X165409429Y-67397333D01*
X165504667Y-67444952D01*
X165552286Y-67492571D01*
X165599905Y-67587810D01*
X165599905Y-67825905D01*
X165552286Y-67921143D01*
X165504667Y-67968762D01*
X165409429Y-68016381D01*
X165123714Y-68016381D01*
X165028476Y-67968762D01*
X164980857Y-67921143D01*
X130103714Y-77160381D02*
X130103714Y-76160381D01*
X130341809Y-76160381D01*
X130484667Y-76208000D01*
X130579905Y-76303238D01*
X130627524Y-76398476D01*
X130675143Y-76588952D01*
X130675143Y-76731810D01*
X130627524Y-76922286D01*
X130579905Y-77017524D01*
X130484667Y-77112762D01*
X130341809Y-77160381D01*
X130103714Y-77160381D01*
X131627524Y-77160381D02*
X131056095Y-77160381D01*
X131341809Y-77160381D02*
X131341809Y-76160381D01*
X131246571Y-76303238D01*
X131151333Y-76398476D01*
X131056095Y-76446095D01*
X132484667Y-76493714D02*
X132484667Y-77160381D01*
X132246571Y-76112762D02*
X132008476Y-76827048D01*
X132627524Y-76827048D01*
X130357714Y-102814381D02*
X130357714Y-101814381D01*
X130595809Y-101814381D01*
X130738667Y-101862000D01*
X130833905Y-101957238D01*
X130881524Y-102052476D01*
X130929143Y-102242952D01*
X130929143Y-102385810D01*
X130881524Y-102576286D01*
X130833905Y-102671524D01*
X130738667Y-102766762D01*
X130595809Y-102814381D01*
X130357714Y-102814381D01*
X131881524Y-102814381D02*
X131310095Y-102814381D01*
X131595809Y-102814381D02*
X131595809Y-101814381D01*
X131500571Y-101957238D01*
X131405333Y-102052476D01*
X131310095Y-102100095D01*
X132786286Y-101814381D02*
X132310095Y-101814381D01*
X132262476Y-102290571D01*
X132310095Y-102242952D01*
X132405333Y-102195333D01*
X132643429Y-102195333D01*
X132738667Y-102242952D01*
X132786286Y-102290571D01*
X132833905Y-102385810D01*
X132833905Y-102623905D01*
X132786286Y-102719143D01*
X132738667Y-102766762D01*
X132643429Y-102814381D01*
X132405333Y-102814381D01*
X132310095Y-102766762D01*
X132262476Y-102719143D01*
X136453714Y-77922381D02*
X136453714Y-76922381D01*
X136691809Y-76922381D01*
X136834667Y-76970000D01*
X136929905Y-77065238D01*
X136977524Y-77160476D01*
X137025143Y-77350952D01*
X137025143Y-77493810D01*
X136977524Y-77684286D01*
X136929905Y-77779524D01*
X136834667Y-77874762D01*
X136691809Y-77922381D01*
X136453714Y-77922381D01*
X137977524Y-77922381D02*
X137406095Y-77922381D01*
X137691809Y-77922381D02*
X137691809Y-76922381D01*
X137596571Y-77065238D01*
X137501333Y-77160476D01*
X137406095Y-77208095D01*
X138834667Y-76922381D02*
X138644190Y-76922381D01*
X138548952Y-76970000D01*
X138501333Y-77017619D01*
X138406095Y-77160476D01*
X138358476Y-77350952D01*
X138358476Y-77731905D01*
X138406095Y-77827143D01*
X138453714Y-77874762D01*
X138548952Y-77922381D01*
X138739429Y-77922381D01*
X138834667Y-77874762D01*
X138882286Y-77827143D01*
X138929905Y-77731905D01*
X138929905Y-77493810D01*
X138882286Y-77398571D01*
X138834667Y-77350952D01*
X138739429Y-77303333D01*
X138548952Y-77303333D01*
X138453714Y-77350952D01*
X138406095Y-77398571D01*
X138358476Y-77493810D01*
X139247714Y-98242381D02*
X139247714Y-97242381D01*
X139485809Y-97242381D01*
X139628667Y-97290000D01*
X139723905Y-97385238D01*
X139771524Y-97480476D01*
X139819143Y-97670952D01*
X139819143Y-97813810D01*
X139771524Y-98004286D01*
X139723905Y-98099524D01*
X139628667Y-98194762D01*
X139485809Y-98242381D01*
X139247714Y-98242381D01*
X140771524Y-98242381D02*
X140200095Y-98242381D01*
X140485809Y-98242381D02*
X140485809Y-97242381D01*
X140390571Y-97385238D01*
X140295333Y-97480476D01*
X140200095Y-97528095D01*
X141104857Y-97242381D02*
X141771524Y-97242381D01*
X141342952Y-98242381D01*
X174045714Y-77160381D02*
X174045714Y-76160381D01*
X174283809Y-76160381D01*
X174426667Y-76208000D01*
X174521905Y-76303238D01*
X174569524Y-76398476D01*
X174617143Y-76588952D01*
X174617143Y-76731810D01*
X174569524Y-76922286D01*
X174521905Y-77017524D01*
X174426667Y-77112762D01*
X174283809Y-77160381D01*
X174045714Y-77160381D01*
X175569524Y-77160381D02*
X174998095Y-77160381D01*
X175283809Y-77160381D02*
X175283809Y-76160381D01*
X175188571Y-76303238D01*
X175093333Y-76398476D01*
X174998095Y-76446095D01*
X176140952Y-76588952D02*
X176045714Y-76541333D01*
X175998095Y-76493714D01*
X175950476Y-76398476D01*
X175950476Y-76350857D01*
X175998095Y-76255619D01*
X176045714Y-76208000D01*
X176140952Y-76160381D01*
X176331429Y-76160381D01*
X176426667Y-76208000D01*
X176474286Y-76255619D01*
X176521905Y-76350857D01*
X176521905Y-76398476D01*
X176474286Y-76493714D01*
X176426667Y-76541333D01*
X176331429Y-76588952D01*
X176140952Y-76588952D01*
X176045714Y-76636571D01*
X175998095Y-76684190D01*
X175950476Y-76779429D01*
X175950476Y-76969905D01*
X175998095Y-77065143D01*
X176045714Y-77112762D01*
X176140952Y-77160381D01*
X176331429Y-77160381D01*
X176426667Y-77112762D01*
X176474286Y-77065143D01*
X176521905Y-76969905D01*
X176521905Y-76779429D01*
X176474286Y-76684190D01*
X176426667Y-76636571D01*
X176331429Y-76588952D01*
X174045714Y-102814381D02*
X174045714Y-101814381D01*
X174283809Y-101814381D01*
X174426667Y-101862000D01*
X174521905Y-101957238D01*
X174569524Y-102052476D01*
X174617143Y-102242952D01*
X174617143Y-102385810D01*
X174569524Y-102576286D01*
X174521905Y-102671524D01*
X174426667Y-102766762D01*
X174283809Y-102814381D01*
X174045714Y-102814381D01*
X175569524Y-102814381D02*
X174998095Y-102814381D01*
X175283809Y-102814381D02*
X175283809Y-101814381D01*
X175188571Y-101957238D01*
X175093333Y-102052476D01*
X174998095Y-102100095D01*
X176045714Y-102814381D02*
X176236190Y-102814381D01*
X176331429Y-102766762D01*
X176379048Y-102719143D01*
X176474286Y-102576286D01*
X176521905Y-102385810D01*
X176521905Y-102004857D01*
X176474286Y-101909619D01*
X176426667Y-101862000D01*
X176331429Y-101814381D01*
X176140952Y-101814381D01*
X176045714Y-101862000D01*
X175998095Y-101909619D01*
X175950476Y-102004857D01*
X175950476Y-102242952D01*
X175998095Y-102338190D01*
X176045714Y-102385810D01*
X176140952Y-102433429D01*
X176331429Y-102433429D01*
X176426667Y-102385810D01*
X176474286Y-102338190D01*
X176521905Y-102242952D01*
X167695714Y-77922381D02*
X167695714Y-76922381D01*
X167933809Y-76922381D01*
X168076667Y-76970000D01*
X168171905Y-77065238D01*
X168219524Y-77160476D01*
X168267143Y-77350952D01*
X168267143Y-77493810D01*
X168219524Y-77684286D01*
X168171905Y-77779524D01*
X168076667Y-77874762D01*
X167933809Y-77922381D01*
X167695714Y-77922381D01*
X168648095Y-77017619D02*
X168695714Y-76970000D01*
X168790952Y-76922381D01*
X169029048Y-76922381D01*
X169124286Y-76970000D01*
X169171905Y-77017619D01*
X169219524Y-77112857D01*
X169219524Y-77208095D01*
X169171905Y-77350952D01*
X168600476Y-77922381D01*
X169219524Y-77922381D01*
X169838571Y-76922381D02*
X169933810Y-76922381D01*
X170029048Y-76970000D01*
X170076667Y-77017619D01*
X170124286Y-77112857D01*
X170171905Y-77303333D01*
X170171905Y-77541429D01*
X170124286Y-77731905D01*
X170076667Y-77827143D01*
X170029048Y-77874762D01*
X169933810Y-77922381D01*
X169838571Y-77922381D01*
X169743333Y-77874762D01*
X169695714Y-77827143D01*
X169648095Y-77731905D01*
X169600476Y-77541429D01*
X169600476Y-77303333D01*
X169648095Y-77112857D01*
X169695714Y-77017619D01*
X169743333Y-76970000D01*
X169838571Y-76922381D01*
X164901714Y-98242381D02*
X164901714Y-97242381D01*
X165139809Y-97242381D01*
X165282667Y-97290000D01*
X165377905Y-97385238D01*
X165425524Y-97480476D01*
X165473143Y-97670952D01*
X165473143Y-97813810D01*
X165425524Y-98004286D01*
X165377905Y-98099524D01*
X165282667Y-98194762D01*
X165139809Y-98242381D01*
X164901714Y-98242381D01*
X165854095Y-97337619D02*
X165901714Y-97290000D01*
X165996952Y-97242381D01*
X166235048Y-97242381D01*
X166330286Y-97290000D01*
X166377905Y-97337619D01*
X166425524Y-97432857D01*
X166425524Y-97528095D01*
X166377905Y-97670952D01*
X165806476Y-98242381D01*
X166425524Y-98242381D01*
X167377905Y-98242381D02*
X166806476Y-98242381D01*
X167092190Y-98242381D02*
X167092190Y-97242381D01*
X166996952Y-97385238D01*
X166901714Y-97480476D01*
X166806476Y-97528095D01*
X141144667Y-85272571D02*
X140811333Y-85272571D01*
X140811333Y-85796381D02*
X140811333Y-84796381D01*
X141287524Y-84796381D01*
X142192286Y-85796381D02*
X141620857Y-85796381D01*
X141906571Y-85796381D02*
X141906571Y-84796381D01*
X141811333Y-84939238D01*
X141716095Y-85034476D01*
X141620857Y-85082095D01*
X159599334Y-132198381D02*
X159266000Y-131722190D01*
X159027905Y-132198381D02*
X159027905Y-131198381D01*
X159408858Y-131198381D01*
X159504096Y-131246000D01*
X159551715Y-131293619D01*
X159599334Y-131388857D01*
X159599334Y-131531714D01*
X159551715Y-131626952D01*
X159504096Y-131674571D01*
X159408858Y-131722190D01*
X159027905Y-131722190D01*
X160551715Y-132198381D02*
X159980286Y-132198381D01*
X160266000Y-132198381D02*
X160266000Y-131198381D01*
X160170762Y-131341238D01*
X160075524Y-131436476D01*
X159980286Y-131484095D01*
X163409334Y-121864381D02*
X163076000Y-121388190D01*
X162837905Y-121864381D02*
X162837905Y-120864381D01*
X163218858Y-120864381D01*
X163314096Y-120912000D01*
X163361715Y-120959619D01*
X163409334Y-121054857D01*
X163409334Y-121197714D01*
X163361715Y-121292952D01*
X163314096Y-121340571D01*
X163218858Y-121388190D01*
X162837905Y-121388190D01*
X163790286Y-120959619D02*
X163837905Y-120912000D01*
X163933143Y-120864381D01*
X164171239Y-120864381D01*
X164266477Y-120912000D01*
X164314096Y-120959619D01*
X164361715Y-121054857D01*
X164361715Y-121150095D01*
X164314096Y-121292952D01*
X163742667Y-121864381D01*
X164361715Y-121864381D01*
X161123334Y-121864381D02*
X160790000Y-121388190D01*
X160551905Y-121864381D02*
X160551905Y-120864381D01*
X160932858Y-120864381D01*
X161028096Y-120912000D01*
X161075715Y-120959619D01*
X161123334Y-121054857D01*
X161123334Y-121197714D01*
X161075715Y-121292952D01*
X161028096Y-121340571D01*
X160932858Y-121388190D01*
X160551905Y-121388190D01*
X161456667Y-120864381D02*
X162075715Y-120864381D01*
X161742381Y-121245333D01*
X161885239Y-121245333D01*
X161980477Y-121292952D01*
X162028096Y-121340571D01*
X162075715Y-121435810D01*
X162075715Y-121673905D01*
X162028096Y-121769143D01*
X161980477Y-121816762D01*
X161885239Y-121864381D01*
X161599524Y-121864381D01*
X161504286Y-121816762D01*
X161456667Y-121769143D01*
X139279334Y-137104381D02*
X138946000Y-136628190D01*
X138707905Y-137104381D02*
X138707905Y-136104381D01*
X139088858Y-136104381D01*
X139184096Y-136152000D01*
X139231715Y-136199619D01*
X139279334Y-136294857D01*
X139279334Y-136437714D01*
X139231715Y-136532952D01*
X139184096Y-136580571D01*
X139088858Y-136628190D01*
X138707905Y-136628190D01*
X140136477Y-136437714D02*
X140136477Y-137104381D01*
X139898381Y-136056762D02*
X139660286Y-136771048D01*
X140279334Y-136771048D01*
X138803143Y-132532381D02*
X138469809Y-132056190D01*
X138231714Y-132532381D02*
X138231714Y-131532381D01*
X138612667Y-131532381D01*
X138707905Y-131580000D01*
X138755524Y-131627619D01*
X138803143Y-131722857D01*
X138803143Y-131865714D01*
X138755524Y-131960952D01*
X138707905Y-132008571D01*
X138612667Y-132056190D01*
X138231714Y-132056190D01*
X139755524Y-132532381D02*
X139184095Y-132532381D01*
X139469809Y-132532381D02*
X139469809Y-131532381D01*
X139374571Y-131675238D01*
X139279333Y-131770476D01*
X139184095Y-131818095D01*
X140374571Y-131532381D02*
X140469810Y-131532381D01*
X140565048Y-131580000D01*
X140612667Y-131627619D01*
X140660286Y-131722857D01*
X140707905Y-131913333D01*
X140707905Y-132151429D01*
X140660286Y-132341905D01*
X140612667Y-132437143D01*
X140565048Y-132484762D01*
X140469810Y-132532381D01*
X140374571Y-132532381D01*
X140279333Y-132484762D01*
X140231714Y-132437143D01*
X140184095Y-132341905D01*
X140136476Y-132151429D01*
X140136476Y-131913333D01*
X140184095Y-131722857D01*
X140231714Y-131627619D01*
X140279333Y-131580000D01*
X140374571Y-131532381D01*
X138803143Y-127452381D02*
X138469809Y-126976190D01*
X138231714Y-127452381D02*
X138231714Y-126452381D01*
X138612667Y-126452381D01*
X138707905Y-126500000D01*
X138755524Y-126547619D01*
X138803143Y-126642857D01*
X138803143Y-126785714D01*
X138755524Y-126880952D01*
X138707905Y-126928571D01*
X138612667Y-126976190D01*
X138231714Y-126976190D01*
X139755524Y-127452381D02*
X139184095Y-127452381D01*
X139469809Y-127452381D02*
X139469809Y-126452381D01*
X139374571Y-126595238D01*
X139279333Y-126690476D01*
X139184095Y-126738095D01*
X140707905Y-127452381D02*
X140136476Y-127452381D01*
X140422190Y-127452381D02*
X140422190Y-126452381D01*
X140326952Y-126595238D01*
X140231714Y-126690476D01*
X140136476Y-126738095D01*
X160901143Y-110180381D02*
X160567809Y-109704190D01*
X160329714Y-110180381D02*
X160329714Y-109180381D01*
X160710667Y-109180381D01*
X160805905Y-109228000D01*
X160853524Y-109275619D01*
X160901143Y-109370857D01*
X160901143Y-109513714D01*
X160853524Y-109608952D01*
X160805905Y-109656571D01*
X160710667Y-109704190D01*
X160329714Y-109704190D01*
X161853524Y-110180381D02*
X161282095Y-110180381D01*
X161567809Y-110180381D02*
X161567809Y-109180381D01*
X161472571Y-109323238D01*
X161377333Y-109418476D01*
X161282095Y-109466095D01*
X162234476Y-109275619D02*
X162282095Y-109228000D01*
X162377333Y-109180381D01*
X162615429Y-109180381D01*
X162710667Y-109228000D01*
X162758286Y-109275619D01*
X162805905Y-109370857D01*
X162805905Y-109466095D01*
X162758286Y-109608952D01*
X162186857Y-110180381D01*
X162805905Y-110180381D01*
X164203143Y-110180381D02*
X163869809Y-109704190D01*
X163631714Y-110180381D02*
X163631714Y-109180381D01*
X164012667Y-109180381D01*
X164107905Y-109228000D01*
X164155524Y-109275619D01*
X164203143Y-109370857D01*
X164203143Y-109513714D01*
X164155524Y-109608952D01*
X164107905Y-109656571D01*
X164012667Y-109704190D01*
X163631714Y-109704190D01*
X165155524Y-110180381D02*
X164584095Y-110180381D01*
X164869809Y-110180381D02*
X164869809Y-109180381D01*
X164774571Y-109323238D01*
X164679333Y-109418476D01*
X164584095Y-109466095D01*
X165488857Y-109180381D02*
X166107905Y-109180381D01*
X165774571Y-109561333D01*
X165917429Y-109561333D01*
X166012667Y-109608952D01*
X166060286Y-109656571D01*
X166107905Y-109751810D01*
X166107905Y-109989905D01*
X166060286Y-110085143D01*
X166012667Y-110132762D01*
X165917429Y-110180381D01*
X165631714Y-110180381D01*
X165536476Y-110132762D01*
X165488857Y-110085143D01*
X144137143Y-77668381D02*
X143803809Y-77192190D01*
X143565714Y-77668381D02*
X143565714Y-76668381D01*
X143946667Y-76668381D01*
X144041905Y-76716000D01*
X144089524Y-76763619D01*
X144137143Y-76858857D01*
X144137143Y-77001714D01*
X144089524Y-77096952D01*
X144041905Y-77144571D01*
X143946667Y-77192190D01*
X143565714Y-77192190D01*
X145089524Y-77668381D02*
X144518095Y-77668381D01*
X144803809Y-77668381D02*
X144803809Y-76668381D01*
X144708571Y-76811238D01*
X144613333Y-76906476D01*
X144518095Y-76954095D01*
X145994286Y-76668381D02*
X145518095Y-76668381D01*
X145470476Y-77144571D01*
X145518095Y-77096952D01*
X145613333Y-77049333D01*
X145851429Y-77049333D01*
X145946667Y-77096952D01*
X145994286Y-77144571D01*
X146041905Y-77239810D01*
X146041905Y-77477905D01*
X145994286Y-77573143D01*
X145946667Y-77620762D01*
X145851429Y-77668381D01*
X145613333Y-77668381D01*
X145518095Y-77620762D01*
X145470476Y-77573143D01*
X135501143Y-103322381D02*
X135167809Y-102846190D01*
X134929714Y-103322381D02*
X134929714Y-102322381D01*
X135310667Y-102322381D01*
X135405905Y-102370000D01*
X135453524Y-102417619D01*
X135501143Y-102512857D01*
X135501143Y-102655714D01*
X135453524Y-102750952D01*
X135405905Y-102798571D01*
X135310667Y-102846190D01*
X134929714Y-102846190D01*
X136453524Y-103322381D02*
X135882095Y-103322381D01*
X136167809Y-103322381D02*
X136167809Y-102322381D01*
X136072571Y-102465238D01*
X135977333Y-102560476D01*
X135882095Y-102608095D01*
X137024952Y-102750952D02*
X136929714Y-102703333D01*
X136882095Y-102655714D01*
X136834476Y-102560476D01*
X136834476Y-102512857D01*
X136882095Y-102417619D01*
X136929714Y-102370000D01*
X137024952Y-102322381D01*
X137215429Y-102322381D01*
X137310667Y-102370000D01*
X137358286Y-102417619D01*
X137405905Y-102512857D01*
X137405905Y-102560476D01*
X137358286Y-102655714D01*
X137310667Y-102703333D01*
X137215429Y-102750952D01*
X137024952Y-102750952D01*
X136929714Y-102798571D01*
X136882095Y-102846190D01*
X136834476Y-102941429D01*
X136834476Y-103131905D01*
X136882095Y-103227143D01*
X136929714Y-103274762D01*
X137024952Y-103322381D01*
X137215429Y-103322381D01*
X137310667Y-103274762D01*
X137358286Y-103227143D01*
X137405905Y-103131905D01*
X137405905Y-102941429D01*
X137358286Y-102846190D01*
X137310667Y-102798571D01*
X137215429Y-102750952D01*
X131691143Y-122880381D02*
X131357809Y-122404190D01*
X131119714Y-122880381D02*
X131119714Y-121880381D01*
X131500667Y-121880381D01*
X131595905Y-121928000D01*
X131643524Y-121975619D01*
X131691143Y-122070857D01*
X131691143Y-122213714D01*
X131643524Y-122308952D01*
X131595905Y-122356571D01*
X131500667Y-122404190D01*
X131119714Y-122404190D01*
X132643524Y-122880381D02*
X132072095Y-122880381D01*
X132357809Y-122880381D02*
X132357809Y-121880381D01*
X132262571Y-122023238D01*
X132167333Y-122118476D01*
X132072095Y-122166095D01*
X133119714Y-122880381D02*
X133310190Y-122880381D01*
X133405429Y-122832762D01*
X133453048Y-122785143D01*
X133548286Y-122642286D01*
X133595905Y-122451810D01*
X133595905Y-122070857D01*
X133548286Y-121975619D01*
X133500667Y-121928000D01*
X133405429Y-121880381D01*
X133214952Y-121880381D01*
X133119714Y-121928000D01*
X133072095Y-121975619D01*
X133024476Y-122070857D01*
X133024476Y-122308952D01*
X133072095Y-122404190D01*
X133119714Y-122451810D01*
X133214952Y-122499429D01*
X133405429Y-122499429D01*
X133500667Y-122451810D01*
X133548286Y-122404190D01*
X133595905Y-122308952D01*
X169791143Y-103322381D02*
X169457809Y-102846190D01*
X169219714Y-103322381D02*
X169219714Y-102322381D01*
X169600667Y-102322381D01*
X169695905Y-102370000D01*
X169743524Y-102417619D01*
X169791143Y-102512857D01*
X169791143Y-102655714D01*
X169743524Y-102750952D01*
X169695905Y-102798571D01*
X169600667Y-102846190D01*
X169219714Y-102846190D01*
X170172095Y-102417619D02*
X170219714Y-102370000D01*
X170314952Y-102322381D01*
X170553048Y-102322381D01*
X170648286Y-102370000D01*
X170695905Y-102417619D01*
X170743524Y-102512857D01*
X170743524Y-102608095D01*
X170695905Y-102750952D01*
X170124476Y-103322381D01*
X170743524Y-103322381D01*
X171362571Y-102322381D02*
X171457810Y-102322381D01*
X171553048Y-102370000D01*
X171600667Y-102417619D01*
X171648286Y-102512857D01*
X171695905Y-102703333D01*
X171695905Y-102941429D01*
X171648286Y-103131905D01*
X171600667Y-103227143D01*
X171553048Y-103274762D01*
X171457810Y-103322381D01*
X171362571Y-103322381D01*
X171267333Y-103274762D01*
X171219714Y-103227143D01*
X171172095Y-103131905D01*
X171124476Y-102941429D01*
X171124476Y-102703333D01*
X171172095Y-102512857D01*
X171219714Y-102417619D01*
X171267333Y-102370000D01*
X171362571Y-102322381D01*
X173728143Y-122880381D02*
X173394809Y-122404190D01*
X173156714Y-122880381D02*
X173156714Y-121880381D01*
X173537667Y-121880381D01*
X173632905Y-121928000D01*
X173680524Y-121975619D01*
X173728143Y-122070857D01*
X173728143Y-122213714D01*
X173680524Y-122308952D01*
X173632905Y-122356571D01*
X173537667Y-122404190D01*
X173156714Y-122404190D01*
X174109095Y-121975619D02*
X174156714Y-121928000D01*
X174251952Y-121880381D01*
X174490048Y-121880381D01*
X174585286Y-121928000D01*
X174632905Y-121975619D01*
X174680524Y-122070857D01*
X174680524Y-122166095D01*
X174632905Y-122308952D01*
X174061476Y-122880381D01*
X174680524Y-122880381D01*
X175632905Y-122880381D02*
X175061476Y-122880381D01*
X175347190Y-122880381D02*
X175347190Y-121880381D01*
X175251952Y-122023238D01*
X175156714Y-122118476D01*
X175061476Y-122166095D01*
X138628381Y-59062857D02*
X138152190Y-59396191D01*
X138628381Y-59634286D02*
X137628381Y-59634286D01*
X137628381Y-59253333D01*
X137676000Y-59158095D01*
X137723619Y-59110476D01*
X137818857Y-59062857D01*
X137961714Y-59062857D01*
X138056952Y-59110476D01*
X138104571Y-59158095D01*
X138152190Y-59253333D01*
X138152190Y-59634286D01*
X137723619Y-58681905D02*
X137676000Y-58634286D01*
X137628381Y-58539048D01*
X137628381Y-58300952D01*
X137676000Y-58205714D01*
X137723619Y-58158095D01*
X137818857Y-58110476D01*
X137914095Y-58110476D01*
X138056952Y-58158095D01*
X138628381Y-58729524D01*
X138628381Y-58110476D01*
X137723619Y-57729524D02*
X137676000Y-57681905D01*
X137628381Y-57586667D01*
X137628381Y-57348571D01*
X137676000Y-57253333D01*
X137723619Y-57205714D01*
X137818857Y-57158095D01*
X137914095Y-57158095D01*
X138056952Y-57205714D01*
X138628381Y-57777143D01*
X138628381Y-57158095D01*
X141851143Y-61158381D02*
X141517809Y-60682190D01*
X141279714Y-61158381D02*
X141279714Y-60158381D01*
X141660667Y-60158381D01*
X141755905Y-60206000D01*
X141803524Y-60253619D01*
X141851143Y-60348857D01*
X141851143Y-60491714D01*
X141803524Y-60586952D01*
X141755905Y-60634571D01*
X141660667Y-60682190D01*
X141279714Y-60682190D01*
X142232095Y-60253619D02*
X142279714Y-60206000D01*
X142374952Y-60158381D01*
X142613048Y-60158381D01*
X142708286Y-60206000D01*
X142755905Y-60253619D01*
X142803524Y-60348857D01*
X142803524Y-60444095D01*
X142755905Y-60586952D01*
X142184476Y-61158381D01*
X142803524Y-61158381D01*
X143136857Y-60158381D02*
X143755905Y-60158381D01*
X143422571Y-60539333D01*
X143565429Y-60539333D01*
X143660667Y-60586952D01*
X143708286Y-60634571D01*
X143755905Y-60729810D01*
X143755905Y-60967905D01*
X143708286Y-61063143D01*
X143660667Y-61110762D01*
X143565429Y-61158381D01*
X143279714Y-61158381D01*
X143184476Y-61110762D01*
X143136857Y-61063143D01*
X133723143Y-77160381D02*
X133389809Y-76684190D01*
X133151714Y-77160381D02*
X133151714Y-76160381D01*
X133532667Y-76160381D01*
X133627905Y-76208000D01*
X133675524Y-76255619D01*
X133723143Y-76350857D01*
X133723143Y-76493714D01*
X133675524Y-76588952D01*
X133627905Y-76636571D01*
X133532667Y-76684190D01*
X133151714Y-76684190D01*
X134104095Y-76255619D02*
X134151714Y-76208000D01*
X134246952Y-76160381D01*
X134485048Y-76160381D01*
X134580286Y-76208000D01*
X134627905Y-76255619D01*
X134675524Y-76350857D01*
X134675524Y-76446095D01*
X134627905Y-76588952D01*
X134056476Y-77160381D01*
X134675524Y-77160381D01*
X135532667Y-76493714D02*
X135532667Y-77160381D01*
X135294571Y-76112762D02*
X135056476Y-76827048D01*
X135675524Y-76827048D01*
X135501143Y-101798381D02*
X135167809Y-101322190D01*
X134929714Y-101798381D02*
X134929714Y-100798381D01*
X135310667Y-100798381D01*
X135405905Y-100846000D01*
X135453524Y-100893619D01*
X135501143Y-100988857D01*
X135501143Y-101131714D01*
X135453524Y-101226952D01*
X135405905Y-101274571D01*
X135310667Y-101322190D01*
X134929714Y-101322190D01*
X135882095Y-100893619D02*
X135929714Y-100846000D01*
X136024952Y-100798381D01*
X136263048Y-100798381D01*
X136358286Y-100846000D01*
X136405905Y-100893619D01*
X136453524Y-100988857D01*
X136453524Y-101084095D01*
X136405905Y-101226952D01*
X135834476Y-101798381D01*
X136453524Y-101798381D01*
X137358286Y-100798381D02*
X136882095Y-100798381D01*
X136834476Y-101274571D01*
X136882095Y-101226952D01*
X136977333Y-101179333D01*
X137215429Y-101179333D01*
X137310667Y-101226952D01*
X137358286Y-101274571D01*
X137405905Y-101369810D01*
X137405905Y-101607905D01*
X137358286Y-101703143D01*
X137310667Y-101750762D01*
X137215429Y-101798381D01*
X136977333Y-101798381D01*
X136882095Y-101750762D01*
X136834476Y-101703143D01*
X137025143Y-76652381D02*
X136691809Y-76176190D01*
X136453714Y-76652381D02*
X136453714Y-75652381D01*
X136834667Y-75652381D01*
X136929905Y-75700000D01*
X136977524Y-75747619D01*
X137025143Y-75842857D01*
X137025143Y-75985714D01*
X136977524Y-76080952D01*
X136929905Y-76128571D01*
X136834667Y-76176190D01*
X136453714Y-76176190D01*
X137406095Y-75747619D02*
X137453714Y-75700000D01*
X137548952Y-75652381D01*
X137787048Y-75652381D01*
X137882286Y-75700000D01*
X137929905Y-75747619D01*
X137977524Y-75842857D01*
X137977524Y-75938095D01*
X137929905Y-76080952D01*
X137358476Y-76652381D01*
X137977524Y-76652381D01*
X138834667Y-75652381D02*
X138644190Y-75652381D01*
X138548952Y-75700000D01*
X138501333Y-75747619D01*
X138406095Y-75890476D01*
X138358476Y-76080952D01*
X138358476Y-76461905D01*
X138406095Y-76557143D01*
X138453714Y-76604762D01*
X138548952Y-76652381D01*
X138739429Y-76652381D01*
X138834667Y-76604762D01*
X138882286Y-76557143D01*
X138929905Y-76461905D01*
X138929905Y-76223810D01*
X138882286Y-76128571D01*
X138834667Y-76080952D01*
X138739429Y-76033333D01*
X138548952Y-76033333D01*
X138453714Y-76080952D01*
X138406095Y-76128571D01*
X138358476Y-76223810D01*
X139057143Y-101798381D02*
X138723809Y-101322190D01*
X138485714Y-101798381D02*
X138485714Y-100798381D01*
X138866667Y-100798381D01*
X138961905Y-100846000D01*
X139009524Y-100893619D01*
X139057143Y-100988857D01*
X139057143Y-101131714D01*
X139009524Y-101226952D01*
X138961905Y-101274571D01*
X138866667Y-101322190D01*
X138485714Y-101322190D01*
X139438095Y-100893619D02*
X139485714Y-100846000D01*
X139580952Y-100798381D01*
X139819048Y-100798381D01*
X139914286Y-100846000D01*
X139961905Y-100893619D01*
X140009524Y-100988857D01*
X140009524Y-101084095D01*
X139961905Y-101226952D01*
X139390476Y-101798381D01*
X140009524Y-101798381D01*
X140342857Y-100798381D02*
X141009524Y-100798381D01*
X140580952Y-101798381D01*
X171569143Y-77160381D02*
X171235809Y-76684190D01*
X170997714Y-77160381D02*
X170997714Y-76160381D01*
X171378667Y-76160381D01*
X171473905Y-76208000D01*
X171521524Y-76255619D01*
X171569143Y-76350857D01*
X171569143Y-76493714D01*
X171521524Y-76588952D01*
X171473905Y-76636571D01*
X171378667Y-76684190D01*
X170997714Y-76684190D01*
X171950095Y-76255619D02*
X171997714Y-76208000D01*
X172092952Y-76160381D01*
X172331048Y-76160381D01*
X172426286Y-76208000D01*
X172473905Y-76255619D01*
X172521524Y-76350857D01*
X172521524Y-76446095D01*
X172473905Y-76588952D01*
X171902476Y-77160381D01*
X172521524Y-77160381D01*
X173092952Y-76588952D02*
X172997714Y-76541333D01*
X172950095Y-76493714D01*
X172902476Y-76398476D01*
X172902476Y-76350857D01*
X172950095Y-76255619D01*
X172997714Y-76208000D01*
X173092952Y-76160381D01*
X173283429Y-76160381D01*
X173378667Y-76208000D01*
X173426286Y-76255619D01*
X173473905Y-76350857D01*
X173473905Y-76398476D01*
X173426286Y-76493714D01*
X173378667Y-76541333D01*
X173283429Y-76588952D01*
X173092952Y-76588952D01*
X172997714Y-76636571D01*
X172950095Y-76684190D01*
X172902476Y-76779429D01*
X172902476Y-76969905D01*
X172950095Y-77065143D01*
X172997714Y-77112762D01*
X173092952Y-77160381D01*
X173283429Y-77160381D01*
X173378667Y-77112762D01*
X173426286Y-77065143D01*
X173473905Y-76969905D01*
X173473905Y-76779429D01*
X173426286Y-76684190D01*
X173378667Y-76636571D01*
X173283429Y-76588952D01*
X170299143Y-101798381D02*
X169965809Y-101322190D01*
X169727714Y-101798381D02*
X169727714Y-100798381D01*
X170108667Y-100798381D01*
X170203905Y-100846000D01*
X170251524Y-100893619D01*
X170299143Y-100988857D01*
X170299143Y-101131714D01*
X170251524Y-101226952D01*
X170203905Y-101274571D01*
X170108667Y-101322190D01*
X169727714Y-101322190D01*
X170680095Y-100893619D02*
X170727714Y-100846000D01*
X170822952Y-100798381D01*
X171061048Y-100798381D01*
X171156286Y-100846000D01*
X171203905Y-100893619D01*
X171251524Y-100988857D01*
X171251524Y-101084095D01*
X171203905Y-101226952D01*
X170632476Y-101798381D01*
X171251524Y-101798381D01*
X171727714Y-101798381D02*
X171918190Y-101798381D01*
X172013429Y-101750762D01*
X172061048Y-101703143D01*
X172156286Y-101560286D01*
X172203905Y-101369810D01*
X172203905Y-100988857D01*
X172156286Y-100893619D01*
X172108667Y-100846000D01*
X172013429Y-100798381D01*
X171822952Y-100798381D01*
X171727714Y-100846000D01*
X171680095Y-100893619D01*
X171632476Y-100988857D01*
X171632476Y-101226952D01*
X171680095Y-101322190D01*
X171727714Y-101369810D01*
X171822952Y-101417429D01*
X172013429Y-101417429D01*
X172108667Y-101369810D01*
X172156286Y-101322190D01*
X172203905Y-101226952D01*
X168267143Y-76652381D02*
X167933809Y-76176190D01*
X167695714Y-76652381D02*
X167695714Y-75652381D01*
X168076667Y-75652381D01*
X168171905Y-75700000D01*
X168219524Y-75747619D01*
X168267143Y-75842857D01*
X168267143Y-75985714D01*
X168219524Y-76080952D01*
X168171905Y-76128571D01*
X168076667Y-76176190D01*
X167695714Y-76176190D01*
X168600476Y-75652381D02*
X169219524Y-75652381D01*
X168886190Y-76033333D01*
X169029048Y-76033333D01*
X169124286Y-76080952D01*
X169171905Y-76128571D01*
X169219524Y-76223810D01*
X169219524Y-76461905D01*
X169171905Y-76557143D01*
X169124286Y-76604762D01*
X169029048Y-76652381D01*
X168743333Y-76652381D01*
X168648095Y-76604762D01*
X168600476Y-76557143D01*
X169838571Y-75652381D02*
X169933810Y-75652381D01*
X170029048Y-75700000D01*
X170076667Y-75747619D01*
X170124286Y-75842857D01*
X170171905Y-76033333D01*
X170171905Y-76271429D01*
X170124286Y-76461905D01*
X170076667Y-76557143D01*
X170029048Y-76604762D01*
X169933810Y-76652381D01*
X169838571Y-76652381D01*
X169743333Y-76604762D01*
X169695714Y-76557143D01*
X169648095Y-76461905D01*
X169600476Y-76271429D01*
X169600476Y-76033333D01*
X169648095Y-75842857D01*
X169695714Y-75747619D01*
X169743333Y-75700000D01*
X169838571Y-75652381D01*
X166743143Y-101798381D02*
X166409809Y-101322190D01*
X166171714Y-101798381D02*
X166171714Y-100798381D01*
X166552667Y-100798381D01*
X166647905Y-100846000D01*
X166695524Y-100893619D01*
X166743143Y-100988857D01*
X166743143Y-101131714D01*
X166695524Y-101226952D01*
X166647905Y-101274571D01*
X166552667Y-101322190D01*
X166171714Y-101322190D01*
X167076476Y-100798381D02*
X167695524Y-100798381D01*
X167362190Y-101179333D01*
X167505048Y-101179333D01*
X167600286Y-101226952D01*
X167647905Y-101274571D01*
X167695524Y-101369810D01*
X167695524Y-101607905D01*
X167647905Y-101703143D01*
X167600286Y-101750762D01*
X167505048Y-101798381D01*
X167219333Y-101798381D01*
X167124095Y-101750762D01*
X167076476Y-101703143D01*
X168647905Y-101798381D02*
X168076476Y-101798381D01*
X168362190Y-101798381D02*
X168362190Y-100798381D01*
X168266952Y-100941238D01*
X168171714Y-101036476D01*
X168076476Y-101084095D01*
X157408667Y-92162381D02*
X157408667Y-92876667D01*
X157361047Y-93019524D01*
X157265809Y-93114762D01*
X157122952Y-93162381D01*
X157027714Y-93162381D01*
X157884857Y-93162381D02*
X157884857Y-92162381D01*
X158265810Y-92162381D01*
X158361048Y-92210000D01*
X158408667Y-92257619D01*
X158456286Y-92352857D01*
X158456286Y-92495714D01*
X158408667Y-92590952D01*
X158361048Y-92638571D01*
X158265810Y-92686190D01*
X157884857Y-92686190D01*
X159408667Y-93162381D02*
X158837238Y-93162381D01*
X159122952Y-93162381D02*
X159122952Y-92162381D01*
X159027714Y-92305238D01*
X158932476Y-92400476D01*
X158837238Y-92448095D01*
X155535334Y-79954381D02*
X155059143Y-79954381D01*
X155059143Y-78954381D01*
X156392477Y-79954381D02*
X155821048Y-79954381D01*
X156106762Y-79954381D02*
X156106762Y-78954381D01*
X156011524Y-79097238D01*
X155916286Y-79192476D01*
X155821048Y-79240095D01*
X142327334Y-68524381D02*
X141851143Y-68524381D01*
X141851143Y-67524381D01*
X142613048Y-67619619D02*
X142660667Y-67572000D01*
X142755905Y-67524381D01*
X142994001Y-67524381D01*
X143089239Y-67572000D01*
X143136858Y-67619619D01*
X143184477Y-67714857D01*
X143184477Y-67810095D01*
X143136858Y-67952952D01*
X142565429Y-68524381D01*
X143184477Y-68524381D01*
D11*
X132757334Y-55021238D02*
X132902477Y-55069619D01*
X133144381Y-55069619D01*
X133241143Y-55021238D01*
X133289524Y-54972857D01*
X133337905Y-54876095D01*
X133337905Y-54779333D01*
X133289524Y-54682571D01*
X133241143Y-54634190D01*
X133144381Y-54585810D01*
X132950858Y-54537429D01*
X132854096Y-54489048D01*
X132805715Y-54440667D01*
X132757334Y-54343905D01*
X132757334Y-54247143D01*
X132805715Y-54150381D01*
X132854096Y-54102000D01*
X132950858Y-54053619D01*
X133192762Y-54053619D01*
X133337905Y-54102000D01*
X133676572Y-54053619D02*
X133918477Y-55069619D01*
X134112000Y-54343905D01*
X134305524Y-55069619D01*
X134547429Y-54053619D01*
X135466667Y-55069619D02*
X134886096Y-55069619D01*
X135176382Y-55069619D02*
X135176382Y-54053619D01*
X135079620Y-54198762D01*
X134982858Y-54295524D01*
X134886096Y-54343905D01*
D12*
X143700667Y-112672762D02*
X143843524Y-112720381D01*
X144081620Y-112720381D01*
X144176858Y-112672762D01*
X144224477Y-112625143D01*
X144272096Y-112529905D01*
X144272096Y-112434667D01*
X144224477Y-112339429D01*
X144176858Y-112291810D01*
X144081620Y-112244190D01*
X143891143Y-112196571D01*
X143795905Y-112148952D01*
X143748286Y-112101333D01*
X143700667Y-112006095D01*
X143700667Y-111910857D01*
X143748286Y-111815619D01*
X143795905Y-111768000D01*
X143891143Y-111720381D01*
X144129239Y-111720381D01*
X144272096Y-111768000D01*
X144605429Y-111720381D02*
X144843524Y-112720381D01*
X145034001Y-112006095D01*
X145224477Y-112720381D01*
X145462572Y-111720381D01*
X145795905Y-111815619D02*
X145843524Y-111768000D01*
X145938762Y-111720381D01*
X146176858Y-111720381D01*
X146272096Y-111768000D01*
X146319715Y-111815619D01*
X146367334Y-111910857D01*
X146367334Y-112006095D01*
X146319715Y-112148952D01*
X145748286Y-112720381D01*
X146367334Y-112720381D01*
X143700667Y-119530762D02*
X143843524Y-119578381D01*
X144081620Y-119578381D01*
X144176858Y-119530762D01*
X144224477Y-119483143D01*
X144272096Y-119387905D01*
X144272096Y-119292667D01*
X144224477Y-119197429D01*
X144176858Y-119149810D01*
X144081620Y-119102190D01*
X143891143Y-119054571D01*
X143795905Y-119006952D01*
X143748286Y-118959333D01*
X143700667Y-118864095D01*
X143700667Y-118768857D01*
X143748286Y-118673619D01*
X143795905Y-118626000D01*
X143891143Y-118578381D01*
X144129239Y-118578381D01*
X144272096Y-118626000D01*
X144605429Y-118578381D02*
X144843524Y-119578381D01*
X145034001Y-118864095D01*
X145224477Y-119578381D01*
X145462572Y-118578381D01*
X145748286Y-118578381D02*
X146367334Y-118578381D01*
X146034000Y-118959333D01*
X146176858Y-118959333D01*
X146272096Y-119006952D01*
X146319715Y-119054571D01*
X146367334Y-119149810D01*
X146367334Y-119387905D01*
X146319715Y-119483143D01*
X146272096Y-119530762D01*
X146176858Y-119578381D01*
X145891143Y-119578381D01*
X145795905Y-119530762D01*
X145748286Y-119483143D01*
X173990095Y-126198381D02*
X173990095Y-127007905D01*
X174037714Y-127103143D01*
X174085333Y-127150762D01*
X174180571Y-127198381D01*
X174371048Y-127198381D01*
X174466286Y-127150762D01*
X174513905Y-127103143D01*
X174561524Y-127007905D01*
X174561524Y-126198381D01*
X175561524Y-127198381D02*
X174990095Y-127198381D01*
X175275809Y-127198381D02*
X175275809Y-126198381D01*
X175180571Y-126341238D01*
X175085333Y-126436476D01*
X174990095Y-126484095D01*
X147360095Y-131992667D02*
X147836286Y-131992667D01*
X147264857Y-132278381D02*
X147598190Y-131278381D01*
X147931524Y-132278381D01*
X148264857Y-132278381D02*
X148264857Y-131611714D01*
X148264857Y-131802190D02*
X148312476Y-131706952D01*
X148360095Y-131659333D01*
X148455333Y-131611714D01*
X148550572Y-131611714D01*
X149312477Y-132278381D02*
X149312477Y-131278381D01*
X149312477Y-132230762D02*
X149217239Y-132278381D01*
X149026762Y-132278381D01*
X148931524Y-132230762D01*
X148883905Y-132183143D01*
X148836286Y-132087905D01*
X148836286Y-131802190D01*
X148883905Y-131706952D01*
X148931524Y-131659333D01*
X149026762Y-131611714D01*
X149217239Y-131611714D01*
X149312477Y-131659333D01*
X150217239Y-131611714D02*
X150217239Y-132278381D01*
X149788667Y-131611714D02*
X149788667Y-132135524D01*
X149836286Y-132230762D01*
X149931524Y-132278381D01*
X150074382Y-132278381D01*
X150169620Y-132230762D01*
X150217239Y-132183143D01*
X150693429Y-131611714D02*
X150693429Y-132278381D01*
X150693429Y-131706952D02*
X150741048Y-131659333D01*
X150836286Y-131611714D01*
X150979144Y-131611714D01*
X151074382Y-131659333D01*
X151122001Y-131754571D01*
X151122001Y-132278381D01*
X152026763Y-132278381D02*
X152026763Y-131754571D01*
X151979144Y-131659333D01*
X151883906Y-131611714D01*
X151693429Y-131611714D01*
X151598191Y-131659333D01*
X152026763Y-132230762D02*
X151931525Y-132278381D01*
X151693429Y-132278381D01*
X151598191Y-132230762D01*
X151550572Y-132135524D01*
X151550572Y-132040286D01*
X151598191Y-131945048D01*
X151693429Y-131897429D01*
X151931525Y-131897429D01*
X152026763Y-131849810D01*
X152502953Y-131611714D02*
X152502953Y-132278381D01*
X152502953Y-131706952D02*
X152550572Y-131659333D01*
X152645810Y-131611714D01*
X152788668Y-131611714D01*
X152883906Y-131659333D01*
X152931525Y-131754571D01*
X152931525Y-132278381D01*
X153550572Y-132278381D02*
X153455334Y-132230762D01*
X153407715Y-132183143D01*
X153360096Y-132087905D01*
X153360096Y-131802190D01*
X153407715Y-131706952D01*
X153455334Y-131659333D01*
X153550572Y-131611714D01*
X153693430Y-131611714D01*
X153788668Y-131659333D01*
X153836287Y-131706952D01*
X153883906Y-131802190D01*
X153883906Y-132087905D01*
X153836287Y-132183143D01*
X153788668Y-132230762D01*
X153693430Y-132278381D01*
X153550572Y-132278381D01*
X150796667Y-111720381D02*
X150796667Y-112434667D01*
X150749047Y-112577524D01*
X150653809Y-112672762D01*
X150510952Y-112720381D01*
X150415714Y-112720381D01*
X151225238Y-111815619D02*
X151272857Y-111768000D01*
X151368095Y-111720381D01*
X151606191Y-111720381D01*
X151701429Y-111768000D01*
X151749048Y-111815619D01*
X151796667Y-111910857D01*
X151796667Y-112006095D01*
X151749048Y-112148952D01*
X151177619Y-112720381D01*
X151796667Y-112720381D01*
X154448286Y-114990571D02*
X154591143Y-115038190D01*
X154638762Y-115085810D01*
X154686381Y-115181048D01*
X154686381Y-115323905D01*
X154638762Y-115419143D01*
X154591143Y-115466762D01*
X154495905Y-115514381D01*
X154114952Y-115514381D01*
X154114952Y-114514381D01*
X154448286Y-114514381D01*
X154543524Y-114562000D01*
X154591143Y-114609619D01*
X154638762Y-114704857D01*
X154638762Y-114800095D01*
X154591143Y-114895333D01*
X154543524Y-114942952D01*
X154448286Y-114990571D01*
X154114952Y-114990571D01*
X154972095Y-114514381D02*
X155543524Y-114514381D01*
X155257809Y-115514381D02*
X155257809Y-114514381D01*
X156638762Y-115514381D02*
X156638762Y-114514381D01*
X156638762Y-114990571D02*
X157210191Y-114990571D01*
X157210191Y-115514381D02*
X157210191Y-114514381D01*
X158257810Y-115419143D02*
X158210191Y-115466762D01*
X158067334Y-115514381D01*
X157972096Y-115514381D01*
X157829238Y-115466762D01*
X157734000Y-115371524D01*
X157686381Y-115276286D01*
X157638762Y-115085810D01*
X157638762Y-114942952D01*
X157686381Y-114752476D01*
X157734000Y-114657238D01*
X157829238Y-114562000D01*
X157972096Y-114514381D01*
X158067334Y-114514381D01*
X158210191Y-114562000D01*
X158257810Y-114609619D01*
X158686381Y-115133429D02*
X159448286Y-115133429D01*
X160114952Y-114514381D02*
X160210191Y-114514381D01*
X160305429Y-114562000D01*
X160353048Y-114609619D01*
X160400667Y-114704857D01*
X160448286Y-114895333D01*
X160448286Y-115133429D01*
X160400667Y-115323905D01*
X160353048Y-115419143D01*
X160305429Y-115466762D01*
X160210191Y-115514381D01*
X160114952Y-115514381D01*
X160019714Y-115466762D01*
X159972095Y-115419143D01*
X159924476Y-115323905D01*
X159876857Y-115133429D01*
X159876857Y-114895333D01*
X159924476Y-114704857D01*
X159972095Y-114609619D01*
X160019714Y-114562000D01*
X160114952Y-114514381D01*
X161353048Y-114514381D02*
X160876857Y-114514381D01*
X160829238Y-114990571D01*
X160876857Y-114942952D01*
X160972095Y-114895333D01*
X161210191Y-114895333D01*
X161305429Y-114942952D01*
X161353048Y-114990571D01*
X161400667Y-115085810D01*
X161400667Y-115323905D01*
X161353048Y-115419143D01*
X161305429Y-115466762D01*
X161210191Y-115514381D01*
X160972095Y-115514381D01*
X160876857Y-115466762D01*
X160829238Y-115419143D01*
M02*
