M48
;DRILL file {KiCad 4.0.1-3.201512221402+6198~38~ubuntu14.04.1-stable} date mar 02 feb 2016 20:15:55 CET
;FORMAT={-:-/ absolute / inch / decimal}
FMAT,2
INCH,TZ
T1C0.014
T2C0.016
T3C0.016
T4C0.028
T5C0.032
T6C0.039
T7C0.040
T8C0.060
T9C0.165
%
G90
G05
M72
T1
X5.3477Y-5.3073
X5.57Y-3.315
X5.6056Y-3.3201
X5.655Y-2.34
X5.7574Y-5.2943
X5.82Y-3.505
X5.825Y-3.55
X5.875Y-4.705
X5.9021Y-5.2943
X6.165Y-3.09
X6.165Y-4.545
X6.2221Y-2.9729
X6.2349Y-5.3552
X6.28Y-5.34
X6.285Y-5.02
X6.29Y-4.98
X6.295Y-2.48
X6.32Y-4.335
X6.38Y-5.36
X6.3823Y-4.9896
X6.4285Y-3.2783
X6.4308Y-2.636
X6.45Y-4.56
X6.455Y-3.995
X6.4657Y-3.3311
X6.4684Y-3.6835
X6.4794Y-4.9796
X6.48Y-5.335
X6.5Y-3.745
X6.58Y-5.3
X6.615Y-5.19
X6.6198Y-4.97
X6.655Y-5.2
X6.6601Y-5.0609
X6.7186Y-4.9694
X6.7247Y-5.0555
T2
X5.7424Y-3.03
X5.7424Y-3.0654
X5.7424Y-3.1008
X5.7424Y-3.1363
X5.7424Y-3.1717
X5.7424Y-3.2071
X5.7424Y-3.2426
X5.7778Y-3.03
X5.7778Y-3.0654
X5.7778Y-3.1008
X5.7778Y-3.1363
X5.7778Y-3.1717
X5.7778Y-3.2071
X5.7778Y-3.2426
X5.8132Y-3.03
X5.8132Y-3.0615
X5.8487Y-3.03
X5.8487Y-3.0615
X5.89Y-3.03
X5.89Y-3.0615
X5.9313Y-3.03
X5.9313Y-3.0615
X5.9668Y-3.03
X5.9668Y-3.0615
X5.9983Y-3.03
X6.0022Y-3.0654
X6.0022Y-3.1008
X6.0022Y-3.1363
X6.0022Y-3.1717
X6.0022Y-3.2071
X6.0022Y-3.2426
X6.0376Y-3.03
X6.0376Y-3.0654
X6.0376Y-3.1008
X6.0376Y-3.1363
X6.0376Y-3.1717
X6.0376Y-3.2071
X6.0376Y-3.2426
T3
X5.935Y-4.015
X5.935Y-4.115
X5.985Y-4.065
X6.035Y-4.015
X6.035Y-4.115
X6.085Y-4.065
X6.135Y-4.015
X6.135Y-4.115
T4
X5.155Y-3.905
X5.22Y-5.49
X5.23Y-5.28
X5.24Y-5.09
X5.42Y-3.055
X5.47Y-4.04
X5.49Y-4.745
X5.5Y-3.85
X5.555Y-3.265
X5.5907Y-2.5729
X5.61Y-2.375
X5.6587Y-3.06
X5.875Y-3.7
X6.01Y-4.5
X6.0291Y-2.4778
X6.1205Y-3.455
X6.14Y-3.14
X6.16Y-3.24
X6.32Y-2.35
X6.37Y-4.49
X6.39Y-4.06
X6.52Y-2.58
X6.57Y-3.85
X6.655Y-3.06
X6.665Y-4.04
X6.925Y-3.905
T5
X5.38Y-4.89
X5.38Y-5.49
X5.48Y-4.89
X5.48Y-5.49
X5.58Y-4.89
X5.58Y-5.49
X5.68Y-4.89
X5.68Y-5.49
X5.685Y-3.915
X5.685Y-4.215
X5.78Y-4.89
X5.78Y-5.49
X5.785Y-3.915
X5.785Y-4.215
X5.88Y-4.89
X5.88Y-5.49
X5.885Y-3.915
X5.885Y-4.215
X5.98Y-4.89
X5.98Y-5.49
X5.985Y-3.915
X5.985Y-4.215
X6.08Y-4.89
X6.08Y-5.49
X6.085Y-3.915
X6.085Y-4.215
X6.13Y-5.059
X6.13Y-5.315
X6.18Y-4.89
X6.18Y-5.49
X6.185Y-3.915
X6.185Y-4.215
X6.28Y-4.89
X6.28Y-5.49
X6.285Y-3.915
X6.285Y-4.215
X6.38Y-4.89
X6.38Y-5.49
X6.385Y-3.915
X6.385Y-4.215
X6.48Y-4.89
X6.48Y-5.49
X6.58Y-4.89
X6.58Y-5.49
X6.68Y-4.89
X6.68Y-5.49
X6.78Y-4.89
X6.78Y-5.49
T6
X5.579Y-4.328
X5.579Y-4.505
X5.579Y-4.6
X5.579Y-4.777
X5.835Y-4.328
X5.835Y-4.505
X5.835Y-4.6
X5.835Y-4.777
T7
X5.965Y-4.67
X6.065Y-4.67
X6.165Y-4.67
X6.265Y-4.67
X6.365Y-4.67
X6.465Y-4.67
T9
X5.375Y-2.5
X5.375Y-2.8
X5.375Y-3.375
X5.375Y-3.675
X5.375Y-4.275
X5.375Y-4.575
X6.7Y-2.5
X6.7Y-2.8
X6.7Y-3.375
X6.7Y-3.675
X6.7Y-4.275
X6.7Y-4.575
T8
X6.429Y-2.205G85X6.429Y-2.125
G05
X6.475Y-2.165G85X6.435Y-2.165
G05
X6.675Y-2.195G85X6.675Y-2.135
G05
T0
M30
