G04 #@! TF.FileFunction,Soldermask,Bot*
%FSLAX46Y46*%
G04 Gerber Fmt 4.6, Leading zero omitted, Abs format (unit mm)*
G04 Created by KiCad (PCBNEW 0.201508110901+6083~28~ubuntu14.04.1-product) date jue 10 sep 2015 21:39:29 CEST*
%MOMM*%
G01*
G04 APERTURE LIST*
%ADD10C,0.101600*%
%ADD11R,1.974800X2.686000*%
%ADD12O,1.974800X2.686000*%
%ADD13R,10.560000X6.750000*%
%ADD14R,2.686000X1.974800*%
%ADD15O,2.686000X1.974800*%
%ADD16O,2.940000X4.464000*%
G04 APERTURE END LIST*
D10*
D11*
X172085000Y-123190000D03*
D12*
X169545000Y-123190000D03*
X167005000Y-123190000D03*
X164465000Y-123190000D03*
X161925000Y-123190000D03*
X159385000Y-123190000D03*
X156845000Y-123190000D03*
X154305000Y-123190000D03*
X151765000Y-123190000D03*
X149225000Y-123190000D03*
X146685000Y-123190000D03*
X144145000Y-123190000D03*
X141605000Y-123190000D03*
X139065000Y-123190000D03*
X136525000Y-123190000D03*
X136525000Y-138430000D03*
X139065000Y-138430000D03*
X141605000Y-138430000D03*
X144145000Y-138430000D03*
X146685000Y-138430000D03*
X149225000Y-138430000D03*
X151765000Y-138430000D03*
X154305000Y-138430000D03*
X156845000Y-138430000D03*
X159385000Y-138430000D03*
X161925000Y-138430000D03*
X164465000Y-138430000D03*
X167005000Y-138430000D03*
X169545000Y-138430000D03*
X172085000Y-138430000D03*
D13*
X171831000Y-62865000D03*
X134874000Y-62865000D03*
X134874000Y-70485000D03*
X171831000Y-70485000D03*
X134874000Y-85725000D03*
X134874000Y-93345000D03*
X171831000Y-85725000D03*
X171831000Y-93345000D03*
X134874000Y-108585000D03*
X134874000Y-116205000D03*
X171831000Y-116205000D03*
X171831000Y-108585000D03*
D14*
X150495000Y-98425000D03*
D15*
X150495000Y-100965000D03*
X150495000Y-103505000D03*
X150495000Y-106045000D03*
X150495000Y-108585000D03*
X150495000Y-111125000D03*
X150495000Y-113665000D03*
X150495000Y-116205000D03*
X158115000Y-116205000D03*
X158115000Y-113665000D03*
X158115000Y-111125000D03*
X158115000Y-108585000D03*
X158115000Y-106045000D03*
X158115000Y-103505000D03*
X158115000Y-100965000D03*
X158115000Y-98425000D03*
D16*
X169545000Y-54991000D03*
X174625000Y-54991000D03*
M02*
