M48
;DRILL file {KiCad 0.201508110901+6083~28~ubuntu14.04.1-product} date jue 10 sep 2015 21:39:27 CEST
;FORMAT={-:-/ absolute / inch / decimal}
FMAT,2
INCH,TZ
T1C0.016
T2C0.032
T3C0.060
T4C0.165
%
G90
G05
M72
T1
X5.4Y-5.275
X5.425Y-2.95
X5.45Y-3.95
X5.525Y-4.
X5.725Y-3.525
X5.75Y-3.3
X5.775Y-3.2
X5.95Y-3.35
X5.95Y-3.6
X6.015Y-3.85
X6.1Y-3.125
X6.35Y-4.65
X6.55Y-4.
X6.625Y-3.95
X6.65Y-2.95
T2
X5.375Y-4.85
X5.375Y-5.45
X5.475Y-4.85
X5.475Y-5.45
X5.575Y-4.85
X5.575Y-5.45
X5.675Y-4.85
X5.675Y-5.45
X5.775Y-4.85
X5.775Y-5.45
X5.875Y-4.85
X5.875Y-5.45
X5.925Y-3.875
X5.925Y-3.975
X5.925Y-4.075
X5.925Y-4.175
X5.925Y-4.275
X5.925Y-4.375
X5.925Y-4.475
X5.925Y-4.575
X5.975Y-4.85
X5.975Y-5.45
X6.075Y-4.85
X6.075Y-5.45
X6.175Y-4.85
X6.175Y-5.45
X6.225Y-3.875
X6.225Y-3.975
X6.225Y-4.075
X6.225Y-4.175
X6.225Y-4.275
X6.225Y-4.375
X6.225Y-4.475
X6.225Y-4.575
X6.275Y-4.85
X6.275Y-5.45
X6.375Y-4.85
X6.375Y-5.45
X6.475Y-4.85
X6.475Y-5.45
X6.575Y-4.85
X6.575Y-5.45
X6.675Y-4.85
X6.675Y-5.45
X6.775Y-4.85
X6.775Y-5.45
T3
X6.675Y-2.165
X6.875Y-2.165
T4
X5.375Y-2.475
X5.375Y-2.775
X5.375Y-3.375
X5.375Y-3.675
X5.375Y-4.275
X5.375Y-4.575
X6.7Y-2.475
X6.7Y-2.775
X6.7Y-3.375
X6.7Y-3.675
X6.7Y-4.275
X6.7Y-4.575
T0
M30
