G04 #@! TF.FileFunction,Legend,Bot*
%FSLAX46Y46*%
G04 Gerber Fmt 4.6, Leading zero omitted, Abs format (unit mm)*
G04 Created by KiCad (PCBNEW 0.201508110901+6083~28~ubuntu14.04.1-product) date jue 10 sep 2015 21:39:29 CEST*
%MOMM*%
G01*
G04 APERTURE LIST*
%ADD10C,0.101600*%
%ADD11C,0.203200*%
%ADD12C,0.609600*%
%ADD13C,0.150000*%
G04 APERTURE END LIST*
D10*
D11*
X151855715Y-65713429D02*
X151492858Y-66729429D01*
X151130000Y-65713429D01*
X149751143Y-66729429D02*
X150622000Y-66729429D01*
X150186572Y-66729429D02*
X150186572Y-65205429D01*
X150331715Y-65423143D01*
X150476857Y-65568286D01*
X150622000Y-65640857D01*
X149098000Y-66584286D02*
X149025428Y-66656857D01*
X149098000Y-66729429D01*
X149170571Y-66656857D01*
X149098000Y-66584286D01*
X149098000Y-66729429D01*
X148082000Y-65205429D02*
X147936857Y-65205429D01*
X147791714Y-65278000D01*
X147719143Y-65350571D01*
X147646572Y-65495714D01*
X147574000Y-65786000D01*
X147574000Y-66148857D01*
X147646572Y-66439143D01*
X147719143Y-66584286D01*
X147791714Y-66656857D01*
X147936857Y-66729429D01*
X148082000Y-66729429D01*
X148227143Y-66656857D01*
X148299714Y-66584286D01*
X148372286Y-66439143D01*
X148444857Y-66148857D01*
X148444857Y-65786000D01*
X148372286Y-65495714D01*
X148299714Y-65350571D01*
X148227143Y-65278000D01*
X148082000Y-65205429D01*
X146920857Y-66584286D02*
X146848285Y-66656857D01*
X146920857Y-66729429D01*
X146993428Y-66656857D01*
X146920857Y-66584286D01*
X146920857Y-66729429D01*
X145904857Y-65205429D02*
X145759714Y-65205429D01*
X145614571Y-65278000D01*
X145542000Y-65350571D01*
X145469429Y-65495714D01*
X145396857Y-65786000D01*
X145396857Y-66148857D01*
X145469429Y-66439143D01*
X145542000Y-66584286D01*
X145614571Y-66656857D01*
X145759714Y-66729429D01*
X145904857Y-66729429D01*
X146050000Y-66656857D01*
X146122571Y-66584286D01*
X146195143Y-66439143D01*
X146267714Y-66148857D01*
X146267714Y-65786000D01*
X146195143Y-65495714D01*
X146122571Y-65350571D01*
X146050000Y-65278000D01*
X145904857Y-65205429D01*
X154032857Y-58474429D02*
X154540857Y-57748714D01*
X154903714Y-58474429D02*
X154903714Y-56950429D01*
X154323142Y-56950429D01*
X154178000Y-57023000D01*
X154105428Y-57095571D01*
X154032857Y-57240714D01*
X154032857Y-57458429D01*
X154105428Y-57603571D01*
X154178000Y-57676143D01*
X154323142Y-57748714D01*
X154903714Y-57748714D01*
X153162000Y-58474429D02*
X153307142Y-58401857D01*
X153379714Y-58329286D01*
X153452285Y-58184143D01*
X153452285Y-57748714D01*
X153379714Y-57603571D01*
X153307142Y-57531000D01*
X153162000Y-57458429D01*
X152944285Y-57458429D01*
X152799142Y-57531000D01*
X152726571Y-57603571D01*
X152654000Y-57748714D01*
X152654000Y-58184143D01*
X152726571Y-58329286D01*
X152799142Y-58401857D01*
X152944285Y-58474429D01*
X153162000Y-58474429D01*
X152000857Y-58474429D02*
X152000857Y-56950429D01*
X152000857Y-57531000D02*
X151855714Y-57458429D01*
X151565428Y-57458429D01*
X151420285Y-57531000D01*
X151347714Y-57603571D01*
X151275143Y-57748714D01*
X151275143Y-58184143D01*
X151347714Y-58329286D01*
X151420285Y-58401857D01*
X151565428Y-58474429D01*
X151855714Y-58474429D01*
X152000857Y-58401857D01*
X149968857Y-57458429D02*
X149968857Y-58692143D01*
X150041428Y-58837286D01*
X150114000Y-58909857D01*
X150259143Y-58982429D01*
X150476857Y-58982429D01*
X150622000Y-58909857D01*
X149968857Y-58401857D02*
X150114000Y-58474429D01*
X150404286Y-58474429D01*
X150549428Y-58401857D01*
X150622000Y-58329286D01*
X150694571Y-58184143D01*
X150694571Y-57748714D01*
X150622000Y-57603571D01*
X150549428Y-57531000D01*
X150404286Y-57458429D01*
X150114000Y-57458429D01*
X149968857Y-57531000D01*
X148662571Y-58401857D02*
X148807714Y-58474429D01*
X149098000Y-58474429D01*
X149243143Y-58401857D01*
X149315714Y-58256714D01*
X149315714Y-57676143D01*
X149243143Y-57531000D01*
X149098000Y-57458429D01*
X148807714Y-57458429D01*
X148662571Y-57531000D01*
X148590000Y-57676143D01*
X148590000Y-57821286D01*
X149315714Y-57966429D01*
X147283714Y-58474429D02*
X147283714Y-56950429D01*
X147283714Y-58401857D02*
X147428857Y-58474429D01*
X147719143Y-58474429D01*
X147864285Y-58401857D01*
X147936857Y-58329286D01*
X148009428Y-58184143D01*
X148009428Y-57748714D01*
X147936857Y-57603571D01*
X147864285Y-57531000D01*
X147719143Y-57458429D01*
X147428857Y-57458429D01*
X147283714Y-57531000D01*
X146558000Y-57458429D02*
X146558000Y-58474429D01*
X146558000Y-57603571D02*
X146485428Y-57531000D01*
X146340286Y-57458429D01*
X146122571Y-57458429D01*
X145977428Y-57531000D01*
X145904857Y-57676143D01*
X145904857Y-58474429D01*
X144526000Y-58474429D02*
X144526000Y-57676143D01*
X144598571Y-57531000D01*
X144743714Y-57458429D01*
X145034000Y-57458429D01*
X145179143Y-57531000D01*
X144526000Y-58401857D02*
X144671143Y-58474429D01*
X145034000Y-58474429D01*
X145179143Y-58401857D01*
X145251714Y-58256714D01*
X145251714Y-58111571D01*
X145179143Y-57966429D01*
X145034000Y-57893857D01*
X144671143Y-57893857D01*
X144526000Y-57821286D01*
X143147143Y-57458429D02*
X143147143Y-58474429D01*
X143800286Y-57458429D02*
X143800286Y-58256714D01*
X143727714Y-58401857D01*
X143582572Y-58474429D01*
X143364857Y-58474429D01*
X143219714Y-58401857D01*
X143147143Y-58329286D01*
X142639143Y-57458429D02*
X142058572Y-57458429D01*
X142421429Y-56950429D02*
X142421429Y-58256714D01*
X142348857Y-58401857D01*
X142203715Y-58474429D01*
X142058572Y-58474429D01*
D12*
X153089427Y-63608857D02*
X154105427Y-62157429D01*
X154831142Y-63608857D02*
X154831142Y-60560857D01*
X153669999Y-60560857D01*
X153379713Y-60706000D01*
X153234570Y-60851143D01*
X153089427Y-61141429D01*
X153089427Y-61576857D01*
X153234570Y-61867143D01*
X153379713Y-62012286D01*
X153669999Y-62157429D01*
X154831142Y-62157429D01*
X151347713Y-63608857D02*
X151637999Y-63463714D01*
X151783142Y-63318571D01*
X151928285Y-63028286D01*
X151928285Y-62157429D01*
X151783142Y-61867143D01*
X151637999Y-61722000D01*
X151347713Y-61576857D01*
X150912285Y-61576857D01*
X150621999Y-61722000D01*
X150476856Y-61867143D01*
X150331713Y-62157429D01*
X150331713Y-63028286D01*
X150476856Y-63318571D01*
X150621999Y-63463714D01*
X150912285Y-63608857D01*
X151347713Y-63608857D01*
X149025428Y-63608857D02*
X149025428Y-60560857D01*
X149025428Y-61722000D02*
X148735142Y-61576857D01*
X148154571Y-61576857D01*
X147864285Y-61722000D01*
X147719142Y-61867143D01*
X147573999Y-62157429D01*
X147573999Y-63028286D01*
X147719142Y-63318571D01*
X147864285Y-63463714D01*
X148154571Y-63608857D01*
X148735142Y-63608857D01*
X149025428Y-63463714D01*
X145106571Y-63463714D02*
X145396857Y-63608857D01*
X145977428Y-63608857D01*
X146267714Y-63463714D01*
X146412857Y-63173429D01*
X146412857Y-62012286D01*
X146267714Y-61722000D01*
X145977428Y-61576857D01*
X145396857Y-61576857D01*
X145106571Y-61722000D01*
X144961428Y-62012286D01*
X144961428Y-62302571D01*
X146412857Y-62592857D01*
X143655143Y-61576857D02*
X143655143Y-63608857D01*
X143655143Y-61867143D02*
X143510000Y-61722000D01*
X143219714Y-61576857D01*
X142784286Y-61576857D01*
X142494000Y-61722000D01*
X142348857Y-62012286D01*
X142348857Y-63608857D01*
D11*
X158474229Y-59073143D02*
X157748514Y-58565143D01*
X158474229Y-58202286D02*
X156950229Y-58202286D01*
X156950229Y-58782858D01*
X157022800Y-58928000D01*
X157095371Y-59000572D01*
X157240514Y-59073143D01*
X157458229Y-59073143D01*
X157603371Y-59000572D01*
X157675943Y-58928000D01*
X157748514Y-58782858D01*
X157748514Y-58202286D01*
X158401657Y-60306858D02*
X158474229Y-60161715D01*
X158474229Y-59871429D01*
X158401657Y-59726286D01*
X158256514Y-59653715D01*
X157675943Y-59653715D01*
X157530800Y-59726286D01*
X157458229Y-59871429D01*
X157458229Y-60161715D01*
X157530800Y-60306858D01*
X157675943Y-60379429D01*
X157821086Y-60379429D01*
X157966229Y-59653715D01*
X158474229Y-61250286D02*
X158401657Y-61105144D01*
X158256514Y-61032572D01*
X156950229Y-61032572D01*
X158401657Y-62411430D02*
X158474229Y-62266287D01*
X158474229Y-61976001D01*
X158401657Y-61830858D01*
X158256514Y-61758287D01*
X157675943Y-61758287D01*
X157530800Y-61830858D01*
X157458229Y-61976001D01*
X157458229Y-62266287D01*
X157530800Y-62411430D01*
X157675943Y-62484001D01*
X157821086Y-62484001D01*
X157966229Y-61758287D01*
X158474229Y-63790287D02*
X157675943Y-63790287D01*
X157530800Y-63717716D01*
X157458229Y-63572573D01*
X157458229Y-63282287D01*
X157530800Y-63137144D01*
X158401657Y-63790287D02*
X158474229Y-63645144D01*
X158474229Y-63282287D01*
X158401657Y-63137144D01*
X158256514Y-63064573D01*
X158111371Y-63064573D01*
X157966229Y-63137144D01*
X157893657Y-63282287D01*
X157893657Y-63645144D01*
X157821086Y-63790287D01*
X158401657Y-64443430D02*
X158474229Y-64588573D01*
X158474229Y-64878858D01*
X158401657Y-65024001D01*
X158256514Y-65096573D01*
X158183943Y-65096573D01*
X158038800Y-65024001D01*
X157966229Y-64878858D01*
X157966229Y-64661144D01*
X157893657Y-64516001D01*
X157748514Y-64443430D01*
X157675943Y-64443430D01*
X157530800Y-64516001D01*
X157458229Y-64661144D01*
X157458229Y-64878858D01*
X157530800Y-65024001D01*
X158401657Y-66330287D02*
X158474229Y-66185144D01*
X158474229Y-65894858D01*
X158401657Y-65749715D01*
X158256514Y-65677144D01*
X157675943Y-65677144D01*
X157530800Y-65749715D01*
X157458229Y-65894858D01*
X157458229Y-66185144D01*
X157530800Y-66330287D01*
X157675943Y-66402858D01*
X157821086Y-66402858D01*
X157966229Y-65677144D01*
X158474229Y-67709144D02*
X156950229Y-67709144D01*
X158401657Y-67709144D02*
X158474229Y-67564001D01*
X158474229Y-67273715D01*
X158401657Y-67128573D01*
X158329086Y-67056001D01*
X158183943Y-66983430D01*
X157748514Y-66983430D01*
X157603371Y-67056001D01*
X157530800Y-67128573D01*
X157458229Y-67273715D01*
X157458229Y-67564001D01*
X157530800Y-67709144D01*
X157458229Y-70249144D02*
X158474229Y-70249144D01*
X157458229Y-69596001D02*
X158256514Y-69596001D01*
X158401657Y-69668573D01*
X158474229Y-69813715D01*
X158474229Y-70031430D01*
X158401657Y-70176573D01*
X158329086Y-70249144D01*
X157458229Y-70974858D02*
X158474229Y-70974858D01*
X157603371Y-70974858D02*
X157530800Y-71047430D01*
X157458229Y-71192572D01*
X157458229Y-71410287D01*
X157530800Y-71555430D01*
X157675943Y-71628001D01*
X158474229Y-71628001D01*
X158474229Y-73006858D02*
X156950229Y-73006858D01*
X158401657Y-73006858D02*
X158474229Y-72861715D01*
X158474229Y-72571429D01*
X158401657Y-72426287D01*
X158329086Y-72353715D01*
X158183943Y-72281144D01*
X157748514Y-72281144D01*
X157603371Y-72353715D01*
X157530800Y-72426287D01*
X157458229Y-72571429D01*
X157458229Y-72861715D01*
X157530800Y-73006858D01*
X158401657Y-74313144D02*
X158474229Y-74168001D01*
X158474229Y-73877715D01*
X158401657Y-73732572D01*
X158256514Y-73660001D01*
X157675943Y-73660001D01*
X157530800Y-73732572D01*
X157458229Y-73877715D01*
X157458229Y-74168001D01*
X157530800Y-74313144D01*
X157675943Y-74385715D01*
X157821086Y-74385715D01*
X157966229Y-73660001D01*
X158474229Y-75038858D02*
X157458229Y-75038858D01*
X157748514Y-75038858D02*
X157603371Y-75111430D01*
X157530800Y-75184001D01*
X157458229Y-75329144D01*
X157458229Y-75474287D01*
X157022800Y-77941716D02*
X156950229Y-77796573D01*
X156950229Y-77578859D01*
X157022800Y-77361144D01*
X157167943Y-77216002D01*
X157313086Y-77143430D01*
X157603371Y-77070859D01*
X157821086Y-77070859D01*
X158111371Y-77143430D01*
X158256514Y-77216002D01*
X158401657Y-77361144D01*
X158474229Y-77578859D01*
X158474229Y-77724002D01*
X158401657Y-77941716D01*
X158329086Y-78014287D01*
X157821086Y-78014287D01*
X157821086Y-77724002D01*
X158474229Y-78667430D02*
X156950229Y-78667430D01*
X158474229Y-79538287D01*
X156950229Y-79538287D01*
X156950229Y-80264001D02*
X158183943Y-80264001D01*
X158329086Y-80336573D01*
X158401657Y-80409144D01*
X158474229Y-80554287D01*
X158474229Y-80844573D01*
X158401657Y-80989715D01*
X158329086Y-81062287D01*
X158183943Y-81134858D01*
X156950229Y-81134858D01*
X156877657Y-82949144D02*
X158837086Y-81642858D01*
X157022800Y-84255429D02*
X156950229Y-84110286D01*
X156950229Y-83892572D01*
X157022800Y-83674857D01*
X157167943Y-83529715D01*
X157313086Y-83457143D01*
X157603371Y-83384572D01*
X157821086Y-83384572D01*
X158111371Y-83457143D01*
X158256514Y-83529715D01*
X158401657Y-83674857D01*
X158474229Y-83892572D01*
X158474229Y-84037715D01*
X158401657Y-84255429D01*
X158329086Y-84328000D01*
X157821086Y-84328000D01*
X157821086Y-84037715D01*
X158474229Y-84981143D02*
X156950229Y-84981143D01*
X156950229Y-85561715D01*
X157022800Y-85706857D01*
X157095371Y-85779429D01*
X157240514Y-85852000D01*
X157458229Y-85852000D01*
X157603371Y-85779429D01*
X157675943Y-85706857D01*
X157748514Y-85561715D01*
X157748514Y-84981143D01*
X158474229Y-87230857D02*
X158474229Y-86505143D01*
X156950229Y-86505143D01*
X156950229Y-88754857D02*
X156950229Y-89698286D01*
X157530800Y-89190286D01*
X157530800Y-89408000D01*
X157603371Y-89553143D01*
X157675943Y-89625714D01*
X157821086Y-89698286D01*
X158183943Y-89698286D01*
X158329086Y-89625714D01*
X158401657Y-89553143D01*
X158474229Y-89408000D01*
X158474229Y-88972572D01*
X158401657Y-88827429D01*
X158329086Y-88754857D01*
X158474229Y-92238286D02*
X158474229Y-91512572D01*
X156950229Y-91512572D01*
X158474229Y-92746286D02*
X157458229Y-92746286D01*
X156950229Y-92746286D02*
X157022800Y-92673715D01*
X157095371Y-92746286D01*
X157022800Y-92818858D01*
X156950229Y-92746286D01*
X157095371Y-92746286D01*
X158401657Y-94125143D02*
X158474229Y-93980000D01*
X158474229Y-93689714D01*
X158401657Y-93544572D01*
X158329086Y-93472000D01*
X158183943Y-93399429D01*
X157748514Y-93399429D01*
X157603371Y-93472000D01*
X157530800Y-93544572D01*
X157458229Y-93689714D01*
X157458229Y-93980000D01*
X157530800Y-94125143D01*
X158401657Y-95358858D02*
X158474229Y-95213715D01*
X158474229Y-94923429D01*
X158401657Y-94778286D01*
X158256514Y-94705715D01*
X157675943Y-94705715D01*
X157530800Y-94778286D01*
X157458229Y-94923429D01*
X157458229Y-95213715D01*
X157530800Y-95358858D01*
X157675943Y-95431429D01*
X157821086Y-95431429D01*
X157966229Y-94705715D01*
X157458229Y-96084572D02*
X158474229Y-96084572D01*
X157603371Y-96084572D02*
X157530800Y-96157144D01*
X157458229Y-96302286D01*
X157458229Y-96520001D01*
X157530800Y-96665144D01*
X157675943Y-96737715D01*
X158474229Y-96737715D01*
X158401657Y-97390858D02*
X158474229Y-97536001D01*
X158474229Y-97826286D01*
X158401657Y-97971429D01*
X158256514Y-98044001D01*
X158183943Y-98044001D01*
X158038800Y-97971429D01*
X157966229Y-97826286D01*
X157966229Y-97608572D01*
X157893657Y-97463429D01*
X157748514Y-97390858D01*
X157675943Y-97390858D01*
X157530800Y-97463429D01*
X157458229Y-97608572D01*
X157458229Y-97826286D01*
X157530800Y-97971429D01*
X158401657Y-99277715D02*
X158474229Y-99132572D01*
X158474229Y-98842286D01*
X158401657Y-98697143D01*
X158256514Y-98624572D01*
X157675943Y-98624572D01*
X157530800Y-98697143D01*
X157458229Y-98842286D01*
X157458229Y-99132572D01*
X157530800Y-99277715D01*
X157675943Y-99350286D01*
X157821086Y-99350286D01*
X157966229Y-98624572D01*
X160811029Y-56315431D02*
X159287029Y-56315431D01*
X160811029Y-56968574D02*
X160012743Y-56968574D01*
X159867600Y-56896003D01*
X159795029Y-56750860D01*
X159795029Y-56533145D01*
X159867600Y-56388003D01*
X159940171Y-56315431D01*
X159795029Y-57476574D02*
X159795029Y-58057145D01*
X159287029Y-57694288D02*
X160593314Y-57694288D01*
X160738457Y-57766860D01*
X160811029Y-57912002D01*
X160811029Y-58057145D01*
X159795029Y-58347431D02*
X159795029Y-58928002D01*
X159287029Y-58565145D02*
X160593314Y-58565145D01*
X160738457Y-58637717D01*
X160811029Y-58782859D01*
X160811029Y-58928002D01*
X159795029Y-59436002D02*
X161319029Y-59436002D01*
X159867600Y-59436002D02*
X159795029Y-59581145D01*
X159795029Y-59871431D01*
X159867600Y-60016574D01*
X159940171Y-60089145D01*
X160085314Y-60161716D01*
X160520743Y-60161716D01*
X160665886Y-60089145D01*
X160738457Y-60016574D01*
X160811029Y-59871431D01*
X160811029Y-59581145D01*
X160738457Y-59436002D01*
X160738457Y-60742288D02*
X160811029Y-60887431D01*
X160811029Y-61177716D01*
X160738457Y-61322859D01*
X160593314Y-61395431D01*
X160520743Y-61395431D01*
X160375600Y-61322859D01*
X160303029Y-61177716D01*
X160303029Y-60960002D01*
X160230457Y-60814859D01*
X160085314Y-60742288D01*
X160012743Y-60742288D01*
X159867600Y-60814859D01*
X159795029Y-60960002D01*
X159795029Y-61177716D01*
X159867600Y-61322859D01*
X160665886Y-62048573D02*
X160738457Y-62121145D01*
X160811029Y-62048573D01*
X160738457Y-61976002D01*
X160665886Y-62048573D01*
X160811029Y-62048573D01*
X159867600Y-62048573D02*
X159940171Y-62121145D01*
X160012743Y-62048573D01*
X159940171Y-61976002D01*
X159867600Y-62048573D01*
X160012743Y-62048573D01*
X159214457Y-63862859D02*
X161173886Y-62556573D01*
X159214457Y-65459430D02*
X161173886Y-64153144D01*
X159795029Y-65822286D02*
X160811029Y-66112572D01*
X160085314Y-66402858D01*
X160811029Y-66693143D01*
X159795029Y-66983429D01*
X159795029Y-67418857D02*
X160811029Y-67709143D01*
X160085314Y-67999429D01*
X160811029Y-68289714D01*
X159795029Y-68580000D01*
X159795029Y-69015428D02*
X160811029Y-69305714D01*
X160085314Y-69596000D01*
X160811029Y-69886285D01*
X159795029Y-70176571D01*
X160665886Y-70757142D02*
X160738457Y-70829714D01*
X160811029Y-70757142D01*
X160738457Y-70684571D01*
X160665886Y-70757142D01*
X160811029Y-70757142D01*
X159795029Y-72135999D02*
X161028743Y-72135999D01*
X161173886Y-72063428D01*
X161246457Y-71990856D01*
X161319029Y-71845713D01*
X161319029Y-71627999D01*
X161246457Y-71482856D01*
X160738457Y-72135999D02*
X160811029Y-71990856D01*
X160811029Y-71700570D01*
X160738457Y-71555428D01*
X160665886Y-71482856D01*
X160520743Y-71410285D01*
X160085314Y-71410285D01*
X159940171Y-71482856D01*
X159867600Y-71555428D01*
X159795029Y-71700570D01*
X159795029Y-71990856D01*
X159867600Y-72135999D01*
X159795029Y-72861713D02*
X160811029Y-72861713D01*
X159940171Y-72861713D02*
X159867600Y-72934285D01*
X159795029Y-73079427D01*
X159795029Y-73297142D01*
X159867600Y-73442285D01*
X160012743Y-73514856D01*
X160811029Y-73514856D01*
X159795029Y-74893713D02*
X160811029Y-74893713D01*
X159795029Y-74240570D02*
X160593314Y-74240570D01*
X160738457Y-74313142D01*
X160811029Y-74458284D01*
X160811029Y-74675999D01*
X160738457Y-74821142D01*
X160665886Y-74893713D01*
X160665886Y-75619427D02*
X160738457Y-75691999D01*
X160811029Y-75619427D01*
X160738457Y-75546856D01*
X160665886Y-75619427D01*
X160811029Y-75619427D01*
X160811029Y-76562855D02*
X160738457Y-76417713D01*
X160665886Y-76345141D01*
X160520743Y-76272570D01*
X160085314Y-76272570D01*
X159940171Y-76345141D01*
X159867600Y-76417713D01*
X159795029Y-76562855D01*
X159795029Y-76780570D01*
X159867600Y-76925713D01*
X159940171Y-76998284D01*
X160085314Y-77070855D01*
X160520743Y-77070855D01*
X160665886Y-76998284D01*
X160738457Y-76925713D01*
X160811029Y-76780570D01*
X160811029Y-76562855D01*
X160811029Y-77723998D02*
X159795029Y-77723998D01*
X160085314Y-77723998D02*
X159940171Y-77796570D01*
X159867600Y-77869141D01*
X159795029Y-78014284D01*
X159795029Y-78159427D01*
X159795029Y-79320570D02*
X161028743Y-79320570D01*
X161173886Y-79247999D01*
X161246457Y-79175427D01*
X161319029Y-79030284D01*
X161319029Y-78812570D01*
X161246457Y-78667427D01*
X160738457Y-79320570D02*
X160811029Y-79175427D01*
X160811029Y-78885141D01*
X160738457Y-78739999D01*
X160665886Y-78667427D01*
X160520743Y-78594856D01*
X160085314Y-78594856D01*
X159940171Y-78667427D01*
X159867600Y-78739999D01*
X159795029Y-78885141D01*
X159795029Y-79175427D01*
X159867600Y-79320570D01*
X159214457Y-81134856D02*
X161173886Y-79828570D01*
X160811029Y-81860569D02*
X160738457Y-81715427D01*
X160593314Y-81642855D01*
X159287029Y-81642855D01*
X160811029Y-82441141D02*
X159795029Y-82441141D01*
X159287029Y-82441141D02*
X159359600Y-82368570D01*
X159432171Y-82441141D01*
X159359600Y-82513713D01*
X159287029Y-82441141D01*
X159432171Y-82441141D01*
X160738457Y-83819998D02*
X160811029Y-83674855D01*
X160811029Y-83384569D01*
X160738457Y-83239427D01*
X160665886Y-83166855D01*
X160520743Y-83094284D01*
X160085314Y-83094284D01*
X159940171Y-83166855D01*
X159867600Y-83239427D01*
X159795029Y-83384569D01*
X159795029Y-83674855D01*
X159867600Y-83819998D01*
X160738457Y-85053713D02*
X160811029Y-84908570D01*
X160811029Y-84618284D01*
X160738457Y-84473141D01*
X160593314Y-84400570D01*
X160012743Y-84400570D01*
X159867600Y-84473141D01*
X159795029Y-84618284D01*
X159795029Y-84908570D01*
X159867600Y-85053713D01*
X160012743Y-85126284D01*
X160157886Y-85126284D01*
X160303029Y-84400570D01*
X159795029Y-85779427D02*
X160811029Y-85779427D01*
X159940171Y-85779427D02*
X159867600Y-85851999D01*
X159795029Y-85997141D01*
X159795029Y-86214856D01*
X159867600Y-86359999D01*
X160012743Y-86432570D01*
X160811029Y-86432570D01*
X160738457Y-87085713D02*
X160811029Y-87230856D01*
X160811029Y-87521141D01*
X160738457Y-87666284D01*
X160593314Y-87738856D01*
X160520743Y-87738856D01*
X160375600Y-87666284D01*
X160303029Y-87521141D01*
X160303029Y-87303427D01*
X160230457Y-87158284D01*
X160085314Y-87085713D01*
X160012743Y-87085713D01*
X159867600Y-87158284D01*
X159795029Y-87303427D01*
X159795029Y-87521141D01*
X159867600Y-87666284D01*
X160738457Y-88972570D02*
X160811029Y-88827427D01*
X160811029Y-88537141D01*
X160738457Y-88391998D01*
X160593314Y-88319427D01*
X160012743Y-88319427D01*
X159867600Y-88391998D01*
X159795029Y-88537141D01*
X159795029Y-88827427D01*
X159867600Y-88972570D01*
X160012743Y-89045141D01*
X160157886Y-89045141D01*
X160303029Y-88319427D01*
X160738457Y-89625713D02*
X160811029Y-89770856D01*
X160811029Y-90061141D01*
X160738457Y-90206284D01*
X160593314Y-90278856D01*
X160520743Y-90278856D01*
X160375600Y-90206284D01*
X160303029Y-90061141D01*
X160303029Y-89843427D01*
X160230457Y-89698284D01*
X160085314Y-89625713D01*
X160012743Y-89625713D01*
X159867600Y-89698284D01*
X159795029Y-89843427D01*
X159795029Y-90061141D01*
X159867600Y-90206284D01*
X159214457Y-92020570D02*
X161173886Y-90714284D01*
X159795029Y-93181712D02*
X161028743Y-93181712D01*
X161173886Y-93109141D01*
X161246457Y-93036569D01*
X161319029Y-92891426D01*
X161319029Y-92673712D01*
X161246457Y-92528569D01*
X160738457Y-93181712D02*
X160811029Y-93036569D01*
X160811029Y-92746283D01*
X160738457Y-92601141D01*
X160665886Y-92528569D01*
X160520743Y-92455998D01*
X160085314Y-92455998D01*
X159940171Y-92528569D01*
X159867600Y-92601141D01*
X159795029Y-92746283D01*
X159795029Y-93036569D01*
X159867600Y-93181712D01*
X159795029Y-93907426D02*
X161319029Y-93907426D01*
X159867600Y-93907426D02*
X159795029Y-94052569D01*
X159795029Y-94342855D01*
X159867600Y-94487998D01*
X159940171Y-94560569D01*
X160085314Y-94633140D01*
X160520743Y-94633140D01*
X160665886Y-94560569D01*
X160738457Y-94487998D01*
X160811029Y-94342855D01*
X160811029Y-94052569D01*
X160738457Y-93907426D01*
X160811029Y-95503997D02*
X160738457Y-95358855D01*
X160593314Y-95286283D01*
X159287029Y-95286283D01*
X160665886Y-96084569D02*
X160738457Y-96157141D01*
X160811029Y-96084569D01*
X160738457Y-96011998D01*
X160665886Y-96084569D01*
X160811029Y-96084569D01*
X160811029Y-96810283D02*
X159287029Y-96810283D01*
X160811029Y-97463426D02*
X160012743Y-97463426D01*
X159867600Y-97390855D01*
X159795029Y-97245712D01*
X159795029Y-97027997D01*
X159867600Y-96882855D01*
X159940171Y-96810283D01*
X159795029Y-97971426D02*
X159795029Y-98551997D01*
X159287029Y-98189140D02*
X160593314Y-98189140D01*
X160738457Y-98261712D01*
X160811029Y-98406854D01*
X160811029Y-98551997D01*
X160811029Y-99059997D02*
X159795029Y-99059997D01*
X159940171Y-99059997D02*
X159867600Y-99132569D01*
X159795029Y-99277711D01*
X159795029Y-99495426D01*
X159867600Y-99640569D01*
X160012743Y-99713140D01*
X160811029Y-99713140D01*
X160012743Y-99713140D02*
X159867600Y-99785711D01*
X159795029Y-99930854D01*
X159795029Y-100148569D01*
X159867600Y-100293711D01*
X160012743Y-100366283D01*
X160811029Y-100366283D01*
X160811029Y-101309711D02*
X160738457Y-101164569D01*
X160593314Y-101091997D01*
X159287029Y-101091997D01*
X163002686Y-60524571D02*
X163075257Y-60452000D01*
X163147829Y-60234286D01*
X163147829Y-60089143D01*
X163075257Y-59871428D01*
X162930114Y-59726286D01*
X162784971Y-59653714D01*
X162494686Y-59581143D01*
X162276971Y-59581143D01*
X161986686Y-59653714D01*
X161841543Y-59726286D01*
X161696400Y-59871428D01*
X161623829Y-60089143D01*
X161623829Y-60234286D01*
X161696400Y-60452000D01*
X161768971Y-60524571D01*
X163147829Y-61395428D02*
X163075257Y-61250286D01*
X163002686Y-61177714D01*
X162857543Y-61105143D01*
X162422114Y-61105143D01*
X162276971Y-61177714D01*
X162204400Y-61250286D01*
X162131829Y-61395428D01*
X162131829Y-61613143D01*
X162204400Y-61758286D01*
X162276971Y-61830857D01*
X162422114Y-61903428D01*
X162857543Y-61903428D01*
X163002686Y-61830857D01*
X163075257Y-61758286D01*
X163147829Y-61613143D01*
X163147829Y-61395428D01*
X162131829Y-62556571D02*
X163655829Y-62556571D01*
X162204400Y-62556571D02*
X162131829Y-62701714D01*
X162131829Y-62992000D01*
X162204400Y-63137143D01*
X162276971Y-63209714D01*
X162422114Y-63282285D01*
X162857543Y-63282285D01*
X163002686Y-63209714D01*
X163075257Y-63137143D01*
X163147829Y-62992000D01*
X163147829Y-62701714D01*
X163075257Y-62556571D01*
X162131829Y-63790285D02*
X163147829Y-64153142D01*
X162131829Y-64516000D02*
X163147829Y-64153142D01*
X163510686Y-64008000D01*
X163583257Y-63935428D01*
X163655829Y-63790285D01*
X163147829Y-65096571D02*
X162131829Y-65096571D01*
X162422114Y-65096571D02*
X162276971Y-65169143D01*
X162204400Y-65241714D01*
X162131829Y-65386857D01*
X162131829Y-65532000D01*
X163147829Y-66040000D02*
X162131829Y-66040000D01*
X161623829Y-66040000D02*
X161696400Y-65967429D01*
X161768971Y-66040000D01*
X161696400Y-66112572D01*
X161623829Y-66040000D01*
X161768971Y-66040000D01*
X162131829Y-67418857D02*
X163365543Y-67418857D01*
X163510686Y-67346286D01*
X163583257Y-67273714D01*
X163655829Y-67128571D01*
X163655829Y-66910857D01*
X163583257Y-66765714D01*
X163075257Y-67418857D02*
X163147829Y-67273714D01*
X163147829Y-66983428D01*
X163075257Y-66838286D01*
X163002686Y-66765714D01*
X162857543Y-66693143D01*
X162422114Y-66693143D01*
X162276971Y-66765714D01*
X162204400Y-66838286D01*
X162131829Y-66983428D01*
X162131829Y-67273714D01*
X162204400Y-67418857D01*
X163147829Y-68144571D02*
X161623829Y-68144571D01*
X163147829Y-68797714D02*
X162349543Y-68797714D01*
X162204400Y-68725143D01*
X162131829Y-68580000D01*
X162131829Y-68362285D01*
X162204400Y-68217143D01*
X162276971Y-68144571D01*
X162131829Y-69305714D02*
X162131829Y-69886285D01*
X161623829Y-69523428D02*
X162930114Y-69523428D01*
X163075257Y-69596000D01*
X163147829Y-69741142D01*
X163147829Y-69886285D01*
X163728400Y-71990857D02*
X163655829Y-71918285D01*
X163438114Y-71773142D01*
X163292971Y-71700571D01*
X163075257Y-71628000D01*
X162712400Y-71555428D01*
X162422114Y-71555428D01*
X162059257Y-71628000D01*
X161841543Y-71700571D01*
X161696400Y-71773142D01*
X161478686Y-71918285D01*
X161406114Y-71990857D01*
X163002686Y-73442285D02*
X163075257Y-73369714D01*
X163147829Y-73152000D01*
X163147829Y-73006857D01*
X163075257Y-72789142D01*
X162930114Y-72644000D01*
X162784971Y-72571428D01*
X162494686Y-72498857D01*
X162276971Y-72498857D01*
X161986686Y-72571428D01*
X161841543Y-72644000D01*
X161696400Y-72789142D01*
X161623829Y-73006857D01*
X161623829Y-73152000D01*
X161696400Y-73369714D01*
X161768971Y-73442285D01*
X163728400Y-73950285D02*
X163655829Y-74022857D01*
X163438114Y-74168000D01*
X163292971Y-74240571D01*
X163075257Y-74313142D01*
X162712400Y-74385714D01*
X162422114Y-74385714D01*
X162059257Y-74313142D01*
X161841543Y-74240571D01*
X161696400Y-74168000D01*
X161478686Y-74022857D01*
X161406114Y-73950285D01*
X161768971Y-76200000D02*
X161696400Y-76272571D01*
X161623829Y-76417714D01*
X161623829Y-76780571D01*
X161696400Y-76925714D01*
X161768971Y-76998285D01*
X161914114Y-77070857D01*
X162059257Y-77070857D01*
X162276971Y-76998285D01*
X163147829Y-76127428D01*
X163147829Y-77070857D01*
X161623829Y-78014286D02*
X161623829Y-78159429D01*
X161696400Y-78304572D01*
X161768971Y-78377143D01*
X161914114Y-78449714D01*
X162204400Y-78522286D01*
X162567257Y-78522286D01*
X162857543Y-78449714D01*
X163002686Y-78377143D01*
X163075257Y-78304572D01*
X163147829Y-78159429D01*
X163147829Y-78014286D01*
X163075257Y-77869143D01*
X163002686Y-77796572D01*
X162857543Y-77724000D01*
X162567257Y-77651429D01*
X162204400Y-77651429D01*
X161914114Y-77724000D01*
X161768971Y-77796572D01*
X161696400Y-77869143D01*
X161623829Y-78014286D01*
X163147829Y-79973715D02*
X163147829Y-79102858D01*
X163147829Y-79538286D02*
X161623829Y-79538286D01*
X161841543Y-79393143D01*
X161986686Y-79248001D01*
X162059257Y-79102858D01*
X161623829Y-81352572D02*
X161623829Y-80626858D01*
X162349543Y-80554287D01*
X162276971Y-80626858D01*
X162204400Y-80772001D01*
X162204400Y-81134858D01*
X162276971Y-81280001D01*
X162349543Y-81352572D01*
X162494686Y-81425144D01*
X162857543Y-81425144D01*
X163002686Y-81352572D01*
X163075257Y-81280001D01*
X163147829Y-81134858D01*
X163147829Y-80772001D01*
X163075257Y-80626858D01*
X163002686Y-80554287D01*
X163147829Y-83239430D02*
X161623829Y-83239430D01*
X162567257Y-83384573D02*
X163147829Y-83820002D01*
X162131829Y-83820002D02*
X162712400Y-83239430D01*
X162131829Y-84328001D02*
X163147829Y-84618287D01*
X162422114Y-84908573D01*
X163147829Y-85198858D01*
X162131829Y-85489144D01*
X163075257Y-86650287D02*
X163147829Y-86505144D01*
X163147829Y-86214858D01*
X163075257Y-86069715D01*
X162930114Y-85997144D01*
X162349543Y-85997144D01*
X162204400Y-86069715D01*
X162131829Y-86214858D01*
X162131829Y-86505144D01*
X162204400Y-86650287D01*
X162349543Y-86722858D01*
X162494686Y-86722858D01*
X162639829Y-85997144D01*
X162131829Y-87376001D02*
X163147829Y-87376001D01*
X162276971Y-87376001D02*
X162204400Y-87448573D01*
X162131829Y-87593715D01*
X162131829Y-87811430D01*
X162204400Y-87956573D01*
X162349543Y-88029144D01*
X163147829Y-88029144D01*
X163147829Y-89408001D02*
X161623829Y-89408001D01*
X163075257Y-89408001D02*
X163147829Y-89262858D01*
X163147829Y-88972572D01*
X163075257Y-88827430D01*
X163002686Y-88754858D01*
X162857543Y-88682287D01*
X162422114Y-88682287D01*
X162276971Y-88754858D01*
X162204400Y-88827430D01*
X162131829Y-88972572D01*
X162131829Y-89262858D01*
X162204400Y-89408001D01*
X163075257Y-90714287D02*
X163147829Y-90569144D01*
X163147829Y-90278858D01*
X163075257Y-90133715D01*
X162930114Y-90061144D01*
X162349543Y-90061144D01*
X162204400Y-90133715D01*
X162131829Y-90278858D01*
X162131829Y-90569144D01*
X162204400Y-90714287D01*
X162349543Y-90786858D01*
X162494686Y-90786858D01*
X162639829Y-90061144D01*
X162131829Y-91440001D02*
X163147829Y-91440001D01*
X162276971Y-91440001D02*
X162204400Y-91512573D01*
X162131829Y-91657715D01*
X162131829Y-91875430D01*
X162204400Y-92020573D01*
X162349543Y-92093144D01*
X163147829Y-92093144D01*
X163147829Y-93472001D02*
X162349543Y-93472001D01*
X162204400Y-93399430D01*
X162131829Y-93254287D01*
X162131829Y-92964001D01*
X162204400Y-92818858D01*
X163075257Y-93472001D02*
X163147829Y-93326858D01*
X163147829Y-92964001D01*
X163075257Y-92818858D01*
X162930114Y-92746287D01*
X162784971Y-92746287D01*
X162639829Y-92818858D01*
X162567257Y-92964001D01*
X162567257Y-93326858D01*
X162494686Y-93472001D01*
X163147829Y-94197715D02*
X162131829Y-94197715D01*
X162422114Y-94197715D02*
X162276971Y-94270287D01*
X162204400Y-94342858D01*
X162131829Y-94488001D01*
X162131829Y-94633144D01*
X163147829Y-95141144D02*
X162131829Y-95141144D01*
X162276971Y-95141144D02*
X162204400Y-95213716D01*
X162131829Y-95358858D01*
X162131829Y-95576573D01*
X162204400Y-95721716D01*
X162349543Y-95794287D01*
X163147829Y-95794287D01*
X162349543Y-95794287D02*
X162204400Y-95866858D01*
X162131829Y-96012001D01*
X162131829Y-96229716D01*
X162204400Y-96374858D01*
X162349543Y-96447430D01*
X163147829Y-96447430D01*
X163147829Y-97390858D02*
X163075257Y-97245716D01*
X163002686Y-97173144D01*
X162857543Y-97100573D01*
X162422114Y-97100573D01*
X162276971Y-97173144D01*
X162204400Y-97245716D01*
X162131829Y-97390858D01*
X162131829Y-97608573D01*
X162204400Y-97753716D01*
X162276971Y-97826287D01*
X162422114Y-97898858D01*
X162857543Y-97898858D01*
X163002686Y-97826287D01*
X163075257Y-97753716D01*
X163147829Y-97608573D01*
X163147829Y-97390858D01*
X165484629Y-52578003D02*
X163960629Y-52578003D01*
X165484629Y-53231146D02*
X164686343Y-53231146D01*
X164541200Y-53158575D01*
X164468629Y-53013432D01*
X164468629Y-52795717D01*
X164541200Y-52650575D01*
X164613771Y-52578003D01*
X164468629Y-53739146D02*
X164468629Y-54319717D01*
X163960629Y-53956860D02*
X165266914Y-53956860D01*
X165412057Y-54029432D01*
X165484629Y-54174574D01*
X165484629Y-54319717D01*
X164468629Y-54610003D02*
X164468629Y-55190574D01*
X163960629Y-54827717D02*
X165266914Y-54827717D01*
X165412057Y-54900289D01*
X165484629Y-55045431D01*
X165484629Y-55190574D01*
X164468629Y-55698574D02*
X165992629Y-55698574D01*
X164541200Y-55698574D02*
X164468629Y-55843717D01*
X164468629Y-56134003D01*
X164541200Y-56279146D01*
X164613771Y-56351717D01*
X164758914Y-56424288D01*
X165194343Y-56424288D01*
X165339486Y-56351717D01*
X165412057Y-56279146D01*
X165484629Y-56134003D01*
X165484629Y-55843717D01*
X165412057Y-55698574D01*
X165412057Y-57004860D02*
X165484629Y-57150003D01*
X165484629Y-57440288D01*
X165412057Y-57585431D01*
X165266914Y-57658003D01*
X165194343Y-57658003D01*
X165049200Y-57585431D01*
X164976629Y-57440288D01*
X164976629Y-57222574D01*
X164904057Y-57077431D01*
X164758914Y-57004860D01*
X164686343Y-57004860D01*
X164541200Y-57077431D01*
X164468629Y-57222574D01*
X164468629Y-57440288D01*
X164541200Y-57585431D01*
X165339486Y-58311145D02*
X165412057Y-58383717D01*
X165484629Y-58311145D01*
X165412057Y-58238574D01*
X165339486Y-58311145D01*
X165484629Y-58311145D01*
X164541200Y-58311145D02*
X164613771Y-58383717D01*
X164686343Y-58311145D01*
X164613771Y-58238574D01*
X164541200Y-58311145D01*
X164686343Y-58311145D01*
X163888057Y-60125431D02*
X165847486Y-58819145D01*
X163888057Y-61722002D02*
X165847486Y-60415716D01*
X164468629Y-62883144D02*
X165702343Y-62883144D01*
X165847486Y-62810573D01*
X165920057Y-62738001D01*
X165992629Y-62592858D01*
X165992629Y-62375144D01*
X165920057Y-62230001D01*
X165412057Y-62883144D02*
X165484629Y-62738001D01*
X165484629Y-62447715D01*
X165412057Y-62302573D01*
X165339486Y-62230001D01*
X165194343Y-62157430D01*
X164758914Y-62157430D01*
X164613771Y-62230001D01*
X164541200Y-62302573D01*
X164468629Y-62447715D01*
X164468629Y-62738001D01*
X164541200Y-62883144D01*
X165484629Y-63608858D02*
X164468629Y-63608858D01*
X163960629Y-63608858D02*
X164033200Y-63536287D01*
X164105771Y-63608858D01*
X164033200Y-63681430D01*
X163960629Y-63608858D01*
X164105771Y-63608858D01*
X164468629Y-64116858D02*
X164468629Y-64697429D01*
X163960629Y-64334572D02*
X165266914Y-64334572D01*
X165412057Y-64407144D01*
X165484629Y-64552286D01*
X165484629Y-64697429D01*
X165484629Y-65205429D02*
X163960629Y-65205429D01*
X165484629Y-65858572D02*
X164686343Y-65858572D01*
X164541200Y-65786001D01*
X164468629Y-65640858D01*
X164468629Y-65423143D01*
X164541200Y-65278001D01*
X164613771Y-65205429D01*
X164468629Y-67237429D02*
X165484629Y-67237429D01*
X164468629Y-66584286D02*
X165266914Y-66584286D01*
X165412057Y-66656858D01*
X165484629Y-66802000D01*
X165484629Y-67019715D01*
X165412057Y-67164858D01*
X165339486Y-67237429D01*
X165484629Y-67963143D02*
X163960629Y-67963143D01*
X164541200Y-67963143D02*
X164468629Y-68108286D01*
X164468629Y-68398572D01*
X164541200Y-68543715D01*
X164613771Y-68616286D01*
X164758914Y-68688857D01*
X165194343Y-68688857D01*
X165339486Y-68616286D01*
X165412057Y-68543715D01*
X165484629Y-68398572D01*
X165484629Y-68108286D01*
X165412057Y-67963143D01*
X165339486Y-69342000D02*
X165412057Y-69414572D01*
X165484629Y-69342000D01*
X165412057Y-69269429D01*
X165339486Y-69342000D01*
X165484629Y-69342000D01*
X165412057Y-70720857D02*
X165484629Y-70575714D01*
X165484629Y-70285428D01*
X165412057Y-70140286D01*
X165339486Y-70067714D01*
X165194343Y-69995143D01*
X164758914Y-69995143D01*
X164613771Y-70067714D01*
X164541200Y-70140286D01*
X164468629Y-70285428D01*
X164468629Y-70575714D01*
X164541200Y-70720857D01*
X165484629Y-71591714D02*
X165412057Y-71446572D01*
X165339486Y-71374000D01*
X165194343Y-71301429D01*
X164758914Y-71301429D01*
X164613771Y-71374000D01*
X164541200Y-71446572D01*
X164468629Y-71591714D01*
X164468629Y-71809429D01*
X164541200Y-71954572D01*
X164613771Y-72027143D01*
X164758914Y-72099714D01*
X165194343Y-72099714D01*
X165339486Y-72027143D01*
X165412057Y-71954572D01*
X165484629Y-71809429D01*
X165484629Y-71591714D01*
X165484629Y-72752857D02*
X164468629Y-72752857D01*
X164613771Y-72752857D02*
X164541200Y-72825429D01*
X164468629Y-72970571D01*
X164468629Y-73188286D01*
X164541200Y-73333429D01*
X164686343Y-73406000D01*
X165484629Y-73406000D01*
X164686343Y-73406000D02*
X164541200Y-73478571D01*
X164468629Y-73623714D01*
X164468629Y-73841429D01*
X164541200Y-73986571D01*
X164686343Y-74059143D01*
X165484629Y-74059143D01*
X163888057Y-75873429D02*
X165847486Y-74567143D01*
X165484629Y-77034571D02*
X164686343Y-77034571D01*
X164541200Y-76962000D01*
X164468629Y-76816857D01*
X164468629Y-76526571D01*
X164541200Y-76381428D01*
X165412057Y-77034571D02*
X165484629Y-76889428D01*
X165484629Y-76526571D01*
X165412057Y-76381428D01*
X165266914Y-76308857D01*
X165121771Y-76308857D01*
X164976629Y-76381428D01*
X164904057Y-76526571D01*
X164904057Y-76889428D01*
X164831486Y-77034571D01*
X165484629Y-77760285D02*
X163960629Y-77760285D01*
X164904057Y-77905428D02*
X165484629Y-78340857D01*
X164468629Y-78340857D02*
X165049200Y-77760285D01*
X165484629Y-79211713D02*
X165412057Y-79066571D01*
X165339486Y-78993999D01*
X165194343Y-78921428D01*
X164758914Y-78921428D01*
X164613771Y-78993999D01*
X164541200Y-79066571D01*
X164468629Y-79211713D01*
X164468629Y-79429428D01*
X164541200Y-79574571D01*
X164613771Y-79647142D01*
X164758914Y-79719713D01*
X165194343Y-79719713D01*
X165339486Y-79647142D01*
X165412057Y-79574571D01*
X165484629Y-79429428D01*
X165484629Y-79211713D01*
X165484629Y-80372856D02*
X164468629Y-80372856D01*
X164758914Y-80372856D02*
X164613771Y-80445428D01*
X164541200Y-80517999D01*
X164468629Y-80663142D01*
X164468629Y-80808285D01*
X164468629Y-81316285D02*
X165484629Y-81316285D01*
X164613771Y-81316285D02*
X164541200Y-81388857D01*
X164468629Y-81533999D01*
X164468629Y-81751714D01*
X164541200Y-81896857D01*
X164686343Y-81969428D01*
X165484629Y-81969428D01*
X165412057Y-82622571D02*
X165484629Y-82767714D01*
X165484629Y-83057999D01*
X165412057Y-83203142D01*
X165266914Y-83275714D01*
X165194343Y-83275714D01*
X165049200Y-83203142D01*
X164976629Y-83057999D01*
X164976629Y-82840285D01*
X164904057Y-82695142D01*
X164758914Y-82622571D01*
X164686343Y-82622571D01*
X164541200Y-82695142D01*
X164468629Y-82840285D01*
X164468629Y-83057999D01*
X164541200Y-83203142D01*
X164468629Y-83783713D02*
X165484629Y-84146570D01*
X164468629Y-84509428D02*
X165484629Y-84146570D01*
X165847486Y-84001428D01*
X165920057Y-83928856D01*
X165992629Y-83783713D01*
X165412057Y-85017428D02*
X165484629Y-85162571D01*
X165484629Y-85452856D01*
X165412057Y-85597999D01*
X165266914Y-85670571D01*
X165194343Y-85670571D01*
X165049200Y-85597999D01*
X164976629Y-85452856D01*
X164976629Y-85235142D01*
X164904057Y-85089999D01*
X164758914Y-85017428D01*
X164686343Y-85017428D01*
X164541200Y-85089999D01*
X164468629Y-85235142D01*
X164468629Y-85452856D01*
X164541200Y-85597999D01*
X164904057Y-86323713D02*
X164904057Y-87484856D01*
X165484629Y-88210570D02*
X164468629Y-88210570D01*
X164758914Y-88210570D02*
X164613771Y-88283142D01*
X164541200Y-88355713D01*
X164468629Y-88500856D01*
X164468629Y-88645999D01*
X165484629Y-89807142D02*
X163960629Y-89807142D01*
X165412057Y-89807142D02*
X165484629Y-89661999D01*
X165484629Y-89371713D01*
X165412057Y-89226571D01*
X165339486Y-89153999D01*
X165194343Y-89081428D01*
X164758914Y-89081428D01*
X164613771Y-89153999D01*
X164541200Y-89226571D01*
X164468629Y-89371713D01*
X164468629Y-89661999D01*
X164541200Y-89807142D01*
X165484629Y-90532856D02*
X164468629Y-90532856D01*
X163960629Y-90532856D02*
X164033200Y-90460285D01*
X164105771Y-90532856D01*
X164033200Y-90605428D01*
X163960629Y-90532856D01*
X164105771Y-90532856D01*
X163888057Y-92347142D02*
X165847486Y-91040856D01*
X165484629Y-92855141D02*
X164468629Y-92855141D01*
X164758914Y-92855141D02*
X164613771Y-92927713D01*
X164541200Y-93000284D01*
X164468629Y-93145427D01*
X164468629Y-93290570D01*
X165484629Y-94016284D02*
X165412057Y-93871142D01*
X165339486Y-93798570D01*
X165194343Y-93725999D01*
X164758914Y-93725999D01*
X164613771Y-93798570D01*
X164541200Y-93871142D01*
X164468629Y-94016284D01*
X164468629Y-94233999D01*
X164541200Y-94379142D01*
X164613771Y-94451713D01*
X164758914Y-94524284D01*
X165194343Y-94524284D01*
X165339486Y-94451713D01*
X165412057Y-94379142D01*
X165484629Y-94233999D01*
X165484629Y-94016284D01*
X165484629Y-95177427D02*
X163960629Y-95177427D01*
X164541200Y-95177427D02*
X164468629Y-95322570D01*
X164468629Y-95612856D01*
X164541200Y-95757999D01*
X164613771Y-95830570D01*
X164758914Y-95903141D01*
X165194343Y-95903141D01*
X165339486Y-95830570D01*
X165412057Y-95757999D01*
X165484629Y-95612856D01*
X165484629Y-95322570D01*
X165412057Y-95177427D01*
X164468629Y-97209427D02*
X165702343Y-97209427D01*
X165847486Y-97136856D01*
X165920057Y-97064284D01*
X165992629Y-96919141D01*
X165992629Y-96701427D01*
X165920057Y-96556284D01*
X165412057Y-97209427D02*
X165484629Y-97064284D01*
X165484629Y-96773998D01*
X165412057Y-96628856D01*
X165339486Y-96556284D01*
X165194343Y-96483713D01*
X164758914Y-96483713D01*
X164613771Y-96556284D01*
X164541200Y-96628856D01*
X164468629Y-96773998D01*
X164468629Y-97064284D01*
X164541200Y-97209427D01*
X165412057Y-98515713D02*
X165484629Y-98370570D01*
X165484629Y-98080284D01*
X165412057Y-97935141D01*
X165266914Y-97862570D01*
X164686343Y-97862570D01*
X164541200Y-97935141D01*
X164468629Y-98080284D01*
X164468629Y-98370570D01*
X164541200Y-98515713D01*
X164686343Y-98588284D01*
X164831486Y-98588284D01*
X164976629Y-97862570D01*
X165484629Y-99894570D02*
X163960629Y-99894570D01*
X165412057Y-99894570D02*
X165484629Y-99749427D01*
X165484629Y-99459141D01*
X165412057Y-99313999D01*
X165339486Y-99241427D01*
X165194343Y-99168856D01*
X164758914Y-99168856D01*
X164613771Y-99241427D01*
X164541200Y-99313999D01*
X164468629Y-99459141D01*
X164468629Y-99749427D01*
X164541200Y-99894570D01*
X164468629Y-100620284D02*
X165484629Y-100620284D01*
X164613771Y-100620284D02*
X164541200Y-100692856D01*
X164468629Y-100837998D01*
X164468629Y-101055713D01*
X164541200Y-101200856D01*
X164686343Y-101273427D01*
X165484629Y-101273427D01*
X165484629Y-102652284D02*
X164686343Y-102652284D01*
X164541200Y-102579713D01*
X164468629Y-102434570D01*
X164468629Y-102144284D01*
X164541200Y-101999141D01*
X165412057Y-102652284D02*
X165484629Y-102507141D01*
X165484629Y-102144284D01*
X165412057Y-101999141D01*
X165266914Y-101926570D01*
X165121771Y-101926570D01*
X164976629Y-101999141D01*
X164904057Y-102144284D01*
X164904057Y-102507141D01*
X164831486Y-102652284D01*
X164468629Y-104031141D02*
X165484629Y-104031141D01*
X164468629Y-103377998D02*
X165266914Y-103377998D01*
X165412057Y-103450570D01*
X165484629Y-103595712D01*
X165484629Y-103813427D01*
X165412057Y-103958570D01*
X165339486Y-104031141D01*
X164468629Y-104539141D02*
X164468629Y-105119712D01*
X163960629Y-104756855D02*
X165266914Y-104756855D01*
X165412057Y-104829427D01*
X165484629Y-104974569D01*
X165484629Y-105119712D01*
D13*
X147454620Y-78770480D02*
X153355040Y-84670900D01*
X153055320Y-83370420D02*
X152554940Y-82870040D01*
X148455380Y-81770220D02*
X148755100Y-82069940D01*
X150454360Y-84769960D02*
X150256240Y-84569300D01*
X151455120Y-79771240D02*
X151254460Y-79570580D01*
X151955500Y-80269080D02*
X152354280Y-80670400D01*
X150954740Y-80269080D02*
X150655020Y-79969360D01*
X149953980Y-80269080D02*
X149456140Y-79771240D01*
X147955000Y-78270100D02*
X147754340Y-78069440D01*
X147454620Y-78770480D02*
X147154900Y-78470760D01*
X147454620Y-79771240D02*
X146954240Y-79270860D01*
X145956020Y-80269080D02*
X145854420Y-80170020D01*
X146954240Y-80269080D02*
X146555460Y-79870300D01*
X144454880Y-79771240D02*
X144155160Y-79468980D01*
X143954500Y-80269080D02*
X143654780Y-79969360D01*
X151955500Y-85270340D02*
X152255220Y-85570060D01*
X150454360Y-83769200D02*
X150154640Y-83469480D01*
X152554940Y-87769700D02*
X152755600Y-87970360D01*
X150454360Y-85770720D02*
X149953980Y-85270340D01*
X151955500Y-88270080D02*
X152156160Y-88470740D01*
X149953980Y-86271100D02*
X149456140Y-85770720D01*
X149953980Y-87269320D02*
X149555200Y-86870540D01*
X144454880Y-82770980D02*
X143954500Y-82270600D01*
X143954500Y-83268820D02*
X143654780Y-82969100D01*
X144454880Y-86768940D02*
X144056100Y-86370160D01*
X142455900Y-83769200D02*
X142054580Y-83370420D01*
X143954500Y-87269320D02*
X144955260Y-88270080D01*
X144454880Y-86768940D02*
X145455640Y-87769700D01*
X142455900Y-83769200D02*
X146453860Y-87769700D01*
X142953740Y-83268820D02*
X146453860Y-86768940D01*
X143954500Y-83268820D02*
X146954240Y-86271100D01*
X149953980Y-87269320D02*
X150454360Y-87769700D01*
X149953980Y-86271100D02*
X151955500Y-88270080D01*
X150454360Y-85770720D02*
X152455880Y-87769700D01*
X150454360Y-84769960D02*
X151955500Y-86271100D01*
X150454360Y-83769200D02*
X151955500Y-85270340D01*
X147955000Y-78270100D02*
X148955760Y-79270860D01*
X151455120Y-79771240D02*
X151955500Y-80269080D01*
X150954740Y-80269080D02*
X151955500Y-81269840D01*
X152956260Y-83268820D02*
X153954480Y-84269580D01*
X149953980Y-80269080D02*
X152455880Y-82770980D01*
X147454620Y-79771240D02*
X152455880Y-84769960D01*
X144454880Y-82770980D02*
X145956020Y-84269580D01*
X144454880Y-81770220D02*
X145956020Y-83268820D01*
X146954240Y-80269080D02*
X148455380Y-81770220D01*
X143954500Y-80269080D02*
X146453860Y-82770980D01*
X144454880Y-79771240D02*
X146954240Y-82270600D01*
X145956020Y-80269080D02*
X147454620Y-81770220D01*
X143154400Y-92069920D02*
X143154400Y-92669360D01*
X144655540Y-90970100D02*
X143855440Y-94269560D01*
X143855440Y-94269560D02*
X143654780Y-94269560D01*
X143654780Y-94269560D02*
X143256000Y-92870020D01*
X143256000Y-92870020D02*
X143154400Y-92870020D01*
X143154400Y-92870020D02*
X142654020Y-94269560D01*
X142654020Y-94269560D02*
X142554960Y-94269560D01*
X142554960Y-94269560D02*
X141754860Y-91069160D01*
X141754860Y-91069160D02*
X141955520Y-91069160D01*
X141955520Y-91069160D02*
X142654020Y-93670120D01*
X142654020Y-93670120D02*
X143055340Y-91869260D01*
X143055340Y-91869260D02*
X143256000Y-91869260D01*
X143256000Y-91869260D02*
X143855440Y-93670120D01*
X143855440Y-93670120D02*
X144454880Y-90970100D01*
X144454880Y-90970100D02*
X144655540Y-90970100D01*
X147355560Y-92471240D02*
X145854420Y-92471240D01*
X145854420Y-92471240D02*
X145854420Y-92669360D01*
X145854420Y-92669360D02*
X147253960Y-92669360D01*
X145755360Y-91069160D02*
X145755360Y-94269560D01*
X145755360Y-94269560D02*
X145554700Y-94269560D01*
X145554700Y-94269560D02*
X145554700Y-91069160D01*
X145554700Y-91069160D02*
X145755360Y-91069160D01*
X147253960Y-90970100D02*
X147355560Y-90970100D01*
X147454620Y-90970100D02*
X147454620Y-94269560D01*
X147454620Y-94269560D02*
X147253960Y-94269560D01*
X147253960Y-94269560D02*
X147253960Y-90970100D01*
X148353780Y-91269820D02*
X148455380Y-91170760D01*
X148455380Y-91170760D02*
X148854160Y-91069160D01*
X148854160Y-91069160D02*
X149354540Y-90970100D01*
X149354540Y-90970100D02*
X150055580Y-91170760D01*
X150055580Y-91170760D02*
X150355300Y-91470480D01*
X150355300Y-91470480D02*
X150454360Y-91970860D01*
X150454360Y-91970860D02*
X150355300Y-92369640D01*
X150355300Y-92369640D02*
X149953980Y-92669360D01*
X149953980Y-92669360D02*
X149456140Y-92870020D01*
X149456140Y-92870020D02*
X149054820Y-92969080D01*
X149054820Y-92969080D02*
X148854160Y-93169740D01*
X148854160Y-93169740D02*
X148755100Y-93469460D01*
X148755100Y-93469460D02*
X148854160Y-93769180D01*
X148854160Y-93769180D02*
X149153880Y-93969840D01*
X149153880Y-93969840D02*
X149555200Y-93969840D01*
X149555200Y-93969840D02*
X150055580Y-93969840D01*
X150055580Y-93969840D02*
X150355300Y-93870780D01*
X150355300Y-93870780D02*
X150555960Y-93969840D01*
X150555960Y-93969840D02*
X150256240Y-94170500D01*
X150256240Y-94170500D02*
X149654260Y-94269560D01*
X149654260Y-94269560D02*
X149054820Y-94269560D01*
X149054820Y-94269560D02*
X148656040Y-93969840D01*
X148656040Y-93969840D02*
X148554440Y-93469460D01*
X148554440Y-93469460D02*
X148554440Y-93169740D01*
X148554440Y-93169740D02*
X148755100Y-92870020D01*
X148755100Y-92870020D02*
X149255480Y-92669360D01*
X149255480Y-92669360D02*
X149755860Y-92471240D01*
X149755860Y-92471240D02*
X150154640Y-92168980D01*
X150154640Y-92168980D02*
X150256240Y-91869260D01*
X150256240Y-91869260D02*
X150055580Y-91569540D01*
X150055580Y-91569540D02*
X149654260Y-91269820D01*
X149654260Y-91269820D02*
X149054820Y-91269820D01*
X149054820Y-91269820D02*
X148656040Y-91368880D01*
X148656040Y-91368880D02*
X148353780Y-91470480D01*
X152455880Y-91368880D02*
X152755600Y-91368880D01*
X152755600Y-91368880D02*
X153154380Y-91671140D01*
X153154380Y-91671140D02*
X153255980Y-92168980D01*
X153255980Y-92168980D02*
X153255980Y-92969080D01*
X153255980Y-92969080D02*
X153154380Y-93469460D01*
X153154380Y-93469460D02*
X152956260Y-93769180D01*
X152956260Y-93769180D02*
X152554940Y-93969840D01*
X152554940Y-93969840D02*
X152156160Y-93969840D01*
X152156160Y-93969840D02*
X151754840Y-93670120D01*
X151754840Y-93670120D02*
X151554180Y-92969080D01*
X151554180Y-92969080D02*
X151554180Y-92168980D01*
X151554180Y-92168980D02*
X151754840Y-91770200D01*
X151754840Y-91770200D02*
X151955500Y-91569540D01*
X151955500Y-91569540D02*
X152354280Y-91368880D01*
X152455880Y-91069160D02*
X152854660Y-91170760D01*
X152854660Y-91170760D02*
X153154380Y-91269820D01*
X153154380Y-91269820D02*
X153454100Y-91770200D01*
X153454100Y-91770200D02*
X153555700Y-92369640D01*
X153555700Y-92369640D02*
X153454100Y-93469460D01*
X153454100Y-93469460D02*
X153154380Y-94068900D01*
X153154380Y-94068900D02*
X152554940Y-94269560D01*
X152554940Y-94269560D02*
X151853900Y-94170500D01*
X151853900Y-94170500D02*
X151455120Y-93571060D01*
X151455120Y-93571060D02*
X151356060Y-92870020D01*
X151356060Y-92870020D02*
X151356060Y-92168980D01*
X151356060Y-92168980D02*
X151554180Y-91569540D01*
X151554180Y-91569540D02*
X151955500Y-91170760D01*
X151955500Y-91170760D02*
X152455880Y-91069160D01*
X149054820Y-85971380D02*
X149555200Y-85570060D01*
X149555200Y-85570060D02*
X149953980Y-85069680D01*
X149953980Y-85069680D02*
X150154640Y-84569300D01*
X150154640Y-84569300D02*
X150154640Y-83870800D01*
X150154640Y-83870800D02*
X150053040Y-83271360D01*
X150053040Y-83271360D02*
X149654260Y-82669380D01*
X149654260Y-82669380D02*
X148854160Y-82069940D01*
X148854160Y-82069940D02*
X148054060Y-81970880D01*
X148054060Y-81970880D02*
X147353020Y-81970880D01*
X147353020Y-81970880D02*
X146654520Y-82471260D01*
X146654520Y-82471260D02*
X146154140Y-83169760D01*
X146154140Y-83169760D02*
X145953480Y-83769200D01*
X145953480Y-83769200D02*
X145953480Y-84470240D01*
X145953480Y-84470240D02*
X146253200Y-85270340D01*
X146253200Y-85270340D02*
X146753580Y-85770720D01*
X146753580Y-85770720D02*
X147053300Y-85971380D01*
X147053300Y-86070440D02*
X146304000Y-88320880D01*
X146304000Y-88320880D02*
X145453100Y-87871300D01*
X145453100Y-87871300D02*
X144155160Y-88869520D01*
X144155160Y-88869520D02*
X143154400Y-87769700D01*
X143154400Y-87769700D02*
X144053560Y-86469220D01*
X144053560Y-86469220D02*
X143553180Y-85171280D01*
X143553180Y-85171280D02*
X143553180Y-84970620D01*
X143553180Y-84970620D02*
X141952980Y-84670900D01*
X141952980Y-84670900D02*
X141952980Y-83169760D01*
X141952980Y-83169760D02*
X143553180Y-82971640D01*
X143553180Y-82971640D02*
X144155160Y-81569560D01*
X144155160Y-81569560D02*
X143253460Y-80170020D01*
X143253460Y-80170020D02*
X144353280Y-79169260D01*
X144353280Y-79169260D02*
X145653760Y-80070960D01*
X145653760Y-80070960D02*
X146855180Y-79570580D01*
X146855180Y-79570580D02*
X147253960Y-77970380D01*
X147253960Y-77970380D02*
X148755100Y-77970380D01*
X148755100Y-77970380D02*
X149054820Y-79570580D01*
X149054820Y-79570580D02*
X150355300Y-80070960D01*
X150355300Y-80070960D02*
X151754840Y-79070200D01*
X151754840Y-79070200D02*
X152854660Y-80170020D01*
X152854660Y-80170020D02*
X151853900Y-81470500D01*
X151853900Y-81470500D02*
X152554940Y-82971640D01*
X152554940Y-82971640D02*
X154155140Y-83169760D01*
X154155140Y-83169760D02*
X154254200Y-84569300D01*
X154254200Y-84569300D02*
X152654000Y-84871560D01*
X152654000Y-84871560D02*
X152054560Y-86469220D01*
X152054560Y-86469220D02*
X152953720Y-87769700D01*
X152953720Y-87769700D02*
X151952960Y-88869520D01*
X151952960Y-88869520D02*
X150655020Y-87970360D01*
X150655020Y-87970360D02*
X149953980Y-88270080D01*
X149953980Y-88270080D02*
X149054820Y-85971380D01*
D11*
X175858714Y-58528857D02*
X174697571Y-58528857D01*
X175278142Y-59109429D02*
X175278142Y-57948286D01*
X174189571Y-57585429D02*
X173681571Y-59109429D01*
X173173571Y-57585429D01*
X133313714Y-58528857D02*
X132152571Y-58528857D01*
X132733142Y-59109429D02*
X132733142Y-57948286D01*
X131644571Y-57585429D02*
X131136571Y-59109429D01*
X130628571Y-57585429D01*
X133241142Y-74168000D02*
X133386285Y-74095429D01*
X133603999Y-74095429D01*
X133821714Y-74168000D01*
X133966856Y-74313143D01*
X134039428Y-74458286D01*
X134111999Y-74748571D01*
X134111999Y-74966286D01*
X134039428Y-75256571D01*
X133966856Y-75401714D01*
X133821714Y-75546857D01*
X133603999Y-75619429D01*
X133458856Y-75619429D01*
X133241142Y-75546857D01*
X133168571Y-75474286D01*
X133168571Y-74966286D01*
X133458856Y-74966286D01*
X132515428Y-75619429D02*
X132515428Y-74095429D01*
X131644571Y-75619429D01*
X131644571Y-74095429D01*
X130918857Y-75619429D02*
X130918857Y-74095429D01*
X130556000Y-74095429D01*
X130338285Y-74168000D01*
X130193143Y-74313143D01*
X130120571Y-74458286D01*
X130048000Y-74748571D01*
X130048000Y-74966286D01*
X130120571Y-75256571D01*
X130193143Y-75401714D01*
X130338285Y-75546857D01*
X130556000Y-75619429D01*
X130918857Y-75619429D01*
X175786142Y-74168000D02*
X175931285Y-74095429D01*
X176148999Y-74095429D01*
X176366714Y-74168000D01*
X176511856Y-74313143D01*
X176584428Y-74458286D01*
X176656999Y-74748571D01*
X176656999Y-74966286D01*
X176584428Y-75256571D01*
X176511856Y-75401714D01*
X176366714Y-75546857D01*
X176148999Y-75619429D01*
X176003856Y-75619429D01*
X175786142Y-75546857D01*
X175713571Y-75474286D01*
X175713571Y-74966286D01*
X176003856Y-74966286D01*
X175060428Y-75619429D02*
X175060428Y-74095429D01*
X174189571Y-75619429D01*
X174189571Y-74095429D01*
X173463857Y-75619429D02*
X173463857Y-74095429D01*
X173101000Y-74095429D01*
X172883285Y-74168000D01*
X172738143Y-74313143D01*
X172665571Y-74458286D01*
X172593000Y-74748571D01*
X172593000Y-74966286D01*
X172665571Y-75256571D01*
X172738143Y-75401714D01*
X172883285Y-75546857D01*
X173101000Y-75619429D01*
X173463857Y-75619429D01*
X132442857Y-81534000D02*
X131717143Y-81534000D01*
X132588000Y-81969429D02*
X132080000Y-80445429D01*
X131572000Y-81969429D01*
X131971143Y-97681143D02*
X131753429Y-97753714D01*
X131680857Y-97826286D01*
X131608286Y-97971429D01*
X131608286Y-98189143D01*
X131680857Y-98334286D01*
X131753429Y-98406857D01*
X131898571Y-98479429D01*
X132479143Y-98479429D01*
X132479143Y-96955429D01*
X131971143Y-96955429D01*
X131826000Y-97028000D01*
X131753429Y-97100571D01*
X131680857Y-97245714D01*
X131680857Y-97390857D01*
X131753429Y-97536000D01*
X131826000Y-97608571D01*
X131971143Y-97681143D01*
X132479143Y-97681143D01*
X174153286Y-81824286D02*
X174225857Y-81896857D01*
X174443571Y-81969429D01*
X174588714Y-81969429D01*
X174806429Y-81896857D01*
X174951571Y-81751714D01*
X175024143Y-81606571D01*
X175096714Y-81316286D01*
X175096714Y-81098571D01*
X175024143Y-80808286D01*
X174951571Y-80663143D01*
X174806429Y-80518000D01*
X174588714Y-80445429D01*
X174443571Y-80445429D01*
X174225857Y-80518000D01*
X174153286Y-80590571D01*
X175024143Y-98479429D02*
X175024143Y-96955429D01*
X174661286Y-96955429D01*
X174443571Y-97028000D01*
X174298429Y-97173143D01*
X174225857Y-97318286D01*
X174153286Y-97608571D01*
X174153286Y-97826286D01*
X174225857Y-98116571D01*
X174298429Y-98261714D01*
X174443571Y-98406857D01*
X174661286Y-98479429D01*
X175024143Y-98479429D01*
X132588000Y-104829429D02*
X133458857Y-104829429D01*
X133023429Y-104829429D02*
X133023429Y-103305429D01*
X133168572Y-103523143D01*
X133313714Y-103668286D01*
X133458857Y-103740857D01*
X131934857Y-104248857D02*
X130773714Y-104248857D01*
X131354285Y-104829429D02*
X131354285Y-103668286D01*
X132588000Y-121339429D02*
X133458857Y-121339429D01*
X133023429Y-121339429D02*
X133023429Y-119815429D01*
X133168572Y-120033143D01*
X133313714Y-120178286D01*
X133458857Y-120250857D01*
X131934857Y-120758857D02*
X130773714Y-120758857D01*
X176003857Y-119960571D02*
X175931286Y-119888000D01*
X175786143Y-119815429D01*
X175423286Y-119815429D01*
X175278143Y-119888000D01*
X175205572Y-119960571D01*
X175133000Y-120105714D01*
X175133000Y-120250857D01*
X175205572Y-120468571D01*
X176076429Y-121339429D01*
X175133000Y-121339429D01*
X174479857Y-120758857D02*
X173318714Y-120758857D01*
X176003857Y-103450571D02*
X175931286Y-103378000D01*
X175786143Y-103305429D01*
X175423286Y-103305429D01*
X175278143Y-103378000D01*
X175205572Y-103450571D01*
X175133000Y-103595714D01*
X175133000Y-103740857D01*
X175205572Y-103958571D01*
X176076429Y-104829429D01*
X175133000Y-104829429D01*
X174479857Y-104248857D02*
X173318714Y-104248857D01*
X173899285Y-104829429D02*
X173899285Y-103668286D01*
M02*
