<?xml version="1.0" encoding="UTF-8" standalone="no"?>
<!-- Created with Inkscape (http://www.inkscape.org/) -->

<svg
   xmlns:dc="http://purl.org/dc/elements/1.1/"
   xmlns:cc="http://creativecommons.org/ns#"
   xmlns:rdf="http://www.w3.org/1999/02/22-rdf-syntax-ns#"
   xmlns:svg="http://www.w3.org/2000/svg"
   xmlns="http://www.w3.org/2000/svg"
   xmlns:sodipodi="http://sodipodi.sourceforge.net/DTD/sodipodi-0.dtd"
   xmlns:inkscape="http://www.inkscape.org/namespaces/inkscape"
   width="23.710325mm"
   height="24.104517mm"
   viewBox="0 0 84.012963 85.409705"
   id="svg2"
   version="1.1"
   inkscape:version="0.91 r"
   sodipodi:docname="robgednaut-logo.svg">
  <defs
     id="defs4" />
  <sodipodi:namedview
     id="base"
     pagecolor="#ffffff"
     bordercolor="#666666"
     borderopacity="1.0"
     inkscape:pageopacity="0.0"
     inkscape:pageshadow="2"
     inkscape:zoom="5.6568543"
     inkscape:cx="73.094926"
     inkscape:cy="29.581982"
     inkscape:document-units="px"
     inkscape:current-layer="layer1"
     showgrid="false"
     fit-margin-top="0"
     fit-margin-left="0"
     fit-margin-right="0"
     fit-margin-bottom="0"
     inkscape:window-width="1920"
     inkscape:window-height="1028"
     inkscape:window-x="0"
     inkscape:window-y="25"
     inkscape:window-maximized="1" />
  <metadata
     id="metadata7">
    <rdf:RDF>
      <cc:Work
         rdf:about="">
        <dc:format>image/svg+xml</dc:format>
        <dc:type
           rdf:resource="http://purl.org/dc/dcmitype/StillImage" />
        <dc:title></dc:title>
      </cc:Work>
    </rdf:RDF>
  </metadata>
  <g
     inkscape:label="Capa 1"
     inkscape:groupmode="layer"
     id="layer1"
     transform="translate(-61.036753,-372.90536)">
    <g
       transform="matrix(0.68247942,0.73221043,-0.73081437,0.68117818,0,0)"
       style="font-style:normal;font-weight:normal;font-size:9.64948273px;line-height:125%;font-family:Sans;letter-spacing:0px;word-spacing:0px;fill:#000000;fill-opacity:1;stroke:none;stroke-width:1px;stroke-linecap:butt;stroke-linejoin:miter;stroke-opacity:1"
       id="text4136">
      <path
         d="m 370.16922,219.01171 0.005,0.005 0,0.94234 -0.58896,0.35337 0.58896,0.35338 0,1.87995 -0.93762,0.005 -0.005,-2.00246 -0.94233,-0.005 0,2.00246 -0.94233,0.005 0,-2.47362 1.88466,0 0,-0.94705 -0.94233,0.005 0,0.70675 -0.94233,-0.005 0,-0.70203 -0.58896,-0.58896 2.71392,-0.005 0.009,0.005 q 0.68319,0.005 0.6879,0.46645 z"
         style="font-style:normal;font-variant:normal;font-weight:normal;font-stretch:normal;font-size:9.64948273px;line-height:125%;font-family:'Perfect Dark Zero';-inkscape-font-specification:'Perfect Dark Zero, Normal';text-align:start;writing-mode:lr-tb;text-anchor:start"
         id="path6918" />
      <path
         d="m 373.24122,219.01642 0,0.82455 -0.94233,0 0,-0.71147 -0.94233,0.005 0,0.70675 -0.94233,-0.005 0,-0.70203 -0.58896,-0.58896 2.70921,0 q 0.70674,0 0.70674,0.47116 z m -2.12024,3.53375 q -0.70675,0 -0.70675,-0.47117 l 0,-2.00245 0.94233,0 0,1.88466 0.94233,0 0,-1.88466 0.94233,0 0,2.00245 q 0,0.47117 -0.70674,0.47117 l -1.4135,0 z"
         style="font-style:normal;font-variant:normal;font-weight:normal;font-stretch:normal;font-size:9.64948273px;line-height:125%;font-family:'Perfect Dark Zero';-inkscape-font-specification:'Perfect Dark Zero, Normal';text-align:start;writing-mode:lr-tb;text-anchor:start"
         id="path6920" />
      <path
         d="m 374.42856,221.96121 0.94705,0 -0.005,-1.4135 -0.94234,0 0,1.4135 z m 1.17792,-3.41595 q 0.70675,0 0.70675,0.47116 l 0,0.94234 -0.58896,0.35337 0.58896,0.35338 0,1.41349 q 0,0.47117 -0.70675,0.47117 l -2.12025,0 0,-2.47362 1.88467,0 0,-0.94233 -0.94234,0 0,0.70675 -0.94233,0 0,-0.70675 -0.58896,-0.58896 2.70921,0 z"
         style="font-style:normal;font-variant:normal;font-weight:normal;font-stretch:normal;font-size:9.64948273px;line-height:125%;font-family:'Perfect Dark Zero';-inkscape-font-specification:'Perfect Dark Zero, Normal';text-align:start;writing-mode:lr-tb;text-anchor:start"
         id="path6922" />
    </g>
    <g
       transform="matrix(-0.69343833,0.64634069,-0.71926477,-0.77167628,0,0)"
       style="font-style:normal;font-variant:normal;font-weight:normal;font-stretch:normal;font-size:9.13852119px;line-height:125%;font-family:'Perfect Dark Zero';-inkscape-font-specification:'Perfect Dark Zero, Normal';text-align:start;letter-spacing:0px;word-spacing:0px;writing-mode:lr-tb;text-anchor:start;fill:#000000;fill-opacity:1;stroke:none;stroke-width:1px;stroke-linecap:butt;stroke-linejoin:miter;stroke-opacity:1"
       id="text4144">
      <path
         d="m 233.23112,-360.65693 0,0.55777 -0.88797,-0.004 -0.004,-0.44175 -0.89244,0 0,0.66932 -0.89243,0 0,-0.66932 -0.55777,-0.55331 2.56574,-0.004 q 0.66933,0 0.66933,0.44622 z m -2.00798,3.34663 q -0.66932,0 -0.66932,-0.44622 l 0,-1.89642 0.89243,0 0,1.78487 0.89244,0 0,-1.33865 -0.44622,0 0,-0.44622 1.33865,0 0,1.89642 q 0,0.44622 -0.66933,0.44622 l -1.33865,0 z"
         style=""
         id="path6934" />
      <path
         d="m 233.46315,-359.87605 0,-0.66932 -0.55777,-0.55778 3.23507,0 0,0.55778 -1.78486,0 0,0.66932 -0.89244,0 z m 0,2.56575 0,-2.34264 1.78041,0 0,0.44622 -0.89244,0 0,1.33865 1.78487,0 0,0.55777 -2.67284,0 z"
         style=""
         id="path6936" />
      <path
         d="m 238.38046,-361.10315 q 0.66933,0 0.66933,0.44622 l 0,2.90041 q 0,0.44622 -0.66933,0.44622 l -2.00797,0 0,-2.34264 0.89243,0 0,1.78487 0.89243,0 0,-2.6773 -0.89243,0 0,0.66932 -0.89243,-0.004 0,-0.66486 -0.55778,-0.55778 2.56575,0 z"
         style=""
         id="path6938" />
    </g>
    <g
       transform="matrix(0.58576094,0.62844426,-0.8514835,0.79365156,0,0)"
       style="font-style:normal;font-variant:normal;font-weight:normal;font-stretch:normal;font-size:8.28199387px;line-height:100%;font-family:'Perfect Dark Zero';-inkscape-font-specification:'Perfect Dark Zero, Normal';text-align:start;letter-spacing:0px;word-spacing:0px;writing-mode:lr-tb;text-anchor:start;fill:#000000;fill-opacity:1;stroke:none;stroke-width:1px;stroke-linecap:butt;stroke-linejoin:miter;stroke-opacity:1"
       id="text4148">
      <path
         d="m 427.31558,191.24203 0.5055,0.50549 0,0.6066 0.80878,0 0,-0.1011 0.80879,2.42636 1.11209,0 0,-3.44139 -0.80879,0.004 0,2.52747 -0.80879,-2.52747 -1.61758,0 z m 0.5055,1.31428 0.80878,0 0,2.12307 -0.80878,0 0,-2.12307 z"
         style=""
         id="path6925" />
      <path
         d="m 433.17526,191.64643 0,3.03295 -0.80475,0 -0.004,-1.71867 -0.80879,0 0,1.71867 -0.80879,0 0,-2.12307 1.61758,0 0,-0.80879 -0.80879,0 0,0.6066 -0.80879,0 0,-0.6066 -0.50549,-0.50549 2.32526,0 q 0.6066,0 0.6066,0.4044 z"
         style=""
         id="path6927" />
      <path
         d="m 434.19433,191.24203 0,1.11209 -0.80879,0 0,-0.6066 -0.50549,-0.50549 1.31428,0 z m -0.2022,3.43735 q -0.60659,0 -0.60659,-0.40439 l 0,-1.71868 0.80879,0 0,1.61758 0.80879,0 0,-2.93186 0.80879,0 0,3.03296 q 0,0.40439 -0.6066,0.40439 l -1.21318,0 z"
         style=""
         id="path6929" />
      <path
         d="m 435.5167,191.24203 0.50549,0.50549 0.80879,0 0,0.6066 0.80879,0 0,-0.6066 0.80879,0 0,-0.50549 -2.93186,0 z m 1.31428,1.31428 0,2.12307 0.80879,0 0,-2.12307 -0.80879,0 z"
         style=""
         id="path6931" />
    </g>
    <rect
       style="opacity:1;fill:none;fill-opacity:1;fill-rule:nonzero;stroke:#000000;stroke-width:1.0629921;stroke-linecap:butt;stroke-linejoin:miter;stroke-miterlimit:4;stroke-dasharray:none;stroke-opacity:1"
       id="rect5495-4"
       width="4.5337658"
       height="16.004736"
       x="417.00937"
       y="50.241901"
       ry="1.8309015"
       transform="matrix(0.34250039,0.93951769,-0.93951769,0.34250039,0,0)" />
    <path
       style="opacity:1;fill:#000000;fill-opacity:1;fill-rule:nonzero;stroke:none;stroke-width:4.25196838;stroke-linecap:butt;stroke-linejoin:miter;stroke-miterlimit:4;stroke-dasharray:none;stroke-opacity:1"
       d="m 81.736918,456.50515 c -0.584222,-0.22895 -0.958139,-2.79155 -0.58192,-4.65041 0.236621,-1.16912 1.30527,-1.956 1.156013,-2.15101 -0.94219,0.19532 -12.295423,10.23235 -14.074877,8.38435 -1.603183,-1.66486 4.350068,-11.04504 3.528188,-12.02151 -0.776956,-0.92319 -10.049793,3.84552 -10.675679,2.15361 -0.855002,-2.31125 9.140564,-9.49852 9.026492,-10.63343 -0.09213,-0.91669 -8.383723,1.21377 -8.618854,-0.35715 -0.544175,-3.63571 11.658611,-11.29363 16.641701,-13.49804 1.141083,0.3907 1.346109,-0.0749 2.78311,1.71561 0.26519,0.33042 -11.400002,5.68568 -10.918563,6.27527 0.173236,0.21211 3.407471,0.36355 4.891523,2.17379 1.409653,1.71949 -3.535817,5.47493 -2.387763,5.71441 2.033456,0.42418 5.737112,-2.6601 6.258651,-1.99675 0.841722,1.07061 -3.751199,7.19139 -2.344296,7.17823 1.616179,-0.0151 7.044931,-5.38442 9.590222,-5.62981 0.41696,-0.0402 -0.43106,1.77692 -0.408695,3.51596 0.01947,1.51467 0.440822,2.99289 0.845454,2.9218 0.470599,-0.0827 1.861735,-1.72845 2.705378,-3.84374 0.82555,-2.07017 1.308739,-4.45649 1.653364,-5.34698 0.273604,-0.70697 1.416702,2.17954 1.512774,2.39828 0.973527,2.21653 -0.973483,1.63643 -1.041467,1.83378 -1.443072,6.48768 -6.975427,16.78148 -9.540756,15.86374 z"
       id="rect5514-2"
       inkscape:connector-curvature="0"
       sodipodi:nodetypes="cscssssscsssssssssssscc" />
    <path
       style="opacity:1;fill:none;fill-opacity:1;fill-rule:nonzero;stroke:#000000;stroke-width:1.0629921;stroke-linecap:butt;stroke-linejoin:miter;stroke-miterlimit:4;stroke-dasharray:none;stroke-opacity:1"
       d="m 98.816054,414.07892 c 0.180507,-0.16825 -1.420441,-7.68531 0.204436,-10.25829 0.22034,-0.34891 -2.471642,-2.2957 0.384701,-4.56799 4.542819,-3.61393 4.873039,0 5.296249,-0.27251 1.95619,-1.25963 6.80076,-0.0876 6.90107,-0.32887 0,0 2.45442,-5.85005 3.6935,-8.84804 0.0701,-0.16969 -0.60077,-3.40378 2.08084,-2.08403 2.64867,1.30354 -0.22576,3.03728 -0.29529,3.20535 -1.17436,2.83854 -3.57562,8.47509 -3.46999,8.53608 1.69322,0.97758 2.14231,1.41409 3.02554,2.28272 0.79845,0.78521 1.7339,2.75779 1.89533,2.70369 2.98774,-1.00131 2.33984,-0.78716 4.74735,-1.50189 0.47255,-0.14028 1.64636,0.95832 2.11049,1.44614 0.99561,1.04645 0.58419,0.56282 3.30276,2.80511 0.34593,0.28533 3.27622,0.15466 1.51956,2.49519 -1.79294,2.38886 -2.33783,-0.53212 -2.72344,-0.82746 -2.61929,-2.00611 -2.99505,-2.34053 -4.5352,-3.55105 -0.34898,-0.27423 -3.77055,0.97485 -3.71907,1.21501 0.64815,3.02395 0.15838,5.08306 -0.68547,7.28313 -0.17717,0.46192 3.24803,1.9406 -0.50381,5.23052 -3.0631,2.68598 -4.06137,-0.004 -4.57097,0.22509 -2.57085,1.15622 -5.50726,1.5734 -9.13772,0.041 -0.33178,-0.14005 -8.460836,18.79915 -9.156101,18.89207 -0.343293,0.0459 -3.870553,-4.13176 -7.632376,-8.19293 -3.856857,-4.16371 -7.945063,-8.21762 -7.847918,-8.51306 0.191824,-0.58355 18.634077,-6.96622 19.115624,-7.41506 z"
       id="rect5532-8"
       inkscape:connector-curvature="0"
       sodipodi:nodetypes="sssscssssssssssssssssssssss" />
    <rect
       style="opacity:1;fill:none;fill-opacity:1;fill-rule:nonzero;stroke:#000000;stroke-width:1.0629921;stroke-linecap:butt;stroke-linejoin:miter;stroke-miterlimit:4;stroke-dasharray:none;stroke-opacity:1"
       id="rect5495-7-6"
       width="4.5337658"
       height="16.004736"
       x="-271.96646"
       y="341.66156"
       ry="1.8309015"
       transform="matrix(-0.91314822,-0.40762768,-0.40762768,0.91314822,0,0)" />
    <path
       style="opacity:1;fill:#000000;fill-opacity:1;fill-rule:nonzero;stroke:#000000;stroke-width:1.0629921;stroke-linecap:butt;stroke-linejoin:miter;stroke-miterlimit:4;stroke-dasharray:none;stroke-opacity:1"
       d="m 104.68537,398.98302 c 1.95619,-1.25963 6.80076,-0.0876 6.90106,-0.32887 0,0 2.45442,-5.85005 3.69351,-8.84804 0.0701,-0.16968 -0.60077,-3.40378 2.08084,-2.08403 2.64867,1.30355 -0.22576,3.03728 -0.29529,3.20536 -1.17436,2.83853 -3.57562,8.47509 -3.46999,8.53608 1.69322,0.97757 2.14231,1.41409 3.02553,2.28272 0.79846,0.78521 1.73391,2.75779 1.89534,2.70368 2.98774,-1.00131 2.33984,-0.78715 4.74735,-1.50189 0.47255,-0.14028 1.64636,0.95832 2.11049,1.44615 0.99561,1.04645 0.58419,0.56281 3.30276,2.8051 0.34593,0.28534 3.27622,0.15467 1.51956,2.4952 -1.79294,2.38885 -2.33783,-0.53213 -2.72344,-0.82747 -2.61929,-2.00611 -2.99505,-2.34052 -4.5352,-3.55104 -0.34898,-0.27424 -3.77055,0.97484 -3.71908,1.215 0.64816,3.02396 0.15838,5.08306 -0.68547,7.28314 -8.25782,-4.70113 -9.44961,-5.95823 -13.84797,-14.83109 z"
       id="rect5532-4-3"
       inkscape:connector-curvature="0"
       sodipodi:nodetypes="ccssssssssssssscc" />
    <path
       inkscape:connector-curvature="0"
       style="opacity:1;fill:#000000;fill-opacity:1;fill-rule:nonzero;stroke:none;stroke-width:1.0629921;stroke-linecap:butt;stroke-linejoin:miter;stroke-miterlimit:4;stroke-dasharray:none;stroke-opacity:1"
       d="m 133.7028,382.06548 a 35.1875,35.5625 42.470222 0 0 -49.967348,2.47307 35.1875,35.5625 42.470222 0 0 -9.065408,28.89072 29.961168,31.454885 42.470222 0 1 8.531548,-21.48089 29.961168,31.454885 42.470222 0 1 43.338718,-2.97233 29.961168,31.454885 42.470222 0 1 0.86136,43.43199 29.961168,31.454885 42.470222 0 1 -25.31168,10.48971 35.1875,35.5625 42.470222 0 0 33.55606,-10.84151 35.1875,35.5625 42.470222 0 0 -1.94325,-49.99076 z"
       id="path6813-0" />
  </g>
</svg>
